<?xml version="1.0" encoding="utf-8"?>
<!-- Generator: Adobe Illustrator 18.1.0, SVG Export Plug-In . SVG Version: 6.00 Build 0)  -->
<svg version="1.1" id="Layer_1" xmlns="http://www.w3.org/2000/svg" xmlns:xlink="http://www.w3.org/1999/xlink" x="0px" y="0px"
	 viewBox="0 0 516.2 223.6" enable-background="new 0 0 516.2 223.6" xml:space="preserve">
<g id="HlcA1z_1_">
	<g>
		<g>
			<path fill="#FFFFFF" d="M258.8,223.5c-83.6,0-167.2-0.1-250.8,0.2c-5.5,0-6.6-1.1-6.6-6.6c0.2-69.9,0.2-139.9,0-209.8
				c0-4.8,1-5.8,5.8-5.8c167.7,0.2,335.5,0.2,503.2,0c4.8,0,5.8,1,5.8,5.8c-0.2,70.2-0.2,140.4,0,210.6c0,4.8-1,5.8-5.8,5.8
				C426.6,223.4,342.7,223.5,258.8,223.5z M163.9,101.1c-1,0.7-2.1,1.4-3.1,2.1c-3.5,1.5-7.3,2.4-9.9,5.5c-3.1,1.3-6.2,2.7-9.2,4
				c-2.3,0.9-4.5,1.8-6.8,2.7c-2.6,0.7-5.2,1.4-7.8,2.2c-2.9-0.5-5.8-0.6-8.4,1.1c-9.6,0.1-19.3,0.3-28.9,0.4
				c-3.2-0.2-6.3-0.3-9.5-0.5c-6.4-2.3-12.9-1.1-19.4-1.3c-6.7-2.7-14-1-20.7-3.2c-1.6-0.7-3.1-2-5.1-1.6
				c-9.8-5.2-14.4-13.7-15.8-24.4c-0.2-1.5-0.7-3.1-1.4-4.5c-0.9-1.9-2.1-4.1-4.7-3.5c-2.3,0.6-3.3,3-3.3,5
				c-0.3,18.3,1.7,32.7,23.8,41.9c2.4,3.3,6.2,3.6,9.7,4.4c2.6,0.7,5.2,1.3,7.9,2c3,2.9,6.6,0.9,10,1.1c1.5,0.2,3,0.3,4.5,0.5
				c5.7,2.6,12,0.9,17.8,2.8c4.8,0,9.6-0.1,14.4-0.1c6.1,0.1,12.3,0.9,18.2,0c8.5-1.3,17-1.7,25.5-1.4c-5.3,3.8-13.1,4.8-14.6,12.9
				c2.4,7.4,5.1,14.6,9.4,21.1c0.1,1.2,0.2,2.5,1.4,3.2c2,6,6.5,10.5,9.9,15.7c-0.2,7.9,5.7,1.9,8.2,3.5c-1.3,3.7-5.1,0.6-7.2,2.1
				c1.4,4.1,5.7,1.3,7.4,3.9c3.6,3.6,7.3,1.6,11,0.1c3.6-0.3,6.6-1.1,6.4-5.7c-0.1-2.1,1.2-2.6,3-2.2c1,5.7,5.9,6.4,10,8.1
				c3.4,1.4,6.5,1.9,8.6-2.3c2.1-4.2,4-8.2,0.5-12.4c-2.3-2.8-4.9-5.5-7.4-8.2c-0.6-1-1.3-2-1.9-3c-1-2.1-0.9-3.3,2-3.5
				c3.1-0.2,6.3,1.2,9.2-1c1.6-0.2,3.2-0.4,4.7-0.6c7.3-0.3,14.1-2.4,21.1-4.2c1.7-0.6,3.4-1.2,5.1-1.8c6.9-0.8,13.9-1.2,20.6-3.2
				c3.2-0.1,6.5-0.3,9.7-0.4c5.7,2.4,11.7,2.6,17.8,3.3c6.9,0.9,13.9-2.1,20.8,0.1c1.5,1.3,3,2.7,4.5,4c8,6.7,18.1,8.5,27.5,12.1
				c1.8,2.3,4.4,2.4,7,2.9c2,0.8,4.1,1.5,6.1,2.3c4.3,1.5,8.6,2.9,12.9,4.4c1,0.1,2,0.2,3.1,0.2c0.3,1.6,1.7,1.6,2.9,1.9
				c7.6,1.9,13.6,7.8,21.6,8.6c3.4,0.7,4.3,5,7.8,5.5c2.1,2.3,4.6,3.6,7.9,3c1.6,0,3.2,0,4.8,0.1l0.3,0.2c5.2,3.4,9.8-1.1,14.7-1
				c-1.2-3.5,3.7-7.2-0.4-10.6c-3.8-8.4-12.7-8.7-19.5-12.4c-4.4-2.8-8.7-5.7-13.1-8.5c-2.5-1.6-5.1-3.3-7.6-4.9c-1-0.5-2-1-3-1.6
				c-1.8-4.5,2.7-4.4,4.6-6.1c2.6-0.3,4.7-1.4,6.6-3.1c0.5,0,1-0.1,1.4-0.3c4.9-1,9.9-1.6,14.2-4.4c1.1,1.2,2.2,2.4,3.3,3.6
				c1,1.5,2.1,3,3.1,4.6c0,0.5,0.2,0.9,0.6,1.3c2.6,4.3,6.4,7.2,10.5,9.8c1.6,2.6,4.7,3.2,7,4.7c6.9,4.9,13.7,9.7,20.6,14.6
				c1.6,1.5,3.2,3,4.8,4.5c3.9,7,11,9,18,11.1l0.1,0.1c3.9,4,9.5,2.9,14.2,4.8c8.3,1.6,14.1-0.7,13.2-5.4
				c-1.2-6.3-3.9-13.1-10.8-14.2c-5.4-0.9-8.9-4.3-13.4-6.2c-1.2-0.7-2.3-1.4-3.5-2.1c-3.5-2.6-7.1-5-9.4-8.8
				c-2-3.1-3.3-6.6-6.6-8.7c0.3-0.4,0.4-0.7,0.2-1.2c-0.5-3.3-2.5-5.4-5.3-6.9c-3.2-3-6.5-5.9-9.7-8.9c0.1-3.9-2.4-5.6-5.7-6.5
				c0.4-0.6,0.7-1.2,1.1-1.8c-1.5-3.2-3-6.4-4.5-9.6c-0.7-1-1.4-2-2.2-3c0.5-5.2,1.1-10.3-1.5-15.2c0-0.9,0-1.7,0-2.6
				c-3.1-3.4-0.3-8.1-2.6-11.8c-0.7-3.6-1.5-7.3-2.2-10.9c0.8-2.1-0.8-3.4-1.5-5c0.4-2.7,0.8-5.4,1.2-8.1c0.1-1.6,0.3-3.2,0.4-4.7
				c2.2-2.3,1.9-5.1,1.9-7.9c0-1.6,0-3.3,0-4.9c0-1.1-0.1-2.2-0.1-3.3c0.5-1.1,1-2.1,1.4-3.2c2.4-2.1,1.5-5.1,2-7.7
				c1.7-3.2,1.1-6.6,1.2-9.9c1.8-2.6,1.8-5.5,1.7-8.5c-0.2-7.5-3-9.1-9.5-5.5c-4,2.2-7.2,5.4-9.9,9.1c-2.7,2.7-5.3,5.5-8,8.2
				c-8.6-0.6-17.1-1.3-25.7-1.9c-3.3-4.2-6.6-8.4-9.8-12.6c-1.3-2-2.5-4.1-3.8-6c-2-2.8-4.6-4.6-8.1-3.7c-3.9,1-4.3,4.3-4.3,7.6
				c-2.4,6.4-0.8,13.1-1,19.6c0.5,3.8,1,7.5,1.4,11.3c-3.1,7.4-0.6,14.8,0.2,22.2c-0.1,0.6-0.2,1.2-0.3,1.8
				c-0.1,0.5-0.2,1.1-0.3,1.6c-1.8,1.9-1.2,4.3-1.1,6.5c-0.2,0.4-0.3,0.9-0.2,1.3c-9.9,0.9-18.9-3.9-28.6-4.8
				c-20.9-3.2-41.9-3.8-62.9-2.8c-1.6,0-3.2,0-4.8,0c-1.2,0.4-2.4,0.7-3.5,1.1c-12.4,0.5-24.9,0.2-37.1,3.2c-1.5,0.1-3,0.3-4.4,0.4
				c-8,1.2-15.7,3.3-22.6,7.7l0,0c-4.2,0.5-8.1,1.9-11.1,5c-1.1,0.5-2.2,1-3.3,1.5C167.8,98.2,165.5,98.9,163.9,101.1z"/>
			<path fill="#393024" d="M320.2,81.8c9.7,0.9,18.7,5.7,28.6,4.8c-1.2,3.8,1.5,4.9,4.1,6.1c-0.9,0.6-1.7,1.1-2.6,1.7
				c-2.9-1.8-5-0.9-6.2,2.1c-2.7,2.1-5.4,4.2-8.1,6.3c-7.2,4.5-4.8,13.5-9.7,19.5c3.6,0.5,7.4,0,6.8,4.8c-2,0.9-3.9,2.3-5.9,2.4
				c-4.6,0.4-6.7,2.1-6.7,6.6c0,2.4,0.7,4.7,1.1,7c-2.1,1.6-4.3,3.2-6.4,4.8c-1.7-0.5-1.7-1.9-1.6-3.3c1.5-1.5,3.1-2.9,2.5-5.8
				c-2.3,0.9-3.4,2.4-3.8,4.6c-2.7,4.2-5.5,8.3-8.2,12.5c-3.3,2.9-1.1,6.9-2,10.3c-1.5-1.3-3-2.7-4.5-4c0.5-3.3-0.3-6.6-2.3-9.1
				c-3.5-4.1-2.9-7.9,0.3-11.4c1.5-1.5,1.5-3.2,2.2-4.9c4-10.1,2.5-20.3,1.5-30.6c4.2-7,6.3-15.2,12.1-21.3
				C314.8,85.5,316.6,81,320.2,81.8z M317,119.3c3.8-0.6,1.8,4.4,5.4,5.4c2.4-8,5.2-15.5,6.9-23.3c1.7-7.5-4-15.5-9.4-14.4
				c-3-0.3-4,1.7-5.2,3.9c-4.4,8.2-7.9,16.7-8,26.3c-3.8,1.3-2.4,4.3-2.5,6.9c0.5,7.3-0.6,14.5-2.8,21.6
				C308.9,138.1,313.6,129.1,317,119.3z"/>
			<path fill="#CDB792" d="M141.6,136.6c-8.5-0.3-17,0.1-25.5,1.4c-5.9,0.9-12.1,0.1-18.2,0c0.2-5.5-4.4-1.6-6.2-3.2
				c-1.4-2-4-3.8,0.3-5.8c3.1-1.4,5.8-3.3,9.4-2.2c3.2,0.9,5.7,3.5,9.2,3.2c4.4,0.1,7.5-3.3,11.4-4.6c5.1,5,12.8,4.2,15.9-2.3
				c1.6-3.3,3.5-4.4,6.7-4.3c7.9,2.6,3.7,8.1,3.2,12.8c-0.5,0.6-1,1.1-1.5,1.7C144.8,134.5,143.2,135.5,141.6,136.6z"/>
			<path fill="#B69F74" d="M299.2,106.2c0.9,10.3,2.5,20.5-1.5,30.6c-0.7,1.7-0.7,3.3-2.2,4.9c-3.3,3.5-3.8,7.3-0.3,11.4
				c2,2.4,2.8,5.7,2.3,9.1c-6.9-2.2-13.9,0.8-20.8-0.1c2.8-1.2,1.9-3.6,1.7-5.7c1-0.2,2.1-0.5,3.1-0.7c0.4,0.2,0.9,0.4,1.3,0.7
				c7.7-1.3,7.8-5.9,5.3-11.8c-0.5-3.3-1.4-6.4-5-2.3c-1.4,1.6-1.8,3.3-3.8,0.9c0.7-2.1,1.5-4.1,2.2-6.2c2.3-2.3,0.5-7,4.8-8.1
				c4-7.8,10.2-14.7,9.4-24.3C296.9,105.1,298,105.7,299.2,106.2z"/>
			<path fill="#78532A" d="M472.8,188c4.5,2,7.9,5.3,13.4,6.2c6.9,1.1,9.6,7.9,10.8,14.2c0.9,4.8-4.9,7-13.2,5.4
				c0.3-0.5,0.6-0.9,0.8-1.4c1.1-2.6,4.2-5.7,1.2-7.9c-3.8-2.8-4.1,2.2-5.9,3.9c-0.7,0.7-1.9,1.4-2.7,1.3c-1.8-0.3-1.5-1.9-1.1-3.2
				c0.4-1.4,2-3.1-0.7-3.6c-2.2-0.4-2.7,1.4-2.8,3c-0.1,2.1-1.3,2.7-3.1,3c0,0-0.1-0.1-0.1-0.1c-0.3-7.1-4.9-9.5-11-8.8
				c-2.6,0.3-3.3-0.4-3.7-2.5c1.8-4.4,5.6-6.4,9.7-8C468,192.9,470.5,191.1,472.8,188z"/>
			<path fill="#B09F88" d="M122.1,125.5c-3.9,1.3-6.9,4.6-11.4,4.6c1.3-3,2.7-8.7,1.3-9.1c-4.5-1.3-9.6-1.1-14.8,0.2
				c1.7,2.2,3,3.9,4.2,5.6c-3.6-1.1-6.3,0.7-9.4,2.2c-4.4,2-1.7,3.8-0.3,5.8c-2.3,0-4.6,0-6.9,0.1c-2.6,0.1-1.9,1.7-1.2,3.1
				c-5.8-1.9-12.1-0.2-17.8-2.8c1.9-4.7-3-4-4.7-5.1c-6.6-4.1-6.8-8.4-0.1-12.8c6.5,0.2,13.1-1,19.4,1.3c-2.9,0.1-5.8,0.1-8.7,0.2
				c-1.5,0.1-3.5-0.7-3.9,1.5c-0.2,1.1,0.3,2.9,1.1,3.6c3.9,3,7.7,8.9,12.6,7.1c4-1.5,7.1-6.8,8.4-11.8c9.6-0.1,19.3-0.3,28.9-0.4
				c0.2,0.2,0.5,0.4,0.7,0.7c0.9,1.5,1.8,2.9,2.7,4.4C122.1,124.3,122.1,124.9,122.1,125.5z"/>
			<path fill="#261B11" d="M425.8,112.9c0,0.9,0,1.7,0,2.6c-2.6,2.7-5.2,5.4-7.8,8.1c-1.7,2.1-4,3-6.4,4.2
				c-5.4,2.6-12.1-1.5-16.9,3.3c-3.8-4.2-7.7,3.9-11.3,0.1c-6.4-6.7-15.2-7.8-23.3-10.6c-2.1-2.3-4.2-4.6-6.3-6.9
				c-0.1-1.8-0.8-3.2-2.1-4.6c-2-2.2-1.5-4.2,1.9-4.5c0.5,4,3.5,6,6.6,7.4c8.3,3.6,16.7,6.9,25.1,10.1c6.7,2.5,13.4,2.9,19.8-1.3
				c4.4,2.5,7.8-0.4,11.5-1.9C419.9,116.9,421.4,112.7,425.8,112.9z"/>
			<path fill="#1F1C18" d="M33.7,127.2C11.7,118,9.7,103.6,10,85.4c0-2,1.1-4.5,3.3-5c2.5-0.6,3.7,1.6,4.7,3.5
				c0.7,1.4,1.2,2.9,1.4,4.5c1.4,10.7,6.1,19.2,15.8,24.4C30.3,117.1,31.4,122.1,33.7,127.2z"/>
			<path fill="#332C22" d="M302,166.2c0.9-3.4-1.3-7.4,2-10.3c1,0.7,1.3,3.5,2.4,2.4c4.4-4.2,10.8-2.1,15.4-5.3
				c7.3,1.4,13.5-3.6,20.6-3.5c1.7,0.9,3.4,1.7,5.1,2.6c-0.1,0.8-0.2,1.6-0.3,2.4c-6.1,0.3-10.6,4.1-15.5,7.1
				c-2.5,1.5-1.5,3.6-0.7,5.6c-4.9,3.1-3,7.2-1.6,11.2C320.1,174.7,310,172.9,302,166.2z M324.3,156.2c-6.5,1.5-9.5,5.4-11.1,10.3
				c-0.2,0.5,3.9,3.6,4.9,3.2C323.2,167.2,323.7,162.1,324.3,156.2z"/>
			<path fill="#806039" d="M188.4,176.6c2.5,2.7,5.1,5.3,7.4,8.2c3.4,4.2,1.6,8.3-0.5,12.4c-2.1,4.2-5.2,3.7-8.6,2.3
				c2.9-1.7,1.9-3.2-0.2-4.6c2.5-0.1,4.7-0.4,4.7-3.7c-1.9-0.6-3.3,2.3-5.2,0.3c-0.5-0.5-1.8-3.1-2.3,0c-0.1,0.8,1,1.8,1.5,2.6
				c-10.2-1-3.5-5.7-2.1-9.3c-0.5-1.6-1.7-1.8-3.1-1.6c-2.1,0.3-1.3,1.8-1.3,3.1c-1.4,0.7-4-0.6-4.3,1.7c-0.2,1,1.5,2.3,2.3,3.4
				c-1.8-0.4-3.1,0-3,2.2c0.2,4.6-2.8,5.4-6.4,5.7c-0.4-2.1,3.2-4.2,0-6.3c-1.1-3.4,1.1-9.5-6.3-7.9c-0.1-0.5-0.1-1.1-0.2-1.6
				c-0.2-1.6-3.7-5.3,2-3.2c1.9,0.7,3.9,1,5.9,1.5c4,0.7,2.9-3.6,4.8-4.9c0.2,1,0.4,2.1,0.5,3.1c2.8-3.7,8.3,3.5,9.3-1.2
				C184.4,173.6,187.1,178.1,188.4,176.6z"/>
			<path fill="#7E5C36" d="M350.2,78.7c0.1-0.5,0.2-1.1,0.3-1.6c3.1-0.8,6.8-0.4,8.8-3.6c0.1-0.2-2.2-2.6-2.5-2.4
				c-2.1,1.2-4,2.8-6,4.2c-0.8-7.4-3.3-14.8-0.2-22.2c1.4-1,2.8-2,4.7-1.3c0.2,1.3,0.2,1.9,2.2,1.8c3.8-0.2,8.1-0.9,11.1,2.9
				c-0.2,5.7-7.5-0.3-8.1,5.4c6.2-0.5,12.3-0.5,14,7.3c-0.4,0.1-0.7,0-1.1,0c-1.8-4.9-3.5-1.3-5.3,0c-0.6-1.5,1-3.9-1.6-4.7
				c-0.4-0.1-1.4,0.7-1.5,1.2c-0.5,2.5,1,3.3,3.2,3.3c0.4,1.8,2,1.5,3.2,1.9c0.5,1,1,2,1.4,3.1c-0.3-0.1-0.7-0.2-1.1-0.2
				c-5.1-1.5-9.6-3.9-11.2-10.6c-3.2,4.7-0.7,6.3,1.4,8.3c2.3,2.2,6.1,2.1,7.5,5.5c-1.5,0.7-3.1,1.3-4.6,2c-1.2,0.5-2.3,1.1-3.5,1.5
				c-1.8,0.6-4.6-1.3-5.5,1.3c-0.9,2.7,2.6,3.5,3.6,5.6C353.9,87,352.2,82.8,350.2,78.7z"/>
			<path fill="#936A3D" d="M168.7,181.7c-2-0.5-4-0.8-5.9-1.5c-5.7-2.1-2.3,1.5-2,3.2c-6.6,2.8-1.5,5.4,0.2,8c2.1,0.9,2.9,2.6,3,4.8
				c-2.2,2.6-4.3-0.5-6.5-0.1c-0.1-1.3-0.3-2.4-1.6-3c-2.5-1.6-8.4,4.4-8.2-3.5c2.1-6-1.1-10.8-4.1-15.3c-1-1.5-3.7-3.7-5.8-0.3
				c-1.2-0.7-1.3-2-1.4-3.2c2.7-5.3,5.1-2.3,7.9,0c1.8,1.4,4.2,2.7,6.3,1.1c1-0.7-0.1-2.4-1.4-3.1c0.8-0.9,1.5-1.7,2.3-2.6
				c-1.2-0.1-2.4-0.2-3.6-0.4c0-0.5-0.1-1-0.1-1.5c1.6-1.1,3.2-2.2,4.7-3.3c1,0.5,2.1,1,3.1,1.6c3.4,4.2,5.1,10.1,11.5,11.2
				C164.6,176.9,167.4,179.2,168.7,181.7z"/>
			<path fill="#99805E" d="M387.4,159.1c-0.4,0.2-0.9,0.3-1.4,0.3c-4-2.8-4.7-2.5-6.6,3.1c-1.9,1.8-6.4,1.6-4.6,6.1
				c-0.7,2.8-2.3,3.9-4.2,1.3c-1.7-2.4-3.4-2-5.4-1c-4.3,2.6-7.5-1.4-11.4-1.7c0.1-1.3,0.1-2.6,1.4-3.3c2.8-0.6,5.8-0.8,6.8-1.9
				c-2-2.8-3.7-5.1-5.3-7.4c2.9-1.5,1.1-3.2,0.2-4.9c6.4,0.6,13-2.1,19.1,1.6c-0.8,2.4-1.5,4.3-4.6,1.7c-1.7-1.4-4.3-0.4-4.9,2.2
				c-0.9,3.4,2.6,1.7,3.7,2.4c4.2,2.6,6.5,0.6,7.9-6.5c1.5-0.6,1.7-1.8,1.3-3.2c4.3,1.6,8.7,3.1,13,4.7
				C394.2,157.5,386.1,154.7,387.4,159.1z"/>
			<path fill="#D2BC9D" d="M419.5,85.1c0.7,1.6,2.3,3,1.5,5c-5.7,1.4-6.2,3.3-3.1,12.7c-4-0.9-6.3,2-8.7,4.3
				c-3.4,3.3-6.9,6.3-11.7,7.3c-2.2-2.8-3.4-5.8-3.6-9.4c-0.3-7.2,6.8-4,9.5-6.9c1.4-0.2,3.1,0.4,4.1-1.1c0.5-0.8-0.1-1.5-0.9-1.6
				c-1.8-0.1-2.5,1.4-3.2,2.7c-2-0.1-4,0-5.1-2.1c0.7-2.6,1.3-5.1,2-7.7c1.1-1.6,2.1-3.1,3.2-4.7c0.6-0.1,1.3-0.3,1.9-0.4
				c2.5,1.2,5.6-0.3,7.9,1.9c0.4,4-3.9,4.6-5.3,7.4c3.2-1.4,7.7-0.9,8.2-5.9c0.6-0.5,1.1-1,1.7-1.6C418.4,85.1,419,85.1,419.5,85.1z
				 M398.3,103.4c0.1,0.7,0.3,1.4,0.4,2.1c3.5-1.4,7.6-1,11-4.2c-0.9-0.5-1.4-1-1.8-0.9C404.6,101.3,401.5,102.4,398.3,103.4z"/>
			<path fill="#73512A" d="M398.6,183.6c6.8,3.7,15.7,4,19.5,12.4c-1.3,2.3-3.2,4.1-3.8,3.6c-4.6-3.4-6.8-1-7.4,3.5
				c-0.3,2.3-0.3,4.2-3.1,4.4c0,0-0.3-0.2-0.3-0.2c1.8-3.8,3.2-7.4-3.1-8c-2.8,0.6-0.3-7-5.1-3.3c-4.2,1-6.4-6.4-11.5-2.8
				c-0.8,0.6-0.9-1.3-0.9-2.3c0-1.1,2.5-3-0.6-3.1c-1.7-0.1-2.7,1.4-2.8,3.2c-2.7,0.7-3.6-0.2-2.8-2.9c1.5-1,2.9-2,4.4-3
				c0.6-1.9,1.3-3.8-1.8-3.8c1.2-1,2.3-2,3.5-2.9C390.8,189.4,389.4,190.6,398.6,183.6z"/>
			<path fill="#463522" d="M376.2,36.8c8.6,0.6,17.1,1.3,25.7,1.9c0.3,4.7,3.3,0.7,4.8,1.5c0,2.1-0.1,4.2-0.1,6.3
				c-2.2,0-3,1.3-3,3.3c-1.4-0.2-2.4-4.5-4.2-0.2c-0.9,2.1-2,4.2-4.2,5.3c-4.3,0.4-2,4.1-3,6.1c-1,0.5-2,1-2.9,1.5
				c-0.1-2.1-0.2-4.1-0.2-6.2c2-1,0.4-2.1,0-3.1c6.6-2,1.3-6.6,2.2-9.7c-0.7,1.1-1.4,2.2-2.1,3.2c-2.1,0.5-4.2,2.2-5-2
				c-1-4.7-4.4-4.7-7.5-1.7c-1.2,1.2-1.5,3.3-2.2,4.9c-4-1.6-4.8-5.3-4.5-8.8C370.4,35.1,374.7,39.1,376.2,36.8z"/>
			<path fill="#A57F4F" d="M149.3,168.6c1.3,0.7,2.4,2.4,1.4,3.1c-2.1,1.6-4.5,0.3-6.3-1.1c-2.8-2.3-5.3-5.3-7.9,0
				c-4.4-6.5-7.1-13.8-9.4-21.1c3.5-0.4,4.3,2.8,6.1,5.7c0.2-3.7,0.4-6.3,0.5-9c2.7,1.7,0.1,5.1,2.5,7.4c1.2-1.5,2.3-2.8,3.4-4.2
				c3.7,10.5,4.1,10.7,15,6.4c4.4,1.1,2.9-5.1,6.3-5.1c0.9,4.3-1.7,6.6-5,8.5c-0.1,1.1-0.1,2.2-0.2,3.3c-1-0.5-2.1-1-3.1-1.6
				c-2.4-0.2-5.3-1-4.7,3.3c0,0.5,0,1,0.1,1.5C147.8,166.9,148,167.9,149.3,168.6z"/>
			<path fill="#1C1611" d="M438.5,151.5c3.2,3,6.5,5.9,9.7,8.9c-8.1-3-10.6,2.2-12.5,8.4c-1.1,1.6-2.1,3.3-3.2,4.9
				c-2.1,1.7-2,6.2-6.4,5c-2.3-1.6-5.4-2.1-7-4.7c0.7-5.8,8.2-7.2,8.4-13.2C430.8,157.2,433.8,153.3,438.5,151.5z"/>
			<path fill="#352E25" d="M61,117.4c-6.7,4.4-6.5,8.7,0.1,12.8c1.7,1.1,6.6,0.3,4.7,5.1c-1.5-0.2-3-0.3-4.5-0.5
				c-2.5-7.3-6.8,0.6-10-1.1c-2.6-0.7-5.2-1.3-7.9-2c-1.1-4-1.2-8.2-3.9-11.7c-1.4-1.7-0.9-3.9,0.7-5.7
				C47,116.5,54.3,114.7,61,117.4z"/>
			<path fill="#D6A667" d="M432.5,173.6c1.1-1.6,2.1-3.3,3.2-4.9c5.6-3.9,11.8-2.3,17.8-1.5c0.2,0.4,0.1,0.8-0.2,1.2
				c-0.4,1.7-4.9,3.7-0.2,4.9c3.4,0.9,2.4,3.4,3.3,5.2l0.1-0.1c-1.9-0.2-3.7,0-5,1.6c-3.6,3.9,1.7,7.6,0.3,11.5
				c-2.1-2.2-4.3-4.4-6.4-6.6c0.4-1.9,2.7-3.6,0.7-5.6c-0.6-0.6-2.2-0.7-2.9-0.3c-3.2,1.9,1.5,3.9,0,5.9
				C437.8,183,435.3,178.2,432.5,173.6z"/>
			<path fill="#B39682" d="M406.5,46.6c0-2.1,0.1-4.2,0.1-6.3c0.7-3.3,5.7-5.3,3.2-9.7c2.7-3.7,5.9-6.9,9.9-9.1
				c6.5-3.6,9.3-2,9.5,5.5c0.1,2.9,0.1,5.9-1.7,8.5c-2.5-2.1-1.3-5-1.6-7.5c-0.2-1.8,0.5-4-1.9-4.8c-2.2-0.7-3.2,1.3-4.6,2.4
				c-4,3.2-5.5,8-7.1,12.3c-2.7,6.9,0.1,9.2,7.6,7.5c2-0.5,4.3-3.1,6.4,0.1c-0.5,2.6,0.4,5.6-2,7.7c-0.1-6.1-2.5-4.6-5.4-1.7
				c-2.5,2.5-4.9,6.1-8.7,1.5c-0.6-0.5-1.2-1-1.8-1.5C408.3,49.5,408.8,47.5,406.5,46.6z"/>
			<path fill="#A98264" d="M376.2,36.8c-1.5,2.3-5.8-1.7-6.2,2.3c-0.3,3.5,0.5,7.2,4.5,8.8c1.1,0.1,2.2,0.2,3.3,0.2
				c-0.5,2.3,0.2,4.5,1,6.6c-0.9,0-1.9-0.1-2.8-0.1c-0.9,0.1-1.9,0.2-2.8,0.3c-1.5-3-1.5-3-4.7,1.5c-2.9-3.8-7.3-3.1-11.1-2.9
				c-2,0.1-2-0.5-2.2-1.8c-0.1-5.4,3.8-4.5,8-3.4c-2-2.8-3.4-4.7-4.7-6.5c1.6-0.6,3.2-1.2,4.8-1.8c5-2.1,5.1-5.8,3.7-10.2
				c-0.6-1.8-3.3-3.4-0.6-5.5C369.7,28.5,372.9,32.6,376.2,36.8z"/>
			<path fill="#AC9471" d="M259,158.8c-3.2,0.1-6.5,0.3-9.7,0.4c-3.7-1.6-8.9,2.8-11.4-3.1c3.6-3.1,0.2-4.7-1.5-6.7
				c3.6-5.8,8-4.6,12.7-1.6c-3.6,5.7,3.9,5.5,4.8,9.2c-0.5-3.8,5-5.1,3.2-9.1c2.9,0.9,5.7,0.9,8.6-0.4c3.3,5.1,4.8,9.5-4,9.6
				C260.7,157.2,259.8,158.3,259,158.8z"/>
			<path fill="#877965" d="M184.8,91.5c6.9-4.5,14.6-6.6,22.6-7.7c-0.4,1.3-1.9,3.1,0.9,3.1c2.1,0,3.9,0.3,5.5,1.7
				c2.2,4.1,4,9.6,9.7,3.1c1.7,1.5,3.4,3,5.1,4.5c-1.2,1.7-2.3,3.4-3.5,5c-2.6-1-3.8-5.1-7-3.9c-2.1,0.8-0.7,3.8-1.2,5.7
				c-1.9-1.3-1-5.3-4.7-4.9c0.1-2.7,2.2-5.2-0.9-7.9c-3.2-2.8-7-1.8-9.5-1c-4.7,1.5,0.9,2.4,1,3.9c-2.1,2.2,2.5,4.8-0.5,6.9
				c-2.7-2.6-6.3-1.2-9.4-2.1c-1.1-1.1-2.2-2.1-3.3-3.2C189.6,91.1,186.8,91.9,184.8,91.5z"/>
			<path fill="#C9ABA3" d="M426.4,45.3c-2.1-3.2-4.4-0.5-6.4-0.1c-7.4,1.7-10.3-0.5-7.6-7.5c1.7-4.3,3.2-9.1,7.1-12.3
				c1.4-1.2,2.4-3.1,4.6-2.4c2.4,0.8,1.6,3,1.9,4.8c0.4,2.6-0.8,5.4,1.6,7.5C427.5,38.7,428.1,42.1,426.4,45.3z"/>
			<path fill="#8B7256" d="M410.3,52.9c3.8,4.6,6.2,0.9,8.7-1.5c2.9-2.9,5.3-4.4,5.4,1.7c-0.5,1.1-1,2.1-1.4,3.2
				c-2.9-0.1-4.7,1.9-6.5,3.5c-2.6,2.4,0.3,2.6,1.7,3.2c-1,0.7,1.6,3.6-2.1,2.8c-3.3-0.7-1.6,1.8-1.1,3.2c-0.7,0.7-1.4,1.4-2.1,2.1
				c-1.3-0.8-2.4-2.1-4.2-1.6c-0.1-1.1-0.3-2.3-0.4-3.4c1,0,2.6,0.2,2.8-0.1c0.4-1.1-9.9-7.8-11-7.3c-0.4,0.2-0.8,0.7-1.1,1.1
				c-1-5-2.2-0.7-3.4-0.1c-0.1-1.5-0.3-3-0.4-4.6c2.2-1.1,3.3-3.2,4.2-5.3c1.7-4.3,2.8,0,4.2,0.2c0,0-0.1-0.1-0.1-0.1
				C403.8,55.1,406.9,54.2,410.3,52.9z"/>
			<path fill="#261F19" d="M355.2,163.9c-1.3,0.8-1.4,2-1.4,3.3c-2.1,1.7-4.2,3.3-6.3,5c-1.5,0.4-2.8,1.1-3,2.8
				c-0.2,1.7,1.4,1.7,2.5,2.1c0.2,1,0.5,1.9,0.7,2.9c-0.4,3.2-2.4,3.9-5.2,3.6c-2-0.8-4.1-1.5-6.1-2.3c-0.3-4.2-0.8-8.5,1.2-12.5
				c2.8-3.6,5.8-6.7,10.8-6.6C351,161.5,353.8,160,355.2,163.9z"/>
			<path fill="#574D3D" d="M320.2,81.8c-3.6-0.8-5.4,3.7-8.9,3.1c-8-4.4-12.5,3.1-18.6,5.4c1.2-1.9,2.4-3.9,4.1-6.5
				c-6.2,0-11.5-4.6-17.2-0.1c-0.5,0.1-1,0.1-1.5,0c-1.5-4.3-4.4-1.6-6.7-1.4c-0.5,0-0.9-0.1-1.3-0.3c-1.2-1.9-2.3-1.5-3.4,0.1
				c-0.5,0-1-0.1-1.5-0.2c-1.2-2.1-3.2-2-4.9-1.2c-1.3,0.6-0.2,1.7,0.3,2.6c-1.1,0.1-2.3,0.2-3.4,0.3c0-1.5,0.1-3,0.1-4.5
				C278.4,78,299.3,78.6,320.2,81.8z"/>
			<path fill="#706959" d="M223.4,91.6c-5.6,6.5-7.4,1-9.7-3.1c1.5-1.5,4.5-0.7,5.9-3.5c-2.9-0.6-5.3-1.1-7.8-1.7
				c12.2-3.1,24.7-2.7,37.1-3.2c0.2,0.2,0.4,0.4,0.5,0.6c0.1,0.2,0.1,0.6,0,0.7c-2.1,2.8-8.4-0.8-8.2,5.5c0,0,0,0,0,0
				c-1,0.5-2.1,1.1-3.1,1.6C234,83.9,229.2,85,223.4,91.6z"/>
			<path fill="#1D160F" d="M408.7,164c-0.4-0.3-0.6-0.7-0.6-1.3c0.3-2.4,5-3.9,2.3-6.7c-2.2-2.3-4.2-0.2-5.4,2.1
				c-1.1-1.2-2.2-2.4-3.3-3.6c0.6-1.7,2-1.8,3.5-2c5.9-2.1,11.9-4.2,17.8-6.3c3.7-0.9,6.9-3.8,11.1-3.1c-0.4,0.6-0.7,1.2-1.1,1.8
				c-5.1,0.1-5.5,5.2-8.3,7.8C420.5,158.3,414.7,161.3,408.7,164z"/>
			<path fill="#BF8C52" d="M451.9,191.5c1.4-3.9-3.9-7.6-0.3-11.5c2.8,2.8,3.7,0.3,5-1.6c0,0-0.1,0.1-0.1,0.1
				c1.3-0.2,2.7,0.1,3.4-1.4c2.3,3.8,5.9,6.2,9.4,8.8c-2.8-0.3-3.1,2.7-4.9,3.7c-4.1,1.6-7.9,3.6-9.7,8c-1.1,0.1-2.1,0.1-3.2,0.2
				c-1.6-1.5-3.2-3-4.8-4.5C447.9,190.9,450.8,194.1,451.9,191.5z"/>
			<path fill="#D5B0A5" d="M363.3,40c-1.6,0.6-3.2,1.2-4.8,1.8c-3.2,1.7-6.2-7.3-9.4,0c0.1-6.6-1.5-13.2,1-19.6
				C359,24.7,363.9,30.4,363.3,40z"/>
			<path fill="#D2A184" d="M363.3,40c0.6-9.7-4.3-15.3-13.3-17.9c0.1-3.3,0.4-6.6,4.3-7.6c3.6-0.9,6.2,0.9,8.1,3.7
				c1.4,2,2.6,4,3.8,6c-2.7,2.2,0.1,3.8,0.6,5.5C368.4,34.2,368.3,38,363.3,40z"/>
			<path fill="#38332A" d="M89.9,119.2c-1.4,5-4.4,10.3-8.4,11.8c-4.8,1.8-8.6-4.1-12.6-7.1c-0.8-0.6-1.3-2.4-1.1-3.6
				c0.4-2.2,2.4-1.4,3.9-1.5c2.9-0.1,5.8-0.1,8.7-0.2C83.6,118.9,86.7,119,89.9,119.2z"/>
			<path fill="#796748" d="M408.7,164c6-2.7,11.8-5.7,15.8-11.2c-0.3,3.1,0.6,5.8,3,7.9c-0.2,6.1-7.7,7.5-8.4,13.2
				C415.1,171.2,411.2,168.3,408.7,164z"/>
			<path fill="#6F6049" d="M259,158.8c0.9-0.6,1.7-1.6,2.6-1.6c8.8-0.1,7.3-4.5,4-9.6c0-3.4,2.2-2.8,4.3-2.4c0.8,3.5,3.4,5,6.7,5.7
				c0.6,1.8,1.2,3.7,1.8,5.5c0.2,2.1,1.1,4.5-1.7,5.7C270.7,161.5,264.6,161.2,259,158.8z"/>
			<path fill="#C3AC85" d="M197.6,169.1c-2.8,2.2-6.1,0.8-9.2,1c-2.9,0.2-3,1.4-2,3.5c-3.1-0.1-4.4-2-4.8-4.8
				c0.7-10.9,1.5-11.4,11-8c0.6,0.7,1.2,1.4,1.7,2.1C194.5,165.5,194.2,168.3,197.6,169.1z"/>
			<path fill="#C8AD8A" d="M376.6,188.2c-0.8,2.7,0.1,3.6,2.8,2.9c1.2,2.6,2.4,5.1,3.5,7.7c-8-0.9-14-6.7-21.6-8.6
				c0.2-0.2,0.4-0.4,0.6-0.7c2.2-0.1,4.2-0.4,4.1-3.3c-1.4,0.2-2.9,0.4-4.3,0.6c-0.5-0.6-1-1.2-1.5-1.8c-0.1-1.1-0.2-2.1-0.3-3.2
				c1-0.5,2-1.1,3-1.6c0.2,0.4,0.4,0.9,0.5,1.4C367.8,183.9,371.6,187.2,376.6,188.2z"/>
			<path fill="#917249" d="M376.6,188.2c-5-1-8.8-4.3-13.1-6.6c6.8-1.3,13.4-2.8,14.4-11.4c2.5,1.6,5.1,3.3,7.6,4.9
				c-2,0.2-3.4,1-2.9,3.4c-1.2,1-2.3,2-3.5,2.9c-2.9,2.9-0.1,3.2,1.8,3.8C379.5,186.2,378.1,187.2,376.6,188.2z"/>
			<path fill="#D1BA96" d="M223.4,164.2c-6.9,1.8-13.8,4-21.1,4.2c0.2-0.5,0.4-1.1,0.6-1.6c2-1.7,1-4.1,1.2-6.2
				c2.9-0.5,6.8,1.9,8.1-3c2.6-0.2,5.1-2.4,7.8-0.1C221.1,159.8,218.9,163.7,223.4,164.2z"/>
			<path fill="#AE9C86" d="M40.3,114.3c-1.6,1.7-2,3.9-0.7,5.7c2.7,3.5,2.8,7.8,3.9,11.7c-3.5-0.8-7.3-1.1-9.7-4.4
				c-2.3-5.1-3.4-10.1,1.4-14.6C37.2,112.2,38.6,113.5,40.3,114.3z"/>
			<path fill="#715639" d="M133.7,146.2c-0.2,2.7-0.3,5.3-0.5,9c-1.8-2.8-2.6-6-6.1-5.7c1.5-8.1,9.3-9.1,14.6-12.9
				c1.6-1.1,3.1-2.1,4.7-3.2c3.4,0.1,3.1,2.6,3.2,4.9c-0.8,2.9,2.2,2.9,3.3,4.4c-1.2,0.4-2.7,0.4-3.3,1.9
				C142.9,138.1,139.6,138.4,133.7,146.2z"/>
			<path fill="#2D1D11" d="M377.8,170.1c-1,8.6-7.6,10.1-14.4,11.4c-0.1-0.5-0.2-1-0.5-1.4c-0.4-4,1.4-7.5,2.2-11.2
				c2-1.1,3.7-1.4,5.4,1c1.9,2.6,3.5,1.5,4.2-1.3C375.8,169.1,376.8,169.6,377.8,170.1z"/>
			<path fill="#C0A17F" d="M451.9,191.5c-1.1,2.6-4-0.7-5.2,1.7c-6.9-4.9-13.7-9.7-20.6-14.6c4.3,1.2,4.3-3.3,6.4-5
				c2.8,4.6,5.2,9.4,10.8,11.3c0.7,0,1.5,0,2.2,0C447.6,187.1,449.8,189.3,451.9,191.5z"/>
			<path fill="#866D4E" d="M151,108.7c2.6-3.1,6.4-4,9.9-5.5c1.8,2.4,3.2,0.4,4.8-0.3l-0.1,0c0.7,1.3,1.8,1.6,3.1,1.6
				c1.7,0.1,3.3,0.3,5,0.4c0,0.3,0,0.7,0,1c-4,4.4-11.8,3.3-14.4,9.8c-2.8-0.9-1.5-12.2-8.2-3.2C151,111.2,151,110,151,108.7z"/>
			<path fill="#BFA475" d="M427.5,160.6c-2.5-2.1-3.4-4.7-3-7.9c2.8-2.6,3.2-7.7,8.3-7.8c3.3,1,5.8,2.6,5.7,6.5
				C433.8,153.3,430.8,157.2,427.5,160.6z"/>
			<path fill="#C6B49F" d="M418,123.5c2.6-2.7,5.2-5.4,7.8-8.1c2.6,4.8,2,10,1.5,15.2c-3.9,3.8-8.8,5.9-13.8,7.9
				c-2.6-2.3,1.2-3,1.2-4.7c1.9-0.6,4.4-0.1,5.1-2.9c3.1-1.8,6.5-3.5,6-8.5c-2.2,1.9-4,3.4-5.8,4.9C418.4,126.6,418,125.1,418,123.5
				z"/>
			<path fill="#B19D78" d="M122.1,125.5c0-0.6,0-1.1,0.1-1.7c0.5,0,1,0.1,1.4,0.3c9.3,1.8,9.3,1.8,11.4-8.6c2.3-0.9,4.5-1.8,6.8-2.7
				c-0.3,2.3,1.3,3.5,3,4.6c0,0.5,0,1,0,1.5c-3.2-0.1-5.1,1-6.7,4.3C134.9,129.7,127.2,130.5,122.1,125.5z"/>
			<path fill="#CCAA76" d="M403.8,207.6c2.9-0.2,2.8-2.2,3.1-4.4c0.6-4.4,2.8-6.9,7.4-3.5c0.6,0.5,2.5-1.4,3.8-3.6
				c4.1,3.4-0.7,7.1,0.4,10.6C413.6,206.5,408.9,211,403.8,207.6z"/>
			<path fill="#8A693F" d="M382.9,198.7c-1.2-2.6-2.4-5.1-3.5-7.7c0-1.9,1.1-3.3,2.8-3.3c3.2,0.2,0.6,2,0.6,3.1c0,1,0,2.9,0.9,2.3
				c5.1-3.6,7.3,3.8,11.5,2.8c-1,3-4.8,4.5-4.5,8.2C387.2,203.7,386.3,199.4,382.9,198.7z"/>
			<path fill="#B9874C" d="M181.6,168.8c0.4,2.8,1.8,4.6,4.8,4.8c0.6,1,1.3,2,1.9,3c-1.2,1.5-4-3-5.1,2c-1,4.7-6.4-2.5-9.3,1.2
				c-0.2-1-0.4-2.1-0.5-3.1c0-1,0-2,0-3c-0.6-0.7-1.1-1.4-1.7-2C174.1,167.4,178.6,170.5,181.6,168.8z"/>
			<path fill="#BCA782" d="M434,143.2c-4.2-0.7-7.4,2.2-11.1,3.1c-1.3-0.2-2.6-0.3-3.3-1.8c2.1-0.2,4.6,0.6,5.2-2.6
				c-2.1-1-3.5,0.7-5.1,1.3c-0.6,0-1.3,0-1.9,0c-3.7-0.2-7.3-1.3-11.1-0.2c1.2-1.9,3.1-2.4,5-3.2c6.4,1.9,12.3-0.3,17.7-6.3
				C431,136.8,432.5,140,434,143.2z"/>
			<path fill="#A59474" d="M337.6,168.8c-2,4-1.5,8.2-1.2,12.5c-2.5-0.5-5.2-0.6-7-2.9c-1.4-4-3.3-8.1,1.6-11.2
				C333.8,165.7,335.9,166.4,337.6,168.8z"/>
			<path fill="#CAB187" d="M342.5,183.5c2.8,0.3,4.8-0.4,5.2-3.6c3.4-6.3,6-5.8,10.9,1.8c-1.3,2-3.5,3.4-3.2,6.2
				C351.1,186.5,346.8,185,342.5,183.5z"/>
			<path fill="#BD9A84" d="M349.1,41.8c3.2-7.2,6.3,1.7,9.4,0c1.3,1.8,2.6,3.7,4.7,6.5c-4.1-1-8-2-8,3.4c-1.9-0.7-3.3,0.4-4.7,1.3
				C350.1,49.3,349.6,45.6,349.1,41.8z"/>
			<path fill="#433320" d="M382.6,178.4c-0.5-2.4,0.9-3.1,2.9-3.4c4.4,2.8,8.7,5.7,13.1,8.5C389.4,190.6,390.8,189.4,382.6,178.4z"
				/>
			<path fill="#D4C0A0" d="M237.8,156.2c2.5,5.9,7.8,1.5,11.4,3.1c-6.7,2-13.7,2.5-20.6,3.2c-0.2-1.1-0.3-2.1-0.5-3.2
				c-1.5-4.8,0.8-6.5,5.2-6.7C234.8,153.8,236.3,155,237.8,156.2z"/>
			<path fill="#A68456" d="M469.6,209c1.7-0.3,3-1,3.1-3c0.1-1.7,0.6-3.5,2.8-3c2.7,0.5,1.1,2.2,0.7,3.6c-0.4,1.3-0.6,2.9,1.1,3.2
				c0.8,0.1,2-0.6,2.7-1.3c1.8-1.7,2.1-6.7,5.9-3.9c2.9,2.2-0.1,5.3-1.2,7.9c-0.2,0.5-0.5,0.9-0.8,1.4
				C479.1,212,473.5,213,469.6,209z"/>
			<path fill="#CCAC7C" d="M453.5,167.2c-6-0.8-12.2-2.3-17.8,1.5c1.9-6.2,4.5-11.4,12.5-8.4C451.1,161.8,453.1,163.9,453.5,167.2z"
				/>
			<path fill="#413525" d="M168.7,104.5c-1.3,0-2.4-0.4-3.1-1.6c2.4-0.9,3.8-2.6,4.8-4.9c1.1-0.5,2.2-1,3.3-1.5
				c4.5,0.1,7.9-2.3,11.1-5c0,0,0,0,0,0c2,0.4,4.8-0.4,4.7,3.2C183.4,99.7,173.9,97.6,168.7,104.5z"/>
			<path fill="#413122" d="M137.9,173.8c2.1-3.3,4.9-1.2,5.8,0.3c3,4.5,6.1,9.3,4.1,15.3C144.3,184.4,139.9,179.9,137.9,173.8z"/>
			<path fill="#574A3C" d="M418,102.8c-3.2-9.4-2.7-11.3,3.1-12.7c0.7,3.6,1.5,7.3,2.2,10.9c-0.6,3-1.5,5.9-3.7,8.1
				C420,106.8,418.7,104.9,418,102.8z"/>
			<path fill="#867254" d="M451.5,197.8c1.1-0.1,2.1-0.1,3.2-0.2c0.4,2.1,1.1,2.7,3.7,2.5c6.1-0.6,10.7,1.7,11,8.8
				C462.5,206.8,455.5,204.8,451.5,197.8z"/>
			<path fill="#9E9076" d="M405.1,152.7c-1.5,0.1-2.9,0.3-3.5,2c-4.3,2.9-9.3,3.4-14.2,4.4c-1.4-4.4,6.8-1.6,4.8-6.4
				c2.1-2.6,5.4-3.2,8-4.9C399.9,151.4,403.9,150.6,405.1,152.7z"/>
			<path fill="#413222" d="M429.5,133.6c-5.4,6.1-11.4,8.2-17.7,6.3c0.6-0.5,1.2-1,1.8-1.5c5-1.9,9.9-4,13.8-7.9
				C428,131.6,428.7,132.6,429.5,133.6z"/>
			<path fill="#393029" d="M176.6,191.4c-0.8-1.1-2.5-2.4-2.3-3.4c0.4-2.3,2.9-1,4.3-1.7c1.5-0.5,2.9-1,4.4-1.4
				c-1.4,3.6-8.1,8.3,2.1,9.3c0.5,0.2,1,0.4,1.4,0.7c2.1,1.4,3.1,2.9,0.2,4.6C182.6,197.7,177.6,197,176.6,191.4z"/>
			<path fill="#AA9D83" d="M419.5,109.2c2.2-2.2,3.1-5.1,3.7-8.1c2.3,3.6-0.5,8.3,2.6,11.8c-4.4-0.2-5.9,4.1-9.1,5.9
				C411.9,113.9,419,112.5,419.5,109.2z"/>
			<path fill="#685B44" d="M134.9,115.4c-2,10.4-2,10.4-11.4,8.6c2-1.2,2.5-3.3,3.4-5.2c0-0.4,0.1-0.9,0.1-1.3
				C129.7,116.9,132.3,116.2,134.9,115.4z"/>
			<path fill="#BA8B5D" d="M350.3,94.3c0.9-0.6,1.7-1.1,2.6-1.7c-2.6-1.2-5.3-2.3-4.1-6.1c-0.1-0.5,0-0.9,0.2-1.3
				c3.9-0.3,5.1,10.2,10.8,2.7c2.2,1.8,3.8,3.8,1.8,6.8c-1.9-0.6-2.4-4.6-4.9-2.6c-1.7,1.3,1.8,2.8,1.3,4.7c-2.1,1.2-3.5-4-5.8-0.6
				C351.6,95.6,351,95,350.3,94.3z"/>
			<path fill="#958876" d="M241.2,86.9c-0.3-6.3,6.1-2.7,8.2-5.5c0.1-0.2,0.1-0.5,0-0.7c-0.1-0.2-0.3-0.4-0.5-0.6
				c1.2-0.4,2.4-0.7,3.5-1.1c0.6,1.6,1.1,3.2,1.7,4.7c-2.2,1.6-4.5,3.1-6.7,4.7C245.4,87.9,243.3,87.4,241.2,86.9z"/>
			<path fill="#2E241E" d="M202.9,166.9c-0.2,0.5-0.4,1.1-0.6,1.6c-1.6,0.2-3.2,0.4-4.7,0.6c-3.4-0.9-3.1-3.7-3.3-6.2
				c1.6-7.2,4.4-0.6,6.6-0.5C201.6,163.9,202.3,165.4,202.9,166.9z"/>
			<path fill="#B49668" d="M390.8,204.2c-0.3-3.7,3.4-5.2,4.5-8.2c4.8-3.7,2.3,3.9,5.1,3.3c-4.7,1.8-6,4.3-1.7,8
				C395.4,207.8,392.9,206.5,390.8,204.2z"/>
			<path fill="#D8C29B" d="M398.6,207.3c-4.3-3.7-3-6.2,1.7-8c6.3,0.6,4.9,4.2,3.1,8C401.8,207.3,400.2,207.3,398.6,207.3z"/>
			<path fill="#DCB78D" d="M359.9,88c-5.7,7.5-6.9-3-10.8-2.7c-0.1-2.3-0.7-4.6,1.1-6.5c2,4,3.8,8.3,9.2,8.6
				C359.6,87.5,359.8,87.7,359.9,88z"/>
			<path fill="#A4927C" d="M414.9,68.9c-0.4-1.4-2.2-3.8,1.1-3.2c3.7,0.8,1.2-2.1,2.1-2.8c0.4,0,0.8,0,1.2,0.2
				c1.2,0.4,2.4,0.9,3.6,1.3c0,2.8,0.4,5.6-1.9,7.9C419.1,71.2,417,70,414.9,68.9z"/>
			<path fill="#887A69" d="M83.6,138.1c-0.7-1.5-1.4-3,1.2-3.1c2.3-0.1,4.6-0.1,6.9-0.1c1.8,1.5,6.4-2.3,6.2,3.2
				C93.2,138,88.4,138.1,83.6,138.1z"/>
			<path fill="#534531" d="M414.9,68.9c2.1,1.1,4.1,2.3,6.2,3.4c-0.1,1.6-0.3,3.2-0.4,4.7c-4.9,4.3-3.9-2.2-5.9-3.2
				c-0.6-0.5-1.3-1-1.9-1.5c0.1-0.4,0.1-0.9,0-1.3C413.5,70.3,414.2,69.6,414.9,68.9z"/>
			<path fill="#CEB898" d="M157.6,196c2.2-0.5,4.3,2.7,6.5,0.1c1.1-1.1,2.2-2.1,3.2-3.2c3.2,2.1-0.4,4.2,0,6.3
				c-3.7,1.4-7.4,3.4-11-0.1C157.7,198.5,157.5,197.3,157.6,196z"/>
			<path fill="#4B3B2B" d="M228.1,159.3c0.2,1.1,0.3,2.1,0.5,3.2c-1.7,0.6-3.4,1.2-5.1,1.8c-4.5-0.5-2.3-4.4-3.4-6.7
				C223.6,153.9,225.1,160,228.1,159.3z"/>
			<path fill="#8B7256" d="M409.9,30.5c2.4,4.4-2.5,6.4-3.2,9.7c-1.5-0.7-4.5,3.2-4.8-1.5C404.6,36,407.2,33.3,409.9,30.5z"/>
			<path fill="#4E4331" d="M144.7,117.4c-1.7-1.1-3.2-2.3-3-4.6c3.1-1.3,6.2-2.7,9.2-4c0,1.3,0.1,2.5,0.1,3.8
				C148.9,114.1,146.8,115.8,144.7,117.4z"/>
			<path fill="#444034" d="M211.8,83.3c2.5,0.5,4.9,1.1,7.8,1.7c-1.4,2.8-4.3,2-5.9,3.5c-1.6-1.4-3.4-1.7-5.5-1.7
				c-2.8,0-1.3-1.8-0.9-3.1C208.9,83.6,210.4,83.5,211.8,83.3z"/>
			<path fill="#835B35" d="M459.9,177.1c-0.7,1.5-2.2,1.2-3.4,1.4c-1-1.8,0.1-4.3-3.3-5.2c-4.7-1.2-0.2-3.2,0.2-4.9
				C456.6,170.5,457.9,174,459.9,177.1z"/>
			<path fill="#514530" d="M404.9,158.2c1.2-2.3,3.2-4.4,5.4-2.1c2.7,2.8-2,4.2-2.3,6.7C407,161.3,406,159.7,404.9,158.2z"/>
			<path fill="#6B563B" d="M419.4,63.1c-0.4-0.2-0.8-0.2-1.2-0.2c-1.5-0.6-4.3-0.7-1.7-3.2c1.8-1.6,3.6-3.6,6.5-3.5
				c0,1.1,0.1,2.2,0.1,3.3C421.8,60.7,420.6,61.9,419.4,63.1z"/>
			<path fill="#93836A" d="M414.8,73.8c2,1,1,7.5,5.9,3.2c-0.4,2.7-0.8,5.4-1.2,8.1c-0.6,0-1.1,0-1.7-0.1c-0.6-0.9-1.2-1.8-1.8-2.7
				c-0.5-2.7-1-5.3-1.5-8L414.8,73.8z"/>
			<path fill="#3C301F" d="M464.4,189.6c1.8-1,2.1-3.9,4.9-3.7c1.2,0.7,2.3,1.4,3.5,2.1C470.5,191.1,468,192.9,464.4,189.6z"/>
			<path fill="#D2AB83" d="M350.8,75.3c2-1.5,3.9-3,6-4.2c0.3-0.2,2.6,2.1,2.5,2.4c-2,3.3-5.7,2.8-8.8,3.6
				C350.6,76.5,350.7,75.9,350.8,75.3z"/>
			<path fill="#866A42" d="M157.6,196c0,1.2,0.1,2.5-1.4,3c-1.7-2.6-5.9,0.2-7.4-3.9c2-1.5,5.9,1.6,7.2-2.1
				C157.3,193.6,157.5,194.8,157.6,196z"/>
			<path fill="#9B8D7D" d="M51.3,133.6c3.2,1.8,7.4-6.1,10,1.1C58,134.6,54.4,136.6,51.3,133.6z"/>
			<path fill="#544937" d="M379.4,162.4c1.9-5.6,2.6-5.9,6.6-3.1C384.1,161.1,382,162.2,379.4,162.4z"/>
			<path fill="#877965" d="M184.7,91.5c-3.2,2.7-6.6,5.1-11.1,5C176.7,93.4,180.5,92,184.7,91.5z"/>
			<path fill="#735732" d="M355.4,187.9c-0.3-2.7,1.9-4.2,3.2-6.2c0,0,0.7,0,0.7,0l0.7,0c0.1,1.1,0.2,2.1,0.3,3.2
				c-0.6,1.1-1.2,2.2-1.9,3.3C357.5,188.1,356.5,188,355.4,187.9z"/>
			<path fill="#786D58" d="M254.1,83.8c-0.6-1.6-1.1-3.2-1.7-4.7c1.6,0,3.2,0,4.8,0c0,1.5-0.1,3-0.1,4.5
				C256.2,83.6,255.1,83.7,254.1,83.8z"/>
			<path fill="#866D4E" d="M170.3,98c-0.9,2.3-2.4,4-4.8,4.9c0,0,0.1,0,0.1,0c-0.6-0.6-1.2-1.2-1.7-1.8
				C165.5,98.9,167.8,98.2,170.3,98z"/>
			<path fill="#B09F88" d="M127.1,117.6c-0.1,0.4-0.1,0.8-0.1,1.3c-2.5,0.2-5,0.4-7.5,0.5c-0.2-0.2-0.5-0.4-0.7-0.7
				C121.4,117,124.2,117.1,127.1,117.6z"/>
			<path fill="#C8AC8B" d="M358.5,188.2c0.6-1.1,1.2-2.2,1.9-3.3c0.5,0.6,1,1.2,1.5,1.8c0.1,0.9,0.1,1.8,0.2,2.8
				c-0.2,0.2-0.4,0.4-0.6,0.7C360.2,189.8,358.8,189.8,358.5,188.2z"/>
			<path fill="#342B23" d="M163.9,101.1c0.6,0.6,1.2,1.2,1.7,1.8c-1.6,0.7-3.1,2.7-4.8,0.3C161.9,102.5,162.9,101.8,163.9,101.1z"/>
			<path fill="#8B7256" d="M419.4,63.1c1.2-1.2,2.4-2.4,3.6-3.6c0,1.6,0,3.3,0,4.9C421.8,64,420.6,63.5,419.4,63.1z"/>
			<path fill="#B4A486" d="M241.2,86.9c2.1,0.5,4.1,1.1,6.2,1.6c7.3,4,12.9-1.7,19.3-3.4c1.1-1,2.2-2,3.3-3.1
				c0.4,0.2,0.9,0.3,1.3,0.3c2.1,1,3.8,4.2,6.7,1.4c0.5,0.1,1,0.1,1.5,0c2.7,2,5.4,3.9,8,6c1.6,1.3,3,3.2,5.1,0.6
				c6-2.3,10.6-9.7,18.6-5.4c-5.8,6.1-7.9,14.3-12.1,21.3c-1.1-0.6-2.2-1.1-3.4-1.7c-4.6-6.3-7.4-6.3-9.7,0.7
				c-1.4,4.3-3.8,8-5.6,12.1c-0.3,0.5-0.7,1.1-1,1.6c-3.5-2.2-1.6-8.2-6.6-9.4c-1.7-0.1-3.4,0.1-4.5-1.7c1.2-2.8,6.9-0.3,6.2-5.3
				c0.1-1.3,0.1-2.7,0.5-3.9c1-3.3,2.7-7.4-1.2-9.2c-3.1-1.5-6.5,1.1-9.2,3.3c-6,4.8,1.1,7,2,10.4c-0.1,1.9-0.9,2.4-3,2.4
				c-7.4,0-7.1-6.6-9.8-10.6c-4.1-2.8-6,0.4-8.2,2.9c-2.3,0.8-4.7,1.4-6.3,3.4c-1,0.6-1.9,1.2-2.9,1.8c-0.8-3-4.4-4.7-3.7-8.3l0,0
				C238.2,94.6,242.1,93.3,241.2,86.9L241.2,86.9z"/>
			<path fill="#9E8C69" d="M306.7,117.1c0.2-9.5,3.6-18,8-26.3c1.2-2.3,2.2-4.2,5.2-3.9c-0.1,3.7,3.8,8.1-1.7,11
				c-2.8,2.2,0.6,4.4,0.1,6.6c-7,3.2,0.7,6.3,0.1,9.5c1.8,2.4-1,3.5-1.4,5.2c-3.3,9.8-8,18.8-15.6,26.4c2.2-7.2,3.2-14.3,2.8-21.6
				C307.8,122.8,306.9,119.8,306.7,117.1z"/>
			<path fill="#BDA784" d="M342.4,149.5c-7.1-0.1-13.3,5-20.6,3.5c-3.1-0.6-7.4,0.6-6.7-5c2.1-1.6,4.3-3.2,6.4-4.8
				c3.3-0.9,0.3-5.1,3.3-6.2c6.1,0.5,13-1.9,17.7,4.5c0.6,1.1,1.2,2.2,1.8,3.3c-1.2,0.6-1.7,1.6-1.8,2.9
				C342.5,148.3,342.4,148.9,342.4,149.5z"/>
			<path fill="#B0976E" d="M350.3,94.3c0.6,0.6,1.3,1.3,1.9,1.9c2.6,2.6,4.1,6,7.2,8.3c6.5,4.8,14.1,7.3,21.1,11
				c6.2,3.3,12.2,4.7,18.9,2.4c2.6-0.9,4.7-0.1,5.8,2.7c-6.3,4.2-13,3.8-19.8,1.3c-8.4-3.2-16.8-6.5-25.1-10.1
				c-3.1-1.4-6.2-3.3-6.6-7.4c-1.2-2-2-5.6-4.6-4.4c-4.7,2.1-3.6-2.1-5-3.6C345.4,93.4,347.4,92.5,350.3,94.3z"/>
			<path fill="#988261" d="M353.8,113.6c2.1,2.3,4.2,4.6,6.3,6.9c-0.6,0.6-1.3,1.2-1.9,1.9c-7.7-7.4-8.2-7.3-13.2,2.3
				c-0.7,1.4-1.8,2.6-2.6,3.9c-2.4,0.2-4.7,0.6-6.3,2.7c0.1-0.4,0-0.7-0.1-1.1c-1-1-1.9-2.1-2.9-3.1c0.6-4.9-3.2-4.4-6.8-4.8
				c4.9-6,2.5-15,9.7-19.5c1.7,0.6,3.3,1.2,5,1.8c2.6,3.6,3.8,8.6,9.3,9.3c1,1.4,2,2.3,3.4,0.4L353.8,113.6z M344.1,119.4
				c-2.4-3-3.6-7.9-8.2-9.5c-1.5-0.5-4.6,1.7-3.6,4c1.8,4,2.4,9.6,7.7,10.8C342.9,125.4,343.9,122.7,344.1,119.4z"/>
			<path fill="#796B53" d="M317,119.3c0.5-1.7,3.2-2.9,1.4-5.2c6.3-4.2,6.9-5.9,3.2-9.5c0.2-2.3,5-1.8,3.3-5
				c-0.8-1.5-2.2-0.3-3.3,0.2c-0.7-1.4-2-1.7-3.4-1.8c5.5-2.9,1.5-7.3,1.7-11c5.4-1,11,6.9,9.4,14.4c-1.7,7.8-4.5,15.4-6.9,23.3
				C318.7,123.7,320.8,118.7,317,119.3z"/>
			<path fill="#6D5945" d="M340.9,104.6c-1.7-0.6-3.3-1.2-5-1.8c2.7-2.1,5.4-4.2,8.1-6.3c1.4,1.5,0.3,5.7,5,3.6
				c2.6-1.2,3.5,2.4,4.6,4.4c-3.5,0.3-3.9,2.3-1.9,4.5c1.3,1.5,1.9,2.8,2.1,4.6c0,0-0.2,0.7-0.2,0.7c-1.5,0.1-0.8-4.4-3.6-1.7
				C346.4,110.7,346.6,104.3,340.9,104.6z"/>
			<path fill="#93856B" d="M315.1,148c-0.7,5.6,3.6,4.5,6.7,5c-4.6,3.3-11,1.1-15.3,5.3c-1.1,1.1-1.5-1.6-2.4-2.4
				c2.7-4.2,5.5-8.3,8.2-12.5c0.4,0.4,0.9,0.9,1.3,1.3C313.4,146.1,313.4,147.5,315.1,148z"/>
			<path fill="#493520" d="M333,127.1c1,1,1.9,2.1,2.9,3.1c-3.6,2.5-9.6,1-11.1,6.8c-3,1.1,0,5.3-3.3,6.2c-0.4-2.3-1.1-4.7-1.1-7
				c0-4.5,2.1-6.2,6.7-6.6C329.2,129.4,331.1,128,333,127.1z"/>
			<path fill="#6B5745" d="M306.7,117.1c0.3,2.7,1.1,5.6-2.5,6.9C304.2,121.5,302.9,118.4,306.7,117.1z"/>
			<path fill="#656256" d="M313.5,144.7c-0.4-0.4-0.9-0.9-1.3-1.3c0.5-2.1,1.6-3.6,3.8-4.6C316.6,141.8,315,143.2,313.5,144.7z"/>
			<path fill="#B49066" d="M144.7,117.4c2.1-1.6,4.3-3.3,6.4-4.9c6.7-9.1,5.4,2.3,8.2,3.2c0.5,0,1.1,0,1.6,0
				c-0.6,0.5-1.1,1.1-1.7,1.6c-3.2,0.5-4.2,2.1-1.8,4.5c1.9,1.9-0.3,3.3-0.1,4.9c-3.1,1.6-6.3,3.3-9.4,4.9
				c0.6-4.7,4.8-10.2-3.2-12.8C144.7,118.4,144.7,117.9,144.7,117.4z"/>
			<path fill="#372F20" d="M101.5,126.8c-1.3-1.7-2.5-3.4-4.2-5.6c5.1-1.3,10.2-1.5,14.8-0.2c1.4,0.4,0,6-1.3,9.1
				C107.2,130.4,104.6,127.7,101.5,126.8z"/>
			<path fill="#897150" d="M147.9,131.7c3.1-1.6,6.3-3.3,9.4-4.9c0,0,0.4,0.3,0.4,0.3c0.6,1.5,1.9,1.5,3.2,1.7
				c0.7,1.5,2.1,1.4,3.3,1.7c-1.8,2-5.1,0.4-6.6,2.9c-1.8-0.9-3.5-2.2-5.4-0.1c-1.6,1.8-0.1,3.2,0.3,4.8c-1,0-2,0.1-3,0.1
				c-0.1-2.3,0.1-4.8-3.2-4.9C146.8,132.9,147.3,132.3,147.9,131.7z"/>
			<path fill="#2B2319" d="M280.5,117.3c1.8-4.1,4.2-7.8,5.6-12.1c2.3-7,5.1-7,9.7-0.7c0.7,9.6-5.4,16.5-9.4,24.3
				c-1.9-0.1-2.5-3.5-5-1.8c-1.9-1.1-1.6-3-1.6-4.7C281.5,120.9,282.2,119.3,280.5,117.3z"/>
			<path fill="#2A1F1A" d="M279.4,143.1c1.9,2.4,2.4,0.8,3.8-0.9c3.5-4.2,4.4-1,5,2.3c0.8,5.1-1.5,8.8-5.3,11.8
				c-0.4-0.2-0.9-0.4-1.3-0.7c-0.2-2.5-1.3-4.6-3.1-6.4c-0.1-1.7-0.2-3.3-0.2-5C278.6,143.9,279,143.5,279.4,143.1z"/>
			<path fill="#2B1D14" d="M279.4,143.1c-0.4,0.4-0.8,0.8-1.2,1.1c-3.2-4.2-2.7-9.2-3.2-14c3.1-1.7-1-7.7,4.7-8
				c0,1.7-0.3,3.6,1.6,4.7c0.1,3.3,0.2,6.6,0.3,9.9C280.9,139,280.1,141.1,279.4,143.1z"/>
			<path fill="#7F7052" d="M282.9,156.4c3.8-3,6.1-6.7,5.3-11.8C290.7,150.4,290.6,155.1,282.9,156.4z"/>
			<path fill="#5D5037" d="M281.6,136.9c-0.1-3.3-0.2-6.6-0.3-9.9c2.5-1.7,3.2,1.7,5,1.8C282.1,129.9,283.9,134.6,281.6,136.9z"/>
			<path fill="#7F7052" d="M278.4,149.3c1.8,1.8,2.9,3.9,3.1,6.4c-1,0.2-2.1,0.5-3.1,0.7c-0.6-1.8-1.2-3.7-1.8-5.5
				C277.2,150.3,277.8,149.8,278.4,149.3z"/>
			<path fill="#312816" d="M119.5,119.4c2.5-0.2,5-0.4,7.5-0.5c-0.9,1.9-1.5,4-3.4,5.2c-0.5-0.2-0.9-0.2-1.4-0.3
				C121.3,122.3,120.4,120.9,119.5,119.4z"/>
			<path fill="#D4B37E" d="M358.2,122.4c0.6-0.6,1.3-1.2,1.9-1.9c8.1,2.8,16.9,3.8,23.3,10.6c3.6,3.8,7.4-4.3,11.3-0.1
				c4.9-4.9,11.5-0.7,16.9-3.3c2.4-1.1,4.7-2.1,6.4-4.2c0,1.6,0.4,3,2.1,3.7c-0.2,0.4-0.4,0.9-0.5,1.4c-2,1.4-4.1,2.7-4.9,5.2
				c-0.1,1.6-3.8,2.3-1.2,4.6c-0.6,0.5-1.2,1-1.8,1.5c-1.9,0.7-3.8,1.3-5,3.2c-1,1.8-2.5,3-4.6,3.5c-0.6,0.4-1.3,0.8-1.9,1.3
				c-2.6,1.7-5.9,2.3-8,4.9c-4.3-1.6-8.7-3.1-13-4.7c-3.8-2.8-8.9-0.9-12.8-3.3c1.3-2.7,5.2-0.6,6.5-3.4c3.6-1.5,6,2,9.6,2.9
				c-0.7-6.7-6.8-5.1-9.7-7.6C367.5,132.4,360.6,129.7,358.2,122.4z M393.4,138.7c-1.3,2.4-4.8,1.9-3.7,5c0.2,0.6,1.2,1.5,1.6,1.4
				C394,144.4,393.9,142.3,393.4,138.7z M399.8,140c-1.2,0.3-2.4,0.5-1.9,1.9c0.2,0.5,1.1,1.1,1.7,1.1c1,0,2.1-0.5,1.8-1.8
				C401.2,140.7,400.3,140.4,399.8,140z"/>
			<path fill="#2E2318" d="M405.2,120.6c-1-2.8-3.1-3.6-5.8-2.7c-6.7,2.4-12.7,0.9-18.9-2.4c-7-3.7-14.6-6.2-21.1-11
				c-3.1-2.3-4.6-5.7-7.2-8.3c2.3-3.4,3.8,1.8,5.8,0.6c1.2,1,2.3,2,3.5,3c4.1,5.5,11.3,4.3,16.4,7.7c5.9,4,10.6,11.5,19.6,7
				c4.8-1,8.3-4,11.7-7.3c2.4-2.3,4.6-5.2,8.7-4.3c0.8,2.1,2,4,1.6,6.3c-0.5,3.3-7.7,4.7-2.8,9.6C413,120.2,409.6,123.1,405.2,120.6
				z"/>
			<path fill="#8D7A58" d="M337.6,168.8c-1.7-2.4-3.9-3.1-6.6-1.7c-0.8-2-1.8-4.1,0.7-5.6c4.9-2.9,9.4-6.8,15.5-7.1
				c1.8,2.9,5.1,0.3,7.2,2.1c-2.5,4.8-8.9-2.4-11,3.5c1.4,1.6,4,0.1,5,2.1C343.4,162.1,340.4,165.2,337.6,168.8z"/>
			<path fill="#4A381C" d="M348.4,162.2c-1.1-2.1-3.6-0.5-5-2.1c2.1-5.9,8.6,1.3,11-3.5c-2.1-1.8-5.4,0.8-7.2-2.1
				c0.1-0.8,0.2-1.6,0.3-2.4c3.1,0.8,6.1,1.7,9.2,2.5c1.7,2.3,3.3,4.6,5.3,7.4c-0.9,1.1-3.9,1.4-6.8,1.9
				C353.8,160,351,161.5,348.4,162.2z"/>
			<path fill="#8B7F6B" d="M324.3,156.2c-0.6,5.9-1.1,11-6.3,13.5c-1,0.5-5-2.6-4.9-3.2C314.8,161.6,317.9,157.7,324.3,156.2z"/>
			<path fill="#BEA37D" d="M356.6,154.6c-3.1-0.8-6.1-1.7-9.2-2.5c-1.7-0.9-3.4-1.7-5.1-2.6c0-0.6,0.1-1.2,0.1-1.7
				c1.4,0.1,2.9,0.2,4.3,0.3c2.6,1.7,5.5,1,8.3,1c0.5,0.2,1.1,0.4,1.6,0.6C357.8,151.4,359.5,153.1,356.6,154.6z"/>
			<path fill="#BA8F51" d="M167.3,192.9c-1.1,1.1-2.2,2.1-3.2,3.2c-0.1-2.2-0.9-3.9-3-4.8c0-2.1,0-4.2-0.1-6.3
				C168.3,183.4,166.1,189.5,167.3,192.9z"/>
			<path fill="#3E250F" d="M173.5,173.8c0,1,0,2,0,3c-1.9,1.4-0.8,5.6-4.8,4.9c-1.3-2.5-4.1-4.8-1.4-8c0,0,0,0,0,0
				C169.3,173.7,171.4,173.7,173.5,173.8z"/>
			<path fill="#CEBC99" d="M186.5,194.9c-0.4-0.3-0.9-0.6-1.4-0.7c-0.5-0.9-1.6-1.9-1.5-2.6c0.5-3.1,1.9-0.5,2.3,0
				c1.9,1.9,3.3-0.9,5.2-0.3C191.2,194.4,189,194.8,186.5,194.9z"/>
			<path fill="#543315" d="M160.9,185c0,2.1,0,4.2,0.1,6.3c-1.7-2.6-6.9-5.1-0.2-8C160.8,183.9,160.9,184.4,160.9,185z"/>
			<path fill="#D4BF96" d="M183,184.9c-1.5,0.5-2.9,1-4.4,1.4c0-1.2-0.7-2.8,1.3-3.1C181.3,183.1,182.6,183.3,183,184.9z"/>
			<path fill="#51371E" d="M408.3,66c0.1,1.1,0.3,2.3,0.4,3.4c-0.5,2.6-2.6,4.2-4.3,6c-9-1.5-11,5.3-13.5,11.4
				c-1.8,5-8.5,6.2-9.2,12.2c-0.5-4.1-1.9-7.3-5.3-9.3c-1.2-5.2-2.3-10.5-3.5-15.7c-0.5-1-1-2-1.4-3.1c0.7-0.6,1.3-1.2,2-1.8
				c0.4,0.1,0.7,0.1,1.1,0c0.8,1,1.8,1.8,3.2,1.3c1.5,9.2,8.9,2.9,13.1,5.1c2.5-2.2,4.7-3.9,8.6-1.7c2.6,1.5,5.8-0.7,6.9-3.6
				c1.2-3.2-1.4-3.9-4-4.1c-0.5-0.5-1.1-0.9-1.6-1.4C403.3,64.3,406,63.9,408.3,66z M378.5,86.7c2.7,5.6,5.2,6.1,8.2,0.4
				C383.9,86.9,381.4,86.8,378.5,86.7z"/>
			<path fill="#BA8B5D" d="M372.8,74c1.2,5.2,2.3,10.5,3.5,15.7c-4,1.3-3.1,13.2-11.3,5.2c0.5-0.5,1-0.9,1.4-1.4
				c1.9-1.8,6-1.6,6-4.5c0-3.1-4.2-2.5-6.1-4.1c0.5-2.2-0.4-4-1.5-5.8c1.5-0.7,3.1-1.3,4.6-2c3.9,1.3,1.3-2.3,2.3-3.2
				C372.1,73.8,372.5,73.9,372.8,74z"/>
			<path fill="#D0B992" d="M377.6,70.4c-1.4,0.5-2.4-0.2-3.2-1.3c-1.7-7.8-7.8-7.8-14-7.3c0.6-5.6,7.9,0.3,8.1-5.4
				c3.2-4.6,3.2-4.6,4.7-1.5c-0.6,2.4-1.1,4.8,0.9,8.5c0.8-3.8,1.4-6.3,1.9-8.8c0.9,0,1.9,0.1,2.8,0.1c0.1,0.9,0.1,1.9,0.2,2.8
				C376.5,61.7,376.9,66,377.6,70.4z"/>
			<path fill="#DFAF78" d="M366.5,93.5c-0.5,0.5-1,0.9-1.4,1.4c-1.1,0-2.2-0.1-3.4-0.1c2-2.9,0.4-4.9-1.8-6.8
				c-0.1-0.3-0.2-0.5-0.5-0.7c-1-2-4.5-2.8-3.6-5.5c0.9-2.6,3.7-0.7,5.5-1.3c1.2-0.4,2.4-1,3.5-1.5c1.1,1.8,2,3.6,1.5,5.8
				C365.1,87.7,366.4,90.6,366.5,93.5z"/>
			<path fill="#D7BA8F" d="M371.7,73.8c-1,0.9,1.6,4.4-2.3,3.2c-1.4-3.4-5.2-3.3-7.5-5.5c-2.1-2-4.6-3.6-1.4-8.3
				C362.2,69.9,366.6,72.3,371.7,73.8z"/>
			<path fill="#C8C197" d="M373.4,69.1c-0.7,0.6-1.3,1.2-2,1.8c-1.2-0.4-2.8-0.1-3.2-1.9l-0.1,0.1C369.8,67.9,371.6,64.3,373.4,69.1
				z"/>
			<path fill="#BFBB96" d="M368.2,69.1c-2.2-0.1-3.7-0.9-3.2-3.3c0.1-0.5,1.1-1.3,1.5-1.2C369.1,65.2,367.5,67.6,368.2,69.1
				C368.1,69.2,368.2,69.1,368.2,69.1z"/>
			<path fill="#E2BA88" d="M155.7,162.4c0.1-1.1,0.1-2.2,0.2-3.3c6.2,1.4,6.5,7.8,10,11.6c0.4,1,0.9,2,1.3,3c0,0,0,0,0,0
				C160.9,172.5,159.1,166.6,155.7,162.4z"/>
			<path fill="#573617" d="M147.8,164.1c-0.6-4.2,2.3-3.4,4.7-3.3C151,162,149.4,163,147.8,164.1z"/>
			<path fill="#3C200D" d="M149.3,168.6c-1.2-0.6-1.5-1.7-1.4-3c1.2,0.1,2.4,0.2,3.6,0.4C150.8,166.8,150,167.7,149.3,168.6z"/>
			<path fill="#AD8A61" d="M360,181.7l-0.7,0c0,0-0.7,0-0.7,0c-4.8-7.7-7.4-8.1-10.9-1.8c-0.2-1-0.5-1.9-0.7-2.9
				c0.2-1.6,0.3-3.2,0.5-4.8c2.1-1.7,4.2-3.3,6.3-5c3.8,0.3,7.1,4.3,11.4,1.7c-0.7,3.7-2.5,7.3-2.2,11.2
				C362,180.7,361,181.2,360,181.7z"/>
			<path fill="#2B1B12" d="M346.8,148.1c-1.4-0.1-2.9-0.2-4.3-0.3c0.1-1.3,0.6-2.3,1.8-2.9c3.8-0.1,7.6-0.2,11.4-0.4
				c3.6,0.1,7.1,0.2,10.7,0.4c3.9,2.4,9,0.5,12.8,3.3c0.4,1.4,0.2,2.6-1.3,3.2c-0.7,0-1.3,0.1-2,0.1c-6.1-3.8-12.8-1.1-19.1-1.6
				c-0.5-0.2-1.1-0.4-1.6-0.6C352.6,147,349.7,148.1,346.8,148.1z"/>
			<path fill="#64513C" d="M375.9,151.3c0.7,0,1.3-0.1,2-0.1c-1.4,7.1-3.6,9.1-7.9,6.5c-1.1-0.7-4.6,1-3.7-2.4
				c0.7-2.6,3.2-3.6,4.9-2.2C374.5,155.7,375.1,153.8,375.9,151.3z"/>
			<path fill="#D2B28C" d="M361.7,94.8c1.1,0,2.2,0.1,3.4,0.1c8.2,8,7.3-3.9,11.3-5.2c3.5,2,4.8,5.2,5.3,9.3c0.7-6,7.4-7.2,9.2-12.2
				c2.6-1.5,5.2-3,7.8-4.5c1.6,0.4,3.2,0.8,4.8,1.3c-1.1,1.6-2.1,3.1-3.2,4.7c-4.3-0.2-9.4-0.3-9.6,5.1c-0.1,3.2,4.9,1.8,7.6,2.6
				c1.1,2.2,3.1,2,5.1,2.1l0,0c-2.7,3-9.7-0.2-9.5,6.9c0.1,3.6,1.4,6.7,3.6,9.4c-9,4.6-13.7-3-19.6-7c-3.7-6.4-9.3-8.6-16.4-7.7
				c-1.2-1-2.3-2-3.5-3c0.5-1.9-3-3.4-1.3-4.7C359.2,90.2,359.8,94.2,361.7,94.8z"/>
			<path fill="#8D6D52" d="M403.5,83.6c-1.6-0.4-3.2-0.8-4.8-1.3c-0.7-6.3,5.8-3.9,8.1-6.6c2-1.1,4.1-2.3,6.1-3.4
				c0.6,0.5,1.3,1,1.9,1.5c0,0-0.2,0.6-0.2,0.6c-2.6,2.5-5.1,5-7.7,7.4c-0.5,0.4-1,0.9-1.4,1.3C404.8,83.3,404.1,83.5,403.5,83.6z"
				/>
			<path fill="#997850" d="M398.4,96c-2.7-0.8-7.7,0.5-7.6-2.6c0.1-5.3,5.3-5.2,9.6-5.1C399.7,90.8,399,93.4,398.4,96z"/>
			<path fill="#45341F" d="M405.4,83.2c0.5-0.4,1-0.9,1.4-1.3c3.1,0.4,6.3-1.6,9.2,0.5c0.6,0.9,1.2,1.8,1.8,2.7
				c-0.6,0.5-1.1,1-1.7,1.6c-1-0.5-1.9-1-2.9-1.5C411,82.9,407.9,84.4,405.4,83.2z"/>
			<path fill="#A99278" d="M398.3,103.4c3.2-1,6.4-2.1,9.6-3c0.3-0.1,0.9,0.4,1.8,0.9c-3.4,3.3-7.4,2.9-11,4.2
				C398.5,104.8,398.4,104.1,398.3,103.4z"/>
			<path fill="#7E684B" d="M413.3,85.1c1,0.5,1.9,1,2.9,1.5c-0.5,5-5,4.4-8.2,5.9C409.3,89.7,413.7,89.1,413.3,85.1z"/>
			<path fill="#9E8D7C" d="M403.5,98.1c0.8-1.3,1.4-2.8,3.2-2.7c0.8,0.1,1.4,0.8,0.9,1.6C406.6,98.5,404.9,97.9,403.5,98.1
				C403.5,98.1,403.5,98.1,403.5,98.1z"/>
			<path fill="#433320" d="M381,185.2c-2-0.6-4.7-0.9-1.8-3.8C382.3,181.4,381.6,183.3,381,185.2z"/>
			<path fill="#CDC2A1" d="M408.3,66c-2.3-2.1-5-1.7-7.6-1.3c-6.4,2.4-0.9,4.7-0.7,7.8c2.8-2.2,1.1-4.7,2.3-6.4
				c2.5,0.2,5.1,0.9,4,4.1c-1.1,2.9-4.2,5.2-6.9,3.6c-3.9-2.3-6-0.5-8.6,1.7c-1.9-5,4.5-9.3,1.4-14.4c1-2-1.2-5.7,3-6.1
				c0.1,1.5,0.3,3,0.4,4.6c0,1.5-0.7,4,0.7,4.2c2.4,0.3,2.1-2.4,2.6-4.1c0.4-0.4,0.7-0.8,1.1-1.1c1.1-0.6,11.4,6.2,11,7.3
				C410.9,66.2,409.3,66,408.3,66z"/>
			<path fill="#7A613D" d="M392.2,61.1c3,5.1-3.3,9.4-1.4,14.4c-4.2-2.2-11.6,4.1-13.1-5.1c-0.7-4.4-1.1-8.8,1.4-12.8
				c0.3,1.2,0.3,2.6,1.7,3.1c1.9,5,3.8,9.7,8.5,1.8C390.2,62.1,391.2,61.6,392.2,61.1z"/>
			<path fill="#594B3B" d="M377.8,48.2c-1.1-0.1-2.2-0.2-3.3-0.2c0.7-1.7,1-3.8,2.2-4.9c3.1-3,6.5-3,7.5,1.7c0.9,4.2,2.9,2.5,5,2
				c-0.1,2.2-0.1,4.3-0.2,6.5c0.4,1,2,2.1,0,3.1c-1.9,1.4-2.4,6-6.4,3.1c-1.2-3.6,1.9-7.8-1.5-11C380.3,43.1,378.9,48.9,377.8,48.2z
				"/>
			<path fill="#9C8664" d="M382.6,59.4c4,2.9,4.4-1.7,6.4-3.1c0.1,2.1,0.2,4.1,0.2,6.2c-4.6,7.9-6.6,3.2-8.5-1.8
				c0-0.5,0.2-1,0.4-1.4l0.7,0.1L382.6,59.4z"/>
			<path fill="#837669" d="M389,53.2c0.1-2.2,0.1-4.3,0.2-6.5c0.7-1.1,1.4-2.2,2.1-3.2C390.4,46.7,395.6,51.2,389,53.2z"/>
			<path fill="#8B7256" d="M406.5,46.6c2.3,1,1.8,3,1.9,4.8c-1.7-0.5-3.3-1-5-1.6c0,0,0.1,0.1,0.1,0.1
				C403.5,47.8,404.4,46.6,406.5,46.6z"/>
			<path fill="#CBA066" d="M165.9,170.7c-3.5-3.7-3.7-10.2-10-11.6c3.3-1.9,5.9-4.1,5-8.5c0,0,0.1-0.1,0.1-0.1
				c4.6-5.5,4.8,1.6,7.1,2.5c4.7,5.7,12.4,6.4,16.6,1.3c3.7,0.5,8.1-3.9,11.2,1.5c-1,1.8-4.3,1.9-3.4,4.9c-9.5-3.4-10.2-2.8-11,8
				c-3,1.7-7.5-1.4-9.8,2.9C169.6,173.1,168.5,167.8,165.9,170.7z"/>
			<path fill="#C8A775" d="M133.7,146.2c6-7.7,9.3-8.1,15.9-1.6c3.1,1.2,6.2,2.3,9.3,3.5c0.7,0.8,1.5,1.7,2.2,2.5
				c0,0-0.1,0.1-0.1,0.1c-3.4,0-1.9,6.2-6.3,5.1c-1.7-1.9-3.5-3.7-5.2-5.6l0-0.8c-0.6-2.3-2.1-3.5-4.5-3.4c-4.3-3-3.4,2.4-5.3,3.3
				c-1.1,1.4-2.2,2.7-3.4,4.2C133.8,151.2,136.3,147.8,133.7,146.2z"/>
			<path fill="#72512B" d="M149.4,150.1c1.7,1.9,3.5,3.7,5.2,5.6c-10.9,4.2-11.4,4-15-6.4c1.9-0.9,1-6.3,5.3-3.3
				c-1.7,1.2-2.2,2.4-0.1,3.6c-1.2,2-1.8,4.5,0.8,5.1C148.6,155.4,149.4,152.7,149.4,150.1z"/>
			<path fill="#815925" d="M445.5,184.9c-0.7,0-1.5,0-2.2,0c1.5-2-3.3-4,0-5.9c0.7-0.4,2.4-0.3,2.9,0.3
				C448.2,181.4,445.9,183.1,445.5,184.9z"/>
			<path fill="#8E5C25" d="M456.6,178.4c-1.2,1.9-2.2,4.5-5,1.6C452.9,178.4,454.7,178.3,456.6,178.4z"/>
			<path fill="#5A3F21" d="M403.5,49.8c1.7,0.5,3.3,1,5,1.6c0.6,0.5,1.2,1,1.8,1.5C406.9,54.2,403.8,55.1,403.5,49.8z"/>
			<path fill="#2D1F13" d="M381.2,59.4c-0.2,0.4-0.4,0.9-0.4,1.4c-1.4-0.6-1.4-2-1.7-3.1c-0.1-0.9-0.1-1.9-0.2-2.8
				c-0.9-2.1-1.6-4.2-1-6.6c1.1,0.6,2.5-5.1,3.3,0.2C381.1,52.1,381.2,55.7,381.2,59.4z"/>
			<path fill="#402D16" d="M376.1,54.7c-0.5,2.5-1.1,5-1.9,8.8c-2-3.7-1.5-6.1-0.9-8.5C374.2,54.8,375.1,54.8,376.1,54.7z"/>
			<path fill="#C59A66" d="M228.1,159.3c-2.9,0.7-4.4-5.4-8-1.7c-2.6-2.3-5.2,0-7.8,0.1c-3,0.2-6.3-0.3-8.1,3
				c-0.2,2.1,0.8,4.4-1.2,6.2c-0.7-1.5-1.3-3-2-4.5c-2.8-7.9,6.2-9.1,8.1-14.3c-0.8,6.7,1.2,8.7,7.3,4.6c2.1-1.4,4.7-2.1,7-3.1
				c4.4-0.1,4.8-0.8,4.4-8.3c-2,1.2-0.4,4.2-2.8,5.1c0.5-3.7-2-6.5-3.2-9.7c2.7,0.6,3.5-0.9,3.5-3.2c2.5,1.8,5,5,7.8,0.6
				c2.9-4.4-1.1-5.3-3.8-6.8c-0.9-0.5-1.8-1-2.7-1.6c3.2,1.9,6.4-3.2,9.6,0c4.2,5.7-1.2,12,1.6,18.1c0.5-6.1,5-10.2,6.5-15.7
				c1,0.7,2.1,1.4,3.1,2c3.9,2.3,2.6,6.9,3.8,10.3c6.4-2,1.5-7.5,4.2-10.4c3-2.3,4.7,0.2,6.3,2c1.4,1.5,2.4,3.5,5,2.7
				c1.4,3.4,4,6.4,3.1,10.5c-2.1-0.3-4.3-1-4.3,2.4c-2.8,1.2-5.7,1.2-8.6,0.3c-2.7-0.2-5.3-2.5-8-0.1c-4.7-3-9.1-4.2-12.7,1.6
				c-1.5,0.6-5.1-0.9-3,3.1C228.9,152.7,226.6,154.5,228.1,159.3z"/>
			<path fill="#644C2B" d="M249,147.9c2.7-2.4,5.3-0.1,8,0.1c1.8,4-3.7,5.3-3.2,9.1C253,153.4,245.5,153.6,249,147.9z"/>
			<path fill="#81683D" d="M233.3,152.6c-2.1-4,1.5-2.6,3-3.1c1.7,2,5,3.6,1.5,6.7C236.3,155,234.8,153.8,233.3,152.6z"/>
			<path fill="#AD9976" d="M160.8,115.7c-0.5,0-1.1,0-1.6,0c2.6-6.5,10.4-5.5,14.4-9.8c2.3-0.4,4.8,2.1,7.3-0.1
				c-2.4-2.8-4.7-3.5-7.3-0.9c-1.7-0.1-3.3-0.3-5-0.4c5.3-6.8,14.7-4.8,20.8-9.8c1.1,1.1,2.2,2.1,3.3,3.2c-5.5-0.2-7,4-5.3,7.5
				c0.9,1.8,6.3,2.3,9.4,1.9c3.4-0.4,6.3-2.8,5.3-7.2c3-2.1-1.6-4.7,0.5-6.9c3.1,1.8,5,5.8,9.5,5c3.7-0.4,2.8,3.6,4.7,4.9
				c1.7,3.6,6.6,2.5,8.4,5.9c-0.2,1.4-0.2,2.7,0.9,3.7c1.2,2.8,5.8,4,4.5,8.8c-1.6-1.4-2.7-2.6-4-3.5c-2.4-1.8-5-5.3-8.1-2.5
				c-3.3,3,0.7,5.6,2,8.2c-1.8,0.5-3.7,1.1-5.5,1.6c-0.4-2.6-2.3-4.8-1.5-7.6c-0.7-2.6,0.5-4.6,1.8-6.7c0.2-3.2-0.9-5.6-4.4-6.2
				c-2.3-0.4-4.9-0.7-5.1,2.8c-1.1,2.2-5.5,1.2-5,5c-0.6,1.6-1.2,3.3-1.8,4.9c-2.3-1.6-3.7-0.6-4.7,1.6
				C183.8,111.8,173,106.8,160.8,115.7z"/>
			<path fill="#9B8B6F" d="M226.2,112.6c-1.1-1-1.1-2.4-0.9-3.7c6.4-2.7-0.6-5.1-0.2-7.7c1.2-1.7,2.3-3.4,3.5-5
				c1.5-0.5,2.9-0.9,4.4-1.4c-0.7,3.6,2.9,5.4,3.7,8.3c-1.7,5.7-0.5,9.7,5.9,10.9c2.9-0.5,2.9-5.3,6.6-4.7c0.4,1.8,0.9,3.6,1.3,5.4
				c-3.4,1.6-3.4,4.2-2,7.1c1.4,2.8,2.8,5.5,4.2,8.2c-2,0.5-3.5-0.6-5.1-1.5c-0.6-1.9-0.5-4.8-4-3.2c-0.3-0.3-0.5-0.7-0.7-1.1
				C238.4,113.7,235.8,111.9,226.2,112.6z"/>
			<path fill="#3D3324" d="M202.2,100c1,4.5-1.8,6.8-5.3,7.2c-3.2,0.4-8.5-0.1-9.4-1.9c-1.7-3.5-0.2-7.6,5.3-7.5
				C195.9,98.8,199.5,97.4,202.2,100z"/>
			<path fill="#3C352D" d="M233,94.8c-1.5,0.5-2.9,0.9-4.4,1.4c-1.7-1.5-3.4-3-5.1-4.5c5.7-6.7,10.5-7.7,14.7-3.1
				C236.4,90.6,234.7,92.7,233,94.8L233,94.8z"/>
			<path fill="#322D20" d="M212.2,98.1c-4.5,0.8-6.4-3.2-9.5-5c0-1.5-5.7-2.4-1-3.9c2.5-0.8,6.3-1.8,9.5,1
				C214.4,92.8,212.3,95.4,212.2,98.1z"/>
			<path fill="#2B2415" d="M225.1,101.2c-0.4,2.6,6.6,5,0.2,7.7c-1.8-3.4-6.8-2.3-8.4-5.9c0.5-1.9-0.8-4.9,1.2-5.7
				C221.3,96.1,222.5,100.2,225.1,101.2z"/>
			<path fill="#E6CDB4" d="M412.9,72.3c-2,1.1-4.1,2.3-6.1,3.4c-0.8-0.1-1.6-0.2-2.3-0.3c1.7-1.8,3.7-3.4,4.3-6
				c1.8-0.5,2.9,0.8,4.2,1.6C412.9,71.5,412.9,71.9,412.9,72.3z"/>
			<path fill="#382210" d="M398.9,59.7c-0.5,1.7-0.2,4.4-2.6,4.1c-1.4-0.2-0.8-2.7-0.7-4.2C396.7,59,398,54.7,398.9,59.7z"/>
			<path fill="#5C5A46" d="M347.5,172.2c-0.2,1.6-0.3,3.2-0.5,4.8c-1.1-0.4-2.7-0.4-2.5-2.1C344.7,173.3,346,172.6,347.5,172.2z"/>
			<path fill="#2D251A" d="M292.7,90.3c-2,2.6-3.4,0.7-5.1-0.6c-2.6-2.1-5.3-4-8-6c5.6-4.5,11,0.1,17.2,0.1
				C295.2,86.4,293.9,88.4,292.7,90.3z"/>
			<path fill="#352B20" d="M266.7,85.1c-6.3,1.6-11.9,7.4-19.3,3.4c2.2-1.6,4.5-3.1,6.7-4.7c1-0.1,2-0.2,3-0.2
				c1.1-0.1,2.3-0.2,3.4-0.3c1.5-0.4,3.1-0.9,4.6-1.4c0.5,0.1,1,0.1,1.5,0.2C266.7,83.1,266.7,84.1,266.7,85.1z"/>
			<path fill="#786D58" d="M278.1,83.7c-2.9,2.8-4.6-0.4-6.7-1.4C273.8,82.2,276.7,79.5,278.1,83.7z"/>
			<path fill="#786D58" d="M265.2,81.9c-1.5,0.5-3.1,0.9-4.6,1.4c-0.4-0.9-1.6-2-0.3-2.6C262,80,264,79.8,265.2,81.9z"/>
			<path fill="#786D58" d="M266.7,85.1c0-1,0-2-0.1-3c1.1-1.6,2.2-1.9,3.4-0.1C269,83,267.9,84.1,266.7,85.1z"/>
			<path fill="#958876" d="M233,94.8c1.7-2.1,3.4-4.2,5.1-6.2c1-0.5,2.1-1.1,3.1-1.6C242.1,93.3,238.2,94.6,233,94.8z"/>
			<path fill="#8F7F6B" d="M400.3,147.8c0.6-0.4,1.3-0.8,1.9-1.3c0,1,0.3,2.9,1,2.5c4.6-2.7,10.8-1.1,14.6-5.7c0.6,0,1.3,0,1.9,0
				c0,0.4,0,0.8-0.1,1.3c0.6,1.4,2,1.5,3.3,1.8c-5.9,2.1-11.9,4.2-17.8,6.3C403.9,150.6,399.9,151.4,400.3,147.8z"/>
			<path fill="#BAA37B" d="M250.5,114.7c-0.4-1.8-0.9-3.6-1.3-5.4c1.2-0.2,2.6-0.2,3.1-1.7c3.1-3.9,1.9-8.4,1.7-12.8
				c2.7,4,2.4,10.7,9.8,10.6c2.1,0,2.9-0.5,3-2.4c2.7,1.5,5.4,1.7,7.9-0.6c0.7,5-5.1,2.5-6.2,5.3c-4.3,2.6,0,4.2,1.1,4.8
				c3.2,1.8,3.4-0.8,3.4-3.1c4.9,1.2,3.1,7.2,6.6,9.4c-5.3,2.3-5.4,6.6-4.5,11.3c0.5,4.8,0,9.8,3.2,14c0.1,1.7,0.2,3.3,0.2,5
				c-0.6,0.5-1.2,1.1-1.8,1.6c-3.3-0.7-5.9-2.2-6.7-5.7c0.8-4-1.8-7.1-3.1-10.5c0-3.1,0.9-6.8-0.3-9.3c-1.9-3.8-0.5-13.1-10.1-7.6
				C253.9,119.2,252.4,115.8,250.5,114.7z M267.3,115.4c-1.5-3.7-3.1-5.1-6.4-6C262.4,112.3,263.6,114.2,267.3,115.4z"/>
			<path fill="#332619" d="M209.1,148c-2,5.2-10.9,6.4-8.1,14.3c-2.2-0.1-5-6.6-6.6,0.5c-0.6-0.7-1.2-1.4-1.7-2.1
				c-0.9-3,2.4-3.2,3.4-4.9c5.1-4.8-0.2-11,2.3-16.1c1.9-1.4,4.2-1.6,6.5-1.8C210,139.7,209.5,143.9,209.1,148z"/>
			<path fill="#917249" d="M362,189.4c-0.1-0.9-0.1-1.8-0.2-2.8c1.4-0.2,2.9-0.4,4.3-0.6C366.2,189,364.2,189.4,362,189.4z"/>
			<path fill="#DFB67E" d="M204.2,160.7c1.8-3.4,5.1-2.8,8.1-3C211,162.6,207,160.2,204.2,160.7z"/>
			<path fill="#D2B995" d="M149.5,138.3c1,0,2-0.1,3-0.1c2.7,0.4,4.2-1,5.2-3.3c4.6,2.4,10.3,2.8,13.8,7.4c1.1,1.4,2.6,1.7,3.7-0.4
				c5.8-10.4,6.5-2.4,8.1,2.2c-0.3,5.2-6.3,3.4-8.2,6.7c-1.7,0.7-2.1-1-3.1-1.6c-0.3-3.2-2.9-4.9-4.9-6.6c-3.2-2.7-6.4-2.6-8,2.2
				c-2.1-0.7-4.2-1.4-6.3-2.1C151.7,141.3,148.7,141.2,149.5,138.3z"/>
			<path fill="#2F2116" d="M152.8,142.7c2.1,0.7,4.2,1.4,6.3,2.1c0.3,1.1,1.7,2.4-0.3,3.2c-3.1-1.2-6.2-2.3-9.3-3.5
				C150.2,143.1,151.6,143.1,152.8,142.7z"/>
			<path fill="#876A40" d="M173.7,104.9c2.6-2.6,4.9-2,7.3,0.9c-2.5,2.2-5-0.2-7.3,0.1C173.6,105.5,173.7,105.2,173.7,104.9z"/>
			<path fill="#857050" d="M419.6,128.6c0.1-0.5,0.3-0.9,0.5-1.4c1.8-1.5,3.6-3,5.8-4.9c0.5,5.1-2.9,6.7-6,8.5
				C419.8,130.1,419.7,129.4,419.6,128.6z"/>
			<path fill="#9D8759" d="M419.6,128.6c0.1,0.8,0.2,1.5,0.2,2.3c-0.7,2.8-3.2,2.3-5.1,2.9C415.5,131.3,417.6,130,419.6,128.6z"/>
			<path fill="#936A3D" d="M165.9,170.7c2.6-2.9,3.7,2.4,6,1.1c0.6,0.7,1.1,1.3,1.7,2c-2.1,0-4.2-0.1-6.3-0.1
				C166.8,172.7,166.4,171.7,165.9,170.7z"/>
			<path fill="#514530" d="M417.8,143.3c-3.8,4.6-10,3-14.6,5.7c-0.7,0.4-1-1.5-1-2.5c2-0.5,3.5-1.7,4.6-3.5
				C410.4,142,414.1,143.1,417.8,143.3z"/>
			<path fill="#514530" d="M419.6,144.6c0.1-0.4,0.1-0.8,0.1-1.3c1.6-0.7,3-2.3,5.1-1.3C424.2,145.2,421.7,144.4,419.6,144.6z"/>
			<path fill="#C5B097" d="M416.1,82.4c-3-2.2-6.2-0.1-9.2-0.5c2.6-2.5,5.1-5,7.7-7.4C415.1,77.1,415.6,79.7,416.1,82.4z"/>
			<path fill="#3D352B" d="M274.7,102.5c-2.5,2.3-5.1,2.1-7.9,0.6c-1-3.4-8-5.6-2-10.4c2.8-2.2,6.1-4.7,9.2-3.3
				c3.8,1.8,2.1,5.9,1.2,9.2C274.8,99.8,274.8,101.2,274.7,102.5z"/>
			<path fill="#352C1D" d="M254,94.9c0.1,4.4,1.4,8.9-1.7,12.8c-7.1,0-4.4-6.5-6.5-9.8C248,95.3,249.9,92.1,254,94.9z"/>
			<path fill="#241B11" d="M242.6,114c-6.5-1.2-7.7-5.2-5.9-10.9c1-0.6,1.9-1.2,2.9-1.8c3.5-0.1,5.6,0.6,4.2,5
				C242.9,108.7,242.9,111.4,242.6,114z"/>
			<path fill="#60533C" d="M242.6,114c0.3-2.6,0.3-5.3,1.1-7.7c1.5-4.3-0.6-5.1-4.2-5c1.6-2,4-2.6,6.3-3.4c2.1,3.3-0.6,9.8,6.5,9.8
				c-0.6,1.5-1.9,1.4-3.1,1.7C245.5,108.7,245.6,113.5,242.6,114z"/>
			<path fill="#5D5037" d="M275,130.2c-0.9-4.7-0.8-9,4.5-11.3c0.3-0.5,0.7-1.1,1-1.6c1.7,2,1,3.6-0.8,5
				C274,122.5,278.1,128.5,275,130.2z"/>
			<path fill="#88734E" d="M272.9,109.5c0,2.3-0.2,4.9-3.4,3.1c-1-0.6-5.4-2.2-1.1-4.8C269.5,109.6,271.3,109.4,272.9,109.5z"/>
			<path fill="#53422C" d="M321.6,104.6c3.7,3.5,3.1,5.2-3.2,9.5c0.6-3.2-7.1-6.3-0.1-9.5c0,0-0.1-0.1-0.1-0.1
				C319.3,106.4,320.5,105.8,321.6,104.6z"/>
			<path fill="#6F5D42" d="M318.2,98c1.4,0.1,2.7,0.4,3.4,1.8c-1,1.7-1.4,3.8-3.3,4.8c0,0,0.1,0.1,0.1,0.1
				C318.8,102.4,315.4,100.2,318.2,98z"/>
			<path fill="#3A2E22" d="M324.8,137c1.6-5.8,7.6-4.3,11.1-6.8c0.2,0.3,0.2,0.7,0.1,1.1c0.8,2.5,2.8,2,4.7,2.1
				c0.2,2.3,1.4,3.9,3.2,5.2c0,1.2-0.3,2.3-1.5,2.9C337.9,135.1,331,137.5,324.8,137z"/>
			<path fill="#393024" d="M342.5,141.5c1.2-0.6,1.5-1.7,1.5-2.9c1.5,6.9,8.1,3.3,11.7,5.8c-3.8,0.1-7.6,0.2-11.4,0.4
				C343.7,143.7,343.1,142.6,342.5,141.5z"/>
			<path fill="#493520" d="M358.2,122.4c2.4,7.3,9.3,10,14.6,14.3c-1.1,2-3.1,1.4-4.9,1.6c-3.2-0.7-5.2-3.4-7.8-5
				c-1.1-2-2.4-3.6-5.1-2.9c-1-0.7-1.9-1.5-2.9-2.2c0.7-1.7,4.3,0,3.6-2.8c-0.5-1.8-2.4-2.8-4.3-2.9c-3.7-0.4-0.9,2.6-1.8,3.7
				c-0.8,1-1.7,1.8-2.6,2.7c-1.5-0.7-3.1-0.9-4.7-0.2c0,0,0,0,0,0c0.9-1.3,1.9-2.5,2.6-3.9C350,115.1,350.5,115,358.2,122.4z"/>
			<path fill="#453020" d="M344.1,119.4c-0.2,3.3-1.2,6-4.1,5.3c-5.3-1.3-5.9-6.8-7.7-10.8c-1-2.3,2.1-4.5,3.6-4
				C340.5,111.5,341.7,116.4,344.1,119.4z"/>
			<path fill="#402E19" d="M340.9,104.6c5.7-0.3,5.4,6.1,9.1,8.1c0.3,0.4,0.3,0.8,0.2,1.3C344.7,113.2,343.6,108.2,340.9,104.6z"/>
			<path fill="#493520" d="M340.8,133.4c-1.9-0.1-3.9,0.4-4.7-2.1c1.6-2.1,3.9-2.5,6.3-2.7c0,0,0,0,0,0
				C341.9,130.2,341.3,131.8,340.8,133.4z"/>
			<path fill="#BEB48E" d="M350.2,113.9c0.1-0.5,0.1-0.9-0.2-1.3c2.7-2.6,2.1,1.8,3.6,1.7C352.2,116.2,351.2,115.4,350.2,113.9z"/>
			<path fill="#9E8C69" d="M318.2,104.5c2-1,2.4-3.1,3.3-4.8c1.1-0.4,2.6-1.7,3.3-0.2c1.7,3.3-3.1,2.7-3.3,5
				C320.5,105.8,319.3,106.4,318.2,104.5z"/>
			<path fill="#30271E" d="M204.8,138c-2.3,0.2-4.6,0.3-6.5,1.8c0,0-0.7,0.1-0.7,0.1c-0.5-8.5-6.8-13-12.4-18
				c-2.4-1-5.2-1.5-7.1-3.1c-5.9-4.8-11.5-4.4-17.3,0.1c-0.5-0.5-1.1-1.1-1.6-1.6c0.6-0.5,1.1-1.1,1.7-1.6c12.2-8.9,23-3.9,33.6,3.3
				c2,6.5,9,10.3,9.3,17.7C204.1,137.2,204.4,137.6,204.8,138z"/>
			<path fill="#897150" d="M159.2,117.4c0.5,0.5,1.1,1.1,1.6,1.6c0.6,0.6,1.2,1.2,1.7,1.9c-2,2.4-0.6,3.1,1.7,3.4
				c0,0.4-0.1,0.9-0.3,1.3c-2.3-0.4-4.4,0.1-6.2,1.6c0,0-0.4-0.3-0.4-0.3c-0.2-1.6,2-3,0.1-4.9C154.9,119.5,156,117.9,159.2,117.4z"
				/>
			<path fill="#2C2722" d="M183.4,144.2c-1.6-4.7-2.4-12.7-8.1-2.2c-1.1,2-2.6,1.8-3.7,0.4c-3.5-4.6-9.2-5-13.8-7.4
				c0-0.5,0-1-0.2-1.5c1.5-2.5,4.8-1,6.6-2.9c3.7-1.1,7.4-2.3,11.1-3.4c6.6,2.6,12.2,6.8,17.7,11.1
				C189.6,139.8,192.9,152.2,183.4,144.2z"/>
			<path fill="#A89575" d="M175.3,127.1c-3.7,1.1-7.4,2.3-11.1,3.4c-1.2-0.3-2.7-0.3-3.3-1.7c2-0.1,3.5-0.8,3-3.3
				c0.2-0.4,0.3-0.8,0.3-1.3c2.2-0.4,4.3-0.7,7.3-1.2c-3.4-1.4-5.8-3.2-8.9-2.2c-0.6-0.6-1.2-1.2-1.7-1.9c5.7-4.5,11.3-5,17.3-0.1
				c1.9,1.6,4.7,2.1,7.1,3.1C181.2,122.3,177.4,123.1,175.3,127.1z"/>
			<path fill="#B49E62" d="M157.6,133.4c0.1,0.5,0.2,1,0.2,1.5c-1,2.2-2.6,3.7-5.2,3.3c-0.5-1.6-1.9-3-0.3-4.8
				C154.1,131.2,155.8,132.5,157.6,133.4z"/>
			<path fill="#5E3F1E" d="M163.9,125.5c0.5,2.5-1,3.1-3,3.3c-1.2-0.2-2.6-0.2-3.2-1.7C159.5,125.6,161.6,125.1,163.9,125.5z"/>
			<path fill="#BFA173" d="M340.8,133.4c0.5-1.6,1.1-3.2,1.6-4.8c1.6-0.7,3.2-0.4,4.7,0.2c0.1,1.7-0.7,4.2,2,4.1
				c2.6-0.1,2.6-2.8,3.1-4.7c1,0.7,1.9,1.5,2.9,2.2c-0.6,1.9-4.1,3.2-2.2,5.1c3,2.9,4.8-1.4,7.3-2.2c2.6,1.7,4.5,4.3,7.8,5
				c1.1,1.9,2.4,3.5,5,3.1c-1.3,2.8-5.2,0.6-6.5,3.4c-3.6-0.1-7.1-0.2-10.7-0.4c-3.6-2.6-10.3,1-11.7-5.8
				C342.2,137.3,341,135.7,340.8,133.4z"/>
			<path fill="#755225" d="M373,141.4c-2.5,0.4-3.8-1.2-5-3.1c1.7-0.2,3.7,0.4,4.9-1.6c2.9,2.5,8.9,0.9,9.7,7.6
				C378.9,143.4,376.5,139.9,373,141.4z"/>
			<path fill="#A07A3E" d="M393.4,138.7c0.5,3.6,0.6,5.7-2.1,6.4c-0.4,0.1-1.4-0.8-1.6-1.4C388.7,140.6,392.2,141.1,393.4,138.7z"/>
			<path fill="#A17F4C" d="M399.8,140c0.5,0.4,1.4,0.7,1.6,1.2c0.3,1.3-0.8,1.8-1.8,1.8c-0.6,0-1.6-0.6-1.7-1.1
				C397.4,140.5,398.6,140.3,399.8,140z"/>
			<path fill="#926942" d="M361.6,99.8c7.1-0.9,12.8,1.2,16.4,7.7C372.9,104.1,365.7,105.3,361.6,99.8z"/>
			<path fill="#332C22" d="M346.8,148.1c2.8,0,5.8-1.1,8.3,1C352.4,149.1,349.5,149.8,346.8,148.1z"/>
			<path fill="#B28E68" d="M404.4,75.5c0.8,0.1,1.6,0.2,2.3,0.3c-2.3,2.7-8.8,0.3-8.1,6.6c-2.6,1.5-5.2,3-7.8,4.5
				C393.5,80.7,395.4,73.9,404.4,75.5z"/>
			<path fill="#B99884" d="M378.5,86.7c2.8,0.1,5.4,0.2,8.2,0.4C383.7,92.8,381.2,92.3,378.5,86.7z"/>
			<path fill="#788D6C" d="M402.2,66.1c-1.2,1.7,0.5,4.3-2.3,6.4c-0.2-3.1-5.7-5.4,0.7-7.8C401.2,65.2,401.7,65.6,402.2,66.1z"/>
			<path fill="#845225" d="M366.5,93.5c-0.1-2.9-1.4-5.8-0.1-8.7c1.9,1.7,6.1,1,6.1,4.1C372.5,91.9,368.3,91.6,366.5,93.5z"/>
			<path fill="#BAAD97" d="M381.2,59.4c0-3.7,0-7.3-0.1-11c3.4,3.3,0.3,7.4,1.5,11c0,0-0.7,0-0.7,0L381.2,59.4z"/>
			<path fill="#CFA772" d="M183.4,144.2c9.5,8,6.1-4.4,9.6-6c2.9,1.4-0.6,3.8,1,5.7c1.2-1.4,2.4-2.7,3.6-4c0,0,0.7-0.1,0.7-0.1
				c-2.5,5.1,2.8,11.3-2.3,16.1c-3.1-5.4-7.5-1-11.2-1.5c-3-1.8-5.5-4.6-9.6-3.5C177.1,147.6,183.1,149.4,183.4,144.2z"/>
			<path fill="#40321F" d="M158.8,148.1c2-0.9,0.6-2.1,0.3-3.2c1.6-4.8,4.8-4.9,8-2.2c2,1.7,4.6,3.4,4.9,6.6c-0.2,2.5-1.7,3.5-4,3.8
				c-2.4-0.9-2.5-8-7.1-2.5C160.3,149.7,159.6,148.9,158.8,148.1z"/>
			<path fill="#553F25" d="M168.2,153c2.3-0.3,3.8-1.3,4-3.8c1,0.7,1.4,2.3,3.1,1.6c4-1.1,6.6,1.7,9.6,3.5
				C180.6,159.4,172.8,158.8,168.2,153z"/>
			<path fill="#BB9774" d="M149.4,150.1c-0.1,2.5-0.8,5.3-3.8,4.6c-2.6-0.6-2.1-3.1-0.8-5.1c1.5-0.1,3.1-0.2,4.6-0.3L149.4,150.1z"
				/>
			<path fill="#371F0E" d="M149.4,149.4c-1.5,0.1-3.1,0.2-4.6,0.3c-2.1-1.3-1.6-2.5,0.1-3.6C147.4,145.9,148.8,147.1,149.4,149.4z"
				/>
			<path fill="#DFB67E" d="M204.8,138c-0.3-0.4-0.7-0.8-1-1.2c4.5-0.9,5.9-4.4,6.9-8.2c4,2.3,1.1-4.7,4.5-3.4
				c1.8-0.5,3.7-1.1,5.5-1.6c2,0.7,4,1.4,6,2.1c0.9,0.5,1.8,1.1,2.7,1.6c2.7,1.4,6.7,2.3,3.8,6.8c-2.8,4.3-5.3,1.2-7.8-0.6
				c-1.2-2.6-3-6.6-5.6-5.2c-3.5,1.9,1,4.5,1.5,7c0.1,0.5,0.4,1,0.6,1.4c1.2,3.2,3.7,6,3.2,9.7c-0.6,1.1-1.1,2.1-1.7,3.2
				c-2.4,1-4.9,1.7-7,3.1c-6.2,4.1-8.1,2.1-7.3-4.6C209.5,143.9,210,139.7,204.8,138z"/>
			<path fill="#2C2416" d="M250.5,114.7c2,1.1,3.5,4.5,5.9,3.1c9.6-5.5,8.2,3.8,10.1,7.6c1.2,2.6,0.3,6.2,0.3,9.3
				c-2.6,0.8-3.6-1.2-5-2.7c-1.6-1.7-3.3-4.3-6.3-2c-0.9,0-1.8,0-2.8,0c-1.4-2.7-2.9-5.5-4.2-8.2
				C247.1,118.9,247.1,116.3,250.5,114.7z"/>
			<path fill="#382C1A" d="M226.7,125.6c-2-0.7-4-1.4-6-2.1c-1.3-2.6-5.3-5.2-2-8.2c3.1-2.8,5.7,0.8,8.1,2.5c1.3,0.9,2.4,2.1,4,3.5
				c1.3-4.8-3.3-6-4.5-8.8c9.6-0.7,12.3,1.1,16.8,11.7c-3.1-2.3-6.2-4.7-9.1-6.9c-2.5,3.9,5.4,4.2,2.4,8.2
				C233.1,122.4,229.9,127.5,226.7,125.6z"/>
			<path fill="#A47E51" d="M236.3,125.6c2.9-4-4.9-4.3-2.4-8.2c2.9,2.2,6,4.5,9.1,6.9c0.2,0.4,0.4,0.7,0.7,1.1
				c0.3,0.9,0.5,1.8,0.8,2.7c-1.6,5.5-6,9.6-6.5,15.7C235.1,137.6,240.5,131.3,236.3,125.6z"/>
			<path fill="#A47E51" d="M252.8,130c0.9,0,1.8,0,2.8,0c-2.6,2.9,2.2,8.3-4.2,10.4c-1.2-3.4,0.1-8-3.8-10.3c0-0.5,0-1.1,0-1.6
				C249.2,129.4,250.8,130.5,252.8,130z"/>
			<path fill="#4F3518" d="M221.9,136.6c-0.2-0.5-0.5-0.9-0.6-1.4c-0.6-2.4-5-5.1-1.5-7c2.6-1.4,4.4,2.6,5.6,5.2
				C225.4,135.7,224.6,137.2,221.9,136.6z"/>
			<path fill="#754B20" d="M223.4,149.5c0.6-1.1,1.1-2.1,1.7-3.2c2.3-0.9,0.8-4,2.8-5.1C228.2,148.7,227.8,149.4,223.4,149.5z"/>
			<path fill="#70572B" d="M247.6,128.5c-0.1,0.5-0.1,1,0,1.6c-1-0.7-2.1-1.4-3.1-2c-0.3-0.9-0.5-1.8-0.8-2.7
				C247.1,123.7,247,126.6,247.6,128.5z"/>
			<path fill="#CEC1A0" d="M210.6,128.5c-1,3.8-2.4,7.3-6.9,8.2c-0.3-7.4-7.3-11.2-9.3-17.7c1-2.2,2.4-3.2,4.7-1.6
				c1.3,3.9,5.2,4.6,8.2,6.4C208.4,125.4,209.5,127,210.6,128.5z"/>
			<path fill="#272016" d="M207.3,123.8c-3-1.8-6.9-2.5-8.2-6.4c0.6-1.6,1.2-3.3,1.8-4.9c1.4-0.9,2.7-2.3,4.7-1.5
				c1.1,2.6,2,5.4,3.3,7.9C210.2,121.3,209.9,122.9,207.3,123.8z"/>
			<path fill="#624F34" d="M207.3,123.8c2.6-1,2.8-2.5,1.6-4.9c-1.3-2.5-2.2-5.3-3.3-7.9c3.6,1,3.5,6.5,7.9,6.5
				c-0.8,2.8,1.1,5,1.5,7.6c-3.4-1.4-0.4,5.6-4.5,3.4C209.5,127,208.4,125.4,207.3,123.8z"/>
			<path fill="#8C7958" d="M213.6,117.6c-4.4,0-4.3-5.6-7.9-6.5c-2-0.8-3.3,0.5-4.7,1.5c-0.5-3.8,3.8-2.8,5-5
				c3.4,0.4,5.3,4.9,9.4,3.3C214.1,112.9,212.8,115,213.6,117.6z"/>
			<path fill="#40301D" d="M215.3,110.9c-4.1,1.6-6-2.9-9.4-3.3c0.2-3.6,2.8-3.2,5.1-2.8C214.4,105.3,215.6,107.6,215.3,110.9z"/>
			<path fill="#8D7751" d="M267.3,115.4c-3.7-1.2-4.9-3.1-6.4-6C264.2,110.3,265.9,111.7,267.3,115.4z"/>
			<path fill="#947B5A" d="M352.3,128.2c-0.5,1.9-0.5,4.6-3.1,4.7c-2.7,0.1-1.9-2.4-2-4.1c0.9-0.9,1.8-1.7,2.6-2.7
				c0.9-1.1-1.9-4.1,1.8-3.7c1.9,0.2,3.9,1.2,4.3,2.9C356.5,128.1,352.9,126.5,352.3,128.2z"/>
			<path fill="#947B5A" d="M360.2,133.3c-2.4,0.9-4.3,5.2-7.3,2.2c-1.9-1.9,1.6-3.3,2.2-5.1C357.8,129.7,359.1,131.3,360.2,133.3z"
				/>
			<path fill="#CCBE9E" d="M197.6,139.9c-1.2,1.3-2.3,2.6-3.6,4c-1.6-1.9,1.9-4.3-1-5.7c-5.5-4.3-11.1-8.5-17.7-11.1
				c2.1-4,5.9-4.8,9.9-5.1C190.8,126.9,197.1,131.4,197.6,139.9z"/>
			<path fill="#524024" d="M162.5,120.8c3.1-1,5.5,0.8,8.9,2.2c-2.9,0.5-5.1,0.8-7.3,1.2C161.9,123.9,160.5,123.2,162.5,120.8z"/>
		</g>
	</g>
</g>
</svg>
