<?xml version="1.0" encoding="utf-8"?>
<!-- Generator: Adobe Illustrator 18.1.0, SVG Export Plug-In . SVG Version: 6.00 Build 0)  -->
<svg version="1.1" id="Layer_1" xmlns="http://www.w3.org/2000/svg" xmlns:xlink="http://www.w3.org/1999/xlink" x="0px" y="0px"
	 viewBox="0 0 516.2 516.2" enable-background="new 0 0 516.2 516.2" xml:space="preserve">
<g>
	<g>
		<path fill="#393024" d="M320.2,228.1c9.7,0.9,18.7,5.7,28.6,4.8c-1.2,3.8,1.5,4.9,4.1,6.1c-0.9,0.6-1.7,1.1-2.6,1.7
			c-2.9-1.8-5-0.9-6.2,2.1c-2.7,2.1-5.4,4.2-8.1,6.3c-7.2,4.5-4.8,13.5-9.7,19.5c3.6,0.5,7.4,0,6.8,4.8c-2,0.9-3.9,2.3-5.9,2.4
			c-4.6,0.4-6.7,2.1-6.7,6.6c0,2.4,0.7,4.7,1.1,7c-2.1,1.6-4.3,3.2-6.4,4.8c-1.7-0.5-1.7-1.9-1.6-3.3c1.5-1.5,3.1-2.9,2.5-5.8
			c-2.3,0.9-3.4,2.4-3.8,4.6c-2.7,4.2-5.5,8.3-8.2,12.5c-3.3,2.9-1.1,6.9-2,10.3c-1.5-1.3-3-2.7-4.5-4c0.5-3.3-0.3-6.6-2.3-9.1
			c-3.5-4.1-2.9-7.9,0.3-11.4c1.5-1.5,1.5-3.2,2.2-4.9c4-10.1,2.5-20.3,1.5-30.6c4.2-7,6.3-15.2,12.1-21.3
			C314.8,231.7,316.6,227.3,320.2,228.1z M317,265.6c3.8-0.6,1.8,4.4,5.4,5.4c2.4-8,5.2-15.5,6.9-23.3c1.7-7.5-4-15.5-9.4-14.4
			c-3-0.3-4,1.7-5.2,3.9c-4.4,8.2-7.9,16.7-8,26.3c-3.8,1.3-2.4,4.3-2.5,6.9c0.5,7.3-0.6,14.5-2.8,21.6
			C308.9,284.4,313.6,275.4,317,265.6z"/>
		<path fill="#CDB792" d="M141.6,282.9c-8.5-0.3-17,0.1-25.5,1.4c-5.9,0.9-12.1,0.1-18.2,0c0.2-5.5-4.4-1.6-6.2-3.2
			c-1.4-2-4-3.8,0.3-5.8c3.1-1.4,5.8-3.3,9.4-2.2c3.2,0.9,5.7,3.5,9.2,3.2c4.4,0.1,7.5-3.3,11.4-4.6c5.1,5,12.8,4.2,15.9-2.3
			c1.6-3.3,3.5-4.4,6.7-4.3c7.9,2.6,3.7,8.1,3.2,12.8c-0.5,0.6-1,1.1-1.5,1.7C144.8,280.8,143.2,281.8,141.6,282.9z"/>
		<path fill="#B69F74" d="M299.2,252.5c0.9,10.3,2.5,20.5-1.5,30.6c-0.7,1.7-0.7,3.3-2.2,4.9c-3.3,3.5-3.8,7.3-0.3,11.4
			c2,2.4,2.8,5.7,2.3,9.1c-6.9-2.2-13.9,0.8-20.8-0.1c2.8-1.2,1.9-3.6,1.7-5.7c1-0.2,2.1-0.5,3.1-0.7c0.4,0.2,0.9,0.4,1.3,0.7
			c7.7-1.3,7.8-5.9,5.3-11.8c-0.5-3.3-1.4-6.4-5-2.3c-1.4,1.6-1.8,3.3-3.8,0.9c0.7-2.1,1.5-4.1,2.2-6.2c2.3-2.3,0.5-7,4.8-8.1
			c4-7.8,10.2-14.7,9.4-24.3C296.9,251.4,298,251.9,299.2,252.5z"/>
		<path fill="#78532A" d="M472.8,334.2c4.5,2,7.9,5.3,13.4,6.2c6.9,1.1,9.6,7.9,10.8,14.2c0.9,4.8-4.9,7-13.2,5.4
			c0.3-0.5,0.6-0.9,0.8-1.4c1.1-2.6,4.2-5.7,1.2-7.9c-3.8-2.8-4.1,2.2-5.9,3.9c-0.7,0.7-1.9,1.4-2.7,1.3c-1.8-0.3-1.5-1.9-1.1-3.2
			c0.4-1.4,2-3.1-0.7-3.6c-2.2-0.4-2.7,1.4-2.8,3c-0.1,2.1-1.3,2.7-3.1,3c0,0-0.1-0.1-0.1-0.1c-0.3-7.1-4.9-9.5-11-8.8
			c-2.6,0.3-3.3-0.4-3.7-2.5c1.8-4.4,5.6-6.4,9.7-8C468,339.1,470.5,337.4,472.8,334.2z"/>
		<path fill="#B09F88" d="M122.1,271.7c-3.9,1.3-6.9,4.6-11.4,4.6c1.3-3,2.7-8.7,1.3-9.1c-4.5-1.3-9.6-1.1-14.8,0.2
			c1.7,2.2,3,3.9,4.2,5.6c-3.6-1.1-6.3,0.7-9.4,2.2c-4.4,2-1.7,3.8-0.3,5.8c-2.3,0-4.6,0-6.9,0.1c-2.6,0.1-1.9,1.7-1.2,3.1
			c-5.8-1.9-12.1-0.2-17.8-2.8c1.9-4.7-3-4-4.7-5.1c-6.6-4.1-6.8-8.4-0.1-12.8c6.5,0.2,13.1-1,19.4,1.3c-2.9,0.1-5.8,0.1-8.7,0.2
			c-1.5,0.1-3.5-0.7-3.9,1.5c-0.2,1.1,0.3,2.9,1.1,3.6c3.9,3,7.7,8.9,12.6,7.1c4-1.5,7.1-6.8,8.4-11.8c9.6-0.1,19.3-0.3,28.9-0.4
			c0.2,0.2,0.5,0.4,0.7,0.7c0.9,1.5,1.8,2.9,2.7,4.4C122.1,270.6,122.1,271.2,122.1,271.7z"/>
		<path fill="#261B11" d="M425.8,259.1c0,0.9,0,1.7,0,2.6c-2.6,2.7-5.2,5.4-7.8,8.1c-1.7,2.1-4,3-6.4,4.2
			c-5.4,2.6-12.1-1.5-16.9,3.3c-3.8-4.2-7.7,3.9-11.3,0.1c-6.4-6.7-15.2-7.8-23.3-10.6c-2.1-2.3-4.2-4.6-6.3-6.9
			c-0.1-1.8-0.8-3.2-2.1-4.6c-2-2.2-1.5-4.2,1.9-4.5c0.5,4,3.5,6,6.6,7.4c8.3,3.6,16.7,6.9,25.1,10.1c6.7,2.5,13.4,2.9,19.8-1.3
			c4.4,2.5,7.8-0.4,11.5-1.9C419.9,263.2,421.4,259,425.8,259.1z"/>
		<path fill="#1F1C18" d="M33.7,273.5c-22.1-9.2-24-23.6-23.8-41.9c0-2,1.1-4.5,3.3-5c2.5-0.6,3.7,1.6,4.7,3.5
			c0.7,1.4,1.2,2.9,1.4,4.5c1.4,10.7,6.1,19.2,15.8,24.4C30.3,263.4,31.4,268.4,33.7,273.5z"/>
		<path fill="#332C22" d="M302,312.5c0.9-3.4-1.3-7.4,2-10.3c1,0.7,1.3,3.5,2.4,2.4c4.4-4.2,10.8-2.1,15.4-5.3
			c7.3,1.4,13.5-3.6,20.6-3.5c1.7,0.9,3.4,1.7,5.1,2.6c-0.1,0.8-0.2,1.6-0.3,2.4c-6.1,0.3-10.6,4.1-15.5,7.1
			c-2.5,1.5-1.5,3.6-0.7,5.6c-4.9,3.1-3,7.2-1.6,11.2C320.1,321,310,319.2,302,312.5z M324.3,302.5c-6.5,1.5-9.5,5.4-11.1,10.3
			c-0.2,0.5,3.9,3.6,4.9,3.2C323.2,313.5,323.7,308.3,324.3,302.5z"/>
		<path fill="#806039" d="M188.4,322.9c2.5,2.7,5.1,5.3,7.4,8.2c3.4,4.2,1.6,8.3-0.5,12.4c-2.1,4.2-5.2,3.7-8.6,2.3
			c2.9-1.7,1.9-3.2-0.2-4.6c2.5-0.1,4.7-0.4,4.7-3.7c-1.9-0.6-3.3,2.3-5.2,0.3c-0.5-0.5-1.8-3.1-2.3,0c-0.1,0.8,1,1.8,1.5,2.6
			c-10.2-1-3.5-5.7-2.1-9.3c-0.5-1.6-1.7-1.8-3.1-1.6c-2.1,0.3-1.3,1.8-1.3,3.1c-1.4,0.7-4-0.6-4.3,1.7c-0.2,1,1.5,2.3,2.3,3.4
			c-1.8-0.4-3.1,0-3,2.2c0.2,4.6-2.8,5.4-6.4,5.7c-0.4-2.1,3.2-4.2,0-6.3c-1.1-3.4,1.1-9.5-6.3-7.9c-0.1-0.5-0.1-1.1-0.2-1.6
			c-0.2-1.6-3.7-5.3,2-3.2c1.9,0.7,3.9,1,5.9,1.5c4,0.7,2.9-3.6,4.8-4.9c0.2,1,0.4,2.1,0.5,3.1c2.8-3.7,8.3,3.5,9.3-1.2
			C184.4,319.9,187.1,324.4,188.4,322.9z"/>
		<path fill="#7E5C36" d="M350.2,225c0.1-0.5,0.2-1.1,0.3-1.6c3.1-0.8,6.8-0.4,8.8-3.6c0.1-0.2-2.2-2.6-2.5-2.4
			c-2.1,1.2-4,2.8-6,4.2c-0.8-7.4-3.3-14.8-0.2-22.2c1.4-1,2.8-2,4.7-1.3c0.2,1.3,0.2,1.9,2.2,1.8c3.8-0.2,8.1-0.9,11.1,2.9
			c-0.2,5.7-7.5-0.3-8.1,5.4c6.2-0.5,12.3-0.5,14,7.3c-0.4,0.1-0.7,0-1.1,0c-1.8-4.9-3.5-1.3-5.3,0c-0.6-1.5,1-3.9-1.6-4.7
			c-0.4-0.1-1.4,0.7-1.5,1.2c-0.5,2.5,1,3.3,3.2,3.3c0.4,1.8,2,1.5,3.2,1.9c0.5,1,1,2,1.4,3.1c-0.3-0.1-0.7-0.2-1.1-0.2
			c-5.1-1.5-9.6-3.9-11.2-10.6c-3.2,4.7-0.7,6.3,1.4,8.3c2.3,2.2,6.1,2.1,7.5,5.5c-1.5,0.7-3.1,1.3-4.6,2c-1.2,0.5-2.3,1.1-3.5,1.5
			c-1.8,0.6-4.6-1.3-5.5,1.3c-0.9,2.7,2.6,3.5,3.6,5.6C353.9,233.3,352.2,229,350.2,225z"/>
		<path fill="#936A3D" d="M168.7,328c-2-0.5-4-0.8-5.9-1.5c-5.7-2.1-2.3,1.5-2,3.2c-6.6,2.8-1.5,5.4,0.2,8c2.1,0.9,2.9,2.6,3,4.8
			c-2.2,2.6-4.3-0.5-6.5-0.1c-0.1-1.3-0.3-2.4-1.6-3c-2.5-1.6-8.4,4.4-8.2-3.5c2.1-6-1.1-10.8-4.1-15.3c-1-1.5-3.7-3.7-5.8-0.3
			c-1.2-0.7-1.3-2-1.4-3.2c2.7-5.3,5.1-2.3,7.9,0c1.8,1.4,4.2,2.7,6.3,1.1c1-0.7-0.1-2.4-1.4-3.1c0.8-0.9,1.5-1.7,2.3-2.6
			c-1.2-0.1-2.4-0.2-3.6-0.4c0-0.5-0.1-1-0.1-1.5c1.6-1.1,3.2-2.2,4.7-3.3c1,0.5,2.1,1,3.1,1.6c3.4,4.2,5.1,10.1,11.5,11.2
			C164.6,323.2,167.4,325.4,168.7,328z"/>
		<path fill="#99805E" d="M387.4,305.4c-0.4,0.2-0.9,0.3-1.4,0.3c-4-2.8-4.7-2.5-6.6,3.1c-1.9,1.8-6.4,1.6-4.6,6.1
			c-0.7,2.8-2.3,3.9-4.2,1.3c-1.7-2.4-3.4-2-5.4-1c-4.3,2.6-7.5-1.4-11.4-1.7c0.1-1.3,0.1-2.6,1.4-3.3c2.8-0.6,5.8-0.8,6.8-1.9
			c-2-2.8-3.7-5.1-5.3-7.4c2.9-1.5,1.1-3.2,0.2-4.9c6.4,0.6,13-2.1,19.1,1.6c-0.8,2.4-1.5,4.3-4.6,1.7c-1.7-1.4-4.3-0.4-4.9,2.2
			c-0.9,3.4,2.6,1.7,3.7,2.4c4.2,2.6,6.5,0.6,7.9-6.5c1.5-0.6,1.7-1.8,1.3-3.2c4.3,1.6,8.7,3.1,13,4.7
			C394.2,303.8,386.1,301,387.4,305.4z"/>
		<path fill="#D2BC9D" d="M419.5,231.4c0.7,1.6,2.3,3,1.5,5c-5.7,1.4-6.2,3.3-3.1,12.7c-4-0.9-6.3,2-8.7,4.3
			c-3.4,3.3-6.9,6.3-11.7,7.3c-2.2-2.8-3.4-5.8-3.6-9.4c-0.3-7.2,6.8-4,9.5-6.9c1.4-0.2,3.1,0.4,4.1-1.1c0.5-0.8-0.1-1.5-0.9-1.6
			c-1.8-0.1-2.5,1.4-3.2,2.7c-2-0.1-4,0-5.1-2.1c0.7-2.6,1.3-5.1,2-7.7c1.1-1.6,2.1-3.1,3.2-4.7c0.6-0.1,1.3-0.3,1.9-0.4
			c2.5,1.2,5.6-0.3,7.9,1.9c0.4,4-3.9,4.6-5.3,7.4c3.2-1.4,7.7-0.9,8.2-5.9c0.6-0.5,1.1-1,1.7-1.6
			C418.4,231.4,419,231.4,419.5,231.4z M398.3,249.7c0.1,0.7,0.3,1.4,0.4,2.1c3.5-1.4,7.6-1,11-4.2c-0.9-0.5-1.4-1-1.8-0.9
			C404.6,247.6,401.5,248.6,398.3,249.7z"/>
		<path fill="#73512A" d="M398.6,329.9c6.8,3.7,15.7,4,19.5,12.4c-1.3,2.3-3.2,4.1-3.8,3.6c-4.6-3.4-6.8-1-7.4,3.5
			c-0.3,2.3-0.3,4.2-3.1,4.4c0,0-0.3-0.2-0.3-0.2c1.8-3.8,3.2-7.4-3.1-8c-2.8,0.6-0.3-7-5.1-3.3c-4.2,1-6.4-6.4-11.5-2.8
			c-0.8,0.6-0.9-1.3-0.9-2.3c0-1.1,2.5-3-0.6-3.1c-1.7-0.1-2.7,1.4-2.8,3.2c-2.7,0.7-3.6-0.2-2.8-2.9c1.5-1,2.9-2,4.4-3
			c0.6-1.9,1.3-3.8-1.8-3.8c1.2-1,2.3-2,3.5-2.9C390.8,335.7,389.4,336.8,398.6,329.9z"/>
		<path fill="#463522" d="M376.2,183.1c8.6,0.6,17.1,1.3,25.7,1.9c0.3,4.7,3.3,0.7,4.8,1.5c0,2.1-0.1,4.2-0.1,6.3
			c-2.2,0-3,1.3-3,3.3c-1.4-0.2-2.4-4.5-4.2-0.2c-0.9,2.1-2,4.2-4.2,5.3c-4.3,0.4-2,4.1-3,6.1c-1,0.5-2,1-2.9,1.5
			c-0.1-2.1-0.2-4.1-0.2-6.2c2-1,0.4-2.1,0-3.1c6.6-2,1.3-6.6,2.2-9.7c-0.7,1.1-1.4,2.2-2.1,3.2c-2.1,0.5-4.2,2.2-5-2
			c-1-4.7-4.4-4.7-7.5-1.7c-1.2,1.2-1.5,3.3-2.2,4.9c-4-1.6-4.8-5.3-4.5-8.8C370.4,181.4,374.7,185.4,376.2,183.1z"/>
		<path fill="#A57F4F" d="M149.3,314.9c1.3,0.7,2.4,2.4,1.4,3.1c-2.1,1.6-4.5,0.3-6.3-1.1c-2.8-2.3-5.3-5.3-7.9,0
			c-4.4-6.5-7.1-13.8-9.4-21.1c3.5-0.4,4.3,2.8,6.1,5.7c0.2-3.7,0.4-6.3,0.5-9c2.7,1.7,0.1,5.1,2.5,7.4c1.2-1.5,2.3-2.8,3.4-4.2
			c3.7,10.5,4.1,10.7,15,6.4c4.4,1.1,2.9-5.1,6.3-5.1c0.9,4.3-1.7,6.6-5,8.5c-0.1,1.1-0.1,2.2-0.2,3.3c-1-0.5-2.1-1-3.1-1.6
			c-2.4-0.2-5.3-1-4.7,3.3c0,0.5,0,1,0.1,1.5C147.8,313.1,148,314.2,149.3,314.9z"/>
		<path fill="#1C1611" d="M438.5,297.8c3.2,3,6.5,5.9,9.7,8.9c-8.1-3-10.6,2.2-12.5,8.4c-1.1,1.6-2.1,3.3-3.2,4.9
			c-2.1,1.7-2,6.2-6.4,5c-2.3-1.6-5.4-2.1-7-4.7c0.7-5.8,8.2-7.2,8.4-13.2C430.8,303.4,433.8,299.5,438.5,297.8z"/>
		<path fill="#352E25" d="M61,263.7c-6.7,4.4-6.5,8.7,0.1,12.8c1.7,1.1,6.6,0.3,4.7,5.1c-1.5-0.2-3-0.3-4.5-0.5
			c-2.5-7.3-6.8,0.6-10-1.1c-2.6-0.7-5.2-1.3-7.9-2c-1.1-4-1.2-8.2-3.9-11.7c-1.4-1.7-0.9-3.9,0.7-5.7C47,262.7,54.3,261,61,263.7z"
			/>
		<path fill="#D6A667" d="M432.5,319.9c1.1-1.6,2.1-3.3,3.2-4.9c5.6-3.9,11.8-2.3,17.8-1.5c0.2,0.4,0.1,0.8-0.2,1.2
			c-0.4,1.7-4.9,3.7-0.2,4.9c3.4,0.9,2.4,3.4,3.3,5.2l0.1-0.1c-1.9-0.2-3.7,0-5,1.6c-3.6,3.9,1.7,7.6,0.3,11.5
			c-2.1-2.2-4.3-4.4-6.4-6.6c0.4-1.9,2.7-3.6,0.7-5.6c-0.6-0.6-2.2-0.7-2.9-0.3c-3.2,1.9,1.5,3.9,0,5.9
			C437.8,329.3,435.3,324.5,432.5,319.9z"/>
		<path fill="#B39682" d="M406.5,192.9c0-2.1,0.1-4.2,0.1-6.3c0.7-3.3,5.7-5.3,3.2-9.7c2.7-3.7,5.9-6.9,9.9-9.1
			c6.5-3.6,9.3-2,9.5,5.5c0.1,2.9,0.1,5.9-1.7,8.5c-2.5-2.1-1.3-5-1.6-7.5c-0.2-1.8,0.5-4-1.9-4.8c-2.2-0.7-3.2,1.3-4.6,2.4
			c-4,3.2-5.5,8-7.1,12.3c-2.7,6.9,0.1,9.2,7.6,7.5c2-0.5,4.3-3.1,6.4,0.1c-0.5,2.6,0.4,5.6-2,7.7c-0.1-6.1-2.5-4.6-5.4-1.7
			c-2.5,2.5-4.9,6.1-8.7,1.5c-0.6-0.5-1.2-1-1.8-1.5C408.3,195.8,408.8,193.8,406.5,192.9z"/>
		<path fill="#A98264" d="M376.2,183.1c-1.5,2.3-5.8-1.7-6.2,2.3c-0.3,3.5,0.5,7.2,4.5,8.8c1.1,0.1,2.2,0.2,3.3,0.2
			c-0.5,2.3,0.2,4.5,1,6.6c-0.9,0-1.9-0.1-2.8-0.1c-0.9,0.1-1.9,0.2-2.8,0.3c-1.5-3-1.5-3-4.7,1.5c-2.9-3.8-7.3-3.1-11.1-2.9
			c-2,0.1-2-0.5-2.2-1.8c-0.1-5.4,3.8-4.5,8-3.4c-2-2.8-3.4-4.7-4.7-6.5c1.6-0.6,3.2-1.2,4.8-1.8c5-2.1,5.1-5.8,3.7-10.2
			c-0.6-1.8-3.3-3.4-0.6-5.5C369.7,174.7,372.9,178.9,376.2,183.1z"/>
		<path fill="#AC9471" d="M259,305.1c-3.2,0.1-6.5,0.3-9.7,0.4c-3.7-1.6-8.9,2.8-11.4-3.1c3.6-3.1,0.2-4.7-1.5-6.7
			c3.6-5.8,8-4.6,12.7-1.6c-3.6,5.7,3.9,5.5,4.8,9.2c-0.5-3.8,5-5.1,3.2-9.1c2.9,0.9,5.7,0.9,8.6-0.4c3.3,5.1,4.8,9.5-4,9.6
			C260.7,303.5,259.8,304.6,259,305.1z"/>
		<path fill="#877965" d="M184.8,237.8c6.9-4.5,14.6-6.6,22.6-7.7c-0.4,1.3-1.9,3.1,0.9,3.1c2.1,0,3.9,0.3,5.5,1.7
			c2.2,4.1,4,9.6,9.7,3.1c1.7,1.5,3.4,3,5.1,4.5c-1.2,1.7-2.3,3.4-3.5,5c-2.6-1-3.8-5.1-7-3.9c-2.1,0.8-0.7,3.8-1.2,5.7
			c-1.9-1.3-1-5.3-4.7-4.9c0.1-2.7,2.2-5.2-0.9-7.9c-3.2-2.8-7-1.8-9.5-1c-4.7,1.5,0.9,2.4,1,3.9c-2.1,2.2,2.5,4.8-0.5,6.9
			c-2.7-2.6-6.3-1.2-9.4-2.1c-1.1-1.1-2.2-2.1-3.3-3.2C189.6,237.4,186.8,238.2,184.8,237.8z"/>
		<path fill="#C9ABA3" d="M426.4,191.6c-2.1-3.2-4.4-0.5-6.4-0.1c-7.4,1.7-10.3-0.5-7.6-7.5c1.7-4.3,3.2-9.1,7.1-12.3
			c1.4-1.2,2.4-3.1,4.6-2.4c2.4,0.8,1.6,3,1.9,4.8c0.4,2.6-0.8,5.4,1.6,7.5C427.5,185,428.1,188.4,426.4,191.6z"/>
		<path fill="#8B7256" d="M410.3,199.2c3.8,4.6,6.2,0.9,8.7-1.5c2.9-2.9,5.3-4.4,5.4,1.7c-0.5,1.1-1,2.1-1.4,3.2
			c-2.9-0.1-4.7,1.9-6.5,3.5c-2.6,2.4,0.3,2.6,1.7,3.2c-1,0.7,1.6,3.6-2.1,2.8c-3.3-0.7-1.6,1.8-1.1,3.2c-0.7,0.7-1.4,1.4-2.1,2.1
			c-1.3-0.8-2.4-2.1-4.2-1.6c-0.1-1.1-0.3-2.3-0.4-3.4c1,0,2.6,0.2,2.8-0.1c0.4-1.1-9.9-7.8-11-7.3c-0.4,0.2-0.8,0.7-1.1,1.1
			c-1-5-2.2-0.7-3.4-0.1c-0.1-1.5-0.3-3-0.4-4.6c2.2-1.1,3.3-3.2,4.2-5.3c1.7-4.3,2.8,0,4.2,0.2c0,0-0.1-0.1-0.1-0.1
			C403.8,201.4,406.9,200.5,410.3,199.2z"/>
		<path fill="#261F19" d="M355.2,310.2c-1.3,0.8-1.4,2-1.4,3.3c-2.1,1.7-4.2,3.3-6.3,5c-1.5,0.4-2.8,1.1-3,2.8
			c-0.2,1.7,1.4,1.7,2.5,2.1c0.2,1,0.5,1.9,0.7,2.9c-0.4,3.2-2.4,3.9-5.2,3.6c-2-0.8-4.1-1.5-6.1-2.3c-0.3-4.2-0.8-8.5,1.2-12.5
			c2.8-3.6,5.8-6.7,10.8-6.6C351,307.7,353.8,306.3,355.2,310.2z"/>
		<path fill="#574D3D" d="M320.2,228.1c-3.6-0.8-5.4,3.7-8.9,3.1c-8-4.4-12.5,3.1-18.6,5.4c1.2-1.9,2.4-3.9,4.1-6.5
			c-6.2,0-11.5-4.6-17.2-0.1c-0.5,0.1-1,0.1-1.5,0c-1.5-4.3-4.4-1.6-6.7-1.4c-0.5,0-0.9-0.1-1.3-0.3c-1.2-1.9-2.3-1.5-3.4,0.1
			c-0.5,0-1-0.1-1.5-0.2c-1.2-2.1-3.2-2-4.9-1.2c-1.3,0.6-0.2,1.7,0.3,2.6c-1.1,0.1-2.3,0.2-3.4,0.3c0-1.5,0.1-3,0.1-4.5
			C278.4,224.3,299.3,224.9,320.2,228.1z"/>
		<path fill="#706959" d="M223.4,237.9c-5.6,6.5-7.4,1-9.7-3.1c1.5-1.5,4.5-0.7,5.9-3.5c-2.9-0.6-5.3-1.1-7.8-1.7
			c12.2-3.1,24.7-2.7,37.1-3.2c0.2,0.2,0.4,0.4,0.5,0.6c0.1,0.2,0.1,0.6,0,0.7c-2.1,2.8-8.4-0.8-8.2,5.5c0,0,0,0,0,0
			c-1,0.5-2.1,1.1-3.1,1.6C234,230.2,229.2,231.2,223.4,237.9z"/>
		<path fill="#1D160F" d="M408.7,310.3c-0.4-0.3-0.6-0.7-0.6-1.3c0.3-2.4,5-3.9,2.3-6.7c-2.2-2.3-4.2-0.2-5.4,2.1
			c-1.1-1.2-2.2-2.4-3.3-3.6c0.6-1.7,2-1.8,3.5-2c5.9-2.1,11.9-4.2,17.8-6.3c3.7-0.9,6.9-3.8,11.1-3.1c-0.4,0.6-0.7,1.2-1.1,1.8
			c-5.1,0.1-5.5,5.2-8.3,7.8C420.5,304.6,414.7,307.6,408.7,310.3z"/>
		<path fill="#BF8C52" d="M451.9,337.8c1.4-3.9-3.9-7.6-0.3-11.5c2.8,2.8,3.7,0.3,5-1.6c0,0-0.1,0.1-0.1,0.1
			c1.3-0.2,2.7,0.1,3.4-1.4c2.3,3.8,5.9,6.2,9.4,8.8c-2.8-0.3-3.1,2.7-4.9,3.7c-4.1,1.6-7.9,3.6-9.7,8c-1.1,0.1-2.1,0.1-3.2,0.2
			c-1.6-1.5-3.2-3-4.8-4.5C447.9,337.1,450.8,340.4,451.9,337.8z"/>
		<path fill="#D5B0A5" d="M363.3,186.3c-1.6,0.6-3.2,1.2-4.8,1.8c-3.2,1.7-6.2-7.3-9.4,0c0.1-6.6-1.5-13.2,1-19.6
			C359,171,363.9,176.7,363.3,186.3z"/>
		<path fill="#D2A184" d="M363.3,186.3c0.6-9.7-4.3-15.3-13.3-17.9c0.1-3.3,0.4-6.6,4.3-7.6c3.6-0.9,6.2,0.9,8.1,3.7
			c1.4,2,2.6,4,3.8,6c-2.7,2.2,0.1,3.8,0.6,5.5C368.4,180.5,368.3,184.3,363.3,186.3z"/>
		<path fill="#38332A" d="M89.9,265.5c-1.4,5-4.4,10.3-8.4,11.8c-4.8,1.8-8.6-4.1-12.6-7.1c-0.8-0.6-1.3-2.4-1.1-3.6
			c0.4-2.2,2.4-1.4,3.9-1.5c2.9-0.1,5.8-0.1,8.7-0.2C83.6,265.1,86.7,265.3,89.9,265.5z"/>
		<path fill="#796748" d="M408.7,310.3c6-2.7,11.8-5.7,15.8-11.2c-0.3,3.1,0.6,5.8,3,7.9c-0.2,6.1-7.7,7.5-8.4,13.2
			C415.1,317.5,411.2,314.6,408.7,310.3z"/>
		<path fill="#6F6049" d="M259,305.1c0.9-0.6,1.7-1.6,2.6-1.6c8.8-0.1,7.3-4.5,4-9.6c0-3.4,2.2-2.8,4.3-2.4c0.8,3.5,3.4,5,6.7,5.7
			c0.6,1.8,1.2,3.7,1.8,5.5c0.2,2.1,1.1,4.5-1.7,5.7C270.7,307.8,264.6,307.5,259,305.1z"/>
		<path fill="#C3AC85" d="M197.6,315.4c-2.8,2.2-6.1,0.8-9.2,1c-2.9,0.2-3,1.4-2,3.5c-3.1-0.1-4.4-2-4.8-4.8c0.7-10.9,1.5-11.4,11-8
			c0.6,0.7,1.2,1.4,1.7,2.1C194.5,311.8,194.2,314.6,197.6,315.4z"/>
		<path fill="#C8AD8A" d="M376.6,334.5c-0.8,2.7,0.1,3.6,2.8,2.9c1.2,2.6,2.4,5.1,3.5,7.7c-8-0.9-14-6.7-21.6-8.6
			c0.2-0.2,0.4-0.4,0.6-0.7c2.2-0.1,4.2-0.4,4.1-3.3c-1.4,0.2-2.9,0.4-4.3,0.6c-0.5-0.6-1-1.2-1.5-1.8c-0.1-1.1-0.2-2.1-0.3-3.2
			c1-0.5,2-1.1,3-1.6c0.2,0.4,0.4,0.9,0.5,1.4C367.8,330.2,371.6,333.5,376.6,334.5z"/>
		<path fill="#917249" d="M376.6,334.5c-5-1-8.8-4.3-13.1-6.6c6.8-1.3,13.4-2.8,14.4-11.4c2.5,1.6,5.1,3.3,7.6,4.9
			c-2,0.2-3.4,1-2.9,3.4c-1.2,1-2.3,2-3.5,2.9c-2.9,2.9-0.1,3.2,1.8,3.8C379.5,332.5,378.1,333.5,376.6,334.5z"/>
		<path fill="#D1BA96" d="M223.4,310.5c-6.9,1.8-13.8,4-21.1,4.2c0.2-0.5,0.4-1.1,0.6-1.6c2-1.7,1-4.1,1.2-6.2
			c2.9-0.5,6.8,1.9,8.1-3c2.6-0.2,5.1-2.4,7.8-0.1C221.1,306.1,218.9,310,223.4,310.5z"/>
		<path fill="#AE9C86" d="M40.3,260.5c-1.6,1.7-2,3.9-0.7,5.7c2.7,3.5,2.8,7.8,3.9,11.7c-3.5-0.8-7.3-1.1-9.7-4.4
			c-2.3-5.1-3.4-10.1,1.4-14.6C37.2,258.5,38.6,259.8,40.3,260.5z"/>
		<path fill="#715639" d="M133.7,292.4c-0.2,2.7-0.3,5.3-0.5,9c-1.8-2.8-2.6-6-6.1-5.7c1.5-8.1,9.3-9.1,14.6-12.9
			c1.6-1.1,3.1-2.1,4.7-3.2c3.4,0.1,3.1,2.6,3.2,4.9c-0.8,2.9,2.2,2.9,3.3,4.4c-1.2,0.4-2.7,0.4-3.3,1.9
			C142.9,284.4,139.6,284.7,133.7,292.4z"/>
		<path fill="#2D1D11" d="M377.8,316.4c-1,8.6-7.6,10.1-14.4,11.4c-0.1-0.5-0.2-1-0.5-1.4c-0.4-4,1.4-7.5,2.2-11.2
			c2-1.1,3.7-1.4,5.4,1c1.9,2.6,3.5,1.5,4.2-1.3C375.8,315.4,376.8,315.9,377.8,316.4z"/>
		<path fill="#C0A17F" d="M451.9,337.8c-1.1,2.6-4-0.7-5.2,1.7c-6.9-4.9-13.7-9.7-20.6-14.6c4.3,1.2,4.3-3.3,6.4-5
			c2.8,4.6,5.2,9.4,10.8,11.3c0.7,0,1.5,0,2.2,0C447.6,333.4,449.8,335.6,451.9,337.8z"/>
		<path fill="#866D4E" d="M151,255c2.6-3.1,6.4-4,9.9-5.5c1.8,2.4,3.2,0.4,4.8-0.3l-0.1,0c0.7,1.3,1.8,1.6,3.1,1.6
			c1.7,0.1,3.3,0.3,5,0.4c0,0.3,0,0.7,0,1c-4,4.4-11.8,3.3-14.4,9.8c-2.8-0.9-1.5-12.2-8.2-3.2C151,257.5,151,256.3,151,255z"/>
		<path fill="#BFA475" d="M427.5,306.9c-2.5-2.1-3.4-4.7-3-7.9c2.8-2.6,3.2-7.7,8.3-7.8c3.3,1,5.8,2.6,5.7,6.5
			C433.8,299.5,430.8,303.4,427.5,306.9z"/>
		<path fill="#C6B49F" d="M418,269.8c2.6-2.7,5.2-5.4,7.8-8.1c2.6,4.8,2,10,1.5,15.2c-3.9,3.8-8.8,5.9-13.8,7.9
			c-2.6-2.3,1.2-3,1.2-4.7c1.9-0.6,4.4-0.1,5.1-2.9c3.1-1.8,6.5-3.5,6-8.5c-2.2,1.9-4,3.4-5.8,4.9C418.4,272.9,418,271.4,418,269.8z
			"/>
		<path fill="#B19D78" d="M122.1,271.7c0-0.6,0-1.1,0.1-1.7c0.5,0,1,0.1,1.4,0.3c9.3,1.8,9.3,1.8,11.4-8.6c2.3-0.9,4.5-1.8,6.8-2.7
			c-0.3,2.3,1.3,3.5,3,4.6c0,0.5,0,1,0,1.5c-3.2-0.1-5.1,1-6.7,4.3C134.9,276,127.2,276.8,122.1,271.7z"/>
		<path fill="#CCAA76" d="M403.8,353.9c2.9-0.2,2.8-2.2,3.1-4.4c0.6-4.4,2.8-6.9,7.4-3.5c0.6,0.5,2.5-1.4,3.8-3.6
			c4.1,3.4-0.7,7.1,0.4,10.6C413.6,352.8,408.9,357.3,403.8,353.9z"/>
		<path fill="#8A693F" d="M382.9,345c-1.2-2.6-2.4-5.1-3.5-7.7c0-1.9,1.1-3.3,2.8-3.3c3.2,0.2,0.6,2,0.6,3.1c0,1,0,2.9,0.9,2.3
			c5.1-3.6,7.3,3.8,11.5,2.8c-1,3-4.8,4.5-4.5,8.2C387.2,350,386.3,345.7,382.9,345z"/>
		<path fill="#B9874C" d="M181.6,315.1c0.4,2.8,1.8,4.6,4.8,4.8c0.6,1,1.3,2,1.9,3c-1.2,1.5-4-3-5.1,2c-1,4.7-6.4-2.5-9.3,1.2
			c-0.2-1-0.4-2.1-0.5-3.1c0-1,0-2,0-3c-0.6-0.7-1.1-1.4-1.7-2C174.1,313.7,178.6,316.8,181.6,315.1z"/>
		<path fill="#BCA782" d="M434,289.5c-4.2-0.7-7.4,2.2-11.1,3.1c-1.3-0.2-2.6-0.3-3.3-1.8c2.1-0.2,4.6,0.6,5.2-2.6
			c-2.1-1-3.5,0.7-5.1,1.3c-0.6,0-1.3,0-1.9,0c-3.7-0.2-7.3-1.3-11.1-0.2c1.2-1.9,3.1-2.4,5-3.2c6.4,1.9,12.3-0.3,17.7-6.3
			C431,283.1,432.5,286.3,434,289.5z"/>
		<path fill="#A59474" d="M337.6,315.1c-2,4-1.5,8.2-1.2,12.5c-2.5-0.5-5.2-0.6-7-2.9c-1.4-4-3.3-8.1,1.6-11.2
			C333.8,312,335.9,312.7,337.6,315.1z"/>
		<path fill="#CAB187" d="M342.5,329.8c2.8,0.3,4.8-0.4,5.2-3.6c3.4-6.3,6-5.8,10.9,1.8c-1.3,2-3.5,3.4-3.2,6.2
			C351.1,332.8,346.8,331.3,342.5,329.8z"/>
		<path fill="#BD9A84" d="M349.1,188.1c3.2-7.2,6.3,1.7,9.4,0c1.3,1.8,2.6,3.7,4.7,6.5c-4.1-1-8-2-8,3.4c-1.9-0.7-3.3,0.4-4.7,1.3
			C350.1,195.6,349.6,191.9,349.1,188.1z"/>
		<path fill="#433320" d="M382.6,324.7c-0.5-2.4,0.9-3.1,2.9-3.4c4.4,2.8,8.7,5.7,13.1,8.5C389.4,336.8,390.8,335.7,382.6,324.7z"/>
		<path fill="#D4C0A0" d="M237.8,302.5c2.5,5.9,7.8,1.5,11.4,3.1c-6.7,2-13.7,2.5-20.6,3.2c-0.2-1.1-0.3-2.1-0.5-3.2
			c-1.5-4.8,0.8-6.5,5.2-6.7C234.8,300.1,236.3,301.3,237.8,302.5z"/>
		<path fill="#A68456" d="M469.6,355.3c1.7-0.3,3-1,3.1-3c0.1-1.7,0.6-3.5,2.8-3c2.7,0.5,1.1,2.2,0.7,3.6c-0.4,1.3-0.6,2.9,1.1,3.2
			c0.8,0.1,2-0.6,2.7-1.3c1.8-1.7,2.1-6.7,5.9-3.9c2.9,2.2-0.1,5.3-1.2,7.9c-0.2,0.5-0.5,0.9-0.8,1.4
			C479.1,358.2,473.5,359.3,469.6,355.3z"/>
		<path fill="#CCAC7C" d="M453.5,313.5c-6-0.8-12.2-2.3-17.8,1.5c1.9-6.2,4.5-11.4,12.5-8.4C451.1,308.1,453.1,310.2,453.5,313.5z"
			/>
		<path fill="#413525" d="M168.7,250.8c-1.3,0-2.4-0.4-3.1-1.6c2.4-0.9,3.8-2.6,4.8-4.9c1.1-0.5,2.2-1,3.3-1.5
			c4.5,0.1,7.9-2.3,11.1-5c0,0,0,0,0,0c2,0.4,4.8-0.4,4.7,3.2C183.4,245.9,173.9,243.9,168.7,250.8z"/>
		<path fill="#413122" d="M137.9,320.1c2.1-3.3,4.9-1.2,5.8,0.3c3,4.5,6.1,9.3,4.1,15.3C144.3,330.7,139.9,326.1,137.9,320.1z"/>
		<path fill="#574A3C" d="M418,249.1c-3.2-9.4-2.7-11.3,3.1-12.7c0.7,3.6,1.5,7.3,2.2,10.9c-0.6,3-1.5,5.9-3.7,8.1
			C420,253.1,418.7,251.2,418,249.1z"/>
		<path fill="#867254" d="M451.5,344c1.1-0.1,2.1-0.1,3.2-0.2c0.4,2.1,1.1,2.7,3.7,2.5c6.1-0.6,10.7,1.7,11,8.8
			C462.5,353.1,455.5,351.1,451.5,344z"/>
		<path fill="#9E9076" d="M405.1,298.9c-1.5,0.1-2.9,0.3-3.5,2c-4.3,2.9-9.3,3.4-14.2,4.4c-1.4-4.4,6.8-1.6,4.8-6.4
			c2.1-2.6,5.4-3.2,8-4.9C399.9,297.6,403.9,296.9,405.1,298.9z"/>
		<path fill="#413222" d="M429.5,279.9c-5.4,6.1-11.4,8.2-17.7,6.3c0.6-0.5,1.2-1,1.8-1.5c5-1.9,9.9-4,13.8-7.9
			C428,277.9,428.7,278.9,429.5,279.9z"/>
		<path fill="#393029" d="M176.6,337.7c-0.8-1.1-2.5-2.4-2.3-3.4c0.4-2.3,2.9-1,4.3-1.7c1.5-0.5,2.9-1,4.4-1.4
			c-1.4,3.6-8.1,8.3,2.1,9.3c0.5,0.2,1,0.4,1.4,0.7c2.1,1.4,3.1,2.9,0.2,4.6C182.6,344,177.6,343.3,176.6,337.7z"/>
		<path fill="#AA9D83" d="M419.5,255.5c2.2-2.2,3.1-5.1,3.7-8.1c2.3,3.6-0.5,8.3,2.6,11.8c-4.4-0.2-5.9,4.1-9.1,5.9
			C411.9,260.2,419,258.8,419.5,255.5z"/>
		<path fill="#685B44" d="M134.9,261.7c-2,10.4-2,10.4-11.4,8.6c2-1.2,2.5-3.3,3.4-5.2c0-0.4,0.1-0.9,0.1-1.3
			C129.7,263.2,132.3,262.5,134.9,261.7z"/>
		<path fill="#BA8B5D" d="M350.3,240.6c0.9-0.6,1.7-1.1,2.6-1.7c-2.6-1.2-5.3-2.3-4.1-6.1c-0.1-0.5,0-0.9,0.2-1.3
			c3.9-0.3,5.1,10.2,10.8,2.7c2.2,1.8,3.8,3.8,1.8,6.8c-1.9-0.6-2.4-4.6-4.9-2.6c-1.7,1.3,1.8,2.8,1.3,4.7c-2.1,1.2-3.5-4-5.8-0.6
			C351.6,241.9,351,241.3,350.3,240.6z"/>
		<path fill="#958876" d="M241.2,233.2c-0.3-6.3,6.1-2.7,8.2-5.5c0.1-0.2,0.1-0.5,0-0.7c-0.1-0.2-0.3-0.4-0.5-0.6
			c1.2-0.4,2.4-0.7,3.5-1.1c0.6,1.6,1.1,3.2,1.7,4.7c-2.2,1.6-4.5,3.1-6.7,4.7C245.4,234.2,243.3,233.7,241.2,233.2z"/>
		<path fill="#2E241E" d="M202.9,313.2c-0.2,0.5-0.4,1.1-0.6,1.6c-1.6,0.2-3.2,0.4-4.7,0.6c-3.4-0.9-3.1-3.7-3.3-6.2
			c1.6-7.2,4.4-0.6,6.6-0.5C201.6,310.1,202.3,311.7,202.9,313.2z"/>
		<path fill="#B49668" d="M390.8,350.5c-0.3-3.7,3.4-5.2,4.5-8.2c4.8-3.7,2.3,3.9,5.1,3.3c-4.7,1.8-6,4.3-1.7,8
			C395.4,354.1,392.9,352.8,390.8,350.5z"/>
		<path fill="#D8C29B" d="M398.6,353.6c-4.3-3.7-3-6.2,1.7-8c6.3,0.6,4.9,4.2,3.1,8C401.8,353.6,400.2,353.6,398.6,353.6z"/>
		<path fill="#DCB78D" d="M359.9,234.3c-5.7,7.5-6.9-3-10.8-2.7c-0.1-2.3-0.7-4.6,1.1-6.5c2,4,3.8,8.3,9.2,8.6
			C359.6,233.8,359.8,234,359.9,234.3z"/>
		<path fill="#A4927C" d="M414.9,215.2c-0.4-1.4-2.2-3.8,1.1-3.2c3.7,0.8,1.2-2.1,2.1-2.8c0.4,0,0.8,0,1.2,0.2
			c1.2,0.4,2.4,0.9,3.6,1.3c0,2.8,0.4,5.6-1.9,7.9C419.1,217.5,417,216.3,414.9,215.2z"/>
		<path fill="#887A69" d="M83.6,284.4c-0.7-1.5-1.4-3,1.2-3.1c2.3-0.1,4.6-0.1,6.9-0.1c1.8,1.5,6.4-2.3,6.2,3.2
			C93.2,284.3,88.4,284.4,83.6,284.4z"/>
		<path fill="#534531" d="M414.9,215.2c2.1,1.1,4.1,2.3,6.2,3.4c-0.1,1.6-0.3,3.2-0.4,4.7c-4.9,4.3-3.9-2.2-5.9-3.2
			c-0.6-0.5-1.3-1-1.9-1.5c0.1-0.4,0.1-0.9,0-1.3C413.5,216.6,414.2,215.9,414.9,215.2z"/>
		<path fill="#CEB898" d="M157.6,342.3c2.2-0.5,4.3,2.7,6.5,0.1c1.1-1.1,2.2-2.1,3.2-3.2c3.2,2.1-0.4,4.2,0,6.3
			c-3.7,1.4-7.4,3.4-11-0.1C157.7,344.8,157.5,343.5,157.6,342.3z"/>
		<path fill="#4B3B2B" d="M228.1,305.5c0.2,1.1,0.3,2.1,0.5,3.2c-1.7,0.6-3.4,1.2-5.1,1.8c-4.5-0.5-2.3-4.4-3.4-6.7
			C223.6,300.1,225.1,306.2,228.1,305.5z"/>
		<path fill="#8B7256" d="M409.9,176.8c2.4,4.4-2.5,6.4-3.2,9.7c-1.5-0.7-4.5,3.2-4.8-1.5C404.6,182.3,407.2,179.6,409.9,176.8z"/>
		<path fill="#4E4331" d="M144.7,263.7c-1.7-1.1-3.2-2.3-3-4.6c3.1-1.3,6.2-2.7,9.2-4c0,1.3,0.1,2.5,0.1,3.8
			C148.9,260.4,146.8,262.1,144.7,263.7z"/>
		<path fill="#444034" d="M211.8,229.6c2.5,0.5,4.9,1.1,7.8,1.7c-1.4,2.8-4.3,2-5.9,3.5c-1.6-1.4-3.4-1.7-5.5-1.7
			c-2.8,0-1.3-1.8-0.9-3.1C208.9,229.9,210.4,229.8,211.8,229.6z"/>
		<path fill="#835B35" d="M459.9,323.4c-0.7,1.5-2.2,1.2-3.4,1.4c-1-1.8,0.1-4.3-3.3-5.2c-4.7-1.2-0.2-3.2,0.2-4.9
			C456.6,316.7,457.9,320.3,459.9,323.4z"/>
		<path fill="#514530" d="M404.9,304.5c1.2-2.3,3.2-4.4,5.4-2.1c2.7,2.8-2,4.2-2.3,6.7C407,307.6,406,306,404.9,304.5z"/>
		<path fill="#6B563B" d="M419.4,209.4c-0.4-0.2-0.8-0.2-1.2-0.2c-1.5-0.6-4.3-0.7-1.7-3.2c1.8-1.6,3.6-3.6,6.5-3.5
			c0,1.1,0.1,2.2,0.1,3.3C421.8,207,420.6,208.2,419.4,209.4z"/>
		<path fill="#93836A" d="M414.8,220.1c2,1,1,7.5,5.9,3.2c-0.4,2.7-0.8,5.4-1.2,8.1c-0.6,0-1.1,0-1.7-0.1c-0.6-0.9-1.2-1.8-1.8-2.7
			c-0.5-2.7-1-5.3-1.5-8L414.8,220.1z"/>
		<path fill="#3C301F" d="M464.4,335.9c1.8-1,2.1-3.9,4.9-3.7c1.2,0.7,2.3,1.4,3.5,2.1C470.5,337.4,468,339.1,464.4,335.9z"/>
		<path fill="#D2AB83" d="M350.8,221.6c2-1.5,3.9-3,6-4.2c0.3-0.2,2.6,2.1,2.5,2.4c-2,3.3-5.7,2.8-8.8,3.6
			C350.6,222.8,350.7,222.2,350.8,221.6z"/>
		<path fill="#866A42" d="M157.6,342.3c0,1.2,0.1,2.5-1.4,3c-1.7-2.6-5.9,0.2-7.4-3.9c2-1.5,5.9,1.6,7.2-2.1
			C157.3,339.9,157.5,341.1,157.6,342.3z"/>
		<path fill="#9B8D7D" d="M51.3,279.9c3.2,1.8,7.4-6.1,10,1.1C58,280.8,54.4,282.8,51.3,279.9z"/>
		<path fill="#544937" d="M379.4,308.7c1.9-5.6,2.6-5.9,6.6-3.1C384.1,307.4,382,308.5,379.4,308.7z"/>
		<path fill="#877965" d="M184.7,237.8c-3.2,2.7-6.6,5.1-11.1,5C176.7,239.7,180.5,238.3,184.7,237.8z"/>
		<path fill="#735732" d="M355.4,334.2c-0.3-2.7,1.9-4.2,3.2-6.2c0,0,0.7,0,0.7,0l0.7,0c0.1,1.1,0.2,2.1,0.3,3.2
			c-0.6,1.1-1.2,2.2-1.9,3.3C357.5,334.4,356.5,334.3,355.4,334.2z"/>
		<path fill="#786D58" d="M254.1,230c-0.6-1.6-1.1-3.2-1.7-4.7c1.6,0,3.2,0,4.8,0c0,1.5-0.1,3-0.1,4.5
			C256.2,229.9,255.1,230,254.1,230z"/>
		<path fill="#866D4E" d="M170.3,244.3c-0.9,2.3-2.4,4-4.8,4.9c0,0,0.1,0,0.1,0c-0.6-0.6-1.2-1.2-1.7-1.8
			C165.5,245.2,167.8,244.5,170.3,244.3z"/>
		<path fill="#B09F88" d="M127.1,263.9c-0.1,0.4-0.1,0.8-0.1,1.3c-2.5,0.2-5,0.4-7.5,0.5c-0.2-0.2-0.5-0.4-0.7-0.7
			C121.4,263.3,124.2,263.4,127.1,263.9z"/>
		<path fill="#C8AC8B" d="M358.5,334.5c0.6-1.1,1.2-2.2,1.9-3.3c0.5,0.6,1,1.2,1.5,1.8c0.1,0.9,0.1,1.8,0.2,2.8
			c-0.2,0.2-0.4,0.4-0.6,0.7C360.2,336.1,358.8,336.1,358.5,334.5z"/>
		<path fill="#342B23" d="M163.9,247.4c0.6,0.6,1.2,1.2,1.7,1.8c-1.6,0.7-3.1,2.7-4.8,0.3C161.9,248.8,162.9,248.1,163.9,247.4z"/>
		<path fill="#8B7256" d="M419.4,209.4c1.2-1.2,2.4-2.4,3.6-3.6c0,1.6,0,3.3,0,4.9C421.8,210.2,420.6,209.8,419.4,209.4z"/>
		<path fill="#B4A486" d="M241.2,233.2c2.1,0.5,4.1,1.1,6.2,1.6c7.3,4,12.9-1.7,19.3-3.4c1.1-1,2.2-2,3.3-3.1
			c0.4,0.2,0.9,0.3,1.3,0.3c2.1,1,3.8,4.2,6.7,1.4c0.5,0.1,1,0.1,1.5,0c2.7,2,5.4,3.9,8,6c1.6,1.3,3,3.2,5.1,0.6
			c6-2.3,10.6-9.7,18.6-5.4c-5.8,6.1-7.9,14.3-12.1,21.3c-1.1-0.6-2.2-1.1-3.4-1.7c-4.6-6.3-7.4-6.3-9.7,0.7
			c-1.4,4.3-3.8,8-5.6,12.1c-0.3,0.5-0.7,1.1-1,1.6c-3.5-2.2-1.6-8.2-6.6-9.4c-1.7-0.1-3.4,0.1-4.5-1.7c1.2-2.8,6.9-0.3,6.2-5.3
			c0.1-1.3,0.1-2.7,0.5-3.9c1-3.3,2.7-7.4-1.2-9.2c-3.1-1.5-6.5,1.1-9.2,3.3c-6,4.8,1.1,7,2,10.4c-0.1,1.9-0.9,2.4-3,2.4
			c-7.4,0-7.1-6.6-9.8-10.6c-4.1-2.8-6,0.4-8.2,2.9c-2.3,0.8-4.7,1.4-6.3,3.4c-1,0.6-1.9,1.2-2.9,1.8c-0.8-3-4.4-4.7-3.7-8.3l0,0
			C238.2,240.9,242.1,239.6,241.2,233.2L241.2,233.2z"/>
		<path fill="#9E8C69" d="M306.7,263.4c0.2-9.5,3.6-18,8-26.3c1.2-2.3,2.2-4.2,5.2-3.9c-0.1,3.7,3.8,8.1-1.7,11
			c-2.8,2.2,0.6,4.4,0.1,6.6c-7,3.2,0.7,6.3,0.1,9.5c1.8,2.4-1,3.5-1.4,5.2c-3.3,9.8-8,18.8-15.6,26.4c2.2-7.2,3.2-14.3,2.8-21.6
			C307.8,269,306.9,266.1,306.7,263.4z"/>
		<path fill="#BDA784" d="M342.4,295.8c-7.1-0.1-13.3,5-20.6,3.5c-3.1-0.6-7.4,0.6-6.7-5c2.1-1.6,4.3-3.2,6.4-4.8
			c3.3-0.9,0.3-5.1,3.3-6.2c6.1,0.5,13-1.9,17.7,4.5c0.6,1.1,1.2,2.2,1.8,3.3c-1.2,0.6-1.7,1.6-1.8,2.9
			C342.5,294.6,342.4,295.2,342.4,295.8z"/>
		<path fill="#B0976E" d="M350.3,240.6c0.6,0.6,1.3,1.3,1.9,1.9c2.6,2.6,4.1,6,7.2,8.3c6.5,4.8,14.1,7.3,21.1,11
			c6.2,3.3,12.2,4.7,18.9,2.4c2.6-0.9,4.7-0.1,5.8,2.7c-6.3,4.2-13,3.8-19.8,1.3c-8.4-3.2-16.8-6.5-25.1-10.1
			c-3.1-1.4-6.2-3.3-6.6-7.4c-1.2-2-2-5.6-4.6-4.4c-4.7,2.1-3.6-2.1-5-3.6C345.4,239.7,347.4,238.8,350.3,240.6z"/>
		<path fill="#988261" d="M353.8,259.9c2.1,2.3,4.2,4.6,6.3,6.9c-0.6,0.6-1.3,1.2-1.9,1.9c-7.7-7.4-8.2-7.3-13.2,2.3
			c-0.7,1.4-1.8,2.6-2.6,3.9c-2.4,0.2-4.7,0.6-6.3,2.7c0.1-0.4,0-0.7-0.1-1.1c-1-1-1.9-2.1-2.9-3.1c0.6-4.9-3.2-4.4-6.8-4.8
			c4.9-6,2.5-15,9.7-19.5c1.7,0.6,3.3,1.2,5,1.8c2.6,3.6,3.8,8.6,9.3,9.3c1,1.4,2,2.3,3.4,0.4L353.8,259.9z M344.1,265.7
			c-2.4-3-3.6-7.9-8.2-9.5c-1.5-0.5-4.6,1.7-3.6,4c1.8,4,2.4,9.6,7.7,10.8C342.9,271.7,343.9,269,344.1,265.7z"/>
		<path fill="#796B53" d="M317,265.6c0.5-1.7,3.2-2.9,1.4-5.2c6.3-4.2,6.9-5.9,3.2-9.5c0.2-2.3,5-1.8,3.3-5
			c-0.8-1.5-2.2-0.3-3.3,0.2c-0.7-1.4-2-1.7-3.4-1.8c5.5-2.9,1.5-7.3,1.7-11c5.4-1,11,6.9,9.4,14.4c-1.7,7.8-4.5,15.4-6.9,23.3
			C318.7,270,320.8,265,317,265.6z"/>
		<path fill="#6D5945" d="M340.9,250.9c-1.7-0.6-3.3-1.2-5-1.8c2.7-2.1,5.4-4.2,8.1-6.3c1.4,1.5,0.3,5.7,5,3.6
			c2.6-1.2,3.5,2.4,4.6,4.4c-3.5,0.3-3.9,2.3-1.9,4.5c1.3,1.5,1.9,2.8,2.1,4.6c0,0-0.2,0.7-0.2,0.7c-1.5,0.1-0.8-4.4-3.6-1.7
			C346.4,256.9,346.6,250.6,340.9,250.9z"/>
		<path fill="#93856B" d="M315.1,294.3c-0.7,5.6,3.6,4.5,6.7,5c-4.6,3.3-11,1.1-15.3,5.3c-1.1,1.1-1.5-1.6-2.4-2.4
			c2.7-4.2,5.5-8.3,8.2-12.5c0.4,0.4,0.9,0.9,1.3,1.3C313.4,292.4,313.4,293.7,315.1,294.3z"/>
		<path fill="#493520" d="M333,273.4c1,1,1.9,2.1,2.9,3.1c-3.6,2.5-9.6,1-11.1,6.8c-3,1.1,0,5.3-3.3,6.2c-0.4-2.3-1.1-4.7-1.1-7
			c0-4.5,2.1-6.2,6.7-6.6C329.2,275.6,331.1,274.2,333,273.4z"/>
		<path fill="#6B5745" d="M306.7,263.4c0.3,2.7,1.1,5.6-2.5,6.9C304.2,267.8,302.9,264.7,306.7,263.4z"/>
		<path fill="#656256" d="M313.5,291c-0.4-0.4-0.9-0.9-1.3-1.3c0.5-2.1,1.6-3.6,3.8-4.6C316.6,288.1,315,289.5,313.5,291z"/>
		<path fill="#B49066" d="M144.7,263.7c2.1-1.6,4.3-3.3,6.4-4.9c6.7-9.1,5.4,2.3,8.2,3.2c0.5,0,1.1,0,1.6,0
			c-0.6,0.5-1.1,1.1-1.7,1.6c-3.2,0.5-4.2,2.1-1.8,4.5c1.9,1.9-0.3,3.3-0.1,4.9c-3.1,1.6-6.3,3.3-9.4,4.9c0.6-4.7,4.8-10.2-3.2-12.8
			C144.7,264.7,144.7,264.2,144.7,263.7z"/>
		<path fill="#372F20" d="M101.5,273.1c-1.3-1.7-2.5-3.4-4.2-5.6c5.1-1.3,10.2-1.5,14.8-0.2c1.4,0.4,0,6-1.3,9.1
			C107.2,276.7,104.6,274,101.5,273.1z"/>
		<path fill="#897150" d="M147.9,278c3.1-1.6,6.3-3.3,9.4-4.9c0,0,0.4,0.3,0.4,0.3c0.6,1.5,1.9,1.5,3.2,1.7c0.7,1.5,2.1,1.4,3.3,1.7
			c-1.8,2-5.1,0.4-6.6,2.9c-1.8-0.9-3.5-2.2-5.4-0.1c-1.6,1.8-0.1,3.2,0.3,4.8c-1,0-2,0.1-3,0.1c-0.1-2.3,0.1-4.8-3.2-4.9
			C146.8,279.1,147.3,278.6,147.9,278z"/>
		<path fill="#2B2319" d="M280.5,263.6c1.8-4.1,4.2-7.8,5.6-12.1c2.3-7,5.1-7,9.7-0.7c0.7,9.6-5.4,16.5-9.4,24.3
			c-1.9-0.1-2.5-3.5-5-1.8c-1.9-1.1-1.6-3-1.6-4.7C281.5,267.2,282.2,265.6,280.5,263.6z"/>
		<path fill="#2A1F1A" d="M279.4,289.4c1.9,2.4,2.4,0.8,3.8-0.9c3.5-4.2,4.4-1,5,2.3c0.8,5.1-1.5,8.8-5.3,11.8
			c-0.4-0.2-0.9-0.4-1.3-0.7c-0.2-2.5-1.3-4.6-3.1-6.4c-0.1-1.7-0.2-3.3-0.2-5C278.6,290.2,279,289.8,279.4,289.4z"/>
		<path fill="#2B1D14" d="M279.4,289.4c-0.4,0.4-0.8,0.8-1.2,1.1c-3.2-4.2-2.7-9.2-3.2-14c3.1-1.7-1-7.7,4.7-8
			c0,1.7-0.3,3.6,1.6,4.7c0.1,3.3,0.2,6.6,0.3,9.9C280.9,285.3,280.1,287.3,279.4,289.4z"/>
		<path fill="#7F7052" d="M282.9,302.6c3.8-3,6.1-6.7,5.3-11.8C290.7,296.7,290.6,301.4,282.9,302.6z"/>
		<path fill="#5D5037" d="M281.6,283.2c-0.1-3.3-0.2-6.6-0.3-9.9c2.5-1.7,3.2,1.7,5,1.8C282.1,276.2,283.9,280.9,281.6,283.2z"/>
		<path fill="#7F7052" d="M278.4,295.6c1.8,1.8,2.9,3.9,3.1,6.4c-1,0.2-2.1,0.5-3.1,0.7c-0.6-1.8-1.2-3.7-1.8-5.5
			C277.2,296.6,277.8,296.1,278.4,295.6z"/>
		<path fill="#312816" d="M119.5,265.7c2.5-0.2,5-0.4,7.5-0.5c-0.9,1.9-1.5,4-3.4,5.2c-0.5-0.2-0.9-0.2-1.4-0.3
			C121.3,268.6,120.4,267.2,119.5,265.7z"/>
		<path fill="#D4B37E" d="M358.2,268.7c0.6-0.6,1.3-1.2,1.9-1.9c8.1,2.8,16.9,3.8,23.3,10.6c3.6,3.8,7.4-4.3,11.3-0.1
			c4.9-4.9,11.5-0.7,16.9-3.3c2.4-1.1,4.7-2.1,6.4-4.2c0,1.6,0.4,3,2.1,3.7c-0.2,0.4-0.4,0.9-0.5,1.4c-2,1.4-4.1,2.7-4.9,5.2
			c-0.1,1.6-3.8,2.3-1.2,4.6c-0.6,0.5-1.2,1-1.8,1.5c-1.9,0.7-3.8,1.3-5,3.2c-1,1.8-2.5,3-4.6,3.5c-0.6,0.4-1.3,0.8-1.9,1.3
			c-2.6,1.7-5.9,2.3-8,4.9c-4.3-1.6-8.7-3.1-13-4.7c-3.8-2.8-8.9-0.9-12.8-3.3c1.3-2.7,5.2-0.6,6.5-3.4c3.6-1.5,6,2,9.6,2.9
			c-0.7-6.7-6.8-5.1-9.7-7.6C367.5,278.7,360.6,276,358.2,268.7z M393.4,285c-1.3,2.4-4.8,1.9-3.7,5c0.2,0.6,1.2,1.5,1.6,1.4
			C394,290.7,393.9,288.6,393.4,285z M399.8,286.3c-1.2,0.3-2.4,0.5-1.9,1.9c0.2,0.5,1.1,1.1,1.7,1.1c1,0,2.1-0.5,1.8-1.8
			C401.2,286.9,400.3,286.6,399.8,286.3z"/>
		<path fill="#2E2318" d="M405.2,266.9c-1-2.8-3.1-3.6-5.8-2.7c-6.7,2.4-12.7,0.9-18.9-2.4c-7-3.7-14.6-6.2-21.1-11
			c-3.1-2.3-4.6-5.7-7.2-8.3c2.3-3.4,3.8,1.8,5.8,0.6c1.2,1,2.3,2,3.5,3c4.1,5.5,11.3,4.3,16.4,7.7c5.9,4,10.6,11.5,19.6,7
			c4.8-1,8.3-4,11.7-7.3c2.4-2.3,4.6-5.2,8.7-4.3c0.8,2.1,2,4,1.6,6.3c-0.5,3.3-7.7,4.7-2.8,9.6C413,266.5,409.6,269.4,405.2,266.9z
			"/>
		<path fill="#8D7A58" d="M337.6,315.1c-1.7-2.4-3.9-3.1-6.6-1.7c-0.8-2-1.8-4.1,0.7-5.6c4.9-2.9,9.4-6.8,15.5-7.1
			c1.8,2.9,5.1,0.3,7.2,2.1c-2.5,4.8-8.9-2.4-11,3.5c1.4,1.6,4,0.1,5,2.1C343.4,308.4,340.4,311.5,337.6,315.1z"/>
		<path fill="#4A381C" d="M348.4,308.5c-1.1-2.1-3.6-0.5-5-2.1c2.1-5.9,8.6,1.3,11-3.5c-2.1-1.8-5.4,0.8-7.2-2.1
			c0.1-0.8,0.2-1.6,0.3-2.4c3.1,0.8,6.1,1.7,9.2,2.5c1.7,2.3,3.3,4.6,5.3,7.4c-0.9,1.1-3.9,1.4-6.8,1.9
			C353.8,306.3,351,307.7,348.4,308.5z"/>
		<path fill="#8B7F6B" d="M324.3,302.5c-0.6,5.9-1.1,11-6.3,13.5c-1,0.5-5-2.6-4.9-3.2C314.8,307.8,317.9,304,324.3,302.5z"/>
		<path fill="#BEA37D" d="M356.6,300.9c-3.1-0.8-6.1-1.7-9.2-2.5c-1.7-0.9-3.4-1.7-5.1-2.6c0-0.6,0.1-1.2,0.1-1.7
			c1.4,0.1,2.9,0.2,4.3,0.3c2.6,1.7,5.5,1,8.3,1c0.5,0.2,1.1,0.4,1.6,0.6C357.8,297.7,359.5,299.4,356.6,300.9z"/>
		<path fill="#BA8F51" d="M167.3,339.2c-1.1,1.1-2.2,2.1-3.2,3.2c-0.1-2.2-0.9-3.9-3-4.8c0-2.1,0-4.2-0.1-6.3
			C168.3,329.7,166.1,335.8,167.3,339.2z"/>
		<path fill="#3E250F" d="M173.5,320.1c0,1,0,2,0,3c-1.9,1.4-0.8,5.6-4.8,4.9c-1.3-2.5-4.1-4.8-1.4-8c0,0,0,0,0,0
			C169.3,320,171.4,320,173.5,320.1z"/>
		<path fill="#CEBC99" d="M186.5,341.2c-0.4-0.3-0.9-0.6-1.4-0.7c-0.5-0.9-1.6-1.9-1.5-2.6c0.5-3.1,1.9-0.5,2.3,0
			c1.9,1.9,3.3-0.9,5.2-0.3C191.2,340.7,189,341.1,186.5,341.2z"/>
		<path fill="#543315" d="M160.9,331.3c0,2.1,0,4.2,0.1,6.3c-1.7-2.6-6.9-5.1-0.2-8C160.8,330.2,160.9,330.7,160.9,331.3z"/>
		<path fill="#D4BF96" d="M183,331.2c-1.5,0.5-2.9,1-4.4,1.4c0-1.2-0.7-2.8,1.3-3.1C181.3,329.4,182.6,329.5,183,331.2z"/>
		<path fill="#51371E" d="M408.3,212.3c0.1,1.1,0.3,2.3,0.4,3.4c-0.5,2.6-2.6,4.2-4.3,6c-9-1.5-11,5.3-13.5,11.4
			c-1.8,5-8.5,6.2-9.2,12.2c-0.5-4.1-1.9-7.3-5.3-9.3c-1.2-5.2-2.3-10.5-3.5-15.7c-0.5-1-1-2-1.4-3.1c0.7-0.6,1.3-1.2,2-1.8
			c0.4,0.1,0.7,0.1,1.1,0c0.8,1,1.8,1.8,3.2,1.3c1.5,9.2,8.9,2.9,13.1,5.1c2.5-2.2,4.7-3.9,8.6-1.7c2.6,1.5,5.8-0.7,6.9-3.6
			c1.2-3.2-1.4-3.9-4-4.1c-0.5-0.5-1.1-0.9-1.6-1.4C403.3,210.6,406,210.2,408.3,212.3z M378.5,233c2.7,5.6,5.2,6.1,8.2,0.4
			C383.9,233.2,381.4,233.1,378.5,233z"/>
		<path fill="#BA8B5D" d="M372.8,220.3c1.2,5.2,2.3,10.5,3.5,15.7c-4,1.3-3.1,13.2-11.3,5.2c0.5-0.5,1-0.9,1.4-1.4
			c1.9-1.8,6-1.6,6-4.5c0-3.1-4.2-2.5-6.1-4.1c0.5-2.2-0.4-4-1.5-5.8c1.5-0.7,3.1-1.3,4.6-2c3.9,1.3,1.3-2.3,2.3-3.2
			C372.1,220.1,372.5,220.2,372.8,220.3z"/>
		<path fill="#D0B992" d="M377.6,216.7c-1.4,0.5-2.4-0.2-3.2-1.3c-1.7-7.8-7.8-7.8-14-7.3c0.6-5.6,7.9,0.3,8.1-5.4
			c3.2-4.6,3.2-4.6,4.7-1.5c-0.6,2.4-1.1,4.8,0.9,8.5c0.8-3.8,1.4-6.3,1.9-8.8c0.9,0,1.9,0.1,2.8,0.1c0.1,0.9,0.1,1.9,0.2,2.8
			C376.5,208,376.9,212.3,377.6,216.7z"/>
		<path fill="#DFAF78" d="M366.5,239.7c-0.5,0.5-1,0.9-1.4,1.4c-1.1,0-2.2-0.1-3.4-0.1c2-2.9,0.4-4.9-1.8-6.8
			c-0.1-0.3-0.2-0.5-0.5-0.7c-1-2-4.5-2.8-3.6-5.5c0.9-2.6,3.7-0.7,5.5-1.3c1.2-0.4,2.4-1,3.5-1.5c1.1,1.8,2,3.6,1.5,5.8
			C365.1,234,366.4,236.8,366.5,239.7z"/>
		<path fill="#D7BA8F" d="M371.7,220.1c-1,0.9,1.6,4.4-2.3,3.2c-1.4-3.4-5.2-3.3-7.5-5.5c-2.1-2-4.6-3.6-1.4-8.3
			C362.2,216.2,366.6,218.5,371.7,220.1z"/>
		<path fill="#C8C197" d="M373.4,215.4c-0.7,0.6-1.3,1.2-2,1.8c-1.2-0.4-2.8-0.1-3.2-1.9l-0.1,0.1
			C369.8,214.2,371.6,210.6,373.4,215.4z"/>
		<path fill="#BFBB96" d="M368.2,215.4c-2.2-0.1-3.7-0.9-3.2-3.3c0.1-0.5,1.1-1.3,1.5-1.2C369.1,211.5,367.5,213.9,368.2,215.4
			C368.1,215.5,368.2,215.4,368.2,215.4z"/>
		<path fill="#E2BA88" d="M155.7,308.7c0.1-1.1,0.1-2.2,0.2-3.3c6.2,1.4,6.5,7.8,10,11.6c0.4,1,0.9,2,1.3,3c0,0,0,0,0,0
			C160.9,318.8,159.1,312.9,155.7,308.7z"/>
		<path fill="#573617" d="M147.8,310.4c-0.6-4.2,2.3-3.4,4.7-3.3C151,308.3,149.4,309.3,147.8,310.4z"/>
		<path fill="#3C200D" d="M149.3,314.9c-1.2-0.6-1.5-1.7-1.4-3c1.2,0.1,2.4,0.2,3.6,0.4C150.8,313.1,150,314,149.3,314.9z"/>
		<path fill="#AD8A61" d="M360,328l-0.7,0c0,0-0.7,0-0.7,0c-4.8-7.7-7.4-8.1-10.9-1.8c-0.2-1-0.5-1.9-0.7-2.9
			c0.2-1.6,0.3-3.2,0.5-4.8c2.1-1.7,4.2-3.3,6.3-5c3.8,0.3,7.1,4.3,11.4,1.7c-0.7,3.7-2.5,7.3-2.2,11.2C362,327,361,327.5,360,328z"
			/>
		<path fill="#2B1B12" d="M346.8,294.4c-1.4-0.1-2.9-0.2-4.3-0.3c0.1-1.3,0.6-2.3,1.8-2.9c3.8-0.1,7.6-0.2,11.4-0.4
			c3.6,0.1,7.1,0.2,10.7,0.4c3.9,2.4,9,0.5,12.8,3.3c0.4,1.4,0.2,2.6-1.3,3.2c-0.7,0-1.3,0.1-2,0.1c-6.1-3.8-12.8-1.1-19.1-1.6
			c-0.5-0.2-1.1-0.4-1.6-0.6C352.6,293.3,349.7,294.4,346.8,294.4z"/>
		<path fill="#64513C" d="M375.9,297.6c0.7,0,1.3-0.1,2-0.1c-1.4,7.1-3.6,9.1-7.9,6.5c-1.1-0.7-4.6,1-3.7-2.4
			c0.7-2.6,3.2-3.6,4.9-2.2C374.5,302,375.1,300.1,375.9,297.6z"/>
		<path fill="#D2B28C" d="M361.7,241c1.1,0,2.2,0.1,3.4,0.1c8.2,8,7.3-3.9,11.3-5.2c3.5,2,4.8,5.2,5.3,9.3c0.7-6,7.4-7.2,9.2-12.2
			c2.6-1.5,5.2-3,7.8-4.5c1.6,0.4,3.2,0.8,4.8,1.3c-1.1,1.6-2.1,3.1-3.2,4.7c-4.3-0.2-9.4-0.3-9.6,5.1c-0.1,3.2,4.9,1.8,7.6,2.6
			c1.1,2.2,3.1,2,5.1,2.1l0,0c-2.7,3-9.7-0.2-9.5,6.9c0.1,3.6,1.4,6.7,3.6,9.4c-9,4.6-13.7-3-19.6-7c-3.7-6.4-9.3-8.6-16.4-7.7
			c-1.2-1-2.3-2-3.5-3c0.5-1.9-3-3.4-1.3-4.7C359.2,236.5,359.8,240.5,361.7,241z"/>
		<path fill="#8D6D52" d="M403.5,229.9c-1.6-0.4-3.2-0.8-4.8-1.3c-0.7-6.3,5.8-3.9,8.1-6.6c2-1.1,4.1-2.3,6.1-3.4
			c0.6,0.5,1.3,1,1.9,1.5c0,0-0.2,0.6-0.2,0.6c-2.6,2.5-5.1,5-7.7,7.4c-0.5,0.4-1,0.9-1.4,1.3C404.8,229.6,404.1,229.8,403.5,229.9z
			"/>
		<path fill="#997850" d="M398.4,242.3c-2.7-0.8-7.7,0.5-7.6-2.6c0.1-5.3,5.3-5.2,9.6-5.1C399.7,237.1,399,239.7,398.4,242.3z"/>
		<path fill="#45341F" d="M405.4,229.5c0.5-0.4,1-0.9,1.4-1.3c3.1,0.4,6.3-1.6,9.2,0.5c0.6,0.9,1.2,1.8,1.8,2.7
			c-0.6,0.5-1.1,1-1.7,1.6c-1-0.5-1.9-1-2.9-1.5C411,229.2,407.9,230.7,405.4,229.5z"/>
		<path fill="#A99278" d="M398.3,249.7c3.2-1,6.4-2.1,9.6-3c0.3-0.1,0.9,0.4,1.8,0.9c-3.4,3.3-7.4,2.9-11,4.2
			C398.5,251.1,398.4,250.4,398.3,249.7z"/>
		<path fill="#7E684B" d="M413.3,231.4c1,0.5,1.9,1,2.9,1.5c-0.5,5-5,4.4-8.2,5.9C409.3,236,413.7,235.4,413.3,231.4z"/>
		<path fill="#9E8D7C" d="M403.5,244.4c0.8-1.3,1.4-2.8,3.2-2.7c0.8,0.1,1.4,0.8,0.9,1.6C406.6,244.8,404.9,244.1,403.5,244.4
			C403.5,244.4,403.5,244.4,403.5,244.4z"/>
		<path fill="#433320" d="M381,331.5c-2-0.6-4.7-0.9-1.8-3.8C382.3,327.7,381.6,329.6,381,331.5z"/>
		<path fill="#CDC2A1" d="M408.3,212.3c-2.3-2.1-5-1.7-7.6-1.3c-6.4,2.4-0.9,4.7-0.7,7.8c2.8-2.2,1.1-4.7,2.3-6.4
			c2.5,0.2,5.1,0.9,4,4.1c-1.1,2.9-4.2,5.2-6.9,3.6c-3.9-2.3-6-0.5-8.6,1.7c-1.9-5,4.5-9.3,1.4-14.4c1-2-1.2-5.7,3-6.1
			c0.1,1.5,0.3,3,0.4,4.6c0,1.5-0.7,4,0.7,4.2c2.4,0.3,2.1-2.4,2.6-4.1c0.4-0.4,0.7-0.8,1.1-1.1c1.1-0.6,11.4,6.2,11,7.3
			C410.9,212.5,409.3,212.3,408.3,212.3z"/>
		<path fill="#7A613D" d="M392.2,207.4c3,5.1-3.3,9.4-1.4,14.4c-4.2-2.2-11.6,4.1-13.1-5.1c-0.7-4.4-1.1-8.8,1.4-12.8
			c0.3,1.2,0.3,2.6,1.7,3.1c1.9,5,3.8,9.7,8.5,1.8C390.2,208.4,391.2,207.9,392.2,207.4z"/>
		<path fill="#594B3B" d="M377.8,194.5c-1.1-0.1-2.2-0.2-3.3-0.2c0.7-1.7,1-3.8,2.2-4.9c3.1-3,6.5-3,7.5,1.7c0.9,4.2,2.9,2.5,5,2
			c-0.1,2.2-0.1,4.3-0.2,6.5c0.4,1,2,2.1,0,3.1c-1.9,1.4-2.4,6-6.4,3.1c-1.2-3.6,1.9-7.8-1.5-11
			C380.3,189.4,378.9,195.1,377.8,194.5z"/>
		<path fill="#9C8664" d="M382.6,205.7c4,2.9,4.4-1.7,6.4-3.1c0.1,2.1,0.2,4.1,0.2,6.2c-4.6,7.9-6.6,3.2-8.5-1.8
			c0-0.5,0.2-1,0.4-1.4l0.7,0.1L382.6,205.7z"/>
		<path fill="#837669" d="M389,199.5c0.1-2.2,0.1-4.3,0.2-6.5c0.7-1.1,1.4-2.2,2.1-3.2C390.4,193,395.6,197.5,389,199.5z"/>
		<path fill="#8B7256" d="M406.5,192.9c2.3,1,1.8,3,1.9,4.8c-1.7-0.5-3.3-1-5-1.6c0,0,0.1,0.1,0.1,0.1
			C403.5,194.1,404.4,192.9,406.5,192.9z"/>
		<path fill="#CBA066" d="M165.9,317c-3.5-3.7-3.7-10.2-10-11.6c3.3-1.9,5.9-4.1,5-8.5c0,0,0.1-0.1,0.1-0.1c4.6-5.5,4.8,1.6,7.1,2.5
			c4.7,5.7,12.4,6.4,16.6,1.3c3.7,0.5,8.1-3.9,11.2,1.5c-1,1.8-4.3,1.9-3.4,4.9c-9.5-3.4-10.2-2.8-11,8c-3,1.7-7.5-1.4-9.8,2.9
			C169.6,319.4,168.5,314.1,165.9,317z"/>
		<path fill="#C8A775" d="M133.7,292.4c6-7.7,9.3-8.1,15.9-1.6c3.1,1.2,6.2,2.3,9.3,3.5c0.7,0.8,1.5,1.7,2.2,2.5
			c0,0-0.1,0.1-0.1,0.1c-3.4,0-1.9,6.2-6.3,5.1c-1.7-1.9-3.5-3.7-5.2-5.6l0-0.8c-0.6-2.3-2.1-3.5-4.5-3.4c-4.3-3-3.4,2.4-5.3,3.3
			c-1.1,1.4-2.2,2.7-3.4,4.2C133.8,297.5,136.3,294.1,133.7,292.4z"/>
		<path fill="#72512B" d="M149.4,296.4c1.7,1.9,3.5,3.7,5.2,5.6c-10.9,4.2-11.4,4-15-6.4c1.9-0.9,1-6.3,5.3-3.3
			c-1.7,1.2-2.2,2.4-0.1,3.6c-1.2,2-1.8,4.5,0.8,5.1C148.6,301.7,149.4,299,149.4,296.4z"/>
		<path fill="#815925" d="M445.5,331.2c-0.7,0-1.5,0-2.2,0c1.5-2-3.3-4,0-5.9c0.7-0.4,2.4-0.3,2.9,0.3
			C448.2,327.6,445.9,329.4,445.5,331.2z"/>
		<path fill="#8E5C25" d="M456.6,324.7c-1.2,1.9-2.2,4.5-5,1.6C452.9,324.6,454.7,324.5,456.6,324.7z"/>
		<path fill="#5A3F21" d="M403.5,196.1c1.7,0.5,3.3,1,5,1.6c0.6,0.5,1.2,1,1.8,1.5C406.9,200.5,403.8,201.4,403.5,196.1z"/>
		<path fill="#2D1F13" d="M381.2,205.7c-0.2,0.4-0.4,0.9-0.4,1.4c-1.4-0.6-1.4-2-1.7-3.1c-0.1-0.9-0.1-1.9-0.2-2.8
			c-0.9-2.1-1.6-4.2-1-6.6c1.1,0.6,2.5-5.1,3.3,0.2C381.1,198.3,381.2,202,381.2,205.7z"/>
		<path fill="#402D16" d="M376.1,201c-0.5,2.5-1.1,5-1.9,8.8c-2-3.7-1.5-6.1-0.9-8.5C374.2,201.1,375.1,201,376.1,201z"/>
		<path fill="#C59A66" d="M228.1,305.5c-2.9,0.7-4.4-5.4-8-1.7c-2.6-2.3-5.2,0-7.8,0.1c-3,0.2-6.3-0.3-8.1,3
			c-0.2,2.1,0.8,4.4-1.2,6.2c-0.7-1.5-1.3-3-2-4.5c-2.8-7.9,6.2-9.1,8.1-14.3c-0.8,6.7,1.2,8.7,7.3,4.6c2.1-1.4,4.7-2.1,7-3.1
			c4.4-0.1,4.8-0.8,4.4-8.3c-2,1.2-0.4,4.2-2.8,5.1c0.5-3.7-2-6.5-3.2-9.7c2.7,0.6,3.5-0.9,3.5-3.2c2.5,1.8,5,5,7.8,0.6
			c2.9-4.4-1.1-5.3-3.8-6.8c-0.9-0.5-1.8-1-2.7-1.6c3.2,1.9,6.4-3.2,9.6,0c4.2,5.7-1.2,12,1.6,18.1c0.5-6.1,5-10.2,6.5-15.7
			c1,0.7,2.1,1.4,3.1,2c3.9,2.3,2.6,6.9,3.8,10.3c6.4-2,1.5-7.5,4.2-10.4c3-2.3,4.7,0.2,6.3,2c1.4,1.5,2.4,3.5,5,2.7
			c1.4,3.4,4,6.4,3.1,10.5c-2.1-0.3-4.3-1-4.3,2.4c-2.8,1.2-5.7,1.2-8.6,0.3c-2.7-0.2-5.3-2.5-8-0.1c-4.7-3-9.1-4.2-12.7,1.6
			c-1.5,0.6-5.1-0.9-3,3.1C228.9,299,226.6,300.8,228.1,305.5z"/>
		<path fill="#644C2B" d="M249,294.2c2.7-2.4,5.3-0.1,8,0.1c1.8,4-3.7,5.3-3.2,9.1C253,299.7,245.5,299.9,249,294.2z"/>
		<path fill="#81683D" d="M233.3,298.9c-2.1-4,1.5-2.6,3-3.1c1.7,2,5,3.6,1.5,6.7C236.3,301.3,234.8,300.1,233.3,298.9z"/>
		<path fill="#AD9976" d="M160.8,262c-0.5,0-1.1,0-1.6,0c2.6-6.5,10.4-5.5,14.4-9.8c2.3-0.4,4.8,2.1,7.3-0.1
			c-2.4-2.8-4.7-3.5-7.3-0.9c-1.7-0.1-3.3-0.3-5-0.4c5.3-6.8,14.7-4.8,20.8-9.8c1.1,1.1,2.2,2.1,3.3,3.2c-5.5-0.2-7,4-5.3,7.5
			c0.9,1.8,6.3,2.3,9.4,1.9c3.4-0.4,6.3-2.8,5.3-7.2c3-2.1-1.6-4.7,0.5-6.9c3.1,1.8,5,5.8,9.5,5c3.7-0.4,2.8,3.6,4.7,4.9
			c1.7,3.6,6.6,2.5,8.4,5.9c-0.2,1.4-0.2,2.7,0.9,3.7c1.2,2.8,5.8,4,4.5,8.8c-1.6-1.4-2.7-2.6-4-3.5c-2.4-1.8-5-5.3-8.1-2.5
			c-3.3,3,0.7,5.6,2,8.2c-1.8,0.5-3.7,1.1-5.5,1.6c-0.4-2.6-2.3-4.8-1.5-7.6c-0.7-2.6,0.5-4.6,1.8-6.7c0.2-3.2-0.9-5.6-4.4-6.2
			c-2.3-0.4-4.9-0.7-5.1,2.8c-1.1,2.2-5.5,1.2-5,5c-0.6,1.6-1.2,3.3-1.8,4.9c-2.3-1.6-3.7-0.6-4.7,1.6
			C183.8,258.1,173,253.1,160.8,262z"/>
		<path fill="#9B8B6F" d="M226.2,258.9c-1.1-1-1.1-2.4-0.9-3.7c6.4-2.7-0.6-5.1-0.2-7.7c1.2-1.7,2.3-3.4,3.5-5
			c1.5-0.5,2.9-0.9,4.4-1.4c-0.7,3.6,2.9,5.4,3.7,8.3c-1.7,5.7-0.5,9.7,5.9,10.9c2.9-0.5,2.9-5.3,6.6-4.7c0.4,1.8,0.9,3.6,1.3,5.4
			c-3.4,1.6-3.4,4.2-2,7.1c1.4,2.8,2.8,5.5,4.2,8.2c-2,0.5-3.5-0.6-5.1-1.5c-0.6-1.9-0.5-4.8-4-3.2c-0.3-0.3-0.5-0.7-0.7-1.1
			C238.4,260,235.8,258.1,226.2,258.9z"/>
		<path fill="#3D3324" d="M202.2,246.3c1,4.5-1.8,6.8-5.3,7.2c-3.2,0.4-8.5-0.1-9.4-1.9c-1.7-3.5-0.2-7.6,5.3-7.5
			C195.9,245.1,199.5,243.7,202.2,246.3z"/>
		<path fill="#3C352D" d="M233,241c-1.5,0.5-2.9,0.9-4.4,1.4c-1.7-1.5-3.4-3-5.1-4.5c5.7-6.7,10.5-7.7,14.7-3.1
			C236.4,236.9,234.7,239,233,241L233,241z"/>
		<path fill="#322D20" d="M212.2,244.3c-4.5,0.8-6.4-3.2-9.5-5c0-1.5-5.7-2.4-1-3.9c2.5-0.8,6.3-1.8,9.5,1
			C214.4,239.1,212.3,241.7,212.2,244.3z"/>
		<path fill="#2B2415" d="M225.1,247.5c-0.4,2.6,6.6,5,0.2,7.7c-1.8-3.4-6.8-2.3-8.4-5.9c0.5-1.9-0.8-4.9,1.2-5.7
			C221.3,242.4,222.5,246.5,225.1,247.5z"/>
		<path fill="#E6CDB4" d="M412.9,218.6c-2,1.1-4.1,2.3-6.1,3.4c-0.8-0.1-1.6-0.2-2.3-0.3c1.7-1.8,3.7-3.4,4.3-6
			c1.8-0.5,2.9,0.8,4.2,1.6C412.9,217.7,412.9,218.2,412.9,218.6z"/>
		<path fill="#382210" d="M398.9,206c-0.5,1.7-0.2,4.4-2.6,4.1c-1.4-0.2-0.8-2.7-0.7-4.2C396.7,205.3,398,201,398.9,206z"/>
		<path fill="#5C5A46" d="M347.5,318.5c-0.2,1.6-0.3,3.2-0.5,4.8c-1.1-0.4-2.7-0.4-2.5-2.1C344.7,319.6,346,318.9,347.5,318.5z"/>
		<path fill="#2D251A" d="M292.7,236.6c-2,2.6-3.4,0.7-5.1-0.6c-2.6-2.1-5.3-4-8-6c5.6-4.5,11,0.1,17.2,0.1
			C295.2,232.7,293.9,234.6,292.7,236.6z"/>
		<path fill="#352B20" d="M266.7,231.4c-6.3,1.6-11.9,7.4-19.3,3.4c2.2-1.6,4.5-3.1,6.7-4.7c1-0.1,2-0.2,3-0.2
			c1.1-0.1,2.3-0.2,3.4-0.3c1.5-0.4,3.1-0.9,4.6-1.4c0.5,0.1,1,0.1,1.5,0.2C266.7,229.4,266.7,230.4,266.7,231.4z"/>
		<path fill="#786D58" d="M278.1,230c-2.9,2.8-4.6-0.4-6.7-1.4C273.8,228.4,276.7,225.8,278.1,230z"/>
		<path fill="#786D58" d="M265.2,228.2c-1.5,0.5-3.1,0.9-4.6,1.4c-0.4-0.9-1.6-2-0.3-2.6C262,226.3,264,226.1,265.2,228.2z"/>
		<path fill="#786D58" d="M266.7,231.4c0-1,0-2-0.1-3c1.1-1.6,2.2-1.9,3.4-0.1C269,229.3,267.9,230.3,266.7,231.4z"/>
		<path fill="#958876" d="M233,241c1.7-2.1,3.4-4.2,5.1-6.2c1-0.5,2.1-1.1,3.1-1.6C242.1,239.6,238.2,240.9,233,241z"/>
		<path fill="#8F7F6B" d="M400.3,294.1c0.6-0.4,1.3-0.8,1.9-1.3c0,1,0.3,2.9,1,2.5c4.6-2.7,10.8-1.1,14.6-5.7c0.6,0,1.3,0,1.9,0
			c0,0.4,0,0.8-0.1,1.3c0.6,1.4,2,1.5,3.3,1.8c-5.9,2.1-11.9,4.2-17.8,6.3C403.9,296.9,399.9,297.6,400.3,294.1z"/>
		<path fill="#BAA37B" d="M250.5,261c-0.4-1.8-0.9-3.6-1.3-5.4c1.2-0.2,2.6-0.2,3.1-1.7c3.1-3.9,1.9-8.4,1.7-12.8
			c2.7,4,2.4,10.7,9.8,10.6c2.1,0,2.9-0.5,3-2.4c2.7,1.5,5.4,1.7,7.9-0.6c0.7,5-5.1,2.5-6.2,5.3c-4.3,2.6,0,4.2,1.1,4.8
			c3.2,1.8,3.4-0.8,3.4-3.1c4.9,1.2,3.1,7.2,6.6,9.4c-5.3,2.3-5.4,6.6-4.5,11.3c0.5,4.8,0,9.8,3.2,14c0.1,1.7,0.2,3.3,0.2,5
			c-0.6,0.5-1.2,1.1-1.8,1.6c-3.3-0.7-5.9-2.2-6.7-5.7c0.8-4-1.8-7.1-3.1-10.5c0-3.1,0.9-6.8-0.3-9.3c-1.9-3.8-0.5-13.1-10.1-7.6
			C253.9,265.4,252.4,262.1,250.5,261z M267.3,261.7c-1.5-3.7-3.1-5.1-6.4-6C262.4,258.6,263.6,260.5,267.3,261.7z"/>
		<path fill="#332619" d="M209.1,294.3c-2,5.2-10.9,6.4-8.1,14.3c-2.2-0.1-5-6.6-6.6,0.5c-0.6-0.7-1.2-1.4-1.7-2.1
			c-0.9-3,2.4-3.2,3.4-4.9c5.1-4.8-0.2-11,2.3-16.1c1.9-1.4,4.2-1.6,6.5-1.8C210,286,209.5,290.1,209.1,294.3z"/>
		<path fill="#917249" d="M362,335.7c-0.1-0.9-0.1-1.8-0.2-2.8c1.4-0.2,2.9-0.4,4.3-0.6C366.2,335.3,364.2,335.7,362,335.7z"/>
		<path fill="#DFB67E" d="M204.2,307c1.8-3.4,5.1-2.8,8.1-3C211,308.9,207,306.5,204.2,307z"/>
		<path fill="#D2B995" d="M149.5,284.6c1,0,2-0.1,3-0.1c2.7,0.4,4.2-1,5.2-3.3c4.6,2.4,10.3,2.8,13.8,7.4c1.1,1.4,2.6,1.7,3.7-0.4
			c5.8-10.4,6.5-2.4,8.1,2.2c-0.3,5.2-6.3,3.4-8.2,6.7c-1.7,0.7-2.1-1-3.1-1.6c-0.3-3.2-2.9-4.9-4.9-6.6c-3.2-2.7-6.4-2.6-8,2.2
			c-2.1-0.7-4.2-1.4-6.3-2.1C151.7,287.5,148.7,287.5,149.5,284.6z"/>
		<path fill="#2F2116" d="M152.8,289c2.1,0.7,4.2,1.4,6.3,2.1c0.3,1.1,1.7,2.4-0.3,3.2c-3.1-1.2-6.2-2.3-9.3-3.5
			C150.2,289.4,151.6,289.4,152.8,289z"/>
		<path fill="#876A40" d="M173.7,251.2c2.6-2.6,4.9-2,7.3,0.9c-2.5,2.2-5-0.2-7.3,0.1C173.6,251.8,173.7,251.5,173.7,251.2z"/>
		<path fill="#857050" d="M419.6,274.9c0.1-0.5,0.3-0.9,0.5-1.4c1.8-1.5,3.6-3,5.8-4.9c0.5,5.1-2.9,6.7-6,8.5
			C419.8,276.4,419.7,275.7,419.6,274.9z"/>
		<path fill="#9D8759" d="M419.6,274.9c0.1,0.8,0.2,1.5,0.2,2.3c-0.7,2.8-3.2,2.3-5.1,2.9C415.5,277.6,417.6,276.2,419.6,274.9z"/>
		<path fill="#936A3D" d="M165.9,317c2.6-2.9,3.7,2.4,6,1.1c0.6,0.7,1.1,1.3,1.7,2c-2.1,0-4.2-0.1-6.3-0.1
			C166.8,319,166.4,318,165.9,317z"/>
		<path fill="#514530" d="M417.8,289.6c-3.8,4.6-10,3-14.6,5.7c-0.7,0.4-1-1.5-1-2.5c2-0.5,3.5-1.7,4.6-3.5
			C410.4,288.3,414.1,289.4,417.8,289.6z"/>
		<path fill="#514530" d="M419.6,290.9c0.1-0.4,0.1-0.8,0.1-1.3c1.6-0.7,3-2.3,5.1-1.3C424.2,291.5,421.7,290.7,419.6,290.9z"/>
		<path fill="#C5B097" d="M416.1,228.7c-3-2.2-6.2-0.1-9.2-0.5c2.6-2.5,5.1-5,7.7-7.4C415.1,223.4,415.6,226,416.1,228.7z"/>
		<path fill="#3D352B" d="M274.7,248.8c-2.5,2.3-5.1,2.1-7.9,0.6c-1-3.4-8-5.6-2-10.4c2.8-2.2,6.1-4.7,9.2-3.3
			c3.8,1.8,2.1,5.9,1.2,9.2C274.8,246.1,274.8,247.5,274.7,248.8z"/>
		<path fill="#352C1D" d="M254,241.2c0.1,4.4,1.4,8.9-1.7,12.8c-7.1,0-4.4-6.5-6.5-9.8C248,241.6,249.9,238.3,254,241.2z"/>
		<path fill="#241B11" d="M242.6,260.3c-6.5-1.2-7.7-5.2-5.9-10.9c1-0.6,1.9-1.2,2.9-1.8c3.5-0.1,5.6,0.6,4.2,5
			C242.9,255,242.9,257.7,242.6,260.3z"/>
		<path fill="#60533C" d="M242.6,260.3c0.3-2.6,0.3-5.3,1.1-7.7c1.5-4.3-0.6-5.1-4.2-5c1.6-2,4-2.6,6.3-3.4c2.1,3.3-0.6,9.8,6.5,9.8
			c-0.6,1.5-1.9,1.4-3.1,1.7C245.5,255,245.6,259.8,242.6,260.3z"/>
		<path fill="#5D5037" d="M275,276.5c-0.9-4.7-0.8-9,4.5-11.3c0.3-0.5,0.7-1.1,1-1.6c1.7,2,1,3.6-0.8,5
			C274,268.8,278.1,274.8,275,276.5z"/>
		<path fill="#88734E" d="M272.9,255.8c0,2.3-0.2,4.9-3.4,3.1c-1-0.6-5.4-2.2-1.1-4.8C269.5,255.9,271.3,255.7,272.9,255.8z"/>
		<path fill="#53422C" d="M321.6,250.9c3.7,3.5,3.1,5.2-3.2,9.5c0.6-3.2-7.1-6.3-0.1-9.5c0,0-0.1-0.1-0.1-0.1
			C319.3,252.7,320.5,252.1,321.6,250.9z"/>
		<path fill="#6F5D42" d="M318.2,244.3c1.4,0.1,2.7,0.4,3.4,1.8c-1,1.7-1.4,3.8-3.3,4.8c0,0,0.1,0.1,0.1,0.1
			C318.8,248.7,315.4,246.5,318.2,244.3z"/>
		<path fill="#3A2E22" d="M324.8,283.3c1.6-5.8,7.6-4.3,11.1-6.8c0.2,0.3,0.2,0.7,0.1,1.1c0.8,2.5,2.8,2,4.7,2.1
			c0.2,2.3,1.4,3.9,3.2,5.2c0,1.2-0.3,2.3-1.5,2.9C337.9,281.4,331,283.7,324.8,283.3z"/>
		<path fill="#393024" d="M342.5,287.7c1.2-0.6,1.5-1.7,1.5-2.9c1.5,6.9,8.1,3.3,11.7,5.8c-3.8,0.1-7.6,0.2-11.4,0.4
			C343.7,290,343.1,288.9,342.5,287.7z"/>
		<path fill="#493520" d="M358.2,268.7c2.4,7.3,9.3,10,14.6,14.3c-1.1,2-3.1,1.4-4.9,1.6c-3.2-0.7-5.2-3.4-7.8-5
			c-1.1-2-2.4-3.6-5.1-2.9c-1-0.7-1.9-1.5-2.9-2.2c0.7-1.7,4.3,0,3.6-2.8c-0.5-1.8-2.4-2.8-4.3-2.9c-3.7-0.4-0.9,2.6-1.8,3.7
			c-0.8,1-1.7,1.8-2.6,2.7c-1.5-0.7-3.1-0.9-4.7-0.2c0,0,0,0,0,0c0.9-1.3,1.9-2.5,2.6-3.9C350,261.4,350.5,261.3,358.2,268.7z"/>
		<path fill="#453020" d="M344.1,265.7c-0.2,3.3-1.2,6-4.1,5.3c-5.3-1.3-5.9-6.8-7.7-10.8c-1-2.3,2.1-4.5,3.6-4
			C340.5,257.8,341.7,262.7,344.1,265.7z"/>
		<path fill="#402E19" d="M340.9,250.9c5.7-0.3,5.4,6.1,9.1,8.1c0.3,0.4,0.3,0.8,0.2,1.3C344.7,259.5,343.6,254.5,340.9,250.9z"/>
		<path fill="#493520" d="M340.8,279.7c-1.9-0.1-3.9,0.4-4.7-2.1c1.6-2.1,3.9-2.5,6.3-2.7c0,0,0,0,0,0
			C341.9,276.5,341.3,278.1,340.8,279.7z"/>
		<path fill="#BEB48E" d="M350.2,260.2c0.1-0.5,0.1-0.9-0.2-1.3c2.7-2.6,2.1,1.8,3.6,1.7C352.2,262.5,351.2,261.7,350.2,260.2z"/>
		<path fill="#9E8C69" d="M318.2,250.8c2-1,2.4-3.1,3.3-4.8c1.1-0.4,2.6-1.7,3.3-0.2c1.7,3.3-3.1,2.7-3.3,5
			C320.5,252.1,319.3,252.7,318.2,250.8z"/>
		<path fill="#30271E" d="M204.8,284.3c-2.3,0.2-4.6,0.3-6.5,1.8c0,0-0.7,0.1-0.7,0.1c-0.5-8.5-6.8-13-12.4-18
			c-2.4-1-5.2-1.5-7.1-3.1c-5.9-4.8-11.5-4.4-17.3,0.1c-0.5-0.5-1.1-1.1-1.6-1.6c0.6-0.5,1.1-1.1,1.7-1.6c12.2-8.9,23-3.9,33.6,3.3
			c2,6.5,9,10.3,9.3,17.7C204.1,283.5,204.4,283.9,204.8,284.3z"/>
		<path fill="#897150" d="M159.2,263.7c0.5,0.5,1.1,1.1,1.6,1.6c0.6,0.6,1.2,1.2,1.7,1.9c-2,2.4-0.6,3.1,1.7,3.4
			c0,0.4-0.1,0.9-0.3,1.3c-2.3-0.4-4.4,0.1-6.2,1.6c0,0-0.4-0.3-0.4-0.3c-0.2-1.6,2-3,0.1-4.9C154.9,265.8,156,264.1,159.2,263.7z"
			/>
		<path fill="#2C2722" d="M183.4,290.5c-1.6-4.7-2.4-12.7-8.1-2.2c-1.1,2-2.6,1.8-3.7,0.4c-3.5-4.6-9.2-5-13.8-7.4
			c0-0.5,0-1-0.2-1.5c1.5-2.5,4.8-1,6.6-2.9c3.7-1.1,7.4-2.3,11.1-3.4c6.6,2.6,12.2,6.8,17.7,11.1
			C189.6,286.1,192.9,298.5,183.4,290.5z"/>
		<path fill="#A89575" d="M175.3,273.4c-3.7,1.1-7.4,2.3-11.1,3.4c-1.2-0.3-2.7-0.3-3.3-1.7c2-0.1,3.5-0.8,3-3.3
			c0.2-0.4,0.3-0.8,0.3-1.3c2.2-0.4,4.3-0.7,7.3-1.2c-3.4-1.4-5.8-3.2-8.9-2.2c-0.6-0.6-1.2-1.2-1.7-1.9c5.7-4.5,11.3-5,17.3-0.1
			c1.9,1.6,4.7,2.1,7.1,3.1C181.2,268.6,177.4,269.4,175.3,273.4z"/>
		<path fill="#B49E62" d="M157.6,279.7c0.1,0.5,0.2,1,0.2,1.5c-1,2.2-2.6,3.7-5.2,3.3c-0.5-1.6-1.9-3-0.3-4.8
			C154.1,277.5,155.8,278.8,157.6,279.7z"/>
		<path fill="#5E3F1E" d="M163.9,271.8c0.5,2.5-1,3.1-3,3.3c-1.2-0.2-2.6-0.2-3.2-1.7C159.5,271.9,161.6,271.3,163.9,271.8z"/>
		<path fill="#BFA173" d="M340.8,279.7c0.5-1.6,1.1-3.2,1.6-4.8c1.6-0.7,3.2-0.4,4.7,0.2c0.1,1.7-0.7,4.2,2,4.1
			c2.6-0.1,2.6-2.8,3.1-4.7c1,0.7,1.9,1.5,2.9,2.2c-0.6,1.9-4.1,3.2-2.2,5.1c3,2.9,4.8-1.4,7.3-2.2c2.6,1.7,4.5,4.3,7.8,5
			c1.1,1.9,2.4,3.5,5,3.1c-1.3,2.8-5.2,0.6-6.5,3.4c-3.6-0.1-7.1-0.2-10.7-0.4c-3.6-2.6-10.3,1-11.7-5.8
			C342.2,283.6,341,281.9,340.8,279.7z"/>
		<path fill="#755225" d="M373,287.7c-2.5,0.4-3.8-1.2-5-3.1c1.7-0.2,3.7,0.4,4.9-1.6c2.9,2.5,8.9,0.9,9.7,7.6
			C378.9,289.7,376.5,286.2,373,287.7z"/>
		<path fill="#A07A3E" d="M393.4,285c0.5,3.6,0.6,5.7-2.1,6.4c-0.4,0.1-1.4-0.8-1.6-1.4C388.7,286.9,392.2,287.4,393.4,285z"/>
		<path fill="#A17F4C" d="M399.8,286.3c0.5,0.4,1.4,0.7,1.6,1.2c0.3,1.3-0.8,1.8-1.8,1.8c-0.6,0-1.6-0.6-1.7-1.1
			C397.4,286.8,398.6,286.6,399.8,286.3z"/>
		<path fill="#926942" d="M361.6,246.1c7.1-0.9,12.8,1.2,16.4,7.7C372.9,250.4,365.7,251.6,361.6,246.1z"/>
		<path fill="#332C22" d="M346.8,294.4c2.8,0,5.8-1.1,8.3,1C352.4,295.4,349.5,296.1,346.8,294.4z"/>
		<path fill="#B28E68" d="M404.4,221.7c0.8,0.1,1.6,0.2,2.3,0.3c-2.3,2.7-8.8,0.3-8.1,6.6c-2.6,1.5-5.2,3-7.8,4.5
			C393.5,227,395.4,220.2,404.4,221.7z"/>
		<path fill="#B99884" d="M378.5,233c2.8,0.1,5.4,0.2,8.2,0.4C383.7,239.1,381.2,238.6,378.5,233z"/>
		<path fill="#788D6C" d="M402.2,212.4c-1.2,1.7,0.5,4.3-2.3,6.4c-0.2-3.1-5.7-5.4,0.7-7.8C401.2,211.5,401.7,211.9,402.2,212.4z"/>
		<path fill="#845225" d="M366.5,239.7c-0.1-2.9-1.4-5.8-0.1-8.7c1.9,1.7,6.1,1,6.1,4.1C372.5,238.2,368.3,237.9,366.5,239.7z"/>
		<path fill="#BAAD97" d="M381.2,205.7c0-3.7,0-7.3-0.1-11c3.4,3.3,0.3,7.4,1.5,11c0,0-0.7,0-0.7,0L381.2,205.7z"/>
		<path fill="#CFA772" d="M183.4,290.5c9.5,8,6.1-4.4,9.6-6c2.9,1.4-0.6,3.8,1,5.7c1.2-1.4,2.4-2.7,3.6-4c0,0,0.7-0.1,0.7-0.1
			c-2.5,5.1,2.8,11.3-2.3,16.1c-3.1-5.4-7.5-1-11.2-1.5c-3-1.8-5.5-4.6-9.6-3.5C177.1,293.9,183.1,295.7,183.4,290.5z"/>
		<path fill="#40321F" d="M158.8,294.4c2-0.9,0.6-2.1,0.3-3.2c1.6-4.8,4.8-4.9,8-2.2c2,1.7,4.6,3.4,4.9,6.6c-0.2,2.5-1.7,3.5-4,3.8
			c-2.4-0.9-2.5-8-7.1-2.5C160.3,296,159.6,295.2,158.8,294.4z"/>
		<path fill="#553F25" d="M168.2,299.3c2.3-0.3,3.8-1.3,4-3.8c1,0.7,1.4,2.3,3.1,1.6c4-1.1,6.6,1.7,9.6,3.5
			C180.6,305.7,172.8,305.1,168.2,299.3z"/>
		<path fill="#BB9774" d="M149.4,296.4c-0.1,2.5-0.8,5.3-3.8,4.6c-2.6-0.6-2.1-3.1-0.8-5.1c1.5-0.1,3.1-0.2,4.6-0.3L149.4,296.4z"/>
		<path fill="#371F0E" d="M149.4,295.7c-1.5,0.1-3.1,0.2-4.6,0.3c-2.1-1.3-1.6-2.5,0.1-3.6C147.4,292.2,148.8,293.4,149.4,295.7z"/>
		<path fill="#DFB67E" d="M204.8,284.3c-0.3-0.4-0.7-0.8-1-1.2c4.5-0.9,5.9-4.4,6.9-8.2c4,2.3,1.1-4.7,4.5-3.4
			c1.8-0.5,3.7-1.1,5.5-1.6c2,0.7,4,1.4,6,2.1c0.9,0.5,1.8,1.1,2.7,1.6c2.7,1.4,6.7,2.3,3.8,6.8c-2.8,4.3-5.3,1.2-7.8-0.6
			c-1.2-2.6-3-6.6-5.6-5.2c-3.5,1.9,1,4.5,1.5,7c0.1,0.5,0.4,1,0.6,1.4c1.2,3.2,3.7,6,3.2,9.7c-0.6,1.1-1.1,2.1-1.7,3.2
			c-2.4,1-4.9,1.7-7,3.1c-6.2,4.1-8.1,2.1-7.3-4.6C209.5,290.1,210,286,204.8,284.3z"/>
		<path fill="#2C2416" d="M250.5,261c2,1.1,3.5,4.5,5.9,3.1c9.6-5.5,8.2,3.8,10.1,7.6c1.2,2.6,0.3,6.2,0.3,9.3
			c-2.6,0.8-3.6-1.2-5-2.7c-1.6-1.7-3.3-4.3-6.3-2c-0.9,0-1.8,0-2.8,0c-1.4-2.7-2.9-5.5-4.2-8.2C247.1,265.2,247.1,262.6,250.5,261z
			"/>
		<path fill="#382C1A" d="M226.7,271.9c-2-0.7-4-1.4-6-2.1c-1.3-2.6-5.3-5.2-2-8.2c3.1-2.8,5.7,0.8,8.1,2.5c1.3,0.9,2.4,2.1,4,3.5
			c1.3-4.8-3.3-6-4.5-8.8c9.6-0.7,12.3,1.1,16.8,11.7c-3.1-2.3-6.2-4.7-9.1-6.9c-2.5,3.9,5.4,4.2,2.4,8.2
			C233.1,268.7,229.9,273.8,226.7,271.9z"/>
		<path fill="#A47E51" d="M236.3,271.9c2.9-4-4.9-4.3-2.4-8.2c2.9,2.2,6,4.5,9.1,6.9c0.2,0.4,0.4,0.7,0.7,1.1
			c0.3,0.9,0.5,1.8,0.8,2.7c-1.6,5.5-6,9.6-6.5,15.7C235.1,283.9,240.5,277.6,236.3,271.9z"/>
		<path fill="#A47E51" d="M252.8,276.3c0.9,0,1.8,0,2.8,0c-2.6,2.9,2.2,8.3-4.2,10.4c-1.2-3.4,0.1-8-3.8-10.3c0-0.5,0-1.1,0-1.6
			C249.2,275.7,250.8,276.8,252.8,276.3z"/>
		<path fill="#4F3518" d="M221.9,282.9c-0.2-0.5-0.5-0.9-0.6-1.4c-0.6-2.4-5-5.1-1.5-7c2.6-1.4,4.4,2.6,5.6,5.2
			C225.4,282,224.6,283.4,221.9,282.9z"/>
		<path fill="#754B20" d="M223.4,295.8c0.6-1.1,1.1-2.1,1.7-3.2c2.3-0.9,0.8-4,2.8-5.1C228.2,295,227.8,295.7,223.4,295.8z"/>
		<path fill="#70572B" d="M247.6,274.8c-0.1,0.5-0.1,1,0,1.6c-1-0.7-2.1-1.4-3.1-2c-0.3-0.9-0.5-1.8-0.8-2.7
			C247.1,270,247,272.9,247.6,274.8z"/>
		<path fill="#CEC1A0" d="M210.6,274.8c-1,3.8-2.4,7.3-6.9,8.2c-0.3-7.4-7.3-11.2-9.3-17.7c1-2.2,2.4-3.2,4.7-1.6
			c1.3,3.9,5.2,4.6,8.2,6.4C208.4,271.7,209.5,273.3,210.6,274.8z"/>
		<path fill="#272016" d="M207.3,270.1c-3-1.8-6.9-2.5-8.2-6.4c0.6-1.6,1.2-3.3,1.8-4.9c1.4-0.9,2.7-2.3,4.7-1.5
			c1.1,2.6,2,5.4,3.3,7.9C210.2,267.6,209.9,269.2,207.3,270.1z"/>
		<path fill="#624F34" d="M207.3,270.1c2.6-1,2.8-2.5,1.6-4.9c-1.3-2.5-2.2-5.3-3.3-7.9c3.6,1,3.5,6.5,7.9,6.5
			c-0.8,2.8,1.1,5,1.5,7.6c-3.4-1.4-0.4,5.6-4.5,3.4C209.5,273.3,208.4,271.7,207.3,270.1z"/>
		<path fill="#8C7958" d="M213.6,263.9c-4.4,0-4.3-5.6-7.9-6.5c-2-0.8-3.3,0.5-4.7,1.5c-0.5-3.8,3.8-2.8,5-5
			c3.4,0.4,5.3,4.9,9.4,3.3C214.1,259.2,212.8,261.3,213.6,263.9z"/>
		<path fill="#40301D" d="M215.3,257.2c-4.1,1.6-6-2.9-9.4-3.3c0.2-3.6,2.8-3.2,5.1-2.8C214.4,251.5,215.6,253.9,215.3,257.2z"/>
		<path fill="#8D7751" d="M267.3,261.7c-3.7-1.2-4.9-3.1-6.4-6C264.2,256.6,265.9,258,267.3,261.7z"/>
		<path fill="#947B5A" d="M352.3,274.5c-0.5,1.9-0.5,4.6-3.1,4.7c-2.7,0.1-1.9-2.4-2-4.1c0.9-0.9,1.8-1.7,2.6-2.7
			c0.9-1.1-1.9-4.1,1.8-3.7c1.9,0.2,3.9,1.2,4.3,2.9C356.5,274.4,352.9,272.8,352.3,274.5z"/>
		<path fill="#947B5A" d="M360.2,279.6c-2.4,0.9-4.3,5.2-7.3,2.2c-1.9-1.9,1.6-3.3,2.2-5.1C357.8,276,359.1,277.6,360.2,279.6z"/>
		<path fill="#CCBE9E" d="M197.6,286.2c-1.2,1.3-2.3,2.6-3.6,4c-1.6-1.9,1.9-4.3-1-5.7c-5.5-4.3-11.1-8.5-17.7-11.1
			c2.1-4,5.9-4.8,9.9-5.1C190.8,273.2,197.1,277.7,197.6,286.2z"/>
		<path fill="#524024" d="M162.5,267.1c3.1-1,5.5,0.8,8.9,2.2c-2.9,0.5-5.1,0.8-7.3,1.2C161.9,270.2,160.5,269.5,162.5,267.1z"/>
	</g>
</g>
</svg>
