<?xml version="1.0" encoding="utf-8"?>
<!-- Generator: Adobe Illustrator 18.1.0, SVG Export Plug-In . SVG Version: 6.00 Build 0)  -->
<svg version="1.1" id="Layer_1" xmlns="http://www.w3.org/2000/svg" xmlns:xlink="http://www.w3.org/1999/xlink" x="0px" y="0px"
	 viewBox="0 0 180 180" enable-background="new 0 0 180 180" xml:space="preserve">
<path d="M75,94c-7.2-6.8-13.9-13.4-20.9-19.6c-16.6-14.3-12.9-19.9-4.9-23.8c5.4-2.7,12.7,7,17,11.7c5.7,6.2,12,12,18.6,18.5
	c4.5-5.5,8.6-11.1,13.4-16.1c7.8-8.1,16-15.8,24.1-23.7c4.6-4.4,8.8-3.6,12.4,1.3c3.4,4.5,3.5,8-1.4,12.5
	C120.7,66.5,108.9,79.2,96,92.2c13.5,12.2,25.4,23.4,37.9,33.9c5,4.2,4.3,8,1,11.9c-3.2,3.6-6.8,6-11.8,1.3
	c-11.7-10.9-23.8-21.4-36-32.2c-7.6,9.2-15.2,18.4-22.8,27.5c-0.4,0.5-0.8,1.2-1.3,1.7c-3.7,3.1-7.7,7-12.8,3.7
	c-3.9-2.5-2.8-11.8,0.7-16C58.7,114.5,66.4,104.7,75,94z"/>
</svg>
