<?xml version="1.0" encoding="utf-8"?>
<!-- Generator: Adobe Illustrator 18.1.0, SVG Export Plug-In . SVG Version: 6.00 Build 0)  -->
<svg version="1.1" id="Layer_1" xmlns="http://www.w3.org/2000/svg" xmlns:xlink="http://www.w3.org/1999/xlink" x="0px" y="0px"
	 viewBox="0 0 513.7 192.8" enable-background="new 0 0 513.7 192.8" xml:space="preserve">
<g>
	<path d="M88.5,39.6c0.5,0.6,1.2,0.5,1.8,0.5c13,0,26,0.8,38.9,1.6c18,1.2,35.9,2.9,53.7,5.2c14.2,1.8,28.4,3.4,42.4,6.4
		c11.8,2.6,23.7,4,35.7,3.6c9.5-0.3,18.8-1.9,28-3.8c15.6-3.2,31.5-5,47.3-6.9c18.1-2.2,36.3-3.8,54.5-4.8
		c10.4-0.6,20.8-1.2,31.3-1.2c1,0,2.1,0.2,3.4-0.4c-1.1-1.2-2.5-1.9-3.8-2.5c-3.2-1.5-4.9-4-5.4-7.4c-0.6-3.8-1.6-7.6-3.2-11.1
		c-2.5-5.6-5.6-6.7-11-4.1c-9.1,4.5-16.4,11.1-22.4,19.2c-0.6,0.9-1.2,1.8-1.9,2.6c-1.3,1.6-3,2.1-4.8,1.1c-3.1-1.7-6.1-3.6-8.6-6.2
		c-3.3-3.5-3.2-6.7,0.7-9.6C379.7,11,395.7,3.7,413.4,0.4c6.9-1.3,13.7,0.8,19.8,3.8c24.6,12.1,49.1,24.3,73.5,36.7
		c8.8,4.5,7.2,3.4,6.5,11.8c-0.7,8.2-2.2,16.3-4,24.3c-0.4,1.8-1.4,3.2-3,4c-8.1,4.2-12.5,11.3-15.6,19.6
		c-5.9,16.1-11.8,32.2-19.9,47.2c-12.6,23.2-32,37.1-58.3,41.4c-14.9,2.5-29.9,3.8-44.9,3.3c-10.7-0.3-21.4-0.6-31.8-3.5
		c-14.3-4-25.7-12.2-34-24.6c-13.3-19.9-21.1-41.7-24.6-65.2c-0.6-4.4-2.1-5.6-6.5-5.7c-9.2,0-18.4,0-27.6,0c-4.4,0-6,1.5-6.6,5.9
		c-3.4,24.2-11.7,46.5-25.6,66.6c-9.8,14.2-23.7,22.1-40.6,24.6c-15.9,2.3-31.9,2.6-48,1.2c-9.2-0.8-18.4-1.7-27.3-3.9
		c-25.5-6.1-43.4-21.8-54.6-45.3c-6.9-14.3-12.5-29.1-18.1-44C19.4,91.2,14.8,85,7.4,81.1C5.8,80.3,5,79,4.6,77.3
		C2.3,67.5,0.8,57.6,0,47.6c-0.2-2,0.8-3.3,2.5-4.2c4.4-2.3,8.9-4.7,13.3-7c21-10.5,42-20.8,63-31.3c10.3-5.1,20.8-6.4,32-2.6
		c13.5,4.7,26.5,10.2,38.1,18.9c4,3,4.3,6.3,0.8,9.9c-2.4,2.5-5.4,4.4-8.4,6c-2.1,1.1-3.8,0.5-5.4-1.9c-3.4-4.8-7.2-9.2-11.7-13
		c-4-3.4-8.2-6.3-13-8.5c-4.3-1.9-7.2-1-9.5,3.1c-1.7,3-2.9,6.3-3.3,9.8c-0.6,5.5-3.1,9.4-8.3,11.5C89.4,38.7,88.7,38.8,88.5,39.6z
		 M464.3,64.6c-3.7-2.6-7.4-5.2-11.1-7.8c-0.9-0.6-1.8-1-2.9-1.1c-10.2-0.8-20.5-1.2-30.8-1.4c-18.5-0.2-37,0.7-55.4,2.4
		c-13.6,1.3-27.1,2.9-40.5,5.4C308.1,65,295.7,76.9,293,91.7c-1.4,7.8-0.6,15.6,1,23.3c2.9,13.4,8,26.1,14.6,38.1
		c7.1,12.8,17.5,21.9,31.7,26.1c8.9,2.6,18.2,2.7,27.4,3c14.7,0.5,29.2-0.8,43.6-3.7c22.1-4.4,38.2-17.1,48.5-36.9
		c8.2-15.9,12.8-33.1,15.6-50.7c0.7-4.4,1.4-8.8,1.1-13.2c-0.2-2.4-0.3-4.7-2.8-6.2 M43.5,67.6 M40.2,71.4c-2.2,1.2-2.6,3.1-2.8,5.4
		c-0.4,3.1,0,6.1,0.3,9.1c2.1,17.9,6.9,35.2,14.3,51.6c9.3,20.7,24.8,34.5,47,40.2c13.2,3.4,26.7,4.3,40.3,4.6
		c8.1,0.2,16.2-0.7,24.3-1.4c17.2-1.5,30-10.2,39.2-24.3c8-12.3,13.2-25.9,16.5-40.2c2.1-8.8,3.1-17.9,0.9-26.9
		c-3.5-14.4-17.1-25.7-33-28.1c-18.1-2.7-36.1-4.9-54.4-6.1c-21.5-1.4-43-1.4-64.5-0.2c-4.2,0.2-8,1.1-11.3,4c-1.8,1.6-4,2.9-6,4.3"
		/>
</g>
</svg>
