<?xml version="1.0" encoding="utf-8"?>
<!-- Generator: Adobe Illustrator 18.1.0, SVG Export Plug-In . SVG Version: 6.00 Build 0)  -->
<svg version="1.1" id="Layer_1" xmlns="http://www.w3.org/2000/svg" xmlns:xlink="http://www.w3.org/1999/xlink" x="0px" y="0px"
	 viewBox="0 0 513.7 208.3" enable-background="new 0 0 513.7 208.3" xml:space="preserve">
<g>
	<g>
		<path d="M15.8,31.3c-4.5,2.2-8.9,4.6-13.3,7c-1.7,0.9-2.6,2.2-2.5,4.2c0.8,10,2.3,19.9,4.6,29.7c0.4,1.7,1.3,3,2.8,3.8
			c7.4,3.8,12,10.1,14.9,17.7c5.5,14.9,11.2,29.7,18.1,44c11.2,23.5,29,39.1,54.6,45.3c9,2.2,18.1,3.1,27.3,3.9
			c16,1.3,32.1,1.1,48-1.2c16.9-2.5,30.7-10.4,40.6-24.6c13.9-20.1,22.2-42.5,25.6-66.6c0.6-4.4,2.2-5.9,6.6-5.9
			c9.2,0,18.4,0,27.6,0c4.4,0,5.9,1.3,6.5,5.7c3.5,23.5,11.3,45.4,24.6,65.2c8.3,12.5,19.6,20.6,34,24.6c10.4,2.9,21.1,3.2,31.8,3.5
			c15.1,0.5,30-0.9,44.9-3.3c26.2-4.3,45.7-18.2,58.3-41.4c8.2-15.1,14.1-31.2,19.9-47.2c3-8.3,7.5-15.3,15.6-19.6
			c1.6-0.9,2.6-2.2,3-4c1.8-8,3.3-16.1,4-24.3c0.7-8.4,2.4-7.3-6.5-11.8l-84.4-0.9c-10.4,0-20.9,0.6-31.3,1.2
			c-18.2,1.1-36.4,2.7-54.5,4.8c-15.8,1.9-31.7,3.8-47.3,6.9c-9.3,1.9-18.6,3.5-28,3.8c-12,0.4-23.9-1-35.7-3.6
			c-14-3-28.2-4.6-42.4-6.4c-17.9-2.3-35.8-4-53.7-5.2c-13-0.9-25.9-1.6-38.9-1.6 M132.9,50.3c18.2,1.2,36.3,3.4,54.4,6.1
			c15.9,2.4,29.5,13.7,33,28.1c2.2,9,1.1,18.1-0.9,26.9c-3.3,14.2-8.5,27.9-16.5,40.2c-9.2,14-22,22.8-39.2,24.3
			c-8.1,0.7-16.2,1.6-24.3,1.4c-13.6-0.3-27.1-1.2-40.3-4.6c-22.2-5.7-37.7-19.6-47-40.2c-7.4-16.4-12.2-33.7-14.3-51.6
			c-0.3-2.8-0.7-5.5-0.4-8.3C36.2,62.2,41.8,51.7,52,48.9c4.4-1.2,9-1.3,13.5-0.7 M477.4,68.9c-0.2,0.8-0.1,2.2-0.4,3
			c-0.1,0.7-0.2,1.4-0.3,2.1c0.2,4.2-0.7,7.7-1.4,11.8c-2.8,17.6-7.4,34.8-15.6,50.7c-10.3,19.8-26.3,32.4-48.5,36.9
			c-14.4,2.9-29,4.2-43.6,3.7c-9.2-0.3-18.5-0.4-27.4-3c-14.2-4.2-24.7-13.3-31.7-26.1c-6.6-12-11.7-24.7-14.6-38.1
			c-1.7-7.7-2.5-15.5-1-23.3c2.7-14.8,15.1-26.7,30.6-29.6c13.4-2.5,27-4.1,40.5-5.4c18.4-1.7,36.9-2.6,55.4-2.4
			c9.6,0.1,18.9-0.5,28.5,0.3c0.3,0,0.9,0.1,1.2,0.1c4.2-0.1,8.4-0.2,12.6,0.2c4.4,0.4,8.5,1.6,11.7,4.8
			C477.3,58.4,478.5,63.6,477.4,68.9z"/>
		<path d="M78.8,0"/>
		<path d="M98.3,21.8"/>
		<path d="M11.7,34.1l30.5,157.2c0.7,12.8-4.3,10.1-6.6,14.1l-5,2.9c-6.3-0.2-13.6,0-14.3-6.3L0,42.4"/>
		<path d="M513.7,39.8l-5.7,144.9c-0.4,9.4-8.8,16.3-18.1,14.9h0c-3.5-0.5-5.9-3.7-5.6-7.1l9.4-111.4"/>
	</g>
</g>
</svg>
