<?xml version="1.0" encoding="utf-8"?>
<!-- Generator: Adobe Illustrator 18.1.0, SVG Export Plug-In . SVG Version: 6.00 Build 0)  -->
<svg version="1.1" id="Layer_1" xmlns="http://www.w3.org/2000/svg" xmlns:xlink="http://www.w3.org/1999/xlink" x="0px" y="0px"
	 viewBox="0 0 180 180" enable-background="new 0 0 180 180" xml:space="preserve">
<path d="M86.7,38.4c3.9-2.3,6.8-4.9,10.3-5.9c4.9-1.5,10.5,1.9,13.6,7.9c4.1,7.9,7.5,16.2,11.8,24.1c6.8,12.4,14,24.5,21.1,36.7
	c3.6,6.2,7.6,12.1,10.9,18.4c5.8,11.2,2.1,18.6-10.3,21c-3.1,0.6-6.2,0.7-9.3,1c-0.8,7.7-0.8,7.5-8.5,5.7c-10.6-2.5-21.3-6-32.1-6.5
	c-10.1-0.5-20.3,2.3-30.4,3.9c-3.1,0.5-6,1.7-9.1,2.5c-8.1,2.2-8.1,2.1-11.4-6.2c-9.8,2.7-14.9-5-21-10.4c-0.9-0.7-0.5-4,0.4-5.4
	c7.3-12.1,15.4-23.7,22.2-36c7.2-12.9,12.9-26.6,19.9-39.6c3.2-5.9,8-10.9,12.3-16.1c1.8-2.2,3.9-1.9,5.8,0.6
	C84,35.8,85.6,37.2,86.7,38.4z M89.4,58.8c-12.9,23.5-25.6,46.5-38.5,69.9c26.4,0,51.3,0,76.7,0C116.1,105.1,105.7,81.1,89.4,58.8z
	 M37.4,129.1c0.5-0.5,2-1.6,2.7-3.1c6.3-12.4,12-25.1,18.7-37.4c6.8-12.4,14.4-24.2,21.6-36.4c1.5-2.5,4.7-5.9,0.6-8.1
	c-4.6-2.4-5.2,2.6-6.4,5.3C65,70.8,54.4,91.6,40.8,110.7c-3,4.3-5.2,9.2-7.5,13.9C32,127.2,32.2,129.3,37.4,129.1z M144.5,128.3
	c0.4-0.6,0.8-1.1,1.3-1.7c-18.7-25.3-33.1-53.1-45.6-82.2c-4.6,3.7-5,6.6-2.6,10.7c8.7,14.5,17.3,29,25.5,43.8
	c5.4,9.8,10,20.1,15.1,30.5C140.4,129,142.5,128.7,144.5,128.3z"/>
</svg>
