<?xml version="1.0" encoding="utf-8"?>
<!-- Generator: Adobe Illustrator 18.1.0, SVG Export Plug-In . SVG Version: 6.00 Build 0)  -->
<svg version="1.1" id="Layer_1" xmlns="http://www.w3.org/2000/svg" xmlns:xlink="http://www.w3.org/1999/xlink" x="0px" y="0px"
	 viewBox="0 0 585.1 585.4" enable-background="new 0 0 585.1 585.4" xml:space="preserve">
<g>
	<g>
		<path fill="#1E1E21" d="M52,394.4c-10,0.3-19.9,1.8-29.8,2.8c-3.7,0.4-6.7,0.1-8.3-3.7c0-0.5,0.1-1,0.1-1.5
			c0.4-76.1,0.8-152.2,1.2-228.3c0.1-21,0.3-42,0.5-62.9c0.1-5.7,1.9-6.9,7.5-5.7c2.6,0.5,5,1.9,7.8,1.5c12.6,4.1,25.6,7,38.5,10.1
			c25.2,6.1,50.5,11.9,75.8,17.3c27,5.7,54.1,10.7,81.4,15.2c39.2,6.5,78.6,12,118.2,16.3c35.9,3.9,71.9,7,108,9.2
			c41.2,2.6,82.5,4.1,123.8,4.9c5.9,0.1,7,1.2,7,7.1c0.2,35.5,0.3,71,0.5,106.5c0.2,25.3,0.5,50.6,0.7,76c0.1,7.2-0.8,8.1-8,8.1
			c-23.5,0.3-47,0.2-70.5,0.8c-31.8,0.7-63.6,1-95.4,2.5c-0.8-0.1-1.6-0.3-2.5-0.2c-27.1,1-54.2,2.1-81.3,3.2
			c-3.8,0.2-7.6-0.5-11.3,0.8c-9.6-0.4-19.2,0.8-28.8,1.2c-13.9,0.6-27.8,1.5-41.7,2.5c-5.3,0.4-10.6-0.1-15.8,1.3
			c-11.5,0.1-22.9,1.2-34.3,2.1c-18.6,1.4-37.2,2.7-55.7,4.3c-25.2,2.2-50.4,4.5-75.5,6.9C60.2,393.1,56,392.9,52,394.4z
			 M323.2,262.5c-0.2,3.2-1.7,5.5-4.9,5.9c-1.9,0.3-2.2,1.3-2,2.7c1,8.5,2.5,16.9,4.4,25.2c0.1,0.3,0.7,0.6,1.1,0.8
			c0.8-1.2,0.7-2.5,0.3-3.4c-1.7-4-1.8-8.3-2.6-12.5c-1.1-5.9-1.2-11.5,5.1-15.7c3.1-2.1,4-1.3,5.6,0.9c0.6,5.2-3.2,9.1-4.6,13.8
			c5.2-2.8,8.2-7.1,9.2-12.9c2,1.6,1.9,3.7,2.9,5.2c1.4,2.2,1.3,2.2-1,4.4c-0.4,0.4-0.6,0.9-0.3,1.3c1.1,1.3,0.1,3.4,1.8,4.4
			c4.9,6.8,8.4,14.5,13.7,21c-0.5,2.7-1.5,0.6-1.9,0.1c-3.1-3.9-6.1-7.8-9.1-11.7c-1-1.3-2.2-3.3-3.9-2.2c-2.1,1.4,0.1,3.1,0.8,4.7
			c0.1,0.1,0.2,0.3,0.3,0.4c6.7,7.3,12.7,15.2,20,22c1.4,1.3,2.5,2.9,5.6,2.8c-2.2-2.3-3.9-4.1-5.6-5.9c-1-1.1-1.3-2,0.7-2.3
			c3.3,4.2,7.3,7.9,10.5,12.3c3,4.2,6.2,8.5,10.6,11.6c0.7,7,4.9,12.1,8.8,17.4c1.2,1.7,2.3,4.8,4.6,3.1c2.3-1.7-1.1-3.1-1.8-4.8
			c-1.3-3-4.8-5.1-4.2-9.2c2.2,0.5,2.8,3,5.1,3.2c-4-6.1-6.4-7.9-12.3-10c-0.1-1.3,1.1-2.4-0.5-3.8c-1.8-1.5-3-3.8-4.5-5.7
			c0.4-1.8,0.6-3.6,1.8-5.1c4.5,4.8,9.1,9.6,14,14c0.8,1.3,1.9,2.2,3.1,2.9c3.1,3.4,6,7.2,11.4,3.8c1.9-1.2,2.8,0.7,3.5,1.7
			c1.8,2.7,3.8,5.3,5.8,8c3.7,4.9,4.6,5.4,10.7,3.6c-1.2-1.5-3.3-1.6-4.3-3.2c-1.1-3.8-1.8-7.6-3.6-11.2c-0.7-1.4-1.2-3.3,1.4-3.7
			c3.4,3.4,4.7,8.3,8.7,11.3c-2.3-6.3-7-11.3-9.7-17.3c2.8-2.9,4.4,1.6,6.8,1.1c2.4-5,2.9-5.2,7.8-2.9c1.1,0.5,2.1,1.5,3.1,1.4
			c6.1-0.4,10,3.4,14.3,6.8c0.7,0.6,1.4,1.8,2.5,0.9c0.9-0.8,0.6-2-0.2-2.6c-3.1-2.2-2.6-8.5-8.5-7.7c-0.3,0-0.7-0.7-1.1-1
			c-7.8-5.2-14.7-11.8-23.2-16.2c-6-3.1-10.5-8.5-17.4-10.2c-2.5-0.6-5.1-2.6-6.6-5.1c-2.9-4.8-5.6-9.8-8.4-14.7
			c-1.1-1.8-1.1-3.8-1-5.8c0.2-2.6,1.5-2.7,3.3-1.3c0.8,0.6,1.2,1.5,1.8,2.3c3.5,4.8,6.9,9.7,10,14.8c0.8,1.3,1.6,2.8,3.8,2.4
			c-1.8-5.9-4.7-10.9-7.5-15.9c-3.6-6.4-3.4-6.5,3.7-8.5c6.2-1.6,9.4-0.5,13,5.1c4.4,6.8,8.5,13.8,12.9,20.6c2.2,3.4,3.7,7.6,7.3,10
			c0.8-1,0.3-1.5,0.1-2.1c-3.5-7.3-7-14.6-10.4-22c-1.6-3.5-3.1-7-4.3-10.6c-1.2-3.6,0.6-5.4,4.2-4.6c1,0.2,2,0.8,2.9,0.4
			c3.2-1.4,5,0.1,6.2,2.9c0.7,1.5,2,3.1,3.3,1.8c2.5-2.4,3.4-0.2,4.7,1c3,2.5,4.6,6.1,6.8,9.2c1.8,2.5,3.5,5.1,6.3,6.1
			c3.2,1.2,4.2,3.4,4.9,6.2c0.6,2.3,0.9,4.7,2.7,6.5c2.7-2.5,2.5-5.4,2.3-8.2c-0.2-2.7,1-3.6,3.5-3.4c5,0.5,9.4,2.5,12.3,6.6
			c3,4.4,5,9.2,6.9,14.2c3.4,9.2,10.9,15.2,18.5,20.8c1.1,0.8,2.3,2.2,3.4,1.5c1.5-0.8,1.6-2.8,1.5-4.5c-0.1-1.7-1.5-2.5-2.4-3.6
			c-1-1.2-2.9-2-1.6-4.1c3.9-0.3,7.2-2.3,11-3c1,0.1,2.3-0.3,2.8,0.6c2.3,3.9,5.4,2.2,8.3,1.3c1.6-0.5,3-1.4,4.5-2.1
			c6.9-3.3,13.8-6.5,20.6-9.9c2.2-1.1,3.9-0.5,5.5,0.7c1.8,1.3,1.4,3.2,0.9,5c-0.7,2.5-2.7,3.5-4.9,4.5c-8,3.4-16.4,4.8-24.7,7
			c-2.9,0.8-6,1.2-8.4,3.7c7.6-1,13.6,2.5,20,5.7c6.2,3.1,13.5,4.7,20.7,3.2c1.5-0.3,4.3-0.2,4.1-2.6c-0.1-1.7-2.4-1.7-4-2.1
			c-4.6-1.2-9.2-2.6-13.7-4.1c-1.1-0.4-2.8-1.3-1.8-2.9c0.8-1.4,2.3-0.9,3.6-0.2c0.6,0.3,1.3,0.5,1.7,1c3.5,4.4,9.3,2.8,13.7,5.1
			c1.2,0.6,4.3-0.5,3.6-2c-0.8-1.7-1.1-4.8-4.2-4.8c-1.5,0-3.4-0.5-3.6-2c-0.2-2.3,2.4-1.8,3.7-2.5c0.8-0.5,1.9-0.5,2.8-1.1
			c1.3-0.8,2.6-2.1,2-3.7c-2-5.3-0.3-10.5,0.1-15.7c0-1.3,0-2.7,0-4c0-16-0.1-32.1-0.1-48.1c0-10.7,0-21.4-0.1-32.1
			c0-5.2,0-10.4,0-15.6c0-3.3-0.1-6.6,0.1-10c0.2-3.3-1.3-4.4-4.5-4.3c-4.8,0.1-9.6,0-14.4-0.1c-0.7-0.9-1.7-0.9-2.7-0.9
			c-19.1-0.1-38.2,0.2-57.4-1c-2.3,0-4.7,0-7,0.1c-2.1-0.1-4.3,0.1-6.4-0.2c-9.8-1.1-19.6-2.2-29.5-1.9c-9.4-0.5-18.7-2.4-28.1-1.9
			c-12.3-1-24.6-1.9-36.9-2.9c-1.7-0.3-3.3-0.5-5-0.2c-5.4,0.7-10.6-2.3-16-0.8c-5.2-1.7-10.6-2.2-16-2.2
			c-6.9-1.2-13.9-1.8-20.9-2.2c-10.6-1.5-21.3-2.8-32-3.7c-1-0.1-2-0.2-3.1-0.3c-0.9-0.9-2.2-0.6-3.3-0.8c-5-1-9.9,0.2-15.2-1.5
			c-8.7-2.7-18.2-2.7-27.3-3.8c-7-1.4-14.1-2.4-21.2-2.8c-8.9-2.2-17.9-3.4-27-4.2c-1.8-1.2-3.8-1.4-5.9-1.4
			c-4.7-0.9-9.4-1.7-14.2-2.6c-5.9-1.5-12.1-1.5-18-2.7c-2.3,0.1-1.7,1.3-1.1,2.6c2.8,5.6,5.2,11.4,9,16.5c0.1,1.3,0.5,3-1.9,1.8
			c-2.9-6.6-7.3-12.4-10.6-18.8c-1.6-3.2-6.6-4.8-9.2-3.6c-0.6-0.9-1.2-1.6-2.3-1.8c-5.4-0.8-10.6-2.5-16.1-2.9
			c-3.4-1-6.9-2-10.5-2.1c-1.6-1.4-3.5-0.7-5.2-0.9c-1.4-1.4-3.3-0.8-5-1c-3.2-1.4-6.7-1.4-10.1-2.2c-19.7-4.3-39.4-8.7-59.1-13.1
			c-3.8-0.9-4.6-0.3-5.2,4c-1.3,0.9-2.3,1.8-1.2,3.5c-0.9,16.3-0.5,32.5-0.4,48.8c-0.3,6-0.3,12.1,0,18.1c-0.3,8.7-0.6,17.3-0.1,26
			c0.2,2.4-1.7,5.8,1.9,6.9c7.4,2.3,14.1,6,21.1,9.1c1.3,1,2.6,2,4,3c-0.8,2.1-2.2,2.2-3.9,1.1c-5.9-4-12.6-6.4-18.7-10.1
			c-1.4-0.9-3-1.6-3.9-0.2c-1,1.5-1.1,3.6,0.4,5c1.1,1,2.1,2.2,3.8,2.2c1,0,2,0.2,2.7,1c0.8,0.8,1.9,1.6,1,2.9c-0.6,1-1.5,1-2.6,0.6
			c-1.8-0.7-3.6-1.2-5.4-1.9c-0.1,0.2-0.2,0.5-0.4,0.7c2.5,1.5,4.9,3.1,7.4,4.6c-2.9,0.6-5.6,0.8-7.3,3.4c-0.5,2.5-0.6,5.1-0.2,7.7
			c0,1,0,2.1,0,3.1c0,0.7,0,1.3,0.1,2c0.7,1.7,1.4,3.4,2.1,5c1.1,2.4,1.7,5.2-0.2,7c-3.6,3.5-2.9,7.8-2.9,12c0.9,4.9,0.5,9.9,1,14.8
			c-1.4,0.8-0.9,2-0.8,3.1c0,3-0.1,6-0.1,9c0,11.7,0,23.4,0,35.2c0,3,0,6,0,9c-0.4,2.3-0.3,4.6,0,6.9c-0.1,3.8-1.6,8.4,0.6,11.1
			c2.3,2.8,6.8-0.2,10.4,0c1.5,0.1,3,0,4.5-0.1c2.6-0.2,5.3,0.5,7.8-0.9c0.9-0.4,0.7-1.2,0.7-2c1.8-0.3,3.6-0.1,5.2,0.9
			c2.3,1.4,4.6,1.5,6.9,0.1c2,0,4-0.1,5.9-0.1c1.2,0,2.3,0.2,3.5,0c7.5-1.1,15-2,22.5-1.9c5-1.4,10.1-2,15.3-1.1
			c5-0.2,4.9-0.1,2.8-4.2c-2.6-4.9-6.1-9.3-8.1-14.5c-3.6-8.7-4.8-18.2-9.4-26.8c-4.1-7.8-7.7-16-11.4-24.2c0-0.4-0.1-0.8-0.1-1.2
			c-0.3-7.1,4.7-1.3,6.9-2.6c0-2.3-1.2-4-2.2-5.6c-2.5-4.1-4.8-8.3-6.4-12.9c-0.4-1.1-0.8-2.4,0.2-3.3c1.1-1,2.1,0,3.1,0.6
			c6.5,3.9,12.3,8.6,15.2,15.8c1.9,4.7,5.1,6.7,10,7.7c-0.6-2.4-2-4-3.3-5.6c-5.3-6.7-11.8-12.5-15.3-20.6c-0.6-1.3-1.7-1.9-2.7-2.8
			c-2.1-1.7-4-3.5-5.7-5.5c-0.7-0.8-2.2-1.9-0.5-3.2c6.2,6.1,12.5,12.2,18.7,18.3c14.1,16.4,26.4,34,38,52.2
			c3.1,4.8,6,10.2,10.8,13.8c6.8,5.1,12.3,11.5,18.2,17.5c2.3,2.3,4.8,3.3,7.9,3.1c2.6-0.2,5.3-0.5,7.9-0.7c2.7,0.4,5.4,0,8.1-0.2
			c6,0.3,12-0.9,18-1c4,0.6,8-0.1,12-0.8c4.7-0.1,9.4-0.1,14-0.2c2-0.3,4-0.6,6-0.8c13.3-0.1,26.5-1.5,39.8-1.1c0.8,0,1.7-0.1,2.1-1
			c-0.5-2-1.9-3.4-3.1-5c-8.3-12-16.6-24-25-35.9c-2.6-3.6-4.6-7.6-7.8-10.7c-3.3-3.9-5.2-8.7-8.8-12.4c-2.2-5.1-5.6-9.5-9-13.8
			c-3.8-5.9-7.5-11.8-11.3-17.7c2.3,0.3,3.4,3.6,6.2,2.6c1.9,1,2.6,3,3.7,4.6c5.4,7.9,10.7,15.9,16,23.9c0.8,1.2,1.4,3.2,3,2.9
			c2.4-0.5,3.3,1.2,4.5,2.4c6.5,6,11,13.6,16.8,20.2c6.5,10.6,15,19.5,23.9,28.1c0.7,1.1,1.3,2.3,2.2,3.3c2.5,2.6,4.3,6.6,7.7,7.3
			c3.9,0.8,8.2,1,12.3-0.5c1.3-0.1,2.6-0.2,3.9-0.3c2.6,0,5.1,0,7.7,0c3,0.5,3.9-2,5.2-3.8c3.1,2.6,6.1,5.8,11.4,2.4
			c-5.1-2.6-5.9-9.4-12.3-10.1c-0.7-0.1-1.3-1.4-2-2.1c0-1.8,1.4-3.5-0.6-5.5c-9.2-9.1-18.2-18.4-27.3-27.7
			c-1.5-1.5-4.3-2.5-1.5-5.4c0.9-1-0.3-1.5-1.3-1.9c-4.7-1.9-8.7-4.3-10.1-9.8c-0.7-2.7-2.9-5.5-5.7-6.6c-3.3-1.3-4.8-3.7-6.4-6.4
			c-0.3-0.8-0.6-1.6-0.9-2.4c-2.2-5.5-4-11.1-8-15.6c-2.7-4.7-5.4-9.3-8.1-14c0.3-1.9-0.7-3.5-1.2-5.1c-0.4-1.4-0.3-2.2,1-2.8
			c0.2,0.6,0.3,1.3,0.7,1.8c6.7,8.2,13.4,16.3,20.1,24.5c1.4,1.7,3.3,3.1,4,5c0.8,2.4-2.5,3-3.3,4.9c-0.1,0.2,0.1,0.6,0.3,1.3
			c2.5-2,4.9-3.9,7.3-5.7c1.6-0.9,3.1-1.9,4.8-2.6c2.5-1.1,4.7-3,7.7-3.1c5.3-0.2,10.2-4.3,11.9-9.3c0.7-2.1,0.3-4.7,2.3-6.3
			c2,1.3,2.2,3.6,3.4,5.4C320.8,259.4,322.2,260.9,323.2,262.5z M477.2,337.4c1.4,2.5,4.2,3.2,6.6,3.9c4.1,1.2,7.4-2.3,5.7-6.2
			c-3.5-8-8.2-15.4-13.5-22.4c-1.9-2.6-4.3-2.9-7-1.2c-1-0.6-0.5-2.3-1.9-2.6c-2.7,6.3-0.2,21.5,9.9,27.6
			C477,336.8,477.1,337.1,477.2,337.4z M115.6,326.5c2.1,15.5,10,27.7,17.8,40c0.2,0.4,0.7,0.7,1.2,0.9c1.1,0.3,2.4,0.6,3.3-0.3
			c0.9-0.8,0.1-1.8-0.4-2.7c-1.1-2.1-2.2-4.1-3.2-6.2C128.6,347.5,122.5,337.1,115.6,326.5z"/>
		<path fill="#C8CAD3" d="M339.1,440.5c10.9-0.3,21.6,0.6,32.4,1.6c9.3,0.8,18.9,1.1,28.3-0.4c1.6-0.3,3.3-0.2,5-0.3
			c15.1,0,30.3-0.4,45.4,0.1c6.4,0.2,12.9,0.7,19.3,0.9c3.5,0.1,6.8,4.2,6.5,7.6c-0.1,1.3-1,2-2.1,2.5c-2,0.9-4,2-6.1,1.8
			c-7.2-0.4-14.2,0.8-21.3,1.2c-6.1,0.4-12.2,1.2-18.3,0.8c0.7-0.9,1.7-0.9,2.7-0.9c9.7-0.7,19.4-1.4,29.2-2.1
			c1-0.1,2.7,0.4,2.7-1.3c0.1-1-1.1-1.5-2.1-1.7c-8.2-1.5-16.3-1.7-24.5-0.2c-15.6,1.2-31.2,2.1-46.7,3.5
			c-31.7,2.9-63.4,6.2-95,10.3c-20.7,2.7-41.5,5.4-62.1,8.6c-24.7,3.8-49.4,7.9-74,12.9c-1-0.1-1.9-0.2-2.9-0.3
			c-1.1-0.1-2.4,0.4-3-0.9c-0.6-1.3-0.2-2.5,0.8-3.5c0.6-0.5,1.3-1,1.9-1.5c1.2-0.1,2.3,0,3.5-0.3c19.1-5,38.1-10.3,57.5-14.2
			c11.1-2.3,22.2-4.7,33.4-6.7c5.9-1.1,12.1-1.2,17.7-3.7c6.4-0.7,12.8-1.3,19.1-3c2.5-0.3,4.9-0.5,7.4-0.8
			c11.5-1,22.8-2.9,34.4-3.5c7.2,0,14.3-0.7,21.6-1.9C346.3,442.2,341.8,443.7,339.1,440.5z"/>
		<path fill="#C1C1C9" d="M31.1,96.6c-2.7,0.3-5.2-1-7.8-1.5c-5.6-1.1-7.4,0.1-7.5,5.7c-0.2,21-0.4,42-0.5,62.9
			c-0.4,76.1-0.8,152.2-1.2,228.3c0,0.5-0.1,1-0.1,1.5c-1.9-2.7-0.7-5.8-0.9-8.6c-0.2-3.4-0.1-6.9-0.1-11.1
			c-2.7,7.8-0.5,15.3-2.1,22.8c-3.6-1.5-5.1-3.6-4.8-7c0.2-2.2-0.1-4.3-0.9-6.3c1.6-1.1,0.9-2.7,0.9-4.1c0.2-22.1,0.4-44.2,0.5-66.3
			c0.2-18.4,0.3-36.9,0.5-55.3c1.8-4.6,0.7-9.4,1-14.1c0.2-3.8-1.5-8.4,0.6-11.2c3-4,3.2-8.2,3.1-12.3c-0.2-12.8,0.5-25.6,0.5-38.5
			c0-11,0.4-22,0.7-33.1c0.4-17.9-1.1-35.9,1-53.8C20.2,91.7,25.8,93.2,31.1,96.6z"/>
		<path fill="#1D1D1E" d="M7.3,257.5c-0.2,18.4-0.4,36.9-0.5,55.3c-0.2,22.1-0.3,44.2-0.5,66.3c0,1.4,0.6,3-0.9,4.1
			c-5.5-19.5-5.4-39.4-5.2-59.4c0.5-52.4,0.7-104.9,1.1-157.3c0.2-17.2,2.2-34.2,6-50.9c1.6,1.3,0.8,3.1,0.8,4.7
			c-0.2,24-0.5,47.9-0.6,71.9C7.3,213.9,7.3,235.7,7.3,257.5z"/>
		<path fill="#B6B7BB" d="M339.1,440.5c2.7,3.1,7.2,1.7,10.4,4.9c-7.3,1.2-14.4,2-21.6,1.9c2.6-1.4,6.6-0.4,7.5-4.8
			c-8,0.8-15.9,1.9-23.8,2.5c-7.2,0.5-14.4,2.8-21.7,0.6c-2.2-2.1-5.9-3.1-5.6-7.1c2.5-0.4,1.5-1.9,1.1-3.3
			c-1.2-4.3-2.3-8.6-3.5-12.9c-0.4-1.3-0.5-2.5,1.1-2.6c9.3-0.7,18.7-0.3,28-1c6.5-0.5,13.1-0.6,19.6-0.4c0.5,0,1.1-0.7,1.6-1
			C335.2,424.9,339.2,432.1,339.1,440.5z"/>
		<path fill="#A9A9AF" d="M267.2,454.5c-5.6,2.5-11.8,2.6-17.7,3.7c-11.2,2-22.3,4.4-33.4,6.7c-19.4,4-38.4,9.3-57.5,14.2
			c-1.1,0.3-2.3,0.2-3.5,0.3c-5.7-1.4-10.8-3.7-14-9c1.6-1.2,3.5-1.1,5.3-1.2c7-0.5,13.9-2.1,20.7-3.7c6.1-1.4,12.1-3.2,18.3-4.4
			c3.6-0.7,7.7-0.1,10.8-2.8c8.3-1.5,16.5-3.1,24.8-4.5c5.7-1,11.4-1.8,17.1-2.6c7.9-1.2,15.9-1.8,23.7-3.7c0.4-0.1,0.5-1.1,1-2.2
			c-5.8,0.3-11.2,1.5-16.6,0.9c-1.9-4.9-1.2-5.9,3.8-6c2.8,0,5.6-0.1,8.4,0.9c6.1,2.3,12.5,0.6,18.8,1.2c-3.8,2.9-7.6,5.8-11.3,8.8
			c-0.7,0.6-1.7,1.3-1.3,2.4C265,454.8,266.3,454.3,267.2,454.5z"/>
		<path fill="#9A9AA0" d="M141.1,470.5c3.2,5.2,8.3,7.6,14,9c-0.6,0.5-1.3,0.9-1.9,1.5c-1.1,1-1.4,2.2-0.8,3.5
			c0.6,1.3,1.9,0.8,3,0.9c1,0.1,1.9,0.2,2.9,0.3c-1.9,1.6-4.5,0-6.5,1.4c0.8,2,2.3,2.4,4.1,2.4c2.7,0,5.3,0.1,8-0.4
			c18.5-3.3,37-6.5,55.4-9.8c34.3-6.2,68.8-11.1,103.5-14.6c19.8-2,39.6-4.9,59.5-6.4c21.2-1.6,42.4-3.6,63.6-4.8
			c3-0.2,5.8-0.6,8.7-1.8c-6-1.9-12.3-0.8-18.5-1.3c8.2-1.5,16.4-1.3,24.5,0.2c1.1,0.2,2.2,0.7,2.1,1.7c-0.1,1.7-1.7,1.2-2.7,1.3
			c-9.7,0.7-19.4,1.4-29.2,2.1c-1,0.1-2,0-2.7,0.9c-1.1,0.5-2,1-3.3,1c-10.6,0.1-21.2,1.1-31.7,2.2c-12.6,1.3-25.3,2.1-38,3.5
			c-11.5,1.3-23.1,1.9-34.7,3.2c-14.5,1.7-29,3.3-43.5,5.3c-18.1,2.5-36.1,5.3-54,8.6c-16.6,3.1-33.3,6.1-49.9,9.1
			c-5.3-0.3-10.5,1.3-15.8,1.4c-6.9,0.2-13.5-0.7-18.6-6.3c-1.6-1.8-2.2-3.3-0.2-5.1c1.3-1.1,1.8-2.3,0.7-3.9
			c-1.6-2.2-1-4.8-1.1-7.3c0,0,0-0.1,0-0.1C139.1,469.1,140.1,469.8,141.1,470.5z"/>
		<path fill="#97989C" d="M332.4,417.3c-0.5,0.4-1.1,1.1-1.6,1c-6.6-0.2-13.2-0.1-19.6,0.4c-9.4,0.7-18.7,0.3-28,1
			c-1.6,0.1-1.5,1.3-1.1,2.6c1.2,4.3,2.3,8.6,3.5,12.9c0.4,1.4,1.4,2.9-1.1,3.3c-0.9-1.3-2.7-2.1-2.9-3.7
			c-0.8-5.6-3.5-10.7-4.5-16.2c1-0.4,1.1-1.3,1.2-2.1c1.1,0.3,0.6,1.9,1.7,2.2c0.7-2.8-0.8-5.1-1.4-7.6c-0.7-2.5-0.2-4.6,2.8-4.5
			c4,0.2,7.9-0.8,11.8-1.1c8.8-0.5,17.5-1.1,26.3-1.2c2.4,0,5.6,0.6,7.8-1.9C329.6,407.1,330.9,412.2,332.4,417.3z"/>
		<path fill="#A3A3A8" d="M7.3,257.5c0-21.8,0-43.6,0.2-65.4c0.1-24,0.5-47.9,0.6-71.9c0-1.6,0.8-3.3-0.8-4.7c0.9-4,0.8-8,0.9-12.1
			c0.2-4.1,3.1-6.6,6-9c-2.1,17.9-0.6,35.9-1,53.8c-0.3,11-0.7,22.1-0.7,33.1c0,12.8-0.7,25.6-0.5,38.5c0.1,4.1-0.1,8.3-3.1,12.3
			c-2.1,2.8-0.4,7.4-0.6,11.2C8,248.1,9.1,252.9,7.3,257.5z"/>
		<path fill="#7E7E80" d="M327.2,402.4c-2.1,2.4-5.3,1.9-7.8,1.9c-8.8,0.1-17.6,0.7-26.3,1.2c-4,0.2-7.8,1.3-11.8,1.1
			c-3-0.1-3.5,2-2.8,4.5c0.7,2.5,2.1,4.8,1.4,7.6c-1.1-0.4-0.6-1.9-1.7-2.2c-0.8-5.5-3.4-10.5-4-16c1.7-1.2,0.2-4.3,2.8-4.7
			c5.5-0.8,11.1-2.2,16.6-2c9.3,0.4,18.5-0.7,27.7-1.3c1.3-0.1,1.6-1,1.8-2C324.9,394.3,326.1,398.3,327.2,402.4z"/>
		<path fill="#565659" d="M323.1,390.4c-0.2,1-0.5,1.9-1.8,2c-9.2,0.5-18.4,1.6-27.7,1.3c-5.5-0.2-11,1.2-16.6,2
			c-2.6,0.4-1.2,3.6-2.8,4.7c-1-3-2.1-6-3.1-8.9c0.6-1.6-1.3-4.8,1.8-4.7c2.4,0,4.4-1,6.6-1.2c12.4-1.3,24.9-0.5,37.2-2.1
			c2.7-0.3,4.3,0.7,5.3,3C322.4,387.8,322.8,389.1,323.1,390.4z"/>
		<path fill="#C5C5CB" d="M52,394.4c4-1.5,8.2-1.3,12.3-1.7c25.2-2.4,50.3-4.7,75.5-6.9c18.6-1.6,37.1-2.9,55.7-4.3
			c11.4-0.9,22.9-2,34.3-2.1c1.4,0.5,3.3-0.5,4.3,1.2c-0.5,0.5-1,0.9-1.7,0.8c-7.8-0.6-15.6,0.7-23.3,1.2
			c-10.4,0.7-20.8,1.1-31.1,2.6c-5.7,0.8-11.5,0.4-17.3,1.1c-10.3,1.2-20.8,1.3-31,3c-3.9,0.7-7.9,0.3-11.9,0.6
			c-6.9,0.4-13.7,2-20.7,1.3c-3.7-0.4-7.8,1-11.8,1.4c-6.2,0.5-12.2,2.7-18.5,1.3c-0.6-0.1-1.6-0.4-1.9-0.1
			C60.7,397,56.3,394.4,52,394.4z"/>
		<path fill="#8A8B92" d="M322.1,386.5c-1-2.4-2.6-3.4-5.3-3c-12.4,1.6-24.9,0.8-37.2,2.1c-2.2,0.2-4.2,1.2-6.6,1.2
			c-3.1,0-1.2,3.1-1.8,4.7c-2-3.9-0.6-8.1-0.9-12.2c-0.1-1.5,1.1-1.9,2.4-1.8c4.6,0.1,9.2-0.2,13.8-1c1-0.2,2.7-0.8,3,0.7
			c0.7,3.1,3,2.3,4.7,2.1c6.1-0.6,12.2-1,18.3-0.9c1.6,0,3.4,0.4,4.8-0.8c2.2,0.3,4.6-0.9,6.7,0.7c-1.4,0.1-2.1,0.9-2,2.2
			C322,382.5,322,384.5,322.1,386.5z"/>
		<path fill="#191919" d="M277,418.6c1.1,5.5,3.7,10.6,4.5,16.2c0.2,1.7,2,2.4,2.9,3.7c-0.3,4.1,3.4,5,5.6,7.1
			c-1.5,1.6-2.9,0.4-4.5,0.1c-2.2-0.5-4.1-2.1-6.4-2.2c-0.4-0.4-0.7-0.8-1.1-1.2c-2.7-18.5-11-35.5-14-53.9c0.1-2.3,0-4.6,0.2-6.9
			c0.1-1.3-0.8-3.1,1.8-3.2c2.4,0,2.1,1.5,2.1,3c0,3.8-0.1,7.6,1.1,11.3C271.7,401.3,274.4,409.9,277,418.6z"/>
		<path fill="#B5B5BB" d="M277,418.6c-2.6-8.6-5.2-17.2-7.9-25.9c-1.1-3.7-1.1-7.5-1.1-11.3c0-1.5,0.3-3.1-2.1-3
			c-2.6,0-1.7,1.9-1.8,3.2c-0.1,2.3-0.1,4.6-0.2,6.9c-1.5-1.7-0.8-3.8-0.8-5.7c0.1-2.6-0.9-3.3-3.4-3.4c-8.6-0.3-17,1.4-25.6,1.2
			c-1.1-1.7-2.9-0.7-4.3-1.2c5.2-1.4,10.5-0.9,15.8-1.3c13.9-1,27.8-1.9,41.7-2.5c9.6-0.4,19.1-1.6,28.8-1.2
			c0.1,1.2-0.2,2.5,1.2,3.3c-1.4,1.2-3.2,0.8-4.8,0.8c-6.1-0.1-12.2,0.4-18.3,0.9c-1.7,0.2-4,1-4.7-2.1c-0.3-1.4-2.1-0.8-3-0.7
			c-4.6,0.7-9.2,1.1-13.8,1c-1.3,0-2.5,0.3-2.4,1.8c0.3,4.1-1.1,8.2,0.9,12.2c1,3,2.1,6,3.1,8.9c0.6,5.5,3.2,10.5,4,16
			C278.1,417.3,278,418.2,277,418.6z"/>
		<path fill="#C6C7D1" d="M138.1,468.4c0.2,2.5-0.5,5,1.1,7.3c1.1,1.6,0.6,2.8-0.7,3.9c-2,1.8-1.4,3.3,0.2,5.1
			c5.1,5.6,11.6,6.5,18.6,6.3c5.3-0.1,10.5-1.7,15.8-1.4c-1.9,2-4.7,1.3-7,1.7c-12.3,2.1-24.6,1.5-36.6-2.7
			c-3.2-1.1-5.8-2.9-6.3-6.3c-0.5-3.3,1.7-5.4,4.4-7.1c1.8-1.1,3.6-2.4,5.7-2.8C135.7,471.8,137.1,470.3,138.1,468.4z"/>
		<path fill="#BFC1C8" d="M317.3,377.6c-1.4-0.7-1.1-2.1-1.2-3.3c3.7-1.3,7.6-0.7,11.3-0.8c27.1-1.2,54.2-2.2,81.3-3.2
			c0.8,0,1.6,0.2,2.5,0.2c-1.6,1.7-3.8,0.8-5.7,1c-10.3,0.9-20.6,2.1-31,1.3c-5.3-0.4-10.9,0.3-16.2,1.3c-11.3,2.1-22.4,6-34.2,4.3
			C321.9,376.7,319.5,377.9,317.3,377.6z"/>
		<path fill="#CFD1D8" d="M141.1,470.5c-1-0.7-2-1.4-3-2.1c4.1-3.7,9.4-3.8,14.3-4.7c7.9-1.5,15.6-3.6,23.7-4.5
			c6.7-0.7,13.4-0.6,20.1-0.7c-3.1,2.6-7.2,2.1-10.8,2.8c-6.2,1.1-12.2,3-18.3,4.4c-6.9,1.5-13.7,3.1-20.7,3.7
			C144.6,469.4,142.7,469.3,141.1,470.5z"/>
		<path fill="#85868A" d="M278,442.3c0.4,0.4,0.7,0.8,1.1,1.2c0.6,1.3,2,2.2,2.1,3.9c0.1,3.2,2.4,4,5.1,4.2
			c-6.2,1.7-12.7,2.2-19.1,3c-0.9-0.2-2.2,0.2-2.6-0.8c-0.5-1.1,0.5-1.8,1.3-2.4c3.8-3,7.5-5.9,11.3-8.8
			C277.4,442.4,277.7,442.3,278,442.3z"/>
		<path fill="#C7C8CE" d="M246.2,446.4c5.4,0.6,10.8-0.6,16.6-0.9c-0.5,1.1-0.6,2.1-1,2.2c-7.8,2-15.8,2.6-23.7,3.7
			C239.3,447.3,243.4,447.9,246.2,446.4z"/>
		<path fill="#1C2943" d="M570.1,293.4c0,1.3,0,2.7,0,4c-8.3,1.8-16.5,2.4-25,1.4c-5.6-0.7-10.8-3.1-16.6-2.5
			c-1.3,0.2-3.2,0.8-4-0.9c-0.9-1.7,0.9-2.6,1.8-3.7c4.7-5.5,3.7-9.5-3.2-11.8c-4.5-1.5-9.1-3-13-6c-3.2-2.5-5.4-1.8-6.7,2
			c-2.3,7.3-5.3,14.6-4.4,22.5c-1.7-2.8-0.5-5.8-0.9-8.7c-0.1-1.1,0.4-2.5-1-3.1c-1.6-0.7-2.4,0.6-3.3,1.5c-0.8,0.8-1.6,1.7-1.6,3
			c-0.1,7.2-0.9,14.5,2.1,21.5c1.3,3.2,3.5,4.9,6.6,6c2.8,1,2.1-1,2.2-2.3c0.8,0.4,1.5,0.7,2.3,1.1c0.3,0.3,0.5,0.6,0.8,0.9
			c-1.3,2.1,0.6,2.9,1.6,4.1c1,1.1,2.3,2,2.4,3.6c0.1,1.7,0,3.7-1.5,4.5c-1.1,0.6-2.3-0.8-3.4-1.5c-7.6-5.7-15.1-11.6-18.5-20.8
			c-1.8-5-3.8-9.9-6.9-14.2c-2.9-4.2-7.3-6.1-12.3-6.6c-2.5-0.3-3.7,0.7-3.5,3.4c0.2,2.8,0.4,5.7-2.3,8.2c-1.8-1.9-2.1-4.3-2.7-6.5
			c-0.7-2.8-1.8-5.1-4.9-6.2c-2.8-1-4.5-3.7-6.3-6.1c-2.2-3.1-3.8-6.6-6.8-9.2c-1.4-1.2-2.3-3.4-4.7-1c-1.3,1.3-2.7-0.3-3.3-1.8
			c-1.3-2.8-3-4.3-6.2-2.9c-0.9,0.4-1.9-0.2-2.9-0.4c-3.6-0.8-5.4,1-4.2,4.6c1.2,3.6,2.7,7.1,4.3,10.6c3.4,7.4,6.9,14.7,10.4,22
			c0.3,0.6,0.7,1.1-0.1,2.1c-3.6-2.5-5.1-6.6-7.3-10c-4.4-6.8-8.5-13.8-12.9-20.6c-3.6-5.6-6.8-6.7-13-5.1c-0.6-1.4-1.9-2.2-2.9-3.4
			c-2.5-3-1.9-3.9,1.5-5.8c3.3-1.8,5.6,0.9,8.4,1.1c1.6,1,1.8,3.7,4.9,3.6c-0.6-1.8-1.1-3.4-1.6-5.1c-0.5-1.9-1.6-3.7-1.3-5.8
			c0.2-1.9-0.7-5.2,1.6-5.1c3.3,0,6.1-4.3,9.6-1c0.7,0.6,1.6,1.9,2.4,0.7c1-1.6,1.5-3.4,4-2.5c2,0.7,3,2.5,4.1,4.2
			c1.8,2.8,3.7,5.5,5.5,8.2c1.5,2.4,3.7,2.3,5.6,1.2c2.2-1.2,0.4-2.9-0.2-4.3c-0.4-1.1-1.1-2.1-1.5-3.1c-4.3-9.2-2.7-15.4,5.7-21.3
			c7.6-5.4,15.9-10.1,21.4-18.1c1.7-2.6,3.6-5.1,6.1-7.2c5.4-4.6,10.6-9.3,16-13.9c5-4.4,5-4.3,0.9-9.4c19.1,1.2,38.2,0.9,57.4,1
			c1,0,2,0,2.7,0.9c-1.3,0.1-2.7,0.1-4,0.2c-2.8,0-5.5,0-8.1,0c-0.3,1,0.1,1.3,0.4,1.7c0.4,0.5,0.9,1,1.3,1.5
			c3.8,5.5,4.8,10.8,0.9,17c-3.2,5-6.6,9.8-10,14.7c-0.7,1-1.8,1.8-1.4,3c1.3,4.8-1.6,9.3-0.2,14.2c1,3.4,0.2,7.3-2.7,10.2
			c-0.5,0.5-0.9,1.1-0.4,1.7c0.4,0.6,1.1,0.9,1.8,0.6c3.6-1.7,5.5,1.1,7.7,3c1.4,1.2,2.4,2.7,3.7,4c5,4.9,10.2,9.4,16.2,13.1
			c4,2.6,4,5.5,0.6,9c-3.1,3.3-6.8,5.3-11.1,6.2c-5.2,1.1-9.3,4.2-13.8,6.8c-0.8,0.5-1.9,1.3-1.4,2.4c0.6,1.4,2,0.9,3.1,0.5
			c2.6-1,5.2-2.1,7.8-3.3c3.3-1.6,6.3-1.7,9.9,0C557.1,292.5,563.1,296.1,570.1,293.4z"/>
		<path fill="#5886C5" d="M383.2,174.6c12.3,1,24.6,1.9,36.9,2.9c1.5,4,3.9,7.2,8,8.9c2.6,1.1,5.4,1.6,8.1,2.1
			c5.4,4.4,4.7,9.7,1.9,15.1c-0.1,0.1-0.1,0.3-0.2,0.4c-6,9.1-10.9,19.1-22,23.7c-3.4,1.5-7,3.1-10.5,4.1c-3.1,0.9-6.6,3.1-9.5,2.2
			c-7.4-2.3-15.6-3.9-19.1-12.6c-1.8-4.4-4.2-8.6-6.7-12.7c-0.8-1.3-1.9-3.5-4.2-2.7c-2.4,0.8-1.5,3-1.7,4.7
			c-0.3,2.2,0.8,4.2,1.4,6.2c0.3,1.1,0.9,2.1-0.3,3c-2.5-1.1-1.9-5.8-5.9-4.3c-4.8,1.7-1.5,5.5-1.7,8.2c-2.1,0.3-3.2-1.6-5-1.2
			c-0.6,1.3-1,2.8-1.8,4c-2,3-5.4,4-7.4,2.3c-5.3-4.5-11.7-7.4-16.2-12.9c-1.3-3.9-1.2-8-2-11.9c3.5,4.6,7.9,8.5,12,12.5
			c2.7,2.6,8.3,1.8,9.7-1.6c1-2.4,1.8-2.4,4-1.6c2.9,1,2.7-0.4,1.3-2.2c-0.4-2.2-1.8-4.5,0.4-6.3c2-1.8,3.1,0.9,4.6,1.4
			c0.8,1.1,0.8,2.9,2.6,3.4c0.8-1,0-1.9-0.2-2.8c-0.4-2.6-1.7-5-1.3-7.8c0.6-4.3,4.5-6.6,7.6-4.7c3,1.9,4.2,1.6,5-1.8
			c0.4-1.8,1.6-3.6,0.7-5.7c-1.3-3,0.7-5.3,2.9-6c2.8-0.9,5.5-4.7,8.9-1c1.8,2,2.8,0.8,3.5-1c0.4-1,0.9-2.1,0.6-3.2
			C386,175,384.2,176.1,383.2,174.6z M387.1,209.5c0,0.3,0,0.6,0.1,0.9c-3.4,5.5-2.7,10.7,1.3,15.6c3.5,4.4,8,3.9,12.7,2.6
			c0.5-0.1,1-0.1,1.5-0.2c6.2-1.2,12.1-3.7,17.1-7.4c4.6-3.4,7.3-9,9.4-14.4c2.4-6.1-0.9-10.8-7.4-12.3c-4.4-1-8.9-0.4-13.2-1.8
			c-2.6-0.8-5,0-5.9,3c-0.6,1.9-2.1,3.2-3.9,3.5c-2.2,0.4-3.3,1.1-3.8,3.6c-0.4,2.1-2.4,3.8-4.6,4.1c-2.3,0.4-2.7-2-3.6-3.5
			c-2.2-3.8-4.4-7.6-6.6-11.4c-0.4,0.2-0.8,0.4-1.2,0.6C381.7,198.1,383.6,204.1,387.1,209.5z"/>
		<path fill="#3E6CB4" d="M238.1,362.3c-4.7,0.1-9.4,0.1-14,0.2c0.6-3.3-2.5-4.4-3.8-6.6c-6.1-10.3-13.6-19.5-22.1-28
			c-4.8-4.8-9-10.2-14.5-14.3c-1.1-0.8-2.3-1.7-2.7-2.9c-1.7-4-5.1-6.3-8.1-9.2c-8.2-7.7-16.7-15.1-24.9-22.8
			c-9.6-9-20.1-16.7-30.7-24.3c-6.2-4.4-12.1-9.2-16.6-15.6c-1.9-2.7-4-5.3-6.5-7.5c-4.2-3.7-9.5-6.1-11.8-11.8
			c-0.4-1-1.5-1.8-2.7-2c-2.2-0.3-3.8-2-5.7-3c-2-3.4-3.9-6.8-6.1-10.1c-0.8-1.2-1.3-3.9-3.8-1.9c-1.7-0.9-1.4-3.1-3.1-4
			c-0.8-1.4-1.2-3.3-3-4c-0.2-4.1-3.2-7.2-4-11c4,1,8.4,1.6,11.4,4.3c1.8,1.7,3.4,2.6,5.6,2.7c-0.3,0.4-0.9,0.8-0.8,1.1
			c1.3,5.9,7.4,13.8,12.6,16.5c0.7,0.4,1.2,1.1,1.7,1.8c1.8,2.4,3.4,4.9,5.2,7.3c4.8,6.5,9.3,13.5,15.8,18.3
			c12,8.9,23.6,18.2,34.8,28c11.1,9.7,22.1,19.5,33.3,29.1c5,4.3,9.4,9.2,14.9,12.9c2.5,1.7,4.6,2.7,6.3-0.8
			c0.9-1.9,1.6-2.3,3.5-0.4c7.6,7.5,13.9,15.9,19.7,24.9C225.4,339.9,231.2,351.4,238.1,362.3z"/>
		<path fill="#61A8DC" d="M241.2,295.3c3.6,3.7,5.5,8.5,8.8,12.4c-1.6,2.9-3.3,2.1-4.7,0c-2.7-3.9-6.4-6.8-9.6-10.1
			c-1.8-1.9-4.5-2.7-6.4-4.7c-4.7-5-7.9-11.4-14.9-14c-1.3-0.5-2.4-1.8-3.2-3c-6.2-9.1-14.6-16.3-22.2-24.2
			c-1.5-1.6-3.4-2.6-5.4-3.5c-0.9-0.4-1.8-0.9-2.7,0.1c-0.8,0.8-0.8,1.7-0.5,2.8c1,2.8,2.1,5.6,3.8,8.1c3.3,4.8,6.4,9.7,9.4,14.6
			c0.8,1.4,2.7,3,0.4,4.8c-5.7-5-11.3-10-17-15c-5.7-5.3-11.4-10.5-17.1-15.8c0.4-5.7,0.4-11.2-2.9-16.3
			c-7.9-12.5-17.3-23.6-29.2-32.8c-14.6-11.2-29.6-21.4-46.4-28.9c-2.3-1-4.5-2.1-7.1-2.2c-4.3-0.2-7.4-1.7-9.5-5.9
			c-1.5-3-3.3-6.2-6.6-7.8c-1.6-0.8-4.7,0.3-4.5-2.6c0.2-2.8,3.3-1.1,4.9-2c2.4-1.4,5.2-2.7,7.5-1.3c5.1,3.1,11.4,2.3,16.2,6.2
			c2.8,2.3,6.9,2,10.2,3.7c9,4.6,17.8,9.6,26.3,15c1.4,0.9,2.6,2.4,4.8,2.4c-0.1-2.3-1.7-3-3.1-3.8c-2.5-1.6-5-3.3-7.3-5.1
			c-1.1-0.8-1-1.6,0.6-1.6c0.3,0.2,0.7,0.5,1,0.7c4.3,2.9,8.2,6.2,13.1,8.2c-0.3,1.8,1.6,2.6,2,4.1c0.8,1.2,2.6,1.4,3,2.9
			c-1.2,1.8-2.5,0.4-3.4-0.2c-6.5-4.2-14-5.9-20.7-9.7c-2.8-1.6-5.9-2.8-9.4-1.7c0.8,2,2.3,3.2,3.7,4.3c8.7,7.1,17.6,14,26.3,21.1
			c7.2,5.9,13.6,12.6,19.7,19.7c7.3,8.5,14.4,16.8,25.3,21.8c10.9,4.9,18.7,14.5,26.3,23.7c2.1,2.5,3.9,5,7.1,5.9
			c2.9,0.8,5,2.3,6.5,4.9c0.8,1.4,2.3,2.3,3.6,3.3c6.9,5.5,12.4,12.2,17.1,19.6C237.1,296,238.5,296.6,241.2,295.3z"/>
		<path fill="#3D6BB3" d="M177.1,263.4c5.7,5,11.3,10,17,15c0.7,1,1.4,1.9,2.1,2.9c-0.5,3.8,1.6,6.8,3.4,9.7
			c7.9,12.6,16.1,25,24.1,37.6c6.9,10.9,13.7,21.9,20.5,32.8c-2,0.3-4,0.6-6,0.8c-6.9-10.9-12.7-22.4-19.8-33.2
			c-5.8-9-12.1-17.4-19.7-24.9c-1.9-1.9-2.6-1.5-3.5,0.4c-1.7,3.5-3.8,2.5-6.3,0.8c-5.5-3.7-9.9-8.6-14.9-12.9
			c-11.2-9.6-22.1-19.5-33.3-29.1c-11.3-9.8-22.9-19.1-34.8-28c-6.5-4.8-11-11.8-15.8-18.3c-1.8-2.4-3.4-4.9-5.2-7.3
			c-0.5-0.7-1-1.4-1.7-1.8c-5.2-2.7-11.3-10.6-12.6-16.5c-0.1-0.3,0.5-0.7,0.8-1.1c5.3,1.7,10.3,4,15,7c-1.6,1-0.9,2.3-0.3,3.5
			c2.8,5.1,6.8,9.4,11,13.3c5.1,4.9,10.7,9.3,16.2,13.8c4.8,4,8.7,9.3,13.6,13c9.1,6.9,17.5,14.6,26.3,21.9
			c6.2,5.2,12.7,10,18.8,15.2c1.3,1.1,2.9,3.4,5.2,1.7c1.9-1.4,1.5-3.8,1-5.6C177,270.7,177.2,267.1,177.1,263.4z"/>
		<path fill="#21375C" d="M570.1,293.4c-7,2.6-13-0.9-18.8-3.7c-3.6-1.7-6.6-1.6-9.9,0c-2.5,1.2-5.1,2.3-7.8,3.3
			c-1,0.4-2.4,0.9-3.1-0.5c-0.5-1.1,0.6-1.9,1.4-2.4c4.4-2.6,8.6-5.7,13.8-6.8c4.3-0.9,8.1-2.9,11.1-6.2c3.3-3.5,3.4-6.5-0.6-9
			c-5.9-3.8-11.2-8.2-16.2-13.1c-1.3-1.3-2.3-2.8-3.7-4c-2.2-1.9-4-4.7-7.7-3c-0.7,0.3-1.3-0.1-1.8-0.6c-0.5-0.7-0.1-1.2,0.4-1.7
			c2.8-2.9,3.6-6.7,2.7-10.2c-1.4-4.9,1.5-9.5,0.2-14.2c-0.3-1.2,0.8-2.1,1.4-3c3.4-4.9,6.8-9.6,10-14.7c3.9-6.2,2.9-11.5-0.9-17
			c-0.4-0.5-0.9-1-1.3-1.5c-0.3-0.4-0.7-0.7-0.4-1.7c2.6,0,5.3,0,8.1,0c-0.1,1.4,0.2,2.5,1.1,3.6c3,3.6,3.9,7.5,1.6,11.8
			c-0.9,1.7-0.5,2.9,1.3,3.4c2.6,0.8,2.9,2.8,2.9,5c0.1,2.3,0,4.6,0,6.9c-5.8,6.9-12.2,13.3-16.1,21.7c5.4-3.8,10.8-7.7,16.1-11.5
			c0.5,0.8,1.2,1.1,2.1,1c3.4-0.3,4.9,0.8,4,4.6c-0.5,2.5-0.1,5.3-0.1,7.9c0,1.6,0.4,3.2,2.2,3.3c3.3,0.2,5.3,2.5,7.7,4.1
			C570.1,261.4,570.1,277.4,570.1,293.4z"/>
		<path fill="#162134" d="M499.1,298.5c-1-8,2-15.2,4.4-22.5c1.2-3.9,3.4-4.5,6.7-2c3.9,3,8.4,4.5,13,6c6.9,2.3,7.9,6.3,3.2,11.8
			c-0.9,1.1-2.7,2-1.8,3.7c0.8,1.7,2.7,1.1,4,0.9c5.7-0.6,11,1.8,16.6,2.5c8.6,1,16.8,0.4,25-1.4c-0.4,5.2-2.1,10.4-0.1,15.7
			c0.6,1.6-0.7,2.9-2,3.7c-0.8,0.5-1.9,0.6-2.8,1.1c-1.3,0.8-3.9,0.2-3.7,2.5c0.2,1.5,2.1,2,3.6,2c3.2,0,3.5,3.1,4.2,4.8
			c0.7,1.6-2.4,2.7-3.6,2c-4.3-2.3-10.1-0.7-13.7-5.1c-0.4-0.5-1.1-0.7-1.7-1c-1.2-0.7-2.7-1.2-3.6,0.2c-0.9,1.6,0.8,2.5,1.8,2.9
			c4.5,1.5,9.1,2.9,13.7,4.1c1.6,0.4,3.9,0.4,4,2.1c0.2,2.5-2.6,2.3-4.1,2.6c-7.3,1.5-14.5-0.1-20.7-3.2c-6.4-3.2-12.4-6.7-20-5.7
			c2.4-2.5,5.5-2.9,8.4-3.7c8.3-2.2,16.8-3.7,24.7-7c2.3-1,4.2-2,4.9-4.5c0.5-1.8,0.9-3.7-0.9-5c-1.6-1.2-3.3-1.8-5.5-0.7
			c-6.8,3.4-13.8,6.6-20.6,9.9c-1.5,0.7-2.9,1.6-4.5,2.1c-2.9,0.9-6,2.6-8.3-1.3c-0.5-0.9-1.9-0.5-2.8-0.6c7.6-4,15.4-7.4,22.2-13.5
			c-2.4-0.9-4-0.6-5.5,0.6c-8.5,6.9-18.2,11.5-28.4,15c-0.8-0.4-1.5-0.7-2.3-1.1C500,310.9,499.2,304.8,499.1,298.5z"/>
		<path fill="#5D98D1" d="M196.2,281.4c-0.7-1-1.4-1.9-2.1-2.9c2.2-1.8,0.4-3.4-0.4-4.8c-3-4.9-6.2-9.8-9.4-14.6
			c-1.7-2.5-2.8-5.3-3.8-8.1c-0.4-1-0.3-1.9,0.5-2.8c0.9-1,1.8-0.5,2.7-0.1c2,0.9,3.8,1.9,5.4,3.5c7.6,7.9,16,15,22.2,24.2
			c0.8,1.2,2,2.6,3.2,3c7,2.6,10.3,9,14.9,14c1.9,2,4.5,2.8,6.4,4.7c3.2,3.3,6.9,6.2,9.6,10.1c1.4,2.1,3.2,2.9,4.7,0
			c3.3,3.1,5.3,7.1,7.8,10.7c8.4,11.9,16.7,23.9,25,35.9c1.1,1.6,2.5,3.1,3.1,5c-5.7,1.1-10.2-0.9-14.2-4.9
			c-9.3-9.2-18.9-18.2-28.3-27.3C227.7,311.9,212.6,295.9,196.2,281.4z"/>
		<path fill="#5FA4D9" d="M64.2,202.5c2.5-1.9,3,0.7,3.8,1.9c2.2,3.3,4.1,6.7,6.1,10.1c3.6,7.6,7.8,14.8,12,22
			c1.8,3.7,2.7,8.5,6.3,10.3c3.9,1.9,5.4,5.1,7.4,8.2c1.2,2,2.1,4.1,3.4,6.1c4.3,6.8,10.8,11.6,16.4,17.1
			c6.5,6.3,14.1,11.4,21.5,16.7c9.4,6.6,18.4,13.6,25.9,22.3c3.3,3.9,7.4,7.2,10.1,11.6c3.4,5.9,8,10.9,11.6,16.7
			c3.6,5.8,8.1,11.1,10.8,17.5c-1.9,1-4-0.3-5.4,1.3c-2.7,0.3-5.4,0.6-8.1,0.2c0-6.9-2.5-12.9-6.1-18.6
			c-5.8-8.9-10.4-18.8-21.5-22.7c-1.9-0.7-3.3-2.2-4.7-3.6c-1.5-1.5-2.9-3.2-4.8-4.3c-10.5-5.6-18.1-14.8-27.3-22
			c-0.6-0.5-1.1-1.3-1.5-2c-3-5.9-8.4-9.7-12.9-14.3c-2.5-2.5-3.7-1.5-4.1,1.6c-6.2-6.1-12.5-12.2-18.7-18.3
			c-3.5-4.3-8.3-7.1-12.2-10.9c0.1-2.3,1.4-2,3.1-1.5c4.3,1.1,8.1,3.4,12.1,5.4c1-4.6,1.2-4.7-2.3-12.3c-3.4-7.5-7.1-14.9-11.9-21.6
			c-2.7-5-4.6-10.4-8-14.9C64.3,204,64.3,203.2,64.2,202.5z"/>
		<path fill="#527EC0" d="M86.2,236.4c-4.2-7.2-8.5-14.4-12-22c1.9,1,3.4,2.7,5.7,3c1.3,0.2,2.3,1,2.7,2c2.3,5.7,7.6,8.1,11.8,11.8
			c2.4,2.2,4.6,4.8,6.5,7.5c4.5,6.4,10.4,11.2,16.6,15.6c10.7,7.6,21.1,15.3,30.7,24.3c8.2,7.7,16.7,15.1,24.9,22.8
			c3,2.8,6.4,5.2,8.1,9.2c0.5,1.1,1.7,2.1,2.7,2.9c5.5,4.1,9.7,9.5,14.5,14.3c8.5,8.5,16,17.7,22.1,28c1.3,2.2,4.4,3.3,3.8,6.6
			c-4,0.7-7.9,1.4-12,0.8c0.3-0.6,0.9-1.4,0.7-1.8c-2-4.2-3.9-8.7-8-11c-4.5-2.6-7.4-6-8.8-10.9c-0.8-2.9-2.8-5-5.1-6.6
			c-4.9-3.6-9.3-7.5-11.7-13.2c-0.5-1.3-1.4-2.4-2.5-3.1c-5.7-3.5-9.4-9.2-14.3-13.6c-10.5-9.6-21-19-33-27
			c-9-6-17.1-13.5-24.2-21.8c-1.2-1.4-2.5-2.7-4-3.7c-2.4-1.6-4.6-3.5-6.1-5.8C92.8,241.2,89.7,238.6,86.2,236.4z"/>
		<path fill="#81CAEA" d="M103.2,278.6c0.4-3,1.6-4.1,4.1-1.6c4.5,4.6,9.9,8.4,12.9,14.3c0.4,0.7,0.8,1.5,1.5,2
			c9.2,7.2,16.8,16.4,27.3,22c2,1.1,3.3,2.8,4.8,4.3c1.4,1.4,2.8,3,4.7,3.6c11.1,3.9,15.7,13.8,21.5,22.7c3.7,5.7,6.2,11.7,6.1,18.6
			c-2.6,0.3-5.3,0.6-7.9,0.7c-3.1,0.2-5.7-0.8-7.9-3.1c-5.9-6-11.4-12.4-18.2-17.5c-4.8-3.6-7.7-9-10.8-13.8
			C129.6,312.6,117.2,295,103.2,278.6z"/>
		<path fill="#325A9B" d="M196.2,281.4c16.4,14.5,31.5,30.5,47.2,45.8c9.4,9.1,19,18.1,28.3,27.3c4.1,4,8.5,6,14.2,4.9
			c-0.4,0.9-1.2,1.1-2.1,1c-13.3-0.4-26.5,1-39.8,1.1c-6.8-10.9-13.6-21.9-20.5-32.8c-8-12.6-16.2-25-24.1-37.6
			C197.7,288.2,195.6,285.2,196.2,281.4z"/>
		<path fill="#1B2A44" d="M408.1,260.4c-2.8-0.2-5-2.9-8.4-1.1c-3.4,1.8-4,2.7-1.5,5.8c0.9,1.1,2.3,1.9,2.9,3.4
			c-7.1,2-7.3,2.1-3.7,8.5c2.8,5.1,5.7,10.1,7.5,15.9c-2.2,0.5-3-1-3.8-2.4c-3-5.1-6.4-10-10-14.8c-0.6-0.8-1.1-1.7-1.8-2.3
			c-1.7-1.4-3.1-1.3-3.3,1.3c-0.1,2-0.1,4,1,5.8c2.8,4.9,5.5,9.8,8.4,14.7c1.5,2.5,4,4.5,6.6,5.1c7,1.6,11.4,7.1,17.4,10.2
			c8.5,4.3,15.3,10.9,23.2,16.2c0.4,0.3,0.8,1,1.1,1c5.9-0.8,5.4,5.5,8.5,7.7c0.9,0.6,1.1,1.8,0.2,2.6c-1.1,0.9-1.7-0.3-2.5-0.9
			c-4.2-3.4-8.2-7.2-14.3-6.8c-1,0.1-2.1-0.9-3.1-1.4c-4.9-2.3-5.4-2.1-7.8,2.9c-2.4,0.5-4.1-4-6.8-1.1c-3.8-4.3-6.5-9.5-9.6-14.3
			c-2.9-4.4-5.6-8.8-8.4-13.2c-0.3,0.2-0.6,0.4-0.9,0.6c1.4,2.6,2.8,5.2,4.3,7.7c5,8.5,10.9,16.5,15.6,25.3
			c-2.7,0.3-2.2,2.2-1.4,3.7c1.8,3.6,2.5,7.4,3.6,11.2c-3.3-1.6-2.1-6.2-5.2-7.9c-2-3.9-3.8-8-6-11.7c-8.6-14.4-17.3-28.8-25.9-43.2
			c-3.6-6.3-6.3-13-8.3-19.9c-0.5-1.6-1.1-3,1.4-3.2c1.4,2.5,2.7,5,4.1,7.5c0.4-2.8-1.5-4.4-1.7-6.8c4.5-1.5,4.6-1.6,8,1.1
			c1,0.8,1.8,0.4,2.7,0.1c0.7,0,2.3,1.4,1.6-0.6c-0.9-2.9-3-5.3-3.6-8.4c-0.1-3.6,3.4-3.1,5.2-4.4c4.2-3,8.5-2,11.8,1.9
			C406.2,257.4,407.1,259,408.1,260.4z"/>
		<path fill="#182236" d="M72.2,249.5c3.9,3.8,8.7,6.6,12.2,10.9c-1.6,1.4-0.2,2.5,0.5,3.2c1.8,2,3.7,3.9,5.7,5.5
			c1,0.8,2.1,1.5,2.7,2.8c3.5,8.1,10,13.9,15.3,20.6c1.3,1.6,2.7,3.2,3.3,5.6c-4.9-1-8.2-3-10-7.7c-2.8-7.2-8.7-11.9-15.2-15.8
			c-1-0.6-2-1.6-3.1-0.6c-1,0.9-0.6,2.1-0.2,3.3c1.6,4.6,3.9,8.7,6.4,12.9c1,1.6,2.1,3.4,2.2,5.6c-2.2,1.3-7.3-4.4-6.9,2.6
			c-6.2-11.1-13.9-21-23.2-29.7c-1.2-1.1-2.2-2.6-4.2-2.2c-2.6-2-5.1-4.1-7.7-6.1c4.1-2,4.7-4.6,1.4-7.1c-2.6-1.9-5.5-3.6-8.3-5.3
			c-0.9-0.6-1.9-1.6-3.1-0.9c-1.2,0.7-1.1,2-0.9,3.1c0.1,1.1,0.6,2.2,0.9,3.3c-3.8-1.2-6.4-5.1-10.8-5c1.7-2.6,4.4-2.8,7.3-3.4
			c-2.5-1.5-4.9-3.1-7.4-4.6c0.1-0.2,0.2-0.5,0.4-0.7c1.8,0.6,3.6,1.2,5.4,1.9c1.1,0.4,2,0.4,2.6-0.6c0.9-1.4-0.2-2.1-1-2.9
			c-0.7-0.8-1.7-0.9-2.7-1c-1.6-0.1-2.7-1.3-3.8-2.2c-1.5-1.4-1.4-3.5-0.4-5c1-1.5,2.6-0.7,3.9,0.2c6,3.7,12.8,6.1,18.7,10.1
			c1.7,1.2,3.1,1,3.9-1.1C62,241.9,66.6,246.5,72.2,249.5z M43.5,241.5c-0.7,0-1.3,0-2,0c-1.2,0-2.5,0.2-2.9,1.4
			c-0.6,1.8,1.4,1.4,2.2,1.9c2.9,1.9,5.8,3.7,8.8,5.6c1.2,0.8,2.5,2.4,3.8,0.9c1.3-1.4,1.1-3.4-0.1-5.1
			C50.9,243,47.7,241.3,43.5,241.5z"/>
		<path fill="#1A2940" d="M164.2,166.4c2.4,1.2,2-0.5,1.9-1.8c2.6,2.4,3.2,6,5.1,8.8c3.4,4.8,4.8,10.8,8.9,15.1
			c2.6,5.2,4.9,10.6,9,15.7c0.1-1.7,0.2-2.6-0.3-3.6c-1.6-3.1-3.2-6.2-4.2-9.5c-0.3-1.1-0.8-2.4,0.2-3.3c1.3-1,2.5-0.1,3.6,0.8
			c3.1,2.5,5.7,5.4,7.7,8.9c1,3.6,4,6,5.4,9.4c0.8,2,3.9,3.6,1.1,6.2c2.1,0.9,4.1,1.7,5.4,3.8c7.8,13.8,16.6,27,25.3,40.3
			c4.2,6.3,7.8,13,12,19.2c0.6,0.9,0.8,3.3,3.1,1.9c3.9,3.6,6.3,8.4,9.9,12.2c5.2,5.5,9.3,12,14.8,17.1c3.6,3.3,7.7,6,10.9,9.8
			c1.1,1.3,3,2.9,5.2,1.2c1.6,1.6,3.2,3.3,4.9,4.9c2,2.7,4.1,5.4,6.1,8.1c0,0.5,0.1,1,0.1,1.5c0,1,1.6,2.2,0,3
			c-1.2,0.6-2.2-0.4-3-1.2c-1.3-1.3-2.4-2.7-4.6-2.9c-0.6,1.6,1.7,3.4-0.4,5.1c-1.3-0.2-2.1-1.3-3-2.2c-4.4-4.7-8.6-9.6-13.1-14.2
			c-3.5-3.5-6.5-7.5-9.4-11.5c-3.1-4-4.9-9-9.6-11.8c-2.6-3.4-4.9-7-7.8-10.2c-6.9-7.5-11.2-16.7-17.5-24.6c-1.7-2.1-0.5-7.3-5.8-6
			c-0.1,0-0.5-0.5-0.6-0.7c-4.5-9.3-11.5-16.9-16.5-25.9c-0.6-1.1-0.9-2.9-2.6-2.5c-2.1,0.6-1.7-0.8-2.3-1.9
			c-3.1-5.1-6.3-10.1-10.7-15.5c0.6,3.9,3.1,5.8,4,8.4c0.4,1.2,0.5,1.9-1,1.9c-4.7-7-9.3-14-14-21c-2.7-5.3-4.9-10.9-8.8-15.7
			c-3.8-4.6-6-10.5-9.5-15.5C163.6,167.9,164,167.1,164.2,166.4z"/>
		<path fill="#1A2940" d="M158.1,145.5c6,1.2,12.1,1.2,18,2.7c-0.9,0.3-2-0.3-3.1,0.9c5.6,7.4,11.3,15,16.9,22.5
			c0,2.3,1.5,4,2.9,5.6c3.3,4,6.6,7.9,9.8,11.9c9.8,12.1,19.6,24.2,29.3,36.3c3,4.3,5.5,9.1,9.1,13c-0.1,0.6,0.1,1.6-0.8,1.3
			c-1.4-0.5-2-2.3-3.9-2.4c7.9,9.5,14.2,20.2,23.7,28.2c4.1,5.1,8.5,10,9.1,16.9c0,1.9,0,3.8,0,5.8c-3.2-1.1-3.7-4.9-6.7-6.5
			c0.3,1.9,0.5,3.3,0.7,4.7c-3.9-2.7-3.4-8.1-7-11.2c-1.8-1.6-3-3.9-4.5-5.9c-0.5-0.7-0.8-2-0.1-2.2c4.1-0.6,1-2.3,0.5-3.3
			c-6.8-11.5-16.1-20.9-25.4-30.4c-2-2.1-3.3-4.9-6-6.4c1.7,3.7,4.2,6.9,3.5,11.3c-2.2-1.4-3-3.9-4.4-5.9c-4.6-6.4-7.2-13.9-12.5-20
			c-2.1-2.5-5.3-5.4-4.8-9.4c0.2-1.7-0.4-2.6-0.7-4c-1.7-6.3-6.8-10-10.6-14.8c-2.4-3-4.7-6-7.1-8.9c-1.2-2.5-1.8-5.8-4.7-6.7
			c-3-1-4.1-3.1-5.3-5.5c-1.5-2.8-3-5.7-5.9-7.2C163.5,153.7,160.4,150.1,158.1,145.5z"/>
		<path fill="#2E5189" d="M182.1,199.4c4.7,7,9.3,14,14,21c0.6,2.7,3.5,4.4,3.8,8.2c-3-4-5.5-7.3-8.7-11.6c0.4,3.6,2.3,5,3.2,6.9
			c1.1,2.3,3.7,3.9,3.5,6.9c-9-8-18-16-27-24c-1.1-3.7-4.8-4.8-7.2-7.2c-10-9.9-17.1-21.8-22.6-34.6c-1.5-3.5-3.2-6.8-6-9.5
			c-4.5-4.5-6-10.7-9.2-16c5.5,0.4,10.7,2,16.1,2.9c1.1,0.2,1.7,0.9,2.3,1.8c0.2,0.6,0.4,1.3,0.7,1.8c7.5,12.1,15,24.2,22.5,36.3
			C171.6,188.7,176.3,194.5,182.1,199.4z"/>
		<path fill="#5B8CC9" d="M86.2,236.4c3.5,2.2,6.6,4.8,9,8.4c1.5,2.3,3.7,4.2,6.1,5.8c1.5,1,2.9,2.3,4,3.7
			c7.1,8.4,15.2,15.9,24.2,21.8c12,7.9,22.5,17.4,33,27c4.9,4.4,8.6,10.1,14.3,13.6c1.1,0.7,1.9,1.8,2.5,3.1
			c2.5,5.7,6.9,9.6,11.7,13.2c2.3,1.7,4.2,3.7,5.1,6.6c1.4,4.9,4.4,8.3,8.8,10.9c4.1,2.4,6,6.8,8,11c0.2,0.4-0.5,1.2-0.7,1.8
			c-6,0.1-12,1.3-18,1c1.4-1.6,3.5-0.3,5.4-1.3c-2.8-6.4-7.2-11.7-10.8-17.5c-3.6-5.8-8.1-10.8-11.6-16.7
			c-2.6-4.4-6.7-7.7-10.1-11.6c-7.5-8.7-16.6-15.7-25.9-22.3c-7.4-5.3-15-10.4-21.5-16.7c-5.6-5.5-12.1-10.3-16.4-17.1
			c-1.2-2-2.1-4.1-3.4-6.1c-2-3.2-3.5-6.3-7.4-8.2C88.9,244.9,88,240.1,86.2,236.4z"/>
		<path fill="#1C2C46" d="M260.9,241.5c-1.2,0.6-1.4,1.4-1,2.8c0.5,1.7,1.5,3.3,1.2,5.1c-4-6-6.6-12.8-10.6-18.8
			c-2.8-4.2-4.4-8-0.3-12.1c4.9-2.1,7.5,0.4,9.8,4.4c1.7,2.9,3.6,5.9,6.9,7.9c-3-3.4-1.3-7.6-2.4-11.2c-3.3-7.8-8.2-14.8-12.3-22.2
			c0.2-0.9,0.2-2.3,1.7-1.4c1.4,0.8,2.3,2.3,3.2,3.7c3.2,4.9,6,10,10.4,15c-1.7-5.6-1.8-6.3,1.1-7.8c2.4-1.3,3.7-3.9,6.1-4.9
			c0.3-0.1,0.8,0.4,1.3,0.7c4.8,4.8,8.5,10.6,12.9,15.7c7.1,8.4,13.9,16.9,20.9,25.3c0.2,0.5,0.3,1.1,0.5,1.6c0,0.4-0.1,0.8-0.1,1.1
			c-2.5-2.2-4.6-5.3-7.4-6.3c-3.6-1.2-6-3.4-8.3-5.9c-2.1-2.4-4.6-2.9-7.6-2.8c-1.9,0.1-3.6,0.7-5.3,1.4c-2.4,1.1-3.8,0.2-5.1-1.6
			c-1.5-2.2-3-4.4-4.4-6.6c-1.1-1.9-2.4-2.5-4.6-1.7c3.6,6.7,7.1,13.1,11.1,20.7c-2.9-1.6-4.7-2.9-6.9-1.6c1.2,2.9,4.2,4.8,5.1,8.6
			c-4.5-3.1-6.2-8-10.8-11c1.2,3.6,3.9,5.8,3.9,9.1c-5-5-8.9-10.9-13.7-17.3C257.3,235.7,259.8,238.3,260.9,241.5z"/>
		<path fill="#5D95CF" d="M357.1,206.5c-1.6-0.4-2.6-3.1-4.6-1.4c-2.2,1.9-0.8,4.2-0.4,6.3c-2.6-0.2-5.9-3.9-7.5,1.4
			c-0.1,0.3-1.2,0.5-1.8,0.5c-4.4,0.6-7.9-0.3-10.5-4.4c-2-3.2-4-6.4-7.3-8.5c-1.3-5.2-2.1-10.5-2.9-15.9c-0.2-1.4,0.8-3.4-1.1-3.9
			c-2.2-0.5-3,1.5-4,3c-0.9,1.4-0.5,2.7-0.2,4.2c1.1,5.3,1.8,10.8,0.4,16.8c-3.6-3-5.2-6.9-6-10.5c-2-8.2-8.8-11.6-14.2-17
			c-0.3,2.7-0.6,4.9-0.9,7.2c-1.4-1.1-0.7-2.8-1.1-4.2c-1.3-4.8-0.3-9.9-1.9-14.7c10.7,0.9,21.4,2.1,32,3.7c-1,0.4-2.4-0.2-3,1.2
			c-0.3,4.7,0.6,9.2,1.7,13.7c0.7,2.7-0.6,5.6,1.5,8.1c3.4,4.1,6.4,8.4,9.7,12.5c2.8,3.5,3.9,3.4,6.2-0.6c0.9-1.5,1.4-3.7,4-2
			c2.3,1.5,3.1,0.6,2.3-1.8c-0.9-2.8,0.2-4.7,2-6.5c2.3,1.1,1.9,4.1,4.6,5.2c-0.6-2-1.3-3.7-1.7-5.4c-1.4-5.6-0.4-9.7,3.1-11.3
			c3.9-1.8,5.5-5,6.6-8.8c5.4-1.5,10.6,1.5,16,0.8c-1,2.2-2.8,2.8-5.2,3.1c-4.4,0.5-5.3,2.1-3.8,6.3c0.8,2.3,0.4,4.2-0.4,6.2
			c-0.9,2.1-2,3.8-4,0.7c-1.3-2-2.4-2.2-4.7-0.5c-4.1,3-4.6,6.3-3.4,10.8C357.2,202.6,359.1,204.5,357.1,206.5z"/>
		<path fill="#233B62" d="M388.1,258.4c0.6,3.1,2.7,5.5,3.6,8.4c0.6,2-1,0.6-1.6,0.6c-0.5-4.4-3.8-6-7.2-7.9c-1.9-1-2.5-0.8-3.3,0.9
			c-0.5,1-1,2.1-1.6,3.1c-2.4-3-3.5-6.7-5.3-10c-1.3-2.4-0.1-4.5,1.7-5.5c2.1-1.3,2.3,1.6,3.4,2.6c0.3,0.3,0.6,0.4,0.9,0.1
			c0.3-0.8-0.8-2.5,1.3-2.2c2.2,0.3,0.5-1.4,1-2c1.1-2.1,2.4-3.4,5.1-2.2c0.9,0.4,2.4,0.2,3.4-0.2c3.1-1.2,5.9-0.7,8.6,0.9
			c2.6,1.5,4.9,2.2,6.4-1.3c0.4-1,1.5-1.6,2.6-2.2c4.5-2.2,9.9-2,14.2-4.9c0.6-0.4,1.7-0.2,2.4,0c3.5,0.8,5.7-0.8,7.1-3.9
			c1.1-2.5,2.9-4.4,4.7-6.4c2.3-2.6,5.4-4.4,7.9-6.8c6.2-5.8,11.7-12.2,16.8-18.9c2.9-3.8,5.7-7.7,8.4-11.6c0.7-1,1.8-2.3,1-3.6
			c-0.8-1.5-2.4-1-3.6-0.8c-2.4,0.5-4.9,0.7-7.1,1.9c-3.3,0.4-6.6,1.2-9.9,1c-1.8-0.4-4,0.7-5.5-1.3c0.7-2.8,4.5-3.5,4.5-6.8
			c9.9-0.3,19.7,0.8,29.5,1.9c2.1,0.2,4.3,0.1,6.4,0.2c-0.1,1.7-0.9,3.2-2,4.4c-9.3,10.7-18.2,21.8-28,32.1
			c-2.7,2.8-6.1,4.6-8.9,7.1c-5,4.4-10.5,8.7-11.3,16.3c-0.4,3.5-2.8,4-5.4,1.7c-2.5-2.2-4.9-2.8-7.2,0.1c-0.5,0.5-1,1.2-1.6,0.8
			c-3-2.5-5.6,0.5-8.4,0.6c-2.1,0.1-3.5,1.8-4,3.9c-0.3,1.4,0.5,3.4-1.1,4.1c-1.7,0.7-2.8-1.4-4.2-2c-0.1-0.1-0.2-0.2-0.4-0.3
			c-4.1-2.7-11.4-2.3-14.9,0.7C384.5,252.8,384.9,255,388.1,258.4z"/>
		<path fill="#3B67AC" d="M28.3,356.5c0-3,0-6,0-9c2.1-0.3,2.3-2.1,2.8-3.5c1.1-2.9,2-5.7,3-8.6c2.3,0.4,4.4,1.3,6.5,2.2
			c6.2,2.9,12.7,4.4,19.5,2.7c5.4-1.3,10.7-1.5,16.1-0.1c1.4,0.4,2.7,0.1,2.8-1.8c3.1,2.8,5.1,6.5,7.3,9.9c-4.5,0.1-9.4-1-13.3,0.5
			c-5.1,1.9-9.1,3-13.7-0.6c-1.8-1.4-3.9,0.2-3,2.4c2.8,7.2,3.8,15,7.8,21.8c-2.3,1.4-4.6,1.4-6.9-0.1c-1.6-1-3.3-1.2-5.2-0.9
			c-1.9-0.1-3.3-1.3-4.8-2.4C40.9,364.9,34.6,360.7,28.3,356.5z"/>
		<path fill="#86CDE9" d="M171,206.8c9,8,18,16,27,24c1,1,2,2,3,3.1c0.4,2,1.9,3.5,3,5.1c5.6,8.3,10.7,17,17,24.8
			c3.8,5.9,7.5,11.8,11.3,17.7c-0.7,2.7-2.2,2-2.8,0.3c-1.2-3.7-4.4-5.6-6.7-8.3c-3.3-3.7-7.7-6.4-10.9-10.1c-2.4-2.8-5-4.7-8.3-5.9
			c-1.9-0.7-3.7-1.4-4.9-3.2c-4.1-5.9-9.5-10.7-14.8-15.4c-5.4-4.7-11-9.3-18.2-11.7c-4.4-1.5-8.8-4.6-10.5-9.7
			c0.7,0.5,1.4,0.9,2,1.5c3.1,3.5,6.4,5.8,11.5,5.8c3.4,0,7.2,1.1,9.7,4.3c0.9,1.2,2.1,1.8,4.1,1.2c-9.3-11.9-19-23.5-29.8-33.9
			c1.1-1.9,2.7,0.7,3.6-1c1.8,0.8,3.3,2.2,4.8,3.5C164.2,201.6,167.2,204.7,171,206.8z"/>
		<path fill="#294777" d="M30.9,124.1c0.6-4.3,1.4-4.9,5.2-4c19.7,4.4,39.4,8.8,59.1,13.1c3.4,0.7,6.9,0.8,10.1,2.2
			c-3.3,0.6-1.1,2.8-0.7,3.7c2.2,5.5,4.7,10.8,7.5,16.1c1.3,2.4,4.3,4.8,2,8.3c-3.9-2.3-7.9-4.7-11.8-7c-8.3-4.9-17.2-8.6-25.5-13.4
			c-7.2-4.2-15.1-6.5-22.7-9.5c-2.6-0.2-4.2-2.5-6.5-3.1C41.8,128.9,35.6,128.4,30.9,124.1z"/>
		<path fill="#517EC0" d="M309.8,243.6c-7-8.4-13.8-16.9-20.9-25.3c-4.4-5.2-8.1-10.9-12.9-15.7c0.2-1.1-0.3-1.9-1-2.6
			c-4-3.7-7.4-8-10.3-12.5c-2.2-3.4-5.1-5.9-8.6-7.9c1.1-1.6,0.7-2.8-0.5-4.3c-3.8-4.5-7.3-9.2-10.9-13.8c-0.6-0.7-1.7-1.3-0.3-2.3
			c9.1,1.1,18.6,1.1,27.3,3.8c5.3,1.6,10.2,0.4,15.2,1.5c1.1,0.2,2.3,0,3.3,0.8c-0.2,2.8,0.1,5.5,0.8,8.2c0.9,3.9,2.1,7.8,2.3,11.9
			c-3.5-0.5-4.8-3.8-7.2-5.7c-1.3-1-2.3-2.9-4.2-2c-2.4,1.3-4.2,0-6-1c-5.2-3.1-11.2-5.3-13.8-11.5c-0.8-1.9-2.4-2-4.2-1
			c-2.3,1.2-0.7,2.2-0.2,3.5c3.7,9.2,10.5,16.3,16.5,23.8c4,5,7.4,10.4,11.8,15.1c0.3,0.6,0.4,1.3,0.8,1.8
			c7.8,10.3,15.7,20.6,23.5,30.9C310.4,240.7,312.4,242.4,309.8,243.6z"/>
		<path fill="#1F3354" d="M388.1,258.4c-3.2-3.4-3.7-5.6-1.6-7.4c3.5-3,10.8-3.4,14.9-0.7c0.1,0.1,0.2,0.3,0.4,0.3
			c1.5,0.6,2.5,2.6,4.2,2c1.7-0.6,0.8-2.7,1.1-4.1c0.5-2.1,1.9-3.8,4-3.9c2.8-0.1,5.4-3.1,8.4-0.6c0.6,0.5,1.1-0.2,1.6-0.8
			c2.4-2.9,4.7-2.3,7.2-0.1c2.7,2.4,5.1,1.9,5.4-1.7c0.8-7.6,6.3-11.9,11.3-16.3c2.8-2.5,6.2-4.3,8.9-7.1
			c9.8-10.3,18.7-21.4,28-32.1c1.1-1.3,1.9-2.7,2-4.4c2.3,0,4.7,0,7-0.1c4.1,5,4.1,5-0.9,9.4c-5.3,4.6-10.6,9.3-16,13.9
			c-2.4,2.1-4.3,4.6-6.1,7.2c-5.5,8.1-13.8,12.7-21.4,18.1c-8.3,5.9-9.9,12.2-5.7,21.3c0.5,1.1,1.1,2,1.5,3.1
			c0.5,1.4,2.4,3.1,0.2,4.3c-1.9,1.1-4.1,1.2-5.6-1.2c-1.8-2.8-3.7-5.4-5.5-8.2c-1.1-1.7-2-3.4-4.1-4.2c-2.4-0.9-3,0.9-4,2.5
			c-0.8,1.2-1.7,0-2.4-0.7c-3.5-3.4-6.3,1-9.6,1c-2.2,0-1.3,3.3-1.6,5.1c-0.2,2.1,0.8,3.9,1.3,5.8c0.4,1.7,1,3.3,1.6,5.1
			c-3.1,0.1-3.3-2.6-4.9-3.6c-1-1.5-1.9-3.1-3-4.5c-3.3-4-7.6-4.9-11.8-1.9C391.6,255.3,388,254.9,388.1,258.4z"/>
		<path fill="#284573" d="M250.2,218.5c-4.1,4.2-2.5,7.9,0.3,12.1c4,6,6.6,12.8,10.6,18.8c2.7,4.7,5.4,9.3,8.1,14
			c-1.8,1.2-1.8-0.6-2.3-1.4c-5.4-8.8-10.7-17.5-16.2-26.3c-1.7-2.8-3-5.8-5.9-8.6c-0.4,2.3,0.4,4.5-1.8,5.4
			c-1.6-0.9-2.1-2.6-2.9-4.1c2.9-3.4,2.9-6.7,0.2-10.2c-4.8-6.1-7.4-13.3-10.7-20.2c-1.5-3.2-2.8-6.7-5.2-9.5
			c-0.6-0.6-1.2-2.6-2.5-0.8c-1.5,2.2-2.5,0.8-3.3-0.4c-1.3-1.9-2.4-3.9-3.6-5.9c2.2-0.3,2.2-1.5,1.4-3.2c-1-2-1.8-4-2.1-6.7
			c2.8,2.1,2.6,5.6,5.3,7.3c1.2-2.2-1.5-3-1.1-4.9c1.2-1,5.8,2.7,4-2.9c-1.8-5.7-1.4-5.9,4.3-4.6c0.8,0.2,1.5,0.6,2.3,0.9
			c1.7,1.5,1.7,3.8,2.7,5.7c1.7,3,2.7,7.1,5.3,8.9c3.3,2.3,4.8,5.1,5.9,8.5c-1.5-0.2-2.1-2.8-4.3-1.2c-1.9,1.4-1,3-0.5,4.4
			c1.5,4.9,2.4,9.8,1,14.9c-0.6,1.9,0.5,3.6,1.6,5c1.1,1.4,2.5,2.7,3.9,0.4c1.1-1.8,2-0.9,2.5,0.1
			C248.2,215.7,250,216.6,250.2,218.5z"/>
		<path fill="#81CAEA" d="M155.1,217.5c1.7,5.1,6.1,8.3,10.5,9.7c7.2,2.4,12.8,6.9,18.2,11.7c5.3,4.7,10.7,9.5,14.8,15.4
			c1.2,1.7,3,2.5,4.9,3.2c3.3,1.2,5.9,3.1,8.3,5.9c3.2,3.8,7.6,6.4,10.9,10.1c2.4,2.7,5.5,4.6,6.7,8.3c0.6,1.7,2.1,2.4,2.8-0.3
			c3.4,4.4,6.8,8.7,9,13.8c-2.7,1.3-4.1,0.7-5.9-2.1c-4.6-7.4-10.2-14.1-17.1-19.6c-1.3-1-2.8-1.9-3.6-3.3c-1.5-2.7-3.6-4.1-6.5-4.9
			c-3.2-0.9-5.1-3.5-7.1-5.9c-7.7-9.2-15.5-18.8-26.3-23.7c-11-4.9-18-13.3-25.3-21.8c-6.1-7.1-12.5-13.8-19.7-19.7
			c-8.7-7.1-17.6-14-26.3-21.1c-1.4-1.1-2.9-2.2-3.7-4.3c3.5-1.1,6.6,0.1,9.4,1.7c6.6,3.8,14.2,5.6,20.7,9.7c0.9,0.6,2.2,2,3.4,0.2
			c2.4,0.3,3.6,1.9,4.6,3.8c-4.2,2.5-4.5,3.4-2.5,7.5c0.6,1.2,1.3,2.3,2,3.4C142.7,203,148.7,210.4,155.1,217.5z"/>
		<path fill="#253E68" d="M201,233.9c-1-1-2-2-3-3.1c0.1-3-2.4-4.6-3.5-6.9c-0.9-1.9-2.8-3.3-3.2-6.9c3.2,4.2,5.7,7.6,8.7,11.6
			c-0.3-3.9-3.2-5.5-3.8-8.2c1.5,0,1.4-0.7,1-1.9c-0.9-2.6-3.4-4.4-4-8.4c4.4,5.4,7.6,10.4,10.7,15.5c0.7,1.1,0.3,2.5,2.3,1.9
			c1.7-0.5,2,1.4,2.6,2.5c5,8.9,12,16.6,16.5,25.9c0.1,0.3,0.5,0.8,0.6,0.7c5.3-1.3,4.1,3.8,5.8,6c6.3,7.9,10.6,17.1,17.5,24.6
			c2.9,3.1,5.2,6.8,7.8,10.2c0,0.8,0.4,1.5,0.8,2.3c3.5,6.5,9.3,11.5,13,17.9c0.5,0.9,1.9,1.7,0.3,2.8c-5.8-6.6-10.3-14.2-16.8-20.2
			c-1.2-1.2-2.1-2.9-4.5-2.4c-1.6,0.3-2.2-1.7-3-2.9c-5.3-8-10.6-16-16-23.9c-1.1-1.6-1.8-3.6-3.7-4.6c-1.8-3.7-4.5-6.9-6.6-10.4
			c-4.8-8.1-13.3-13.3-17.5-21.9C202.8,233.4,201.8,232.2,201,233.9z"/>
		<path fill="#233A5F" d="M376.9,320.6c-1.2,1.5-1.4,3.3-1.8,5.1c-3-3.7-6.1-7.3-9.1-11c-1.5-3.3-2.5-7-4.5-10
			c-13-19.2-24.7-39-31.7-61.3c1.7,1.9,4.7,0.7,6,1.9c4.4,3.8,9.7,6,14.4,9.1c3.9,2.5,7.9,4.3,12.5,4.6c1.3,0.1,1.8,0.6,2.2,1.5
			c-1.7,0-2.6,1.2-2.5,2.5c0.5,3.8-2.1,2.4-3.7,2.3c-0.8-0.1-1.6-1.1-2.3-1.7c-4.3-3.9-9.8-5-15-6.9c-0.9-0.3-2-0.1-2.6,1
			c-2.2-2.4-1.4-6.4-4.3-8.5c-0.6,0.5-0.4,1-0.2,1.5c4,13.1,10.8,24.8,17.6,36.5c1.8,3,2.6,6.9,6.4,8.5c1.7,2.1,4.4,3,6.6,4.1
			c4,2,8,4.9,12.7,4.8c2.3-0.1,3.4,0.6,4.9,2.1c3.3,3.5,4.5,3.6,8.3,1.2c2.7,2.7,4,6.3,5.5,9.7c0.4,0.8,0.5,1.5-0.1,2.3
			c-0.8,0.9-1.7,0.6-2.7,0.2c-3-1.2-5.4-3.2-7.3-5.8c-0.6-0.8-1.1-2.3-1.9-2.1c-4.3,1.2-6.4-2.8-9.6-4c-2.3-0.9-4-3-6.8-2.4
			c-0.4-0.5-0.7-1.1-1.8-1.3c0.4,1.7,1.4,2.9,2.1,4.3C371,312.7,375,315.9,376.9,320.6z"/>
		<path fill="#517DBF" d="M72.2,249.5c-5.6-3-10.1-7.6-16-10.1c-1.3-1-2.6-2-4-3c2.4-3.4,4.2-7,5-11.1c0.3-1.5,1.1-3.7,2.6-1.4
			c3.7,5.2,8.2,0.1,12.2,1.4c0.8,0.3,1.1-1,1.2-1.8c0-1.3,0.1-2.6,0.1-4c4.8,6.8,8.5,14.1,11.9,21.6c3.5,7.6,3.3,7.7,2.3,12.3
			c-4-2-7.8-4.2-12.1-5.4C73.6,247.5,72.3,247.1,72.2,249.5z"/>
		<path fill="#6DBAE6" d="M362.1,173.6c-1,3.8-2.7,6.9-6.6,8.8c-3.6,1.7-4.5,5.8-3.1,11.3c0.4,1.7,1.1,3.3,1.7,5.4
			c-2.7-1.1-2.3-4.1-4.6-5.2c-1.8,1.8-2.9,3.7-2,6.5c0.8,2.3,0,3.3-2.3,1.8c-2.6-1.7-3.1,0.5-4,2c-2.3,4-3.4,4.2-6.2,0.6
			c-3.3-4.1-6.3-8.5-9.7-12.5c-2.1-2.5-0.8-5.5-1.5-8.1c-1.2-4.5-2-9-1.7-13.7c0.8,0.5,1,1.3,1,2.1c0.1,5.1,2.9,9,5.6,12.9
			c1.2,1.7,3.7,3.6,4.8,2.7c3.3-2.8,5.2-0.4,7.6,1.4c0.6-3.1-1.3-6.2,1.4-8.8c2.4,1.9,2.6,5.4,5.6,7.1c-0.9-5.6-4.4-10.6-2-16.3
			C351.5,171.4,356.9,171.9,362.1,173.6z"/>
		<path fill="#1E3354" d="M57.8,266.6c2-0.4,3,1.1,4.2,2.2c9.3,8.6,17,18.6,23.2,29.7c0,0.4,0.1,0.8,0.1,1.2c-2.5,0-4.5-0.3-6.5-2.6
			c-2.6-2.9-6.2-4.7-10.5-3.5c-0.1,2.4,0.8,4.5,2,6.5c2.4,4.1,4.6,8.3,6.9,12.5c-10.4-9.8-20.3-20.3-33.1-27.1c1.7,0,3.4,0,4.1-2.1
			c-0.3-1.7,0.5-3.3,1.1-4.8c1.4-3.7,0.5-6.4-3-8.2c-4.6-5.1-11.5-5.7-17-9c0-0.7,0-1.3-0.1-2c4,1.8,8,3.7,12.1,5.5
			c6.9,3.1,11.9,9,18,13.2c6.9,4.7,13.1,10.5,19.7,15.7c-1.4-2.9-2.2-6.1-5-8.1C69.6,278.5,63.3,272.8,57.8,266.6z"/>
		<path fill="#3F6BB0" d="M243.1,190.5c-1.1-3.4-2.6-6.2-5.9-8.5c-2.6-1.8-3.5-5.8-5.3-8.9c-1-1.8-1-4.2-2.7-5.7
			c-0.5-4.5-3.9-7.4-6-11c7.1,0.4,14.2,1.4,21.2,2.8c-1.4,0.9-0.3,1.6,0.3,2.3c3.6,4.6,7.2,9.3,10.9,13.8c1.3,1.5,1.6,2.7,0.5,4.3
			c-5.7,3-5.7,2.9-3.1,8.6c0.4,0.8,1.7,1.8-0.2,3.3c-3-8.1-10.3-13-13.8-20.5c-0.8-1.6-1.8-3.1-2.9-4.6c-1-1.5-2.1-2.9-3.2-4.3
			c3.1,13.8,11.5,24.5,19.4,35.4c4.1,7.4,8.9,14.4,12.3,22.2c-3.8-3.2-6.2-7.6-9.4-11.3C250.6,202.8,246.9,196.6,243.1,190.5z"/>
		<path fill="#3D6BB3" d="M64.2,202.5c0.1,0.8,0.1,1.6,1,2c-0.3,2.2,1.4,4.1,1,6.3c-0.2,1.1-0.2,3-1.6,2.4c-2.9-1.2-3.1,0.9-4.3,2.3
			c-1.2,1.5-2.9,2.1-3.2,4.6c-0.6,5.1-3.4,6.7-8.7,7.5c-7.2,1.1-12.9-0.9-17.3-6.6c-0.3-0.4-1.2-0.4-1.8-0.6
			c-0.5-8.7-0.2-17.3,0.1-26c1.2-1.1,2.1-2.4,3.4-3.4c4.2-3.1,7.1-7.3,8.3-12.5c1,0.3,2.1,0.6,3.1,0.9c0.8,0,1.5,0.1,2,0.8
			c-3,0.5-4,2.8-4.5,5.3c-0.7,4.4-2.4,8.6-3.6,12.9c-1.7,3.7-2.6,7.7-4.5,11.4c-1,1.8,0.1,2.9,2.1,2.3c3.6-1.2,4.5-0.3,3.7,3.5
			c-0.6,2.7,4.3,6.6,6.8,5.6c3.9-1.6,8.7-1.8,10.7-6.8c0.6-1.5,1.3-2.9,1.3-4.6c0-1.5-0.6-3.4,0.7-4.3c2.8-1.9,2.2-4.5,2.2-7.1
			C62.8,199.3,62.5,201.6,64.2,202.5z"/>
		<path fill="#1B283F" d="M77.1,312.5c-2.3-4.2-4.5-8.3-6.9-12.5c-1.2-2-2.1-4.1-2-6.5c4.4-1.3,7.9,0.6,10.5,3.5
			c2,2.2,4,2.5,6.5,2.6c3.7,8.1,7.3,16.4,11.4,24.2c4.6,8.6,5.8,18.1,9.4,26.8c-2.6-2.3-4.1-5.5-6.2-8.3
			c-4.7-6.4-8.9-13.2-14.6-18.9C83.5,319,79.4,316.5,77.1,312.5z"/>
		<path fill="#4874B9" d="M30.9,124.1c4.7,4.4,11,4.8,16.8,6.3c2.4,0.6,4,2.9,6.5,3.1c0,0.7,0,1.3,0,2c-5.3-1.7-10.7-3.2-15.9-5
			c-3.7-1.3-3.6-1.4-4.1,3c-1.7,1.3-1.2,3.2-0.8,4.6c1.2,4.4,2,9,4.1,13.2c1.4,2.8,2.7,4.1,5.5,2.3c2.2-1.4,3.8-0.8,5.8,0.6
			c4.4,3.1,6.3,7.9,9,12.3c2.1,3.4,0.9,8.9-2.8,9.7c-5.7,1.2-2.9,3.8-1.8,6.3c-2.2-0.1-3.8-1.8-6-2.2c-0.8-6.4-1.8-12.8-7.6-17
			c-1.4-1-1.3-2.5-1.4-4.1c-0.4-3.8-2-5.3-6-5.3c-0.9,0-1.9,0.1-1.9-0.9c0.2-6.1-1.2-12.2,0.9-18.2c1-2.7,2.7-5.7-1.5-7.3
			C28.5,125.9,29.6,124.9,30.9,124.1z"/>
		<path fill="#3761A2" d="M330,243.4c7,22.3,18.6,42.1,31.7,61.3c2,3,3,6.6,4.5,10c-10.8-10.2-19.3-22.3-27.3-34.9
			c-0.8,1.1-0.5,2-0.5,2.8c-1.7-1-0.7-3.1-1.8-4.4c-0.3-0.4-0.2-0.9,0.3-1.3c2.3-2.2,2.4-2.2,1-4.4c-1-1.5-0.9-3.5-2.9-5.2
			c-1,5.9-4.1,10.1-9.2,12.9c1.4-4.7,5.2-8.5,4.6-13.8c0.5-0.2,0.8-0.6,0.8-1.2c0.6-4-0.3-7.6-1.9-11.4c-2.5-5.9-5.8-11.3-8-17.3
			c0.5-4.1-3-7.1-3-11.1c1.3,0.7,1.3,2.2,2.2,3.2c1.3,1.6,2.1,4,4.9,3.8C327.6,235.7,327.1,240.3,330,243.4z"/>
		<path fill="#19253A" d="M86.4,348.4c-2.2-3.5-4.3-7.1-7.3-9.9c-1.6-2.7-3.3-5.3-5.9-7.2c-1-1.3-2-2.5-3-3.8
			c1.6-3.2,3.8-3.6,6.9-2.1c3.7,1.8,6.3,4.6,8.8,7.7c1.3,1.7,2.4,3.5,4.5,4.4c8,9.9,14.6,20.9,21.1,31.9c-5.2-0.9-10.3-0.3-15.3,1.1
			c2.1-1.4,2.5-3.2,1.3-5.5c-1.7-3.4-3.8-6.5-6.1-9.5C89.7,353.1,89,350.1,86.4,348.4z"/>
		<path fill="#5886C5" d="M126,139.4c3.2,5.3,4.7,11.5,9.2,16c-0.3,2.2-1.8,4.3-0.6,6.7c4.5,9.1,8.7,18.2,14.5,26.5
			c-1.8-0.2-2.7-1.8-4.1-2.7c-4.7-3.2-8.7-7.8-14.8-8.4c-0.4-1.5-2.3-2.2-2-4.1c1.3-0.6,2.3-1.4,1.5-3.1c-0.6-1.2-1.1-2.4-1.8-3.6
			c-4.5-8.6-9-17.2-13.7-25.8c-1.1-2.1-1.5-3.3,1.3-3.8C119.1,137.4,122.5,138.4,126,139.4z"/>
		<path fill="#4975BA" d="M73.2,331.3c2.6,1.9,4.3,4.5,5.9,7.2c-0.1,1.9-1.4,2.2-2.8,1.8c-5.4-1.4-10.8-1.2-16.1,0.1
			c-6.8,1.6-13.3,0.2-19.5-2.7c-2.1-1-4.2-1.8-6.5-2.2c-0.1-0.3-0.1-0.6,0-0.9c1-3,2.1-5.9,2.8-9c1.3-5.2-2.3-10-7.8-11.1
			c-0.1-0.8-0.2-1.6-0.9-2c0-3,0.1-6,0.1-9c1.8-0.2,3.1,0.7,4.3,1.9c2.8,2.8,5.6,5.6,7.5,9.1c0,0.3,0,0.7,0,1
			c-1.3,0.7-0.9,2-1.2,3.1c-1.7,6.5-1.2,7.2,4.7,9.7c8.9,3.9,18.5,3.7,27.9,4.7C72.5,333,72.9,332.1,73.2,331.3z"/>
		<path fill="#213557" d="M278.2,281.5c1.6,2.7,3.2,5.1,6.4,6.4c2.8,1.1,5,3.9,5.7,6.6c1.5,5.5,5.5,7.9,10.1,9.8
			c1,0.4,2.2,1,1.3,1.9c-2.8,2.9,0.1,3.9,1.5,5.4c9.1,9.3,18.1,18.6,27.3,27.7c2,2,0.6,3.6,0.6,5.5c-3.4-0.6-4.3-5.1-8-5.3
			c-1.5-3.2-5.5-3.9-7.1-6.8c-2.8-4.9-7.9-7.4-11.6-11.4c-0.8-0.9-1.7-0.9-2.4,0.3c-5.3-5-10-10.7-13.5-17c-3-5.2-6.6-9.7-10.3-14.3
			C277.4,287.4,276,284.4,278.2,281.5z"/>
		<path fill="#2F5590" d="M223.2,156.4c2.2,3.6,5.6,6.5,6,11c-0.8-0.3-1.5-0.7-2.3-0.9c-5.8-1.4-6.2-1.1-4.3,4.6
			c1.8,5.6-2.8,1.9-4,2.9c-0.4,1.9,2.3,2.7,1.1,4.9c-2.6-1.6-2.5-5.2-5.3-7.3c0.3,2.7,1.2,4.7,2.1,6.7c0.8,1.6,0.8,2.9-1.4,3.2
			c-0.6,0-1.3,0-1.9,0c-1-4.1-3.8-7.3-6.1-10.6c-4.2-6-7.4-12.4-10.9-18.7C205.3,153,214.3,154.2,223.2,156.4z"/>
		<path fill="#2C4F85" d="M368.2,305.4c2.8-0.6,4.6,1.5,6.8,2.4c3.2,1.3,5.2,5.2,9.6,4c0.8-0.2,1.3,1.3,1.9,2.1
			c1.9,2.6,4.3,4.6,7.3,5.8c1,0.4,1.8,0.7,2.7-0.2c0.7-0.7,0.5-1.5,0.1-2.3c-1.6-3.4-2.8-7-5.5-9.7c-2.1-6.2-5.9-11.4-8.9-17.1
			c0.1-1.2,0.5-2.1,2-1.9c8.7,14.4,17.4,28.7,25.9,43.2c2.2,3.8,4,7.8,6,11.7c-2.2,2-3.1,0.1-4-1.4c-2.2-3.7-5.5-6.1-9-8.3
			c-2.4-1.5-4.4-0.5-4.8,2.3c-0.1,1,1.2,1.7,0.2,3c-1.2-1.2-2.6-1.9-4.4-1.6c-1.3-0.7-2.3-1.7-3.1-2.9c1.3-1.5,3.4-1.2,5.2-2
			c-3.6-6.6-5.4-13.7-13.5-16.6c-3.7-1.3-6.5-4.9-10.4-6.6C370.5,308.6,369.1,307.2,368.2,305.4z"/>
		<path fill="#2B4D82" d="M86.4,348.4c2.6,1.7,3.2,4.7,4.8,7c-3.8,1.1-7.6,1.9-11.1,3.8c-1.4,0.8-3,0.6-4.7,0
			c-3.9-1.5-4.1-1.1-3.5,3.3c0.5,3.4,2,7.2-1.9,9.8c-2,0-4,0.1-5.9,0.1c-3.9-6.8-5-14.6-7.8-21.8c-0.8-2.2,1.2-3.8,3-2.4
			c4.6,3.6,8.6,2.6,13.7,0.6C77,347.4,82,348.5,86.4,348.4z"/>
		<path fill="#243D65" d="M554.1,214.3c0-2.3,0.1-4.6,0-6.9c-0.1-2.2-0.3-4.3-2.9-5c-1.8-0.5-2.2-1.7-1.3-3.4
			c2.3-4.3,1.3-8.2-1.6-11.8c-0.9-1.1-1.2-2.3-1.1-3.6c1.3-0.1,2.7-0.1,4-0.2c4.8,0,9.6,0.2,14.4,0.1c3.1-0.1,4.7,0.9,4.5,4.3
			c-0.2,3.3-0.1,6.6-0.1,10c-1.8,0.7-2.7,2.3-4.1,3.5C561.4,205,558.7,210.5,554.1,214.3z"/>
		<path fill="#4C7BBB" d="M278.3,290.3c3.6,4.6,7.3,9.1,10.3,14.3c3.5,6.2,8.2,12,13.5,17c8.3,11.2,16.1,22.8,25.2,33.4
			c0.8,1,2.2,1.7,1.6,3.3c-2.6,0-5.1,0-7.7,0c-2.3-4.2-3.5-9.2-8.1-11.9c-2.4-2.6-4.2-5.7-7-8c-1.9-2.4-3.5-5-6-6.8
			c-2-2.7-4.1-5.4-6.1-8.1c0.6-1.2,1.3-0.7,1.9,0c2.1,2.3,4.5,4.3,6.4,6.9c2.7,3.8,6.9,7.5,10.1,9.2c-3.9-6.8-8.3-12.7-13.5-17.9
			c-3.3-3.4-5.5-7.9-9.8-10.3c-3.6-4.8-7.3-9.4-10.6-14.3c-2.6-3.8-6.6-6.7-7.2-11.6C274.5,285.7,275.3,289.6,278.3,290.3z"/>
		<path fill="#90D1EA" d="M346.1,171.5c-2.4,5.7,1.1,10.8,2,16.3c-3-1.7-3.1-5.1-5.6-7.1c-2.7,2.6-0.8,5.7-1.4,8.8
			c-2.4-1.8-4.3-4.2-7.6-1.4c-1.1,0.9-3.7-1-4.8-2.7c-2.7-3.9-5.5-7.8-5.6-12.9c0-0.9-0.2-1.6-1-2.1c0.6-1.3,2-0.7,3-1.2
			C332.2,169.6,339.2,170.3,346.1,171.5z"/>
		<path fill="#1E3353" d="M300.1,331.7c2.6,1.8,4.1,4.4,6,6.8c-0.7,1.8,2.2,3.7-0.2,5.4c-1.7,1.2-2.4-1.4-3.9-1.2
			c-0.7,3.5-0.7,3.5-6.6,1.4c-0.7,1.4-0.2,2.9-0.4,4.4c-8.9-8.6-17.4-17.5-23.9-28.1c1.6-1.1,0.2-1.9-0.3-2.8
			c-3.7-6.4-9.4-11.4-13-17.9c-0.4-0.7-0.8-1.4-0.8-2.3c4.6,2.8,6.5,7.8,9.6,11.8c3,3.9,6,7.9,9.4,11.5c4.5,4.6,8.7,9.5,13.1,14.2
			c0.9,0.9,1.7,2,3,2.2c2.1-1.7-0.2-3.5,0.4-5.1c2.1,0.2,3.3,1.6,4.6,2.9c0.8,0.8,1.8,1.9,3,1.2c1.7-0.8,0-2,0-3
			C300.2,332.7,300.1,332.2,300.1,331.7z"/>
		<path fill="#C7E5E9" d="M190,171.6c-5.7-7.5-11.3-15-16.9-22.5c1.1-1.2,2.2-0.5,3.1-0.9c4.7,0.9,9.4,1.7,14.2,2.6
			c4.3,5.8,7.1,12.4,11,18.4c-1.2,1.4-1.5,0.1-2.1-0.6c-1.7-2-2.4-4.8-5-6.4c3,6.2,3.7,13,6,19.9c-2.2-0.9-3-2.4-4.1-3.7
			C194.2,176.1,192.8,173.2,190,171.6z"/>
		<path fill="#3E6CB4" d="M29.2,220.4c0.6,0.2,1.5,0.2,1.8,0.6c4.5,5.7,10.1,7.7,17.3,6.6c5.3-0.8,8-2.4,8.7-7.5
			c0.3-2.5,2-3.1,3.2-4.6c1.2-1.5,1.4-3.5,4.3-2.3c1.4,0.6,1.4-1.3,1.6-2.4c0.3-2.2-1.3-4.1-1-6.3c3.4,4.6,5.3,10,8,14.9
			c0,1.3,0,2.6-0.1,4c0,0.9-0.4,2.1-1.2,1.8c-3.9-1.3-8.5,3.8-12.2-1.4c-1.6-2.2-2.4-0.1-2.6,1.4c-0.7,4.1-2.6,7.8-5,11.1
			c-7-3-13.8-6.8-21.1-9.1C27.5,226.2,29.4,222.9,29.2,220.4z"/>
		<path fill="#223A60" d="M70.1,372.4c3.9-2.6,2.3-6.4,1.9-9.8c-0.6-4.4-0.5-4.8,3.5-3.3c1.7,0.6,3.3,0.8,4.7,0
			c3.5-1.9,7.3-2.8,11.1-3.8c2.3,3,4.4,6.1,6.1,9.5c1.2,2.3,0.8,4-1.3,5.5c-7.6-0.1-15.1,0.8-22.5,1.9
			C72.4,372.5,71.3,372.4,70.1,372.4z"/>
		<path fill="#436EB2" d="M554.1,214.3c4.6-3.8,7.3-9.3,11.8-13.1c1.4-1.2,2.3-2.9,4.1-3.5c0,5.2,0,10.4,0,15.6
			c-5.6,3.2-11,6.8-15.9,11.1c-5.4,3.8-10.8,7.7-16.1,11.5C541.9,227.6,548.3,221.1,554.1,214.3z"/>
		<path fill="#68B2E1" d="M57.8,266.6c5.6,6.2,11.8,11.9,16.2,19.1c0,0.3,0,0.7-0.1,1c0,0.1-0.4,0.2-0.4,0.2
			c-0.8-0.6-1.5-1.3-2.3-1.9c-9.8-8.4-19.5-17-31-23.1c-3.6-1.9-7.7-3.1-11.1-5.4c-0.4-2.6-0.3-5.1,0.2-7.7c4.4-0.1,7,3.8,10.8,5
			c3.3,2.3,6.7,4.5,10,6.8C52.6,262.5,55.2,264.5,57.8,266.6z"/>
		<path fill="#263F69" d="M182.1,199.4c-5.8-4.9-10.6-10.7-14.6-17.2c-7.4-12.1-15-24.2-22.5-36.3c-0.3-0.5-0.5-1.2-0.7-1.8
			c2.6-1.3,7.5,0.4,9.2,3.6c3.3,6.4,7.7,12.2,10.6,18.8c-0.1,0.6-0.6,1.5-0.3,1.8c3.4,5,5.6,10.9,9.5,15.5
			C177.3,188.6,179.4,194.1,182.1,199.4z"/>
		<path fill="#26416C" d="M158.1,145.5c2.3,4.6,5.4,8.2,10.1,10.6c2.9,1.5,4.4,4.4,5.9,7.2c1.2,2.3,2.3,4.5,5.3,5.5
			c2.9,0.9,3.5,4.2,4.7,6.7c-2.4,2,2.8,3.4,0.3,5.5c-0.8-0.4-1.7-0.8-2.5-1.4c-1-0.7-1.9-1.6-3.1-0.8c-1.1,0.8-0.8,2-0.5,3.1
			c0.6,2.2,1.2,4.4,1.7,6.6c-4.1-4.3-5.5-10.3-8.9-15.1c-2-2.8-2.5-6.4-5.1-8.8c-3.8-5.1-6.3-10.9-9-16.5
			C156.3,146.8,155.7,145.6,158.1,145.5z"/>
		<path fill="#29497B" d="M554.1,224.4c4.9-4.3,10.2-7.9,15.9-11.1c0,10.7,0,21.4,0.1,32.1c-2.4-1.6-4.4-3.9-7.7-4.1
			c-1.8-0.1-2.2-1.7-2.2-3.3c0-2.6-0.4-5.4,0.1-7.9c0.8-3.8-0.6-4.9-4-4.6C555.4,225.5,554.6,225.2,554.1,224.4z"/>
		<path fill="#436EB2" d="M29.6,127.6c4.2,1.7,2.5,4.6,1.5,7.3c-2.1,6-0.6,12.1-0.9,18.2c0,1,0.9,0.9,1.9,0.9c4,0,5.6,1.4,6,5.3
			c0.1,1.5,0.1,3.1,1.4,4.1c5.8,4.2,6.8,10.6,7.6,17c-0.3,0-0.7,0-1,0c-0.5-0.7-1.2-0.8-2-0.8c-1-4.6-4-7.9-6.6-11.6
			c-2.3,1.7-3.6,3.9-5.9,4.9c-1.9,0.9-1.2,2.3-0.5,3.7c-0.7,1.3-1.2,0.1-1.9-0.1C29.2,160.1,28.8,143.8,29.6,127.6z"/>
		<path fill="#1A2840" d="M328.9,358.3c0.5-1.6-0.8-2.4-1.6-3.3c-9-10.7-16.9-22.2-25.2-33.4c0.7-1.2,1.5-1.2,2.4-0.3
			c3.7,4,8.8,6.5,11.6,11.4c1.7,2.9,5.6,3.6,7.1,6.8c0.2,2.8,2.2,4.6,3.9,6.5c2.5,2.7,5.5,5.1,7,8.6
			C332.8,356.4,331.9,358.8,328.9,358.3z"/>
		<path fill="#436FB2" d="M368.2,305.4c0.9,1.8,2.3,3.2,4.2,4c3.8,1.7,6.7,5.3,10.4,6.6c8,2.9,9.9,10,13.5,16.6
			c-1.8,0.8-4,0.5-5.2,2c-4.9-4.4-9.5-9.2-14-14c-1.9-4.7-6-7.9-8.4-12.2c-0.8-1.4-1.7-2.6-2.1-4.3
			C367.4,304.3,367.8,304.8,368.2,305.4z"/>
		<path fill="#4A76B9" d="M201.3,169.2c-3.9-6-6.7-12.6-11-18.4c2.1,0,4.1,0.2,5.9,1.4c3.5,6.3,6.7,12.8,10.9,18.7
			c2.3,3.2,5.1,6.5,6.1,10.6c-0.1,0.9,0.3,1.5,0.7,2.3c5.3,8.7,10.6,17.5,15.2,26.7c-0.3,0-0.6,0-0.9,0
			c-6.5-7.8-11.4-16.7-16.9-25.2C208,179.9,205.2,174.2,201.3,169.2z"/>
		<path fill="#2D4F85" d="M448.1,179.4c0,3.2-3.8,4-4.5,6.8c1.5,2,3.7,0.9,5.5,1.3c0,0.3,0,0.6-0.1,0.9c-4.3,0-8.7,0.1-13,0.1
			c-2.8-0.5-5.5-1-8.1-2.1c-4.1-1.7-6.5-4.9-8-8.9C429.5,177,438.8,179,448.1,179.4z"/>
		<path fill="#26406B" d="M295.1,348.5c0.2-1.4-0.3-3,0.4-4.4c5.9,2.1,5.9,2.1,6.6-1.4c1.5-0.3,2.2,2.4,3.9,1.2
			c2.3-1.7-0.5-3.6,0.2-5.4c2.8,2.3,4.6,5.4,7,8c0.3,1.9,2,4.3-1.5,5c-1,0.2-1.4,0.9-0.9,1.8c1.5,3.2-0.9,3.7-3.9,4.4
			c4,1.2,7.3,0.2,10.5,0.9c-4,1.4-8.4,1.2-12.3,0.5c-3.5-0.7-5.2-4.7-7.7-7.3C296.4,350.8,295.8,349.6,295.1,348.5z"/>
		<path fill="#1A2438" d="M243.1,232.5c2.3-0.9,1.4-3.1,1.8-5.4c2.9,2.8,4.2,5.9,5.9,8.6c5.4,8.7,10.8,17.5,16.2,26.3
			c0.5,0.8,0.5,2.6,2.3,1.4c4,4.5,5.8,10.2,8,15.6c-2.2,0.7-2.8-1.1-3.8-2.3c-2.9-3.3-4.6-7.6-8.1-10.4c0.9-1.5,0.4-2.6-0.6-4
			c-2.3-3.4-4.5-7-7-10.1c-3.5-4.3-6.5-9.1-10.6-12.9C245.8,237.1,244.4,234.8,243.1,232.5z"/>
		<path fill="#5E9DD0" d="M111.5,369.3c-6.5-11-13-21.9-21.1-31.9c-0.2-0.6-0.3-1.3-0.5-1.9c2,0,2.4,2.7,4.8,2.6
			c-3-5.4-7.3-9.7-10.7-14.5c0.5-0.1,0.9-0.2,1.4-0.3c5.7,5.7,9.9,12.5,14.6,18.9c2,2.8,3.5,6,6.2,8.3c2,5.2,5.5,9.6,8.1,14.5
			C116.4,369.2,116.5,369.1,111.5,369.3z"/>
		<path fill="#517FBB" d="M115.6,326.5c6.9,10.6,13.1,21,18.7,31.7c1.1,2.1,2.2,4.1,3.2,6.2c0.4,0.8,1.3,1.8,0.4,2.7
			c-0.9,0.8-2.2,0.6-3.3,0.3c-0.4-0.1-0.9-0.5-1.2-0.9C125.6,354.2,117.7,342,115.6,326.5z"/>
		<path fill="#69A8D9" d="M338.3,282.6c0-0.8-0.3-1.6,0.5-2.8c8,12.6,16.5,24.7,27.3,34.9c3,3.7,6.1,7.3,9.1,11
			c1.5,1.9,2.7,4.1,4.5,5.7c1.6,1.4,0.4,2.6,0.5,3.8l-0.2,0.2c-4.4-3.1-7.6-7.3-10.6-11.6c-3.2-4.4-7.2-8-10.5-12.3
			c-2.3-2.7-4.6-5.3-6.9-8C346.7,297.1,343.2,289.4,338.3,282.6z"/>
		<path fill="#5C93CE" d="M357.1,206.5c1.9-1.9,0-3.9-0.4-5.4c-1.2-4.5-0.7-7.8,3.4-10.8c2.3-1.6,3.3-1.5,4.7,0.5
			c2,3.1,3.1,1.4,4-0.7c0.8-2,1.3-3.9,0.4-6.2c-1.5-4.3-0.6-5.8,3.8-6.3c2.4-0.3,4.1-0.9,5.2-3.1c1.7-0.3,3.4-0.1,5,0.2
			c1.1,1.5,2.9,0.4,4.2,1.2c0.3,1.1-0.2,2.2-0.6,3.2c-0.7,1.8-1.6,3.1-3.5,1c-3.4-3.7-6.1,0.2-8.9,1c-2.2,0.7-4.2,3-2.9,6
			c0.9,2.1-0.3,3.9-0.7,5.7c-0.8,3.4-1.9,3.7-5,1.8c-3.2-2-7.1,0.4-7.6,4.7c-0.4,2.7,0.9,5.2,1.3,7.8c0.2,0.9,1,1.8,0.2,2.8
			C358,209.4,358,207.6,357.1,206.5z"/>
		<path fill="#1B283F" d="M48.1,283.4c-0.7,2.1-2.4,2.1-4.1,2.1c-4.8-2.6-9.7-5.2-14.6-7.8c-1.5,4.2-0.2,6.1,3.2,7.9
			c4.3,2.3,8.6,4.7,12.3,8c0.9,3.5-1,6.6-1.8,9.8c-0.3,0-0.6,0-0.9-0.1c0-1.3,0.1-2.6,0-3.9c-0.2-3.6-5.5-10.5-8.9-10.7
			c-2.6-0.1-3.7-1.6-5.1-3.2c-0.1-4.2-0.8-8.5,2.9-12c1.9-1.8,1.3-4.6,0.2-7c-0.8-1.6-1.4-3.3-2.1-5c5.5,3.3,12.4,3.9,17,9
			c-2.2-0.1-4-1.6-5.9-2.4c-2.5-1.1-4.3,0.1-5.6,1.8c-1.6,2-0.6,8.9,1.7,10C40.1,281.5,43.4,285,48.1,283.4z"/>
		<path fill="#3F6BAF" d="M115.5,137.3c-2.8,0.4-2.5,1.7-1.3,3.8c4.7,8.5,9.2,17.2,13.7,25.8c0.6,1.2,1.2,2.4,1.8,3.6
			c0.8,1.7-0.2,2.4-1.5,3.1c-4.8-2-8.8-5.3-13.1-8.2c2.1-1.5,3.3,0.6,4.7,1.3c0.9,0.5,1.8,1.2,2.7,0.4c1-0.9,0-1.9-0.4-2.6
			c-2.8-5.3-5.1-10.8-8.2-15.9c-1.9-3.1-3.2-6.5-4.7-9.8c-0.6-1.2-0.6-2.2,1.1-2.3C112,136.6,113.9,135.9,115.5,137.3z"/>
		<path fill="#294777" d="M310.2,246.4c0-0.4,0.1-0.8,0.1-1.1c1.3-0.1,1.4-1.7,2.5-2.1c1.5,3.7,2,4.2,4.3,5.3
			c1.5,1.9,1.8,4.6,3.5,6.5c0.7,0.8,0.6,1.9-0.5,2.5c-1.2-1.7-1.4-4.1-3.4-5.4c-2.1,1.7-1.6,4.3-2.3,6.3c-1.7,5-6.6,9.1-11.9,9.3
			c-3,0.1-5.2,2-7.7,3.1c-1.7,0.7-3.2,1.7-4.8,2.6c-0.3-0.3-0.6-0.7-1-1c3.3-3,7.7-4.3,11.3-6.9c5.4-4.1,9.9-8.7,11.3-15.6
			C311.8,248.3,312.5,246.8,310.2,246.4z"/>
		<path fill="#243C64" d="M394.1,337.5c1.7-0.3,3.2,0.4,4.4,1.6c1-1.3-0.3-2-0.2-3c0.4-2.8,2.4-3.8,4.8-2.3c3.5,2.2,6.8,4.6,9,8.3
			c0.9,1.6,1.8,3.4,4,1.4c3.1,1.7,1.9,6.3,5.2,7.9c1,1.6,3.2,1.7,4.3,3.2c-6.1,1.8-7,1.3-10.7-3.6c-2-2.6-4-5.2-5.8-8
			c-0.7-1.1-1.7-2.9-3.5-1.7C400.1,344.7,397.2,340.8,394.1,337.5z"/>
		<path fill="#3C67A9" d="M477,336.5c-10.1-6.1-12.7-21.4-9.9-27.6c1.4,0.3,1,2,1.9,2.6c-0.2,2.4,1.1,4.5,1.3,6.8
			c-0.7,4.2,2,4.9,5.2,5.2c3,0.3,6.3,3.3,6.4,5.9c0.1,2.3-2,4-2.3,6.4C479.5,336.7,477.9,336.3,477,336.5z"/>
		<path fill="#30558F" d="M110.2,136.4c-1.8,0.1-1.7,1.1-1.1,2.3c1.5,3.3,2.9,6.7,4.7,9.8c3.1,5.1,5.4,10.6,8.2,15.9
			c0.4,0.8,1.4,1.7,0.4,2.6c-0.9,0.8-1.8,0.1-2.7-0.4c-1.5-0.8-2.6-2.8-4.7-1.3c-0.3-0.2-0.7-0.5-1-0.7c0-0.4,0-0.7,0-1.1
			c2.3-3.4-0.8-5.9-2-8.3c-2.8-5.3-5.3-10.6-7.5-16.1c-0.4-1-2.6-3.1,0.7-3.7C107,135.6,108.8,135,110.2,136.4z"/>
		<path fill="#1E3251" d="M470.3,318.3c-0.2-2.3-1.5-4.4-1.3-6.8c2.7-1.7,5-1.4,7,1.2c5.3,7,9.9,14.4,13.5,22.4
			c1.7,3.9-1.5,7.4-5.7,6.2c-2.3-0.7-5.1-1.4-6.6-3.9c3.2,1.7,5.6,0.6,7.6-2.1c1.8-2.4,0.1-4.4-0.9-6.3c-1-1.9-2.6-3.5-3.5-5.4
			C478.2,319.5,475.4,316.8,470.3,318.3z"/>
		<path fill="#4976B7" d="M29,256.3c3.4,2.4,7.4,3.5,11.1,5.4c11.5,6.2,21.2,14.7,31,23.1c0.7,0.6,1.5,1.3,2.3,1.9
			c0.1,0,0.4-0.1,0.4-0.2c0.1-0.3,0.1-0.7,0.1-1c2.8,2,3.6,5.2,5,8.1c-6.7-5.2-12.8-11-19.7-15.7c-6.1-4.2-11.1-10.1-18-13.2
			c-4-1.8-8.1-3.6-12.1-5.5C29.1,258.4,29.1,257.4,29,256.3z"/>
		<path fill="#436CAD" d="M289,272.3c0.3,0.3,0.6,0.7,1,1c-2.4,1.9-4.8,3.8-7.3,5.7c-0.1-0.7-0.4-1.1-0.3-1.3
			c0.8-1.9,4.1-2.5,3.3-4.9c-0.7-1.9-2.6-3.4-4-5c-6.7-8.2-13.4-16.3-20.1-24.5c-0.4-0.5-0.5-1.2-0.7-1.8c-1.1-3.2-3.6-5.8-4.5-10.2
			c4.8,6.3,8.7,12.3,13.7,17.3c2.7,3.7,5.3,7.5,8.2,10.9C281.9,263.8,284.7,268.6,289,272.3z"/>
		<path fill="#5788C6" d="M28.3,356.5c6.3,4.2,12.7,8.4,19,12.7c1.5,1,2.9,2.2,4.8,2.4c0,0.7,0.3,1.6-0.7,2c-5,0.2-9.5-0.8-13.9-3.7
			c-3.1-2.1-5.7-5.1-9.3-6.4C28,361.1,27.9,358.8,28.3,356.5z"/>
		<path fill="#182438" d="M28.2,285.4c1.4,1.6,2.5,3,5.1,3.2c3.3,0.2,8.7,7.1,8.9,10.7c0.1,1.3,0,2.6,0,3.9c-3.9-2.9-8.5-2.8-13-2.9
			C28.6,295.4,29.1,290.4,28.2,285.4z"/>
		<path fill="#1C2A43" d="M352,303.6c2.3,2.7,4.6,5.3,6.9,8c-2,0.2-1.7,1.2-0.7,2.3c1.7,1.8,3.4,3.5,5.6,5.9
			c-3.1,0.1-4.3-1.6-5.6-2.8c-7.3-6.8-13.3-14.7-20-22c-0.1-0.1-0.3-0.2-0.3-0.4c-0.6-1.5-2.9-3.2-0.8-4.7c1.7-1.2,2.9,0.9,3.9,2.2
			c3,3.9,6,7.8,9.1,11.7C350.5,304.2,351.5,306.3,352,303.6z"/>
		<path fill="#1E2E49" d="M201,233.9c0.8-1.7,1.8-0.5,2.1,0.2c4.1,8.6,12.6,13.8,17.5,21.9c2.1,3.5,4.8,6.7,6.6,10.4
			c-2.8,0.9-3.9-2.3-6.2-2.6c-6.4-7.8-11.4-16.5-17-24.8C202.9,237.3,201.4,235.9,201,233.9z"/>
		<path fill="#2B4A7C" d="M265.3,266.4c3.5,2.8,5.2,7.1,8.1,10.4c1,1.2,1.7,3,3.8,2.3c0.3,0.8,0.6,1.6,0.9,2.4
			c-2.2,3-0.8,5.9,0.1,8.8c-3-0.6-3.7-4.6-7.1-4.7c-0.2-1.3-0.6-2.6-2-3.1c-0.6-7-5-11.9-9.1-16.9c0.2-0.8,0.1-2.2,1.6-1
			C262.7,265.4,263.6,266.6,265.3,266.4z"/>
		<path fill="#2E528B" d="M29.3,176.4c0.6,0.1,1.2,1.3,1.9,0.1c3.4,0.1,6.5,1.8,9.8,2.1c-1.2,5.2-4.1,9.4-8.3,12.5
			c-1.4,1-2.3,2.3-3.4,3.4C29,188.5,28.9,182.4,29.3,176.4z"/>
		<path fill="#A1D0E6" d="M293.2,185.4c-0.1-4.1-1.3-8-2.3-11.9c-0.6-2.7-1-5.4-0.8-8.2c1,0.1,2,0.2,3.1,0.3
			c1.6,4.8,0.6,9.9,1.9,14.7c0.4,1.4-0.3,3,1.1,4.2c1.1,5.8,1.6,11.7,3.9,17.1c0,3.9,2.6,7.2,3.1,11c-0.1,0.3-0.2,0.5-0.2,0.8
			l0.1-0.1c-1.4,0.3-2.2-0.7-2.9-1.7c-0.7-3.8-1.8-7.5-3-11.1C296.5,195.3,294.6,190.4,293.2,185.4z"/>
		<path fill="#69AFE0" d="M334.1,354.6c-1.6-3.5-4.5-5.8-7-8.6c-1.8-1.9-3.7-3.6-3.9-6.5c3.7,0.2,4.6,4.6,8,5.3c0.7,0.7,1.3,2,2,2.1
			c6.4,0.7,7.2,7.5,12.3,10.1C340.2,360.3,337.2,357.2,334.1,354.6z"/>
		<path fill="#22385D" d="M380.2,335.2c5.9,2,8.3,3.9,12.3,10c-2.3-0.2-2.9-2.7-5.1-3.2c-0.6,4.1,2.9,6.1,4.2,9.2
			c0.7,1.6,4.1,3.1,1.8,4.8c-2.3,1.7-3.4-1.4-4.6-3.1c-3.9-5.3-8.2-10.4-8.8-17.4L380.2,335.2z"/>
		<path fill="#3762A6" d="M28.2,363.5c3.6,1.3,6.2,4.3,9.3,6.4c4.4,2.9,8.9,3.9,13.9,3.7c-2.5,1.4-5.2,0.6-7.8,0.9
			c-1.5,0.1-3,0.2-4.5,0.1c-3.6-0.2-8.1,2.7-10.4,0C26.6,371.9,28.1,367.2,28.2,363.5z"/>
		<path fill="#5888C6" d="M29.1,300.3c4.5,0.1,9.1,0.1,13,2.9c0.3,0.1,0.6,0.2,0.9,0.1c0.1,0.3,0.2,0.6,0.3,0.9
			c-1,0.5-1.1,1.4-1.3,2.4c-0.6,2.6-0.4,5.4-1.9,7.8c-1.9-3.5-4.7-6.3-7.5-9.1c-1.2-1.2-2.5-2.2-4.3-1.9
			C28.2,302.3,27.7,301,29.1,300.3z"/>
		<path fill="#294778" d="M330.9,265.2c0,0.6-0.3,1-0.8,1.2c-1.5-2.2-2.4-3-5.6-0.9c-6.3,4.2-6.2,9.8-5.1,15.7
			c0.8,4.2,0.9,8.5,2.6,12.5c0.4,0.9,0.5,2.3-0.3,3.4c-0.4-0.3-1-0.5-1.1-0.8c-1.9-8.3-3.4-16.7-4.4-25.2c-0.2-1.3,0.1-2.4,2-2.7
			c3.2-0.4,4.7-2.7,4.9-5.9c2.8-1.4,3-3.5,1.9-6.1l0,0c1.7,0.9,2.8,2.1,3.3,4.1C328.9,262.2,329.4,264,330.9,265.2z"/>
		<path fill="#253F68" d="M419,336.5c-4.7-8.7-10.6-16.7-15.6-25.3c-1.5-2.5-2.9-5.1-4.3-7.7c0.3-0.2,0.6-0.4,0.9-0.6
			c2.8,4.4,5.6,8.8,8.4,13.2c3.2,4.8,5.8,10,9.6,14.3c2.7,6,7.3,11,9.7,17.3C423.8,344.9,422.4,339.9,419,336.5z"/>
		<path fill="#2A4B7E" d="M470.3,318.3c5.1-1.5,7.9,1.1,10,5.4c0.9,1.9,2.5,3.5,3.5,5.4c1,1.9,2.7,3.9,0.9,6.3
			c-2,2.7-4.4,3.8-7.6,2.1c-0.1-0.3-0.2-0.6-0.2-0.9c0.9-0.2,2.6,0.2,2.7-0.7c0.3-2.4,2.4-4,2.3-6.4c-0.1-2.6-3.4-5.6-6.4-5.9
			C472.3,323.2,469.6,322.6,470.3,318.3z"/>
		<path fill="#1B2B44" d="M325.2,256.4c1.1,2.6,0.9,4.7-1.9,6.1c-1.1-1.7-2.5-3.2-3.1-5.1c1.1-0.6,1.2-1.8,0.5-2.5
			c-1.7-1.9-2-4.5-3.5-6.5c-1.3-4.7-4-8.9-4-14c2.4,1.3,2.9,3.9,3.9,6.1C319.4,246.1,321.8,251.5,325.2,256.4z"/>
		<path fill="#2F548E" d="M505.4,317.5c10.3-3.5,20-8.1,28.4-15c1.5-1.3,3.2-1.5,5.5-0.6c-6.8,6.1-14.6,9.6-22.2,13.5
			c-3.7,0.7-7.1,2.7-11,3C505.9,318.1,505.6,317.8,505.4,317.5z"/>
		<path fill="#274574" d="M28.2,312.4c0.8,0.5,0.8,1.3,0.9,2c0,3.8,0.2,7.7-0.1,11.5c-0.3,4.2,1.5,6.8,5,8.6c0,0.3,0,0.6,0,0.9
			c-1,2.9-2,5.8-3,8.6c-0.5,1.4-0.7,3.2-2.8,3.5C28.3,335.8,28.2,324.1,28.2,312.4z"/>
		<path fill="#315792" d="M317.3,358.7c-3.2-0.7-6.6,0.2-10.5-0.9c2.9-0.7,5.4-1.1,3.9-4.4c-0.4-1-0.1-1.6,0.9-1.8
			c3.6-0.8,1.9-3.1,1.5-5c4.6,2.7,5.8,7.7,8.1,11.9C319.9,358.5,318.6,358.6,317.3,358.7z"/>
		<path fill="#515153" d="M436.1,450.3c6.1,0.5,12.4-0.6,18.5,1.3c-2.9,1.2-5.7,1.6-8.7,1.8c-21.2,1.2-42.4,3.3-63.6,4.8
			c-19.9,1.5-39.6,4.4-59.5,6.4c-34.7,3.5-69.2,8.4-103.5,14.6c-18.5,3.4-36.9,6.6-55.4,9.8c-2.6,0.5-5.3,0.3-8,0.4
			c-1.8,0-3.3-0.4-4.1-2.4c2-1.4,4.6,0.2,6.5-1.4c24.5-5,49.2-9.1,74-12.9c20.6-3.2,41.4-5.9,62.1-8.6c31.6-4.2,63.3-7.4,95-10.3
			C404.9,452.4,420.5,451.4,436.1,450.3z"/>
		<path fill="#5F5F62" d="M286.3,451.6c-2.7-0.2-4.9-1-5.1-4.2c-0.1-1.7-1.5-2.5-2.1-3.9c2.3,0.1,4.2,1.7,6.4,2.2
			c1.5,0.3,3,1.5,4.5-0.1c7.3,2.2,14.5-0.1,21.7-0.6c7.9-0.5,15.8-1.6,23.8-2.5c-0.9,4.3-4.9,3.4-7.5,4.8
			c-11.5,0.5-22.9,2.4-34.4,3.5C291.2,451,288.7,451.3,286.3,451.6z"/>
		<path fill="#2B4C81" d="M499.1,298.5c0.1,6.2,0.9,12.3,4,18c-0.2,1.3,0.6,3.4-2.2,2.3c-3.1-1.1-5.2-2.8-6.6-6
			c-2.9-7-2.1-14.3-2.1-21.5c0-1.3,0.8-2.2,1.6-3c0.9-0.9,1.8-2.2,3.3-1.5c1.4,0.6,0.8,2,1,3.1C498.6,292.7,497.4,295.8,499.1,298.5
			z"/>
		<path fill="#4471B6" d="M436.1,188.6c4.3,0,8.7-0.1,13-0.1c2.6,0.3,2.1,2,1.7,3.7c-1.4,5.2-3.8,9.8-7,14.1
			c-4.3,5.9-10.2,10.7-14.1,16.6c-4.1,6.2-10.4,7.6-16,10.3c-4.2,2-9.1,2.5-13.3,4.6c-1.6,0.8-3.3,0.9-4.9,0.5
			c-6.1-1.8-12.7-2.4-17.8-6.8c-0.5-0.4-1-0.9-1.8-0.6c-1.1,1.1-0.6,2.4-0.1,3.6c0.5,1.4,1,2.9-0.6,4c-0.3-0.3-0.6-0.7-1-1
			c-2.4-2.3-2-7.3-7.1-6.9c-1,0.1-2.2-1.9-3.4-0.4c-0.9,1.1-0.5,2.5-0.1,3.8c0.6,2,2.5,3.7,1.5,6.1c-0.9-0.1-1.3-0.7-1.6-1.2
			c-0.8-1.4-1.7-3.6-3.4-2.9c-1.9,0.8-2.2,3.1-1.4,5.2c0.2,0.6,0.5,1.2-0.3,1.9c-1.3-0.2-1.4-2.2-3.1-2.4c-0.3,1.4-0.6,3.7-2.4,3.1
			c-3.5-1.2-7.5-2.4-10-4.9c-3.8-3.8-8-6.8-12.5-9.5c-1-4.3-3.2-8.3-3.1-12.9l0.2-0.2c4.5,5.4,10.9,8.4,16.2,12.9
			c2,1.7,5.4,0.7,7.4-2.3c0.8-1.2,1.2-2.7,1.8-4c1.8-0.5,3,1.5,5,1.2c0.2-2.7-3.1-6.5,1.7-8.2c4-1.4,3.4,3.3,5.9,4.3
			c1.1-0.9,0.6-1.9,0.3-3c-0.6-2-1.7-4-1.4-6.2c0.2-1.7-0.8-3.9,1.7-4.7c2.3-0.7,3.4,1.4,4.2,2.7c2.5,4.1,4.9,8.3,6.7,12.7
			c3.6,8.6,11.7,10.3,19.1,12.6c2.9,0.9,6.4-1.3,9.5-2.2c3.5-1,7.1-2.7,10.5-4.1c11.1-4.7,16-14.6,22-23.7c0.1-0.1,0.2-0.3,0.2-0.4
			C440.8,198.2,441.6,193,436.1,188.6z"/>
		<path fill="#62A8DC" d="M387.1,209.5c-3.5-5.3-5.4-11.4-8.3-17c0.4-0.2,0.8-0.4,1.2-0.6c2.2,3.8,4.4,7.6,6.6,11.4
			c0.9,1.5,1.3,3.9,3.6,3.5c2.2-0.4,4.2-2,4.6-4.1c0.5-2.5,1.6-3.2,3.8-3.6c1.8-0.3,3.3-1.6,3.9-3.5c1-3,3.4-3.8,5.9-3
			c4.3,1.4,8.9,0.7,13.2,1.8c6.5,1.5,9.8,6.2,7.4,12.3c-2.1,5.4-4.8,10.9-9.4,14.4c-4.9,3.7-10.8,6.2-17.1,7.4c-0.5,0.1-1,0-1.5,0.2
			c-4.7,1.3-9.2,1.9-12.7-2.6c-4-5-4.7-10.1-1.3-15.6c2.1,2.4,3.1,5.4,4.2,8.3c0.7,2,1.7,4.4,4.1,4.5c3.1,0.2,6.1,0.7,9.3-0.1
			c4-1,7.2-3.3,10.7-5c6.8-3.3,7.2-12,1-16.1c-2-1.3-4.1-4-6.5-1.9c-3.7,3.2-8.6,4.6-11.7,8.5c-1.5,1.9-3.1,4.9-5,5.2
			c-2.6,0.4-3.1-3.3-4.6-5.1c-0.2-0.2-0.5-0.6-0.7-0.6C387.1,208.1,387.3,208.9,387.1,209.5z"/>
		<path fill="#426EB3" d="M300,201.6c-2.4-5.5-2.8-11.4-3.9-17.1c0.3-2.2,0.5-4.5,0.9-7.2c5.4,5.4,12.3,8.8,14.2,17
			c0.8,3.5,2.4,7.4,6,10.5c1.5-6,0.7-11.4-0.4-16.8c-0.3-1.5-0.7-2.8,0.2-4.2c0.9-1.6,1.8-3.6,4-3c1.9,0.5,0.9,2.5,1.1,3.9
			c0.8,5.3,1.6,10.6,2.9,15.9c0.1,1.3,0.1,2.6,0.2,4c0.9,3.9,0.7,8.1,2,11.9l-0.2,0.2c-2,0.1-3.8-0.4-6.3-2.2
			c1.7,6.8,3.1,12.5,4.4,18.2c-2.7,0.2-3.5-2.2-4.9-3.8c-0.8-1-0.9-2.5-2.2-3.2c-1.3-2.5-2.3-5.2-3-7.9c-0.2-6.6-3-12.2-6.8-19.2
			c-1.3,6.2-3.7,4.9-6.3,2.7C301.2,200.3,300.5,200.8,300,201.6z"/>
		<path fill="#85CBE8" d="M387.1,209.5c0.1-0.6-0.1-1.4,0.9-1.4c0.3,0,0.5,0.4,0.7,0.6c1.5,1.8,2,5.5,4.6,5.1c1.9-0.3,3.4-3.3,5-5.2
			c3.1-3.9,8-5.3,11.7-8.5c2.4-2.1,4.5,0.6,6.5,1.9c6.2,4.1,5.8,12.8-1,16.1c-3.5,1.7-6.8,4-10.7,5c-3.2,0.8-6.2,0.3-9.3,0.1
			c-2.5-0.1-3.4-2.5-4.1-4.5c-1.1-2.9-2.1-5.9-4.2-8.3C387.2,210.1,387.1,209.8,387.1,209.5z"/>
		<path fill="#5C93CE" d="M325.2,204.4c-0.1-1.3-0.1-2.6-0.2-4c3.3,2.1,5.3,5.4,7.3,8.5c2.6,4.1,6.1,5,10.5,4.4
			c0.6-0.1,1.7-0.2,1.8-0.5c1.6-5.3,4.9-1.7,7.5-1.4c1.4,1.8,1.6,3.2-1.3,2.2c-2.1-0.8-3-0.8-4,1.6c-1.4,3.4-7,4.2-9.7,1.6
			C333.1,212.9,328.7,209.1,325.2,204.4z"/>
		<path fill="#5886C5" d="M114.1,163.4c0,0.4,0,0.7,0,1.1c-1.6,0-1.7,0.8-0.6,1.6c2.4,1.8,4.8,3.5,7.3,5.1c1.4,0.9,2.9,1.5,3.1,3.8
			c-2.1,0-3.4-1.5-4.8-2.4c-8.5-5.4-17.3-10.4-26.3-15c-3.3-1.7-7.4-1.4-10.2-3.7c-4.8-4-11.2-3.2-16.2-6.2
			c-2.3-1.4-5.2-0.1-7.5,1.3c-1.6,0.9-4.7-0.8-4.9,2c-0.2,2.9,2.9,1.8,4.5,2.6c3.3,1.6,5.1,4.9,6.6,7.8c2.1,4.2,5.2,5.7,9.5,5.9
			c2.5,0.1,4.8,1.1,7.1,2.2c16.8,7.5,31.9,17.7,46.4,28.9c11.9,9.1,21.2,20.2,29.2,32.8c3.3,5.1,3.3,10.6,2.9,16.3
			c-1-0.2-1.8-0.8-2.6-1.5c-15.7-13.6-32.3-26.1-50.1-36.8c-6.9-4.2-13.7-8.6-21.2-11.9c-4.7-3-9.7-5.3-15-7c-2.3-0.1-3.8-1-5.6-2.7
			c-3-2.7-7.4-3.3-11.4-4.3c-0.4-0.3-0.7-0.6-1.1-0.9c-1.1-2.6-3.9-5.1,1.8-6.3c3.7-0.8,4.8-6.4,2.8-9.7c-2.7-4.3-4.6-9.1-9-12.3
			c-2-1.4-3.6-2-5.8-0.6c-2.8,1.8-4.1,0.6-5.5-2.3c-2.1-4.2-2.9-8.8-4.1-13.2c-0.4-1.4-0.8-3.3,0.8-4.6c0.4,1.4,0.7,2.9,1.2,4.3
			c1.7,4.4,3.2,4.6,6.2,0.9c1.2-1.5,2.2-2.4,3.9-0.5c1.6,1.8,3.9,2.9,6.3,2.1c2.5-0.8,4.5,0.1,6.6,0.7c4.8,1.4,9.5,3.3,14.9,5.6
			c-0.9-2.7-2.2-3.4-3.9-4.3c-5-2.5-10.6-3.6-15.2-6.9c0-0.7,0-1.3,0-2c7.6,3,15.5,5.3,22.7,9.5c8.3,4.8,17.2,8.5,25.5,13.4
			C106.2,158.8,110.2,161.1,114.1,163.4z"/>
		<path fill="#2E528B" d="M53.1,182.5c0.4,0.3,0.7,0.6,1.1,0.9c0.7,3.9,3.8,6.9,4,11c-0.1,1.8-0.1,4.2-2.1,4.5
			c-1.9,0.3-2-2.2-2.9-3.5c-1.2-1.7-1.4-4.2-3.9-5.7c0,2.5,1.1,4.1,1.9,5.6c1.4,2.5,3,4.7,4.4,7.2c1.3,2.3,0.4,4.9-2.1,5.7
			c-3,0.9-7.1,0.2-8.2-1.8c-1.8-3.4-5.1-5-7.1-7.9c1.1-4.3,2.8-8.4,3.6-12.9c0.4-2.5,1.5-4.8,4.5-5.3c0.3,0,0.7,0,1,0
			C49.3,180.6,50.9,182.3,53.1,182.5z"/>
		<path fill="#325C9D" d="M38.1,198.4c2,2.9,5.3,4.5,7.1,7.9c1.1,2,5.2,2.7,8.2,1.8c2.5-0.7,3.4-3.3,2.1-5.7c-1.3-2.5-3-4.7-4.4-7.2
			c-0.8-1.5-2-3-1.9-5.6c2.5,1.6,2.7,4,3.9,5.7c0.9,1.3,1,3.8,2.9,3.5c2-0.4,2-2.7,2.1-4.5c1.8,0.7,2.1,2.6,3,4
			c0,2.6,0.6,5.2-2.2,7.1c-1.3,0.9-0.7,2.8-0.7,4.3c0,1.7-0.7,3.1-1.3,4.6c-2,5-6.8,5.2-10.7,6.8c-2.5,1-7.3-3-6.8-5.6
			c0.8-3.8-0.1-4.7-3.7-3.5c-2.1,0.7-3.1-0.4-2.1-2.3C35.5,206.2,36.5,202.2,38.1,198.4z"/>
		<path fill="#305693" d="M86.2,197.4c7.5,3.2,14.3,7.7,21.2,11.9c17.8,10.7,34.3,23.3,50.1,36.8c0.8,0.7,1.5,1.3,2.6,1.5
			c5.7,5.3,11.4,10.5,17.1,15.8c0.1,3.6-0.1,7.2,0.9,10.9c0.5,1.7,0.9,4.1-1,5.6c-2.3,1.7-3.9-0.6-5.2-1.7
			c-6.1-5.3-12.7-10-18.8-15.2c-8.7-7.3-17.1-15-26.3-21.9c-5-3.8-8.8-9-13.6-13c-5.5-4.5-11.1-8.9-16.2-13.8
			c-4.2-4-8.2-8.2-11-13.3C85.2,199.7,84.6,198.5,86.2,197.4z"/>
		<path fill="#A2DBE7" d="M130.2,177.5c6.2,0.6,10.1,5.2,14.8,8.4c1.3,0.9,2.3,2.5,4.1,2.7c1.8,2.8,5.3,3.9,7.1,6.7
			c-0.9,1.6-2.5-0.9-3.6,1c10.8,10.4,20.5,22,29.8,33.9c-1.9,0.6-3.2,0-4.1-1.2c-2.4-3.2-6.2-4.3-9.7-4.3c-5.1,0-8.4-2.3-11.5-5.8
			c-0.5-0.6-1.3-1-2-1.5c-6.4-7-12.4-14.5-17.8-22.3c-0.7-1.1-1.4-2.2-2-3.4c-2-4.1-1.7-5,2.5-7.5c-1-1.9-2.2-3.5-4.6-3.8
			C132.7,178.9,130.9,178.7,130.2,177.5z"/>
		<path fill="#1F3354" d="M384.1,288.6c-1.4-0.2-1.9,0.7-2,1.9c-3.6-6.5-7.1-12.9-10.7-19.4c-0.5-1-0.9-2.5-2.3-2.1
			c-1.5,0.4-1,1.9-0.6,2.9c0.5,1.4,1.4,3.3-0.5,3.8c-1.5,0.4-3.7,0.4-4.8-1.4c-4.3-6.7-12.1-7.7-18.2-11.3c-1.5-0.9-2.5-0.3-2.7,1.5
			c-1.4-2.1-2.4-4.5-3.1-6.9c0.6-1.1,1.6-1.3,2.6-1c5.2,1.9,10.7,3.1,15,6.9c0.7,0.7,1.5,1.6,2.3,1.7c1.6,0.2,4.2,1.5,3.7-2.3
			c-0.2-1.3,0.8-2.5,2.5-2.5c1.6,0.7,2.4,2.2,3.5,3.4c1.4-1.3,3.1-2.2,4-4.1c2.3,1.6,3,3.9,4.5,5.6l-0.1,0.1
			c-2.5,0.2-1.8,1.6-1.4,3.2C377.8,275.6,380.4,282.3,384.1,288.6z"/>
		<path fill="#1F3354" d="M378.1,263.5c0.5-1,1.1-2,1.6-3.1c0.8-1.7,1.4-1.9,3.3-0.9c3.4,1.8,6.7,3.5,7.2,7.9
			c-0.9,0.3-1.6,0.7-2.7-0.1c-3.4-2.7-3.5-2.7-8-1.1c0.1,2.3,2,4,1.7,6.8c-1.4-2.5-2.7-5-4.1-7.5l0.1-0.1
			C378,265,378.1,264.3,378.1,263.5z"/>
		<path fill="#1E1E21" d="M50.1,260.5c-3.3-2.3-6.7-4.5-10-6.8c-0.3-1.1-0.7-2.2-0.9-3.3c-0.1-1.1-0.3-2.4,0.9-3.1
			c1.2-0.7,2.2,0.3,3.1,0.9c2.8,1.7,5.6,3.3,8.3,5.3C54.8,255.9,54.2,258.5,50.1,260.5z"/>
		<path fill="#1E1E21" d="M43.5,241.5c4.1-0.1,7.4,1.6,9.8,4.8c1.2,1.6,1.4,3.6,0.1,5.1c-1.3,1.4-2.6-0.2-3.8-0.9
			c-2.9-1.9-5.9-3.7-8.8-5.6c-0.8-0.5-2.8-0.1-2.2-1.9c0.4-1.2,1.7-1.4,2.9-1.4C42.2,241.5,42.9,241.5,43.5,241.5z"/>
		<path fill="#161A24" d="M224.1,238.4c0.6-4.3-1.8-7.6-3.5-11.3c2.7,1.4,4,4.3,6,6.4c9.3,9.4,18.6,18.8,25.4,30.4
			c0.6,0.9,3.7,2.6-0.5,3.3c-0.7,0.1-0.4,1.5,0.1,2.2c1.4,2,2.6,4.3,4.5,5.9c3.5,3.1,3.1,8.4,7,11.2c2.6,1.9,4.6,4.2,6.5,6.8
			c2.3,3.2,4.2,6.8,7.3,9.3c3.8,5.6,7.8,11,12.1,16.2c-2.2,1.7-4.1,0-5.2-1.2c-3.2-3.8-7.3-6.5-10.9-9.8
			c-5.6-5.1-9.7-11.6-14.8-17.1c-3.6-3.8-6-8.6-9.9-12.2C242.4,263.8,232,251.9,224.1,238.4z"/>
		<path fill="#253F68" d="M224.1,238.4c7.9,13.4,18.3,25.3,24.1,40c-2.2,1.4-2.4-1-3.1-1.9c-4.2-6.3-7.8-12.9-12-19.2
			c-8.7-13.2-17.5-26.5-25.3-40.3c-1.2-2.1-3.3-2.9-5.4-3.8c2.8-2.7-0.3-4.2-1.1-6.2c-1.4-3.4-4.4-5.8-5.4-9.4
			c0.8-0.5,2.3-1.1,1.3-2.1c-2.1-2.2-2.4-5.5-5-7.3c-1.1-0.8-2.6-1.9-1.3-3.7c3.8,4.7,8.9,8.5,10.6,14.8c0.4,1.4,0.9,2.4,0.7,4
			c-0.5,3.9,2.7,6.9,4.8,9.4c5.2,6.1,7.9,13.6,12.5,20C221.2,234.6,221.9,237.1,224.1,238.4z"/>
		<path fill="#2C4E82" d="M191.1,184.4c-1.3,1.8,0.2,2.9,1.3,3.7c2.5,1.9,2.8,5.2,5,7.3c1,1-0.6,1.6-1.3,2.1c-2-3.5-4.6-6.4-7.7-8.9
			c-1-0.8-2.3-1.8-3.6-0.8c-1,0.8-0.6,2.1-0.2,3.3c1,3.3,2.7,6.4,4.2,9.5c0.5,0.9,0.4,1.9,0.3,3.6c-4-5.2-6.4-10.5-9-15.7
			c-0.6-2.2-1.2-4.4-1.7-6.6c-0.3-1.1-0.6-2.4,0.5-3.1c1.2-0.8,2.1,0.1,3.1,0.8c0.8,0.6,1.7,1,2.5,1.4c2.5-2.1-2.8-3.5-0.3-5.5
			C186.4,178.5,188.8,181.5,191.1,184.4z"/>
		<path fill="#2E5189" d="M289.1,318.7c-4.3-5.2-8.3-10.6-12.1-16.2c1-1.4,1.7-0.2,2.2,0.4c2.7,3,5.4,6.1,8,9.2
			c1.3,1.5,1.8,1.1,1.8-0.6c4.3,2.4,6.4,6.9,9.8,10.3c5.2,5.2,9.6,11.1,13.5,17.9c-3.2-1.7-7.3-5.4-10.1-9.2
			c-1.9-2.6-4.3-4.6-6.4-6.9c-0.6-0.6-1.3-1.1-1.9,0C292.3,322,290.7,320.4,289.1,318.7z"/>
		<path fill="#87C9E7" d="M201.3,169.2c3.9,5,6.7,10.7,10.1,16c5.5,8.5,10.4,17.4,16.9,25.2c2.6,4.3,1.4,9.9,4.5,14
			c0.1,0.1-0.5,0.7-0.8,1c-9.8-12.1-19.5-24.2-29.3-36.3c-3.2-4-6.5-8-9.8-11.9c-1.4-1.7-2.8-3.3-2.9-5.6c2.8,1.6,4.2,4.5,6.2,6.9
			c1.1,1.2,1.8,2.7,4.1,3.7c-2.3-6.8-2.9-13.6-6-19.9c2.6,1.5,3.2,4.4,5,6.4C199.8,169.3,200.1,170.7,201.3,169.2z"/>
		<path fill="#243C63" d="M265.3,266.4c-1.7,0.3-2.5-1-3.6-1.9c-1.4-1.2-1.4,0.2-1.6,1c-9.5-8-15.8-18.7-23.7-28.2
			c1.9,0.1,2.5,1.9,3.9,2.4c0.9,0.3,0.7-0.7,0.8-1.3c4.1,3.2,6.7,7.8,11,11.8c-1.2-4.4-4.4-7-4.9-10.8c4.2,3.8,7.2,8.5,10.6,12.9
			c2.5,3.1,4.7,6.8,7,10.1C265.6,263.8,266.2,264.9,265.3,266.4z"/>
		<path fill="#5483C0" d="M247.1,239.4c0.5,3.8,3.7,6.5,4.9,10.8c-4.3-4-6.9-8.6-11-11.8c-3.6-4-6-8.7-9.1-13c0.3-0.4,0.9-1,0.8-1
			c-3.2-4.1-1.9-9.7-4.5-14c0.3,0,0.6,0,0.9,0c3.7,6,7.4,12,11.1,18c0.8,1.5,1.3,3.2,2.9,4.1C244.4,234.8,245.8,237.1,247.1,239.4z"
			/>
		<path fill="#1E304E" d="M289,311.5c-0.1,1.7-0.5,2.2-1.8,0.6c-2.6-3.1-5.3-6.2-8-9.2c-0.5-0.6-1.2-1.9-2.2-0.4
			c-3.2-2.5-5.1-6.1-7.3-9.3c-1.9-2.6-3.9-4.9-6.5-6.8c-0.2-1.4-0.4-2.8-0.7-4.7c3,1.7,3.6,5.5,6.7,6.5c0-2.1,0-4,0-5.8
			c1.4,0.6,1.8,1.8,2,3.1c0.6,5,4.6,7.9,7.2,11.6C281.7,302.1,285.4,306.8,289,311.5z"/>
		<path fill="#406CB0" d="M156.2,195.3c-1.9-2.8-5.3-3.9-7.1-6.7c-5.8-8.3-10-17.5-14.5-26.5c-1.2-2.4,0.3-4.5,0.6-6.7
			c2.8,2.7,4.5,6,6,9.5c5.5,12.9,12.6,24.7,22.6,34.6c2.4,2.4,6.2,3.5,7.2,7.2c-3.8-2.1-6.8-5.2-10-8
			C159.5,197.5,158,196.2,156.2,195.3z"/>
		<path fill="#16171D" d="M289,272.3c-4.2-3.7-7.1-8.5-10.7-12.8c-2.9-3.5-5.5-7.3-8.2-10.9c0-3.3-2.7-5.5-3.9-9.1
			c4.6,3,6.3,7.8,10.8,11c-0.9-3.9-3.9-5.7-5.1-8.6c2.2-1.3,4,0,6.9,1.6c-4-7.5-7.5-14-11.1-20.7c2.3-0.8,3.6-0.2,4.6,1.7
			c1.3,2.3,2.9,4.5,4.4,6.6c1.3,1.8,2.7,2.6,5.1,1.6c1.6-0.7,3.4-1.3,5.3-1.4c3-0.1,5.4,0.4,7.6,2.8c2.2,2.6,4.7,4.7,8.3,5.9
			c2.9,0.9,5,4.1,7.4,6.3c2.3,0.4,1.6,1.9,1.3,3.4c-1.4,6.9-5.9,11.5-11.3,15.6C296.7,268.1,292.3,269.3,289,272.3z"/>
		<path fill="#2E528B" d="M252.2,197.4c-7.9-11-16.2-21.6-19.4-35.4c1.1,1.4,2.2,2.8,3.2,4.3c1,1.5,2.1,3,2.9,4.6
			c3.6,7.5,10.8,12.5,13.8,20.5c1.9-1.5,0.6-2.5,0.2-3.3c-2.5-5.6-2.6-5.6,3.1-8.6c3.5,1.9,6.4,4.5,8.6,7.9c3,4.6,6.3,8.8,10.3,12.5
			c0.7,0.7,1.3,1.5,1,2.6c-0.4-0.2-1-0.8-1.3-0.7c-2.5,1-3.7,3.6-6.1,4.9c-2.9,1.5-2.8,2.2-1.1,7.8c-4.4-4.9-7.2-10.1-10.4-15
			c-0.9-1.4-1.8-2.8-3.2-3.7C252.5,195.1,252.4,196.5,252.2,197.4z"/>
		<path fill="#20375B" d="M243.1,190.5c3.8,6.1,7.4,12.3,12,17.9c3.1,3.8,5.6,8.1,9.4,11.3c1.1,3.6-0.6,7.8,2.4,11.2
			c-3.3-1.9-5.2-4.9-6.9-7.9c-2.3-4-4.9-6.5-9.8-4.4c-0.2-2-2.1-2.9-2.9-4.4c-0.6-1-1.4-1.9-2.5-0.1c-1.4,2.3-2.8,1-3.9-0.4
			c-1.1-1.5-2.2-3.1-1.6-5c1.5-5.1,0.5-10-1-14.9c-0.5-1.5-1.4-3,0.5-4.4C241,187.6,241.7,190.2,243.1,190.5z"/>
		<path fill="#335D9D" d="M313.2,234.5c0,5,2.7,9.3,4,14c-2.3-1.1-2.8-1.6-4.3-5.3c-1.1,0.4-1.2,2-2.5,2.1c-0.2-0.5-0.3-1.1-0.5-1.6
			c2.6-1.2,0.6-2.9,0.4-4.4c-0.2-4.5-1.7-8.6-3.4-12.7c-1.8-4.2-4.6-8.3-3.8-13.3l-0.1,0.1c3.3,0.2,4.3,2.8,5.1,5.3
			C309.9,223.9,311.5,229.2,313.2,234.5z"/>
		<path fill="#2D4F85" d="M378.1,263.5c0,0.8,0,1.5-0.9,1.8c-1.5-1.7-2.2-4-4.5-5.6c-0.9,1.9-2.6,2.7-4,4.1
			c-1.1-1.2-1.9-2.7-3.5-3.4c-0.4-0.9-0.9-1.4-2.2-1.5c-4.6-0.3-8.7-2.1-12.5-4.6c-4.7-3.1-10-5.3-14.4-9.1c-1.3-1.1-4.4,0-6-1.9
			c-2.8-3.1-2.3-7.7-4.8-11c-1.4-5.7-2.8-11.4-4.4-18.2c2.5,1.9,4.4,2.4,6.3,2.2c0,4.6,2.1,8.6,3.1,12.9c0.2,4.5,2.1,7.6,6,10.2
			c4.6,3,10.2,4.8,13.2,10.1c0.7,1.3,3.5,1.9,5.4,2.1c1.4,0.2,1.4-2,2.5-2.9c0.5-0.4,0.9-1,2-0.9c2,3.2,4.1,6.6,6.3,10.2
			c0.7-1.5-0.1-2.1-0.4-2.8c-0.9-2.5-2.3-4.8-1.9-7.6c0.2-1.1,0.5-2.5,1.7-2.8c1.5-0.4,1.8,1,2.4,2c1,1.7,1.5,3.7,3.3,4.8
			c-0.1-3.2-1.9-5.7-3.1-8.3c-0.9-2.1-0.6-4.3,1.2-5.4c1.8-1,2,1.6,3.1,2.5c0.4,0.3,0.8,0.5,1.2,0.7c1.8-0.9-2.4-3.3,1.1-3.7
			c0.3,0.3,0.6,0.7,1,1c0.7,3.8,4,6.3,5.1,9.9c-2.1-0.3-1,1.4-1.3,2.2c-0.4,0.3-0.6,0.2-0.9-0.1c-1.1-1-1.3-3.8-3.4-2.6
			c-1.8,1.1-3,3.2-1.7,5.5C374.6,256.9,375.6,260.6,378.1,263.5z"/>
		<path fill="#2D4F85" d="M459.1,186.5c2.2-1.3,4.7-1.5,7.1-1.9c1.2-0.2,2.8-0.7,3.6,0.8c0.7,1.4-0.3,2.6-1,3.6
			c-2.7,3.9-5.5,7.8-8.4,11.6c-5.1,6.7-10.6,13.1-16.8,18.9c-2.5,2.4-5.6,4.1-7.9,6.8c-1.8,2-3.6,3.8-4.7,6.4
			c-1.3,3-3.5,4.6-7.1,3.9c-0.8-0.2-1.9-0.3-2.4,0c-4.3,2.9-9.7,2.7-14.2,4.9c-1.1,0.5-2.2,1.1-2.6,2.2c-1.6,3.6-3.9,2.9-6.4,1.3
			c-2.7-1.6-5.5-2.1-8.6-0.9c-1,0.4-2.5,0.6-3.4,0.2c-2.7-1.3-4,0.1-5.1,2.2c-1.4-1.1-1.2-3-2.1-4.4c-0.8-1.1-1.3-2.4-0.2-3.7
			c1.1-1.2,2.3-0.9,3.6-0.3c4.9,2,10.5,1.1,15.5,3.3c1.1,0.5,3,0.6,3.8-0.4c4.8-5.4,13.1-3.1,18-8.2c0.3-0.4,1.3-0.4,1.9-0.2
			c3.4,1,5.5-1.3,7-3.5c3.7-5.6,8.4-10.2,13.2-14.8c4.9-4.7,9.5-9.8,12.6-15.9C456.5,194.6,459.5,191.2,459.1,186.5z"/>
		<path fill="#335E9F" d="M459.1,186.5c0.4,4.7-2.6,8.1-4.6,11.9c-3.2,6.1-7.7,11.1-12.6,15.9c-4.8,4.6-9.5,9.2-13.2,14.8
			c-1.5,2.2-3.6,4.4-7,3.5c-0.6-0.2-1.6-0.1-1.9,0.2c-4.9,5.2-13.2,2.8-18,8.2c-0.9,1-2.7,0.9-3.8,0.4c-4.9-2.2-10.5-1.3-15.5-3.3
			c-1.3-0.5-2.5-0.9-3.6,0.3c-1.1,1.2-0.6,2.5,0.2,3.7c0.9,1.4,0.7,3.3,2.1,4.4c-0.5,0.6,1.2,2.3-1,2c-1.1-3.6-4.3-6.1-5.1-9.9
			c1.6-1.1,1.1-2.6,0.6-4c-0.5-1.2-1-2.5,0.1-3.6c0.8-0.3,1.4,0.1,1.8,0.6c5.1,4.4,11.7,5,17.8,6.8c1.6,0.5,3.3,0.4,4.9-0.5
			c4.2-2.2,9.2-2.6,13.3-4.6c5.6-2.7,11.9-4,16-10.3c3.9-5.9,9.8-10.7,14.1-16.6c3.2-4.3,5.6-9,7-14.1c0.5-1.7,0.9-3.4-1.7-3.7
			c0-0.3,0-0.6,0.1-0.9C452.5,187.7,455.8,186.9,459.1,186.5z"/>
		<path fill="#416FB5" d="M293.2,185.4c1.4,5,3.4,9.8,3.9,15.1c-1.4-1-1.7-3.2-4.1-3.1c-4.5,0.3-7.7-2.3-10.7-5.2
			c-0.3-0.3-0.6-0.3-1.2,0.6c-0.3,0.4,1.6,1.2,0.4,2.1c-2.2-1-2.7-3.6-4.5-5.1c-2.7-2.3-2.9-0.6-2.9,1.6
			c-6.1-7.6-12.9-14.6-16.5-23.8c-0.5-1.3-2.1-2.3,0.2-3.5c1.8-0.9,3.4-0.9,4.2,1c2.7,6.2,8.6,8.4,13.8,11.5c1.8,1.1,3.6,2.3,6,1
			c1.9-1,2.9,1,4.2,2C288.3,181.6,289.7,184.9,293.2,185.4z"/>
		<path fill="#305590" d="M274.1,191.5c0-2.2,0.2-3.9,2.9-1.6c1.8,1.5,2.2,4.1,4.5,5.1c1.2-0.9-0.7-1.7-0.4-2.1
			c0.6-0.9,0.9-0.9,1.2-0.6c3,2.9,6.2,5.5,10.7,5.2c2.4-0.2,2.7,2,4.1,3.1c1.3,3.6,2.3,7.3,3,11.1c-2-1.3-4-2.6-6.1-4
			c-0.8,2.3,2.1,3.3,1.8,5.6c-2.4-1.7-4-3.5-5.3-5.7c-1.1-1.8-2.7-2.4-4.6-1C281.5,201.9,278.1,196.5,274.1,191.5z"/>
		<path fill="#243D66" d="M286,206.5c1.9-1.3,3.5-0.8,4.6,1c1.3,2.2,2.9,4,5.3,5.7c0.3-2.3-2.6-3.3-1.8-5.6c2.1,1.3,4.1,2.7,6.1,4
			c0.7,1,1.5,1.9,2.9,1.7c-0.8,5,2,9,3.8,13.3c1.7,4.1,3.3,8.2,3.4,12.7c-7.8-10.3-15.7-20.6-23.5-30.9
			C286.4,207.8,286.2,207.1,286,206.5z"/>
		<path fill="#22395E" d="M240.2,228.4c-3.7-6-7.4-12-11.1-18c-4.6-9.1-9.9-17.9-15.2-26.7c-0.4-0.7-0.8-1.4-0.7-2.3
			c0.6,0,1.3,0,1.9,0c1.2,2,2.3,4,3.6,5.9c0.8,1.2,1.8,2.6,3.3,0.4c1.2-1.8,1.9,0.1,2.5,0.8c2.4,2.8,3.7,6.2,5.2,9.5
			c3.3,6.9,5.8,14.1,10.7,20.2C243.2,221.7,243.1,225.1,240.2,228.4z"/>
		<path fill="#172031" d="M342.2,264.4c0.1-1.8,1.2-2.4,2.7-1.5c6.1,3.7,14,4.6,18.2,11.3c1.2,1.8,3.3,1.9,4.8,1.4
			c1.9-0.5,1-2.3,0.5-3.8c-0.3-1-0.9-2.5,0.6-2.9c1.4-0.4,1.8,1.2,2.3,2.1c3.6,6.5,7.1,12.9,10.7,19.4c3,5.7,6.8,10.9,8.9,17.1
			c-3.9,2.4-5,2.3-8.3-1.2c-1.4-1.5-2.6-2.1-4.9-2.1c-4.7,0.2-8.7-2.8-12.7-4.8c-2.2-1.1-4.8-2-6.6-4.1c-0.9-1.6-1.8-3.2-2.7-4.7
			C351.1,282.1,345.7,273.7,342.2,264.4z"/>
		<path fill="#2D4F85" d="M342.2,264.4c3.5,9.3,8.9,17.7,13.7,26.3c0.9,1.6,1.8,3.2,2.7,4.7c-3.7-1.6-4.6-5.5-6.4-8.5
			c-6.9-11.7-13.6-23.4-17.6-36.5c-0.1-0.5-0.4-0.9,0.2-1.5c2.8,2.1,2,6.1,4.3,8.5C339.8,260,340.7,262.3,342.2,264.4z"/>
		<path fill="#558ABF" d="M44.9,293.6c-3.7-3.3-8-5.7-12.3-8c-3.4-1.8-4.7-3.7-3.2-7.9c4.9,2.6,9.8,5.2,14.6,7.8
			c12.9,6.8,22.7,17.3,33.1,27.1c2.3,3.9,6.4,6.5,8.2,10.8c-0.5,0.1-0.9,0.2-1.4,0.3c-0.7-0.7-1.6-1.2-2.2-2
			C73,309.3,61.6,299.8,49.5,291c-1.5-1.1-3-2.1-5.4-1.7c1,1.5,2,2.3,3.1,3.1c10.4,7.7,20.2,16.2,29.1,25.6c1.2,1.3,2.9,2.3,3.1,4.4
			c-2-0.4-2.8-2.2-4.1-3.4C65.9,309.6,56.2,300.6,44.9,293.6z"/>
		<path fill="#1E1E21" d="M48.1,283.4c-4.7,1.5-8-1.9-11.7-3.6c-2.3-1.1-3.4-8-1.7-10c1.3-1.7,3.1-2.9,5.6-1.8
			c1.9,0.9,3.6,2.3,5.9,2.4c3.6,1.8,4.4,4.5,3,8.2C48.7,280.1,47.8,281.7,48.1,283.4z"/>
		<path fill="#4874B9" d="M41,178.5c-3.4-0.3-6.4-2-9.8-2.1c-0.7-1.4-1.4-2.8,0.5-3.7c2.3-1.1,3.6-3.3,5.9-4.9
			c2.6,3.7,5.6,7.1,6.6,11.6C43.1,179.1,42,178.8,41,178.5z"/>
		<path fill="#436EB2" d="M54.1,135.5c4.6,3.2,10.2,4.4,15.2,6.9c1.7,0.8,3,1.6,3.9,4.3c-5.5-2.3-10.1-4.2-14.9-5.6
			c-2.2-0.6-4.2-1.6-6.6-0.7c-2.3,0.8-4.6-0.4-6.3-2.1c-1.7-1.9-2.7-1-3.9,0.5c-3,3.7-4.5,3.4-6.2-0.9c-0.5-1.4-0.8-2.8-1.2-4.3
			c0.4-4.4,0.4-4.3,4.1-3C43.5,132.2,48.8,133.8,54.1,135.5z"/>
		<path fill="#294778" d="M313.2,234.5c-1.7-5.3-3.3-10.6-5.1-15.8c-0.8-2.5-1.8-5.1-5.1-5.3c0-0.3,0.1-0.5,0.2-0.8
			c2.6-1.3,4.1-0.6,5.2,2.2c0.7,1.8,0.6,4.3,3,5.4c1-0.9,0.7-1.8,0.3-2.7c-0.4-0.9-0.9-2.1,0.3-2.5c1.2-0.5,1.6,0.7,2.2,1.5
			c0.3,0.4,0.6,0.7,1,1.1c0.7,2.8,1.7,5.4,3,7.9c0,4,3.4,7,3,11.1c-1.3-0.6-1.1-3-3.2-2.7c-1.3,1.3,0,2.4,0.3,3.6
			c1.8,6.6,5.3,12.5,7,19.1l0,0c-3.3-4.9-5.8-10.4-8.1-15.8C316.1,238.4,315.6,235.8,313.2,234.5z"/>
		<path fill="#1C2D48" d="M325.1,256.5c-1.6-6.6-5.2-12.5-7-19.1c-0.3-1.2-1.6-2.3-0.3-3.6c2.1-0.3,1.8,2.1,3.2,2.7
			c2.1,6,5.5,11.5,8,17.3c1.6,3.8,2.6,7.4,1.9,11.4c-1.5-1.2-2.1-3-2.5-4.7C327.9,258.6,326.8,257.3,325.1,256.5z"/>
		<path fill="#294573" d="M44.9,293.6c11.3,7.1,21,16,30.3,25.4c1.2,1.3,2.1,3,4.1,3.4c3.5,4.3,7.1,8.7,10.6,13
			c0.2,0.6,0.3,1.3,0.5,1.9c-2.1-0.8-3.2-2.7-4.5-4.4c-2.5-3.1-5.1-6-8.8-7.7c-3.1-1.5-5.3-1.1-6.9,2.1c-2.3-1-2.8-3.9-5.2-4.7
			c-6.4-7-13.4-13.5-21.6-18.5c-0.1-0.3-0.2-0.6-0.3-0.9C43.9,300.1,45.8,297.1,44.9,293.6z"/>
		<path fill="#5888C6" d="M65,322.8c2.4,0.8,3,3.7,5.2,4.7c1,1.3,2,2.5,3,3.8c-0.3,0.8-0.7,1.7-1.6,1.6c-9.4-0.9-19-0.8-27.9-4.7
			c-5.8-2.5-6.3-3.2-4.7-9.7c0.3-1.1-0.1-2.4,1.2-3.1c1,0,2,0.4,2.7,0.9c5.4,3.9,11.7,5.5,17.9,7.5C62.6,324.4,64,324.6,65,322.8z"
			/>
		<path fill="#61A8DC" d="M65,322.8c-1,1.8-2.3,1.7-4.1,1.1c-6.2-1.9-12.5-3.6-17.9-7.5c-0.8-0.6-1.7-1-2.7-0.9c0-0.3,0-0.7,0-1
			c1.6-2.4,1.4-5.2,1.9-7.8c0.2-1,0.3-1.9,1.3-2.4C51.6,309.3,58.5,315.7,65,322.8z"/>
		<path fill="#3B67AC" d="M34.1,334.5c-3.5-1.8-5.3-4.4-5-8.6c0.3-3.8,0.1-7.6,0.1-11.5c5.5,1.1,9.1,6,7.8,11.1
			C36.2,328.6,35.1,331.6,34.1,334.5z"/>
		<path fill="#7FC7E7" d="M89.9,335.5c-3.5-4.3-7.1-8.7-10.6-13c-0.2-2.1-1.8-3.1-3.1-4.4c-8.9-9.4-18.7-17.9-29.1-25.6
			c-1.1-0.8-2.1-1.6-3.1-3.1c2.4-0.4,3.9,0.6,5.4,1.7c12.1,8.8,23.5,18.3,32.4,30.5c0.6,0.8,1.4,1.3,2.2,2
			c3.4,4.9,7.6,9.1,10.7,14.5C92.3,338.2,91.9,335.5,89.9,335.5z"/>
		<path fill="#335D9D" d="M315.1,217.5c-0.3-0.4-0.7-0.7-1-1.1c-0.5-0.8-1-2-2.2-1.5c-1.2,0.5-0.7,1.6-0.3,2.5
			c0.4,0.9,0.7,1.8-0.3,2.7c-2.4-1.1-2.3-3.6-3-5.4c-1.1-2.8-2.6-3.5-5.2-2.2c-0.5-3.8-3.1-7-3.1-11c0.5-0.8,1.1-1.3,2-0.6
			c2.6,2.2,5,3.5,6.3-2.7C312.1,205.3,314.9,210.9,315.1,217.5z"/>
		<path fill="#335E9F" d="M374.1,237.5c-3.5,0.4,0.7,2.8-1.1,3.7c-0.3-0.2-0.8-0.4-1.2-0.7c-1-0.9-1.3-3.5-3.1-2.5
			c-1.8,1-2.1,3.2-1.2,5.4c1.2,2.7,2.9,5.1,3.1,8.3c-1.8-1.1-2.3-3.2-3.3-4.8c-0.6-1-0.9-2.4-2.4-2c-1.2,0.4-1.5,1.7-1.7,2.8
			c-0.4,2.8,0.9,5.2,1.9,7.6c0.3,0.7,1.1,1.3,0.4,2.8c-2.3-3.7-4.4-7-6.3-10.2c-1.1,0-1.5,0.5-2,0.9c-1,0.8-1,3-2.5,2.9
			c-1.9-0.2-4.6-0.8-5.4-2.1c-3-5.4-8.6-7.1-13.2-10.1c-3.8-2.5-5.8-5.7-6-10.2c4.5,2.7,8.8,5.7,12.5,9.5c2.5,2.5,6.5,3.7,10,4.9
			c1.7,0.6,2.1-1.7,2.4-3.1c1.8,0.1,1.8,2.1,3.1,2.4c0.8-0.7,0.6-1.3,0.3-1.9c-0.8-2.1-0.5-4.4,1.4-5.2c1.7-0.7,2.6,1.5,3.4,2.9
			c0.3,0.6,0.7,1.1,1.6,1.2c0.9-2.4-0.9-4.1-1.5-6.1c-0.4-1.3-0.8-2.8,0.1-3.8c1.2-1.5,2.4,0.5,3.4,0.4
			C372.1,230.2,371.7,235.2,374.1,237.5z"/>
	</g>
</g>
</svg>
